<?xml version="1.0" encoding="iso-8859-1"?>
<!-- Generator: Adobe Illustrator 17.0.0, SVG Export Plug-In . SVG Version: 6.00 Build 0)  -->
<!DOCTYPE svg PUBLIC "-//W3C//DTD SVG 1.1//EN" "http://www.w3.org/Graphics/SVG/1.1/DTD/svg11.dtd">
<svg version="1.1" id="Capa_1" xmlns="http://www.w3.org/2000/svg" xmlns:xlink="http://www.w3.org/1999/xlink" x="0px" y="0px"
	 width="64px" height="64px" viewBox="0 0 64 64" style="enable-background:new 0 0 64 64;" xml:space="preserve">
<g>
	<path d="M4.701,59.286l1.787-0.898l-1.801-3.58l2.509-4.989h3.786h0.966l2.529,5.029l-1.781,3.539l1.787,0.899l0.009-0.019
		l0.037,0.019l1.662-3.305h4.792l1.662,3.305l1.787-0.898l-1.757-3.493l2.621-5.211h4.708l2.621,5.211l-1.757,3.494l1.787,0.898
		l1.662-3.305h4.792l1.662,3.305l1.787-0.898l-1.757-3.493l2.553-5.076h1.006h2.756h1.006l2.552,5.075l-2.486,4.943h2.294
		l0.277-0.551l0,0l0.831-1.653l0.831-1.653h4.736l1.662,3.305l1.787-0.898l-1.757-3.493l3.056-6.075l-3.047-6.057l3.047-6.057
		l-3.013-5.989l3.013-5.989l-3.013-5.989l3.013-5.989L58.86,6.693l1.173-2.33l-1.787-0.899l-1.087,2.161h-4.792l-1.086-2.161
		l-0.013,0.007l-0.003-0.007l-1.787,0.899l1.139,2.262l-2.51,4.989h-4.792l-2.488-4.949l1.158-2.302l0,0l0,0l0.688-1.449h-2.239
		l-0.277,0.551l0,0l-0.767,1.526L39.07,5.625h-1.006h-3.746l-1.087-2.161l-0.029,0.015l-0.007-0.014l-1.787,0.899l1.139,2.262
		l-2.51,4.989h-4.791l-2.51-4.989l1.139-2.262l-1.787-0.899l-0.003,0.006l-0.013-0.007l-1.087,2.161h-3.786h-0.964l-1.087-2.161
		l-0.318-0.55h-2.239l0.73,1.45l0,0l0.25,0.496l0.889,1.766l-0.836,1.663l-1.673,3.326h-1.006H7.196L4.688,6.625l1.138-2.262
		L4.038,3.464L2.449,6.625l3.046,6.057l-3.046,6.057l3.012,5.989l-3.012,5.989l3.012,5.989l-3.012,5.989l3.046,6.057l-3.046,6.057
		L4.701,59.286z M20.984,53.807h-3.785h-0.966l-2.529-5.029l2.488-4.949h4.792l2.51,4.989L20.984,53.807z M40.846,30.716l2.51-4.989
		h1.006h3.745l2.51,4.989l-2.51,4.989H44.32h-0.965l-0.599-1.191L40.846,30.716z M41.6,36.746l-2.489,4.948h-4.792l-2.509-4.989
		l2.509-4.989h3.746h1.006L41.6,36.746z M40.743,26.39l-1.673,3.326h-1.006h-3.746l-2.509-4.989l2.509-4.989h3.746h1.006
		l1.673,3.326l0.836,1.663L40.743,26.39z M32.547,30.716l-2.51,4.989h-4.791l-2.51-4.989l2.51-4.989h4.791L32.547,30.716z
		 M20.984,29.716h-3.786h-0.965l-0.599-1.191l-1.911-3.798l2.51-4.989h1.006h3.745l2.51,4.989L20.984,29.716z M16.234,31.716h1.006
		h3.745l2.51,4.989l-2.51,4.989h-3.786h-0.965l-0.599-1.191l-1.911-3.798L16.234,31.716z M25.246,47.683l-2.51-4.989l2.51-4.989
		h4.791l2.51,4.989l-2.51,4.989H25.246z M39.11,53.807h-4.792l-2.509-4.989l2.509-4.989h3.786h0.966l2.529,5.029L39.11,53.807z
		 M48.106,47.818h-0.989H44.32h-0.965l-2.529-5.029l2.488-4.949h4.792l2.51,4.989L48.106,47.818z M59.669,48.818l-2.51,4.989H52.51
		l-2.58-5.13l2.438-4.847h4.792L59.669,48.818z M59.669,36.705l-2.51,4.989h-4.792l-2.509-4.989l2.509-4.989h4.792L59.669,36.705z
		 M59.669,24.728l-2.51,4.989h-4.792l-2.509-4.989l2.509-4.989h4.792L59.669,24.728z M52.367,7.761h4.792l2.51,4.989l-2.51,4.989
		h-4.792l-2.509-4.989L52.367,7.761z M43.356,13.75h1.006h3.745l2.51,4.989l-2.51,4.989H44.32h-0.965l-0.599-1.191l-1.911-3.798
		L43.356,13.75z M34.318,7.761h4.792l2.489,4.948l-2.529,5.029h-1.006h-3.746L31.81,12.75L34.318,7.761z M30.037,13.75l2.51,4.989
		l-2.51,4.989h-4.791l-2.51-4.989l2.51-4.989H30.037z M15.328,9.425l0.905-1.8h1.007h3.744l2.51,4.989l-2.51,4.988h-4.792
		l-2.488-4.948L15.328,9.425z M4.688,18.739l2.509-4.989h4.792l2.489,4.948l-2.529,5.029h-1.006H7.196L4.688,18.739z M4.688,30.716
		l2.509-4.989h3.746h1.006l1.673,3.326l0.836,1.663l-0.836,1.663l-1.673,3.326h-1.006H7.196L4.688,30.716z M4.688,42.694
		l2.509-4.989h3.746h1.006l2.529,5.029l-2.489,4.948H7.196L4.688,42.694z"/>
</g>
</svg>
