<?xml version="1.0" encoding="iso-8859-1"?>
<!-- Generator: Adobe Illustrator 17.0.0, SVG Export Plug-In . SVG Version: 6.00 Build 0)  -->
<!DOCTYPE svg PUBLIC "-//W3C//DTD SVG 1.1//EN" "http://www.w3.org/Graphics/SVG/1.1/DTD/svg11.dtd">
<svg version="1.1" id="Capa_1" xmlns="http://www.w3.org/2000/svg" xmlns:xlink="http://www.w3.org/1999/xlink" x="0px" y="0px"
	 width="64px" height="64px" viewBox="0 0 64 64" style="enable-background:new 0 0 64 64;" xml:space="preserve">
<g>
	<path d="M48.866,23.088l-1.334-1.688c-0.158-0.165-3.927-4.037-8.996-4.037c-0.946,0-1.886,0.139-2.794,0.412
		c-5.64,1.698-7.963,5.978-8.462,7.038l-2.548,0.425L6.464,38.069l-0.043,0.155c-0.405,1.467-0.293,2.724,0.333,3.734
		c0.96,1.549,2.77,1.917,2.847,1.932l0.169,0.033l19.743-11.926l3.102-0.129l0.113-0.251c2.861-6.3,7.727-7.621,11.304-7.621
		c2.903,0,5.155,0.86,5.177,0.869l1.531,0.594l-0.002-0.002c0.039,0,5.523,0.085,5.895,1.493c0.266,1.008-1.528,2.622-2.582,3.468
		c-2.283-4.975-8.445-7.297-14.158-5.194c-3.553,1.308-5.707,4.047-6.79,7.186l-3.469-0.016L10.275,44.288
		c-0.042,0.006-1.582,0.185-3.017-1.177c0,0,0.556,4.725,4.696,4.183l17.53-11.039l3.903,4.279
		c2.538,4.447,8.358,6.427,13.772,4.435c5.354-1.971,8.489-7.155,7.639-12.136c1.304-1.164,5.05-4.775,3.998-7.005
		C57.528,23.144,48.871,23.088,48.866,23.088z M9.614,42.973c-0.405-0.114-1.489-0.501-2.099-1.484
		c-0.469-0.758-0.559-1.723-0.271-2.872l17.338-12.181l3.902,5.138L9.614,42.973z M32.03,30.998l-2.771,0.114l-3.857-5.079
		l2.51-0.418l0.094-0.232c0.009-0.022,0.412-0.984,1.362-2.208l4.443,4.863C33.166,28.883,32.566,29.86,32.03,30.998z
		 M44.032,23.102c-2.939,0-6.684,0.829-9.651,4.234l-4.435-4.854c1.263-1.416,3.212-2.994,6.054-3.851
		c0.825-0.248,1.678-0.374,2.536-0.374c4.68,0,8.313,3.725,8.322,3.729l1.281,1.623C47.147,23.363,45.701,23.102,44.032,23.102z"/>
</g>
</svg>
