<?xml version="1.0" encoding="iso-8859-1"?>
<!-- Generator: Adobe Illustrator 17.0.0, SVG Export Plug-In . SVG Version: 6.00 Build 0)  -->
<!DOCTYPE svg PUBLIC "-//W3C//DTD SVG 1.1//EN" "http://www.w3.org/Graphics/SVG/1.1/DTD/svg11.dtd">
<svg version="1.1" id="Capa_1" xmlns="http://www.w3.org/2000/svg" xmlns:xlink="http://www.w3.org/1999/xlink" x="0px" y="0px"
	 width="64px" height="64px" viewBox="0 0 64 64" style="enable-background:new 0 0 64 64;" xml:space="preserve">
<g>
	<path d="M2.275,12.163c0.075,0,0.151-0.011,0.227-0.033l0.915-0.272l9.931,33.398l-0.153,0.045
		c-0.842,0.25-1.281,1.273-0.981,2.283l4.081,13.725c0.255,0.858,0.962,1.432,1.685,1.432c0.128,0,0.257-0.018,0.384-0.056
		l4.575-1.36c0.842-0.25,1.281-1.273,0.981-2.284l-4.081-13.725c-0.255-0.858-0.962-1.432-1.685-1.432
		c-0.128,0-0.257,0.018-0.384,0.056l-0.152,0.045l-0.508-1.709l0.479-0.143l0.479-0.142l4.964-1.476
		c-0.035,0.157-0.059,0.318-0.059,0.488v11.344l1.447,4.867c0.048,0.005,0.095,0.017,0.144,0.017h4.773
		c0.879,0,1.591-0.855,1.591-1.909V41.003c0-1.054-0.712-1.909-1.591-1.909h-0.159v-0.406l5.59-1.662h25.752V4.251H39.501
		l-0.772-2.596l-8.103,2.409c0.18-0.146,0.302-0.359,0.302-0.609c0-0.439-0.356-0.796-0.796-0.796h-6.364
		c-0.439,0-0.796,0.356-0.796,0.796s0.356,0.795,0.796,0.795h0.955V5.82l-14.674,4.364l-0.722,0.215l-1.558,0.463l-0.081-0.273
		l0.915-0.272c0.421-0.125,0.661-0.568,0.536-0.989C9.035,8.982,8.718,8.758,8.375,8.758c-0.075,0-0.151,0.011-0.227,0.033
		l-6.1,1.814c-0.421,0.125-0.661,0.568-0.536,0.989C1.615,11.94,1.932,12.163,2.275,12.163z M58.521,20.638v14.387H41.494
		l6.577-1.956l-3.697-12.432H58.521z M44.133,6.251v13.578L40.096,6.251H44.133z M22.673,8.516l2.05,6.895l1.555,5.228l0.415,1.395
		l1.054-0.313l1.432-0.426l0.568-0.169l1.637-0.487l10.018-2.979l4.182,14.064l-5.064,1.506l-6.043,1.797l-3.516,1.045l-0.087,0.026
		l-0.008-0.026l-0.311-1.045l-0.81-2.723l-0.568-1.911l-1.432-4.815l-1.054-3.543l-1.605,0.477l-0.364,0.108l-10.902,3.242
		L9.801,12.344L22.673,8.516z"/>
</g>
</svg>
