<?xml version="1.0" encoding="iso-8859-1"?>
<!-- Generator: Adobe Illustrator 17.0.0, SVG Export Plug-In . SVG Version: 6.00 Build 0)  -->
<!DOCTYPE svg PUBLIC "-//W3C//DTD SVG 1.1//EN" "http://www.w3.org/Graphics/SVG/1.1/DTD/svg11.dtd">
<svg version="1.1" id="Capa_1" xmlns="http://www.w3.org/2000/svg" xmlns:xlink="http://www.w3.org/1999/xlink" x="0px" y="0px"
	 width="64px" height="64px" viewBox="0 0 64 64" style="enable-background:new 0 0 64 64;" xml:space="preserve">
<g>
	<path d="M34.138,29.35l-1.358-0.472l0.733,3.035c0.015,0.034,0.02,0.07,0.034,0.104L34.138,29.35z"/>
	<path d="M22.198,43.867c0.651,0.651,1.707,0.651,2.359,0l7.462-4.946l0.813-3.67c-1.605,1.747-5.138,2.908-9.454,2.908
		c-5.924,0-10.391-2.181-10.391-5.073c0-0.348,0.07-0.701,0.209-1.053l0.692-3.124l-7.021,2.438c-0.651,0.651-0.651,1.707,0,2.359
		L22.198,43.867z"/>
	<path d="M25.419,2.667h-4.695l-5.727,25.857l-0.844,3.81c-0.105,0.244-0.167,0.495-0.167,0.752c0,2.25,4.205,4.073,9.391,4.073
		s9.391-1.824,9.391-4.073c0-0.289-0.072-0.571-0.204-0.842l-0.907-3.755L25.419,2.667z"/>
	<path d="M56.634,47.617l-7.107-2.468l0.733,3.035c0.169,0.383,0.255,0.776,0.255,1.172c0,2.892-4.467,5.074-10.391,5.074
		c-5.924,0-10.391-2.181-10.391-5.074c0-0.348,0.07-0.701,0.209-1.053l0.692-3.124l-7.021,2.438c-0.651,0.651-0.651,1.707,0,2.359
		l15.331,11.162c0.651,0.651,1.707,0.651,2.359,0l15.331-11.162C57.285,49.324,57.285,48.268,56.634,47.617z"/>
	<path d="M30.898,48.604c-0.105,0.244-0.167,0.495-0.167,0.752c0,2.25,4.205,4.074,9.391,4.074s9.391-1.824,9.391-4.074
		c0-0.289-0.072-0.57-0.204-0.842l-0.907-3.755l-6.239-25.822h-4.696L35.089,29.68l-1.87,8.445l-1.477,6.668L30.898,48.604z"/>
</g>
</svg>
