<?xml version="1.0" encoding="iso-8859-1"?>
<!-- Generator: Adobe Illustrator 17.0.0, SVG Export Plug-In . SVG Version: 6.00 Build 0)  -->
<!DOCTYPE svg PUBLIC "-//W3C//DTD SVG 1.1//EN" "http://www.w3.org/Graphics/SVG/1.1/DTD/svg11.dtd">
<svg version="1.1" id="Capa_1" xmlns="http://www.w3.org/2000/svg" xmlns:xlink="http://www.w3.org/1999/xlink" x="0px" y="0px"
	 width="64px" height="64px" viewBox="0 0 64 64" style="enable-background:new 0 0 64 64;" xml:space="preserve">
<g>
	<path d="M60.167,3.808c-0.538-0.313-11.305-0.943-12.561,4.319c-1.256,5.261-2.721,10.399-7.537,8.319
		c-2.961-1.279,0-9.094,0-9.094s-3.569,4.982-7.716,5.67c-5.151,0.854,0-4.895,0-4.895c-10.336,1.465-14.872,7.914-16.84,12.693
		c-0.631,0.342-1.244,0.713-1.835,1.112c-0.584,0.394-1.148,0.816-1.69,1.264c-0.271,0.224-0.537,0.454-0.796,0.69
		c-0.52,0.472-1.017,0.969-1.489,1.489c-0.236,0.26-0.466,0.525-0.69,0.796c-0.447,0.542-0.869,1.106-1.264,1.69
		c-0.789,1.168-1.468,2.415-2.024,3.728c-0.278,0.656-0.524,1.329-0.738,2.017c-0.214,0.687-0.395,1.389-0.541,2.104
		C4.154,37.138,4,38.617,4,40.133c0,0.632,0.033,1.257,0.085,1.876c0.006,0.068,0.009,0.137,0.016,0.205
		c0.057,0.598,0.139,1.189,0.243,1.772c0.013,0.073,0.025,0.145,0.039,0.218c0.111,0.589,0.244,1.17,0.401,1.742
		c0.013,0.049,0.028,0.097,0.041,0.146c0.168,0.595,0.356,1.181,0.572,1.754c0,0,0,0,0,0l-0.005,0.146l0.119,0.144l0,0
		c0.399,1.019,0.873,2.001,1.413,2.939c0.001,0.002,0.003,0.005,0.004,0.007c0.537,0.932,1.141,1.82,1.805,2.659
		c0.008,0.01,0.016,0.021,0.024,0.031c0.657,0.827,1.373,1.605,2.14,2.329c0.02,0.018,0.039,0.037,0.059,0.056
		c0.383,0.359,0.779,0.705,1.187,1.036c0.007,0.006,0.015,0.012,0.023,0.018c0.393,0.317,0.797,0.62,1.212,0.91
		c0.035,0.024,0.069,0.05,0.104,0.074c0.416,0.288,0.843,0.562,1.279,0.821c0.047,0.028,0.096,0.055,0.143,0.082
		c0.405,0.237,0.818,0.46,1.239,0.671c0.048,0.024,0.095,0.049,0.142,0.073c0.443,0.218,0.896,0.42,1.355,0.608
		c0.081,0.033,0.162,0.064,0.244,0.096c0.423,0.167,0.851,0.323,1.286,0.464c0.052,0.017,0.103,0.036,0.155,0.052
		c0.468,0.148,0.943,0.278,1.424,0.395c0.105,0.026,0.211,0.049,0.316,0.073c0.453,0.103,0.911,0.195,1.375,0.269
		c0.04,0.006,0.079,0.015,0.119,0.021c0.491,0.076,0.99,0.131,1.492,0.174c0.12,0.01,0.24,0.019,0.36,0.027
		c0.509,0.035,1.021,0.06,1.538,0.06c5.682,0,10.861-2.159,14.758-5.702c0.52-0.472,1.017-0.969,1.489-1.489
		c0.177-0.195,0.347-0.395,0.516-0.596c3.803-1.993,6.821-4.231,6.923-5.312c0.237-2.512-0.213-7.557,3.711-10.587
		s3.051-10.947,3.051-10.947c-4.666,7.895-9.87-2.691-4.845-3.631c5.025-0.939,4.845-5.7,1.974-10.797
		C50.656,7.924,60.167,3.808,60.167,3.808z M39.607,55.782c-3.658,3.198-8.427,5.155-13.657,5.155
		c-5.609,0-10.703-2.235-14.448-5.856l4.037-3.47l-3.854-9.933l-6.03-2.076l-0.139,4.429c-0.241-1.264-0.372-2.567-0.372-3.9
		c0-2.772,0.549-5.418,1.538-7.839l5.191-6.442l1.346-2.158c0.531-0.412,1.089-0.79,1.659-1.151
		c3.209-2.029,7.001-3.216,11.071-3.216c0.115,0,0.229,0.007,0.343,0.009l2.323,0.855l5.119,0.654
		c3.277,1.328,6.143,3.464,8.344,6.165l-0.851,3.712l3.363,9.483l2.147,0.545C46.563,46.743,43.827,52.092,39.607,55.782z"/>
	<polygon points="33.951,28.314 26.793,21.636 18.901,24.475 16.793,25.233 17.125,34.656 20.852,35.365 28.068,36.736 	"/>
	<polygon points="25.312,52.609 24.256,53.796 29.641,59.407 33.228,57.875 39.045,55.389 40.582,47.078 31.246,45.93 	"/>
</g>
</svg>
