<?xml version="1.0" encoding="iso-8859-1"?>
<!-- Generator: Adobe Illustrator 17.0.0, SVG Export Plug-In . SVG Version: 6.00 Build 0)  -->
<!DOCTYPE svg PUBLIC "-//W3C//DTD SVG 1.1//EN" "http://www.w3.org/Graphics/SVG/1.1/DTD/svg11.dtd">
<svg version="1.1" id="Capa_1" xmlns="http://www.w3.org/2000/svg" xmlns:xlink="http://www.w3.org/1999/xlink" x="0px" y="0px"
	 width="64px" height="64px" viewBox="0 0 64 64" style="enable-background:new 0 0 64 64;" xml:space="preserve">
<g>
	<path d="M17.662,11.499c0,5.71,4.629,10.338,10.338,10.338s10.338-4.629,10.338-10.338S33.71,1.16,28,1.16
		S17.662,5.789,17.662,11.499z M36.338,11.499c0,4.598-3.741,8.338-8.338,8.338s-8.338-3.741-8.338-8.338S23.402,3.16,28,3.16
		S36.338,6.901,36.338,11.499z"/>
	<path d="M6.162,36.61l4.302-1.069c0.066-0.016,0.129-0.024,0.188-0.024c0.371,0,0.426,0.316,0.426,0.505v20.642
		c0,1.425,1.16,2.585,2.585,2.585h27.108c-0.531-0.527-1.01-1.104-1.446-1.714H13.663c-0.48,0-0.871-0.391-0.871-0.871V36.022
		c0-1.265-0.92-2.218-2.14-2.218c-0.198,0-0.4,0.025-0.601,0.074l-4.303,1.069c-0.462,0.117-0.95-0.177-1.068-0.638L3.199,28.5
		c-0.057-0.224-0.023-0.457,0.095-0.654c0.118-0.198,0.307-0.337,0.532-0.393l13.594-3.375c0.679-0.173,1.377-0.261,2.133-0.261
		l1.9-0.006c0.956,2.76,3.545,4.633,6.516,4.633c2.971,0,5.561-1.874,6.516-4.633l2.011,0.006c0.705,0,1.405,0.088,2.089,0.263
		l13.59,3.373c0.225,0.056,0.414,0.195,0.532,0.393c0.118,0.198,0.151,0.43,0.095,0.654l-1.482,5.808
		c-0.118,0.461-0.604,0.756-1.068,0.638l-4.282-1.063c-0.201-0.049-0.403-0.075-0.601-0.075c-1.22,0-2.14,0.954-2.14,2.218v2.389
		c0.549-0.336,1.116-0.645,1.714-0.9v-1.489c0-0.188,0.055-0.505,0.426-0.505c0.059,0,0.121,0.008,0.187,0.025l3.802,0.944
		c0.267-0.016,0.532-0.041,0.803-0.041c0.413,0,0.82,0.025,1.224,0.062c0.772-0.294,1.381-0.943,1.594-1.781l1.482-5.808
		c0.172-0.669,0.07-1.365-0.284-1.957c-0.354-0.592-0.919-1.011-1.59-1.177l-13.584-3.371c-0.817-0.209-1.66-0.315-2.51-0.315
		l-3.325-0.005l-0.158,0.657c-0.562,2.341-2.635,3.976-5.042,3.976c-2.406,0-4.479-1.635-5.042-3.976l-0.158-0.657h-3.118
		l-0.158,0.006c-0.839,0-1.679,0.105-2.492,0.313L3.412,25.789c-0.671,0.167-1.236,0.585-1.59,1.177
		c-0.354,0.592-0.455,1.288-0.284,1.957l1.482,5.808c0.294,1.151,1.328,1.955,2.515,1.955C5.746,36.686,5.957,36.661,6.162,36.61z"
		/>
	<path d="M25.012,48.599V34.052h-2.388c0,0.127-0.037,0.321-0.11,0.582c-0.127,0.435-0.313,0.783-0.56,1.043
		c-0.359,0.381-0.828,0.635-1.401,0.763c-0.359,0.08-0.99,0.14-1.891,0.181v1.946h3.421v10.033H25.012z"/>
	<path d="M34.322,33.951c-1.853,0-3.152,0.652-3.898,1.956c-0.746,1.304-1.119,3.157-1.119,5.558c0,2.401,0.373,4.25,1.119,5.548
		c0.746,1.298,2.045,1.946,3.898,1.946c1.036,0,1.893-0.211,2.583-0.617c0.252-2.329,1.112-4.473,2.409-6.287
		c0.006-0.201,0.024-0.382,0.024-0.591c0-2.401-0.373-4.254-1.119-5.558C37.474,34.603,36.175,33.951,34.322,33.951z M35.992,45.303
		c-0.264,0.886-0.821,1.329-1.67,1.329s-1.411-0.443-1.685-1.329c-0.274-0.886-0.411-2.165-0.411-3.837
		c0-1.752,0.137-3.05,0.411-3.893c0.274-0.843,0.836-1.264,1.685-1.264s1.406,0.421,1.67,1.264c0.264,0.843,0.396,2.14,0.396,3.893
		C36.389,43.138,36.257,44.417,35.992,45.303z"/>
	<path d="M50.162,37.95c-1.876,0-3.643,0.448-5.219,1.225c-0.602,0.297-1.175,0.641-1.714,1.032
		c-2.968,2.151-4.906,5.636-4.906,9.582c0,2.966,1.098,5.669,2.9,7.746c0.523,0.602,1.105,1.149,1.738,1.635
		c1.996,1.535,4.488,2.457,7.201,2.457C56.7,61.627,62,56.327,62,49.789S56.7,37.95,50.162,37.95z M55.602,52.929
		c0.66,0.659,0.66,1.729,0,2.388c-0.659,0.659-1.729,0.659-2.388,0l-3.052-3.052l-3.052,3.052c-0.591,0.591-1.508,0.648-2.167,0.181
		c-0.077-0.054-0.152-0.112-0.221-0.181c-0.66-0.66-0.66-1.729,0-2.388l0.221-0.221l2.831-2.831l-2.831-2.831l-0.221-0.221
		c-0.66-0.659-0.66-1.729,0-2.388c0.069-0.069,0.144-0.126,0.221-0.181c0.659-0.467,1.577-0.41,2.167,0.181l3.052,3.052l3.052-3.052
		c0.66-0.659,1.729-0.659,2.388,0c0.66,0.66,0.66,1.729,0,2.388l-3.052,3.052L55.602,52.929z"/>
</g>
</svg>
