<?xml version="1.0" encoding="iso-8859-1"?>
<!-- Generator: Adobe Illustrator 17.0.0, SVG Export Plug-In . SVG Version: 6.00 Build 0)  -->
<!DOCTYPE svg PUBLIC "-//W3C//DTD SVG 1.1//EN" "http://www.w3.org/Graphics/SVG/1.1/DTD/svg11.dtd">
<svg version="1.1" id="Capa_1" xmlns="http://www.w3.org/2000/svg" xmlns:xlink="http://www.w3.org/1999/xlink" x="0px" y="0px"
	 width="64px" height="64px" viewBox="0 0 64 64" style="enable-background:new 0 0 64 64;" xml:space="preserve">
<g>
	<path d="M39.435,24.435c0.924,1.936,3.164,2.91,5.228,2.172c2.203-0.787,3.351-3.211,2.563-5.414
		c-0.064-0.18-0.156-0.341-0.241-0.507L39.435,24.435z"/>
	<circle cx="57.349" cy="13.693" r="4.236"/>
	<path d="M4.663,51.475c0.108-0.039,0.216-0.085,0.321-0.141l19.839-10.397l1.101,2.147c-0.149,0.089-0.292,0.193-0.424,0.317
		l-6.517,6.089L6.052,55.097c-1.262,0.547-1.843,2.015-1.295,3.278c0.525,1.211,1.897,1.794,3.122,1.356
		c0.052-0.019,0.104-0.039,0.156-0.062l13.326-5.777c0.262-0.113,0.501-0.27,0.71-0.465l6.191-5.784l0.013,0.026l0.212-0.236
		l0.416-0.388c0.178-0.166,0.315-0.357,0.433-0.556l13.152-14.64l9.616-2.108c0.082-0.018,0.164-0.041,0.244-0.07
		c0.243-0.087,0.468-0.221,0.661-0.394l8.315-7.471c0.819-0.736,0.887-1.997,0.151-2.816c-0.734-0.819-1.996-0.887-2.815-0.151
		l-7.923,7.119l-8.885,1.949l-4.246-2.563l-0.507-0.306l-0.508-0.307l2.52-1.251l7.319-3.634l4.779-2.372
		c0.988-0.491,1.388-1.687,0.899-2.673c-0.348-0.701-1.054-1.107-1.788-1.107c-0.298,0-0.6,0.067-0.885,0.209l-16.449,8.166
		c-0.142,0.07-0.271,0.156-0.388,0.253l-0.018-0.011l-0.074,0.105c-0.078,0.074-0.157,0.147-0.221,0.231
		c-0.102,0.134-0.181,0.283-0.246,0.436l-0.636,0.91l-0.425,0.608l-8.249,11.806L2.67,46.919c-1.219,0.638-1.69,2.145-1.051,3.365
		C2.204,51.397,3.512,51.886,4.663,51.475z"/>
</g>
</svg>
