<?xml version="1.0" encoding="iso-8859-1"?>
<!-- Generator: Adobe Illustrator 17.0.0, SVG Export Plug-In . SVG Version: 6.00 Build 0)  -->
<!DOCTYPE svg PUBLIC "-//W3C//DTD SVG 1.1//EN" "http://www.w3.org/Graphics/SVG/1.1/DTD/svg11.dtd">
<svg version="1.1" id="Capa_1" xmlns="http://www.w3.org/2000/svg" xmlns:xlink="http://www.w3.org/1999/xlink" x="0px" y="0px"
	 width="64px" height="64px" viewBox="0 0 64 64" style="enable-background:new 0 0 64 64;" xml:space="preserve">
<g>
	<path d="M58.121,4.232L44.475,7.464L45.11,2.77H17.878l0.699,4.593L5.357,4.232c-1.141-0.27-1.665,0.372-1.17,1.436l20.988,45.038
		l0.791,5.197h-8.517c-1.173,0-2.124,0.951-2.124,2.124v0.36c0,1.173,0.951,2.124,2.124,2.124h21.789
		c1.7,0.946,3.653,1.489,5.732,1.489c6.525,0,11.833-5.308,11.833-11.833c0-6.525-5.308-11.833-11.833-11.833
		c-0.23,0-0.454,0.022-0.681,0.035L59.302,5.673C59.791,4.607,59.262,3.962,58.121,4.232z M9.458,9.771l9.841,2.331l0.067,0.016
		l1.651,11.27l2.121,14.482L9.458,9.771z M44.971,41.333c4.878,0,8.833,3.955,8.833,8.833c0,3.852-2.47,7.119-5.908,8.327
		C46.979,58.816,45.998,59,44.971,59c-2.687,0-5.09-1.204-6.71-3.097c-0.101-0.118-0.196-0.24-0.291-0.363
		c-1.145-1.49-1.833-3.349-1.833-5.373c0-4.128,2.835-7.584,6.662-8.553C43.495,41.437,44.22,41.333,44.971,41.333z M40.58,37.87
		l3.772-25.752l9.908-2.347L40.58,37.87z"/>
	<path d="M39.457,48.893c-0.49,0.216-0.833,0.704-0.833,1.274c0,0.14,0.027,0.272,0.065,0.399c0.172,0.574,0.698,0.994,1.328,0.994
		h9.907c0.769,0,1.393-0.624,1.393-1.393c0-0.769-0.624-1.393-1.393-1.393h-9.907C39.818,48.773,39.629,48.817,39.457,48.893z"/>
</g>
</svg>
