<?xml version="1.0" encoding="iso-8859-1"?>
<!-- Generator: Adobe Illustrator 17.0.0, SVG Export Plug-In . SVG Version: 6.00 Build 0)  -->
<!DOCTYPE svg PUBLIC "-//W3C//DTD SVG 1.1//EN" "http://www.w3.org/Graphics/SVG/1.1/DTD/svg11.dtd">
<svg version="1.1" id="Capa_1" xmlns="http://www.w3.org/2000/svg" xmlns:xlink="http://www.w3.org/1999/xlink" x="0px" y="0px"
	 width="64px" height="64px" viewBox="0 0 64 64" style="enable-background:new 0 0 64 64;" xml:space="preserve">
<g>
	<path d="M12.768,44.859v-3.841l-0.242,3.831c-0.759-0.03-1.518-0.06-2.276-0.099c-3.224-0.166-3.208,4.834,0,5
		c0.654,0.034,1.308,0.06,1.962,0.086l-0.444,7.036c0,1.313,1.065,2.378,2.378,2.378h35.708c1.313,0,2.378-1.065,2.378-2.378
		l-0.443-7.022c0.766-0.031,1.533-0.061,2.299-0.1c3.208-0.166,3.224-5.166,0-5c-0.871,0.045-1.742,0.078-2.613,0.113l-0.243-3.845
		v3.855c-0.167,0.007-0.333,0.013-0.5,0.021c-0.167,0.007-0.333,0.018-0.5,0.027v-11c0.167-0.008,0.333-0.019,0.5-0.027
		c0.017-0.001,0.034-0.001,0.05-0.002c0.15-0.007,0.3-0.012,0.45-0.018c0.952-0.04,1.904-0.074,2.856-0.123
		c3.208-0.166,3.224-5.166,0-5c-0.952,0.049-1.904,0.083-2.856,0.123c-0.167,0.007-0.333,0.013-0.5,0.021
		c-0.088,0.004-0.176,0.01-0.264,0.014c-0.079,0.004-0.157,0.009-0.236,0.013v-3.756v-4.756c0-1.091-0.739-2-1.74-2.28l0.006-0.001
		c0,0-0.01-0.001-0.014-0.001c-0.097-0.027-0.195-0.047-0.297-0.062c-0.777-0.224-2.767-1.264-3.008-6.069V8.666
		c0-1.56-1.264-2.824-2.824-2.824h-2.923v5.153c0,3.283-2.662,5.945-5.945,5.945h-2.973c-3.283,0-5.945-2.662-5.945-5.945V5.842
		h-2.923c-1.56,0-2.824,1.264-2.824,2.824v3.319c-0.239,4.813-2.232,5.854-3.009,6.078c-0.101,0.014-0.199,0.035-0.296,0.061
		c-0.005,0-0.015,0.001-0.015,0.001l0.006,0.001c-1.001,0.28-1.74,1.19-1.74,2.28v4.756v3.738c-0.078-0.004-0.157-0.008-0.235-0.011
		c-0.088-0.004-0.177-0.007-0.265-0.011c-0.167-0.007-0.333-0.014-0.5-0.021c-0.839-0.034-1.679-0.066-2.518-0.109
		c-3.224-0.166-3.208,4.834,0,5c0.839,0.043,1.679,0.075,2.518,0.109c0.15,0.006,0.3,0.012,0.45,0.018
		c0.016,0.001,0.033,0.001,0.049,0.002c0.167,0.007,0.333,0.015,0.5,0.022v11v5v2.214c0,1.313,1.065,2.378,2.378,2.378h31.708
		c1.313,0,2.378-1.065,2.378-2.378V49.92c0.167-0.008,0.333-0.019,0.5-0.027c0.167-0.007,0.333-0.014,0.5-0.021v2.243
		c0,1.863-1.515,3.378-3.378,3.378H16.146c-1.863,0-3.378-1.515-3.378-3.378v-2.256V44.859z"/>
</g>
</svg>
