<?xml version="1.0" encoding="iso-8859-1"?>
<!-- Generator: Adobe Illustrator 17.0.0, SVG Export Plug-In . SVG Version: 6.00 Build 0)  -->
<!DOCTYPE svg PUBLIC "-//W3C//DTD SVG 1.1//EN" "http://www.w3.org/Graphics/SVG/1.1/DTD/svg11.dtd">
<svg version="1.1" id="Capa_1" xmlns="http://www.w3.org/2000/svg" xmlns:xlink="http://www.w3.org/1999/xlink" x="0px" y="0px"
	 width="64px" height="64px" viewBox="0 0 64 64" style="enable-background:new 0 0 64 64;" xml:space="preserve">
<g>
	<path d="M43.645,29.485c0.786-1.338,3.359-2.931,3.359-2.931s0.242-0.081-1.812-0.806c-0.795-0.28-1.67,0.011-2.447,0.471
		c-1.113-1.658-4.98-8.218,0.202-12.588c3.23-2.724,5.694-3.189,7.493-3.529c1.675-0.317,2.999-0.567,3.425-2.626
		c0.056-0.271-0.118-0.535-0.389-0.591c-0.273-0.062-0.535,0.116-0.591,0.388c-0.29,1.403-0.976,1.533-2.631,1.847
		c-1.8,0.34-4.521,0.855-7.952,3.748c-5.808,4.896-1.6,12.092-0.379,13.918c-0.674,0.53-1.181,1.081-1.335,1.256
		c-2.009-1.061-4.485-2.324-6.005-2.958c-2.898-1.207-6.581-2.013-11.048,2.816C19.068,32.73,5.183,48.426,5.183,48.426l9.236,4.87
		l23.424-22.378C37.843,30.918,41.103,28.304,43.645,29.485z M30.115,35.829l-8.733-4.024c0,0,4.508-5.111,5.876-5.996l8.532,4.104
		C35.79,29.913,31.081,34.5,30.115,35.829z"/>
	<path d="M56.583,6.692c-1.981,1.146-2.116,3.321-2.412,8.086c-0.102,1.654-0.231,3.713-0.461,6.175
		c-0.538,5.769-2.998,7.748-4.678,8.432c-0.162-1.629-1.02-2.862-1.905-2.353c-1.832,1.055-2.922,2.42-3.309,2.96
		c-0.31-0.137-0.636-0.229-0.978-0.271c-2.43-0.304-4.529,1.397-4.704,1.536L14.733,53.615l3.646,2.222
		c0,0,8.898-8.154,14.339-6.693c0.269,0.195,0.554,0.368,0.859,0.512c3.863,1.827,9.142-1.238,11.791-6.842
		c0.951-2.014,1.428-4.077,1.477-5.984c0.077-0.869,0.035-1.708-0.106-2.486c0.233-0.219,0.549-0.525,0.98-0.956
		c0.837-0.838,1.224-1.919,1.316-2.958c1.958-0.68,5.058-2.796,5.672-9.382c0.231-2.479,0.359-4.546,0.462-6.207
		c0.281-4.529,0.398-6.403,1.915-7.282c0.239-0.139,0.321-0.444,0.182-0.684C57.127,6.636,56.821,6.553,56.583,6.692z M47.417,31.5
		c-0.461,0-0.833-0.56-0.833-1.25c0-0.69,0.373-1.25,0.833-1.25c0.316,0,0.581,0.273,0.723,0.662
		c-0.399,0.083-0.672,0.089-0.714,0.088c-0.295-0.035-0.503,0.214-0.509,0.489c-0.006,0.276,0.213,0.505,0.489,0.511
		c0.001,0,0.003,0,0.006,0c0.047,0,0.344-0.009,0.784-0.096C48.083,31.144,47.782,31.5,47.417,31.5z"/>
</g>
</svg>
