<?xml version="1.0" encoding="iso-8859-1"?>
<!-- Generator: Adobe Illustrator 17.0.0, SVG Export Plug-In . SVG Version: 6.00 Build 0)  -->
<!DOCTYPE svg PUBLIC "-//W3C//DTD SVG 1.1//EN" "http://www.w3.org/Graphics/SVG/1.1/DTD/svg11.dtd">
<svg version="1.1" id="Capa_1" xmlns="http://www.w3.org/2000/svg" xmlns:xlink="http://www.w3.org/1999/xlink" x="0px" y="0px"
	 width="64px" height="64px" viewBox="0 0 64 64" style="enable-background:new 0 0 64 64;" xml:space="preserve">
<g>
	<rect x="13.597" y="44.167" width="22.653" height="4.833"/>
	<rect x="42.5" y="44.167" width="5.25" height="4.833"/>
	<rect x="13.597" y="38.333" width="22.653" height="4.833"/>
	<rect x="13.597" y="32.5" width="22.653" height="4.833"/>
	<rect x="42.5" y="38.333" width="5.25" height="4.833"/>
	<rect x="37.25" y="21.5" width="4.25" height="4.167"/>
	<rect x="42.5" y="21.5" width="5.25" height="4.167"/>
	<rect x="42.5" y="32.5" width="5.25" height="4.833"/>
	<rect x="42.5" y="26.667" width="5.25" height="4.833"/>
	<rect x="37.25" y="32.5" width="4.25" height="4.833"/>
	<path d="M23.771,12.181c-0.912,0-1.438,0.86-1.438,2.009c0,1.167,0.544,1.983,1.438,1.983c0.904,0,1.422-0.859,1.422-2.009
		C25.193,13.093,24.693,12.181,23.771,12.181z"/>
	<path d="M54.667,7.333h-47V20.5h47V7.333z M17.898,17.226c-0.675,0-1.342-0.185-1.676-0.369l0.272-1.097
		c0.351,0.184,0.912,0.369,1.482,0.369c0.614,0,0.94-0.254,0.94-0.641c0-0.369-0.281-0.579-0.992-0.825
		c-0.982-0.351-1.632-0.895-1.632-1.755c0-1.009,0.851-1.773,2.237-1.773c0.676,0,1.158,0.132,1.51,0.298l-0.299,1.071
		c-0.227-0.114-0.658-0.281-1.228-0.281c-0.579,0-0.859,0.272-0.859,0.57c0,0.378,0.324,0.544,1.097,0.834
		c1.044,0.386,1.526,0.93,1.526,1.763C20.276,16.384,19.521,17.226,17.898,17.226z M23.701,17.235c-1.745,0-2.781-1.325-2.781-3.019
		c0-1.772,1.141-3.097,2.878-3.097c1.816,0,2.808,1.36,2.808,3.001C26.605,16.068,25.438,17.235,23.701,17.235z M30.506,16.121
		c0.412,0,0.851-0.079,1.123-0.193l0.192,1.053c-0.236,0.114-0.798,0.254-1.509,0.254c-2.044,0-3.098-1.281-3.098-2.966
		c0-2.018,1.44-3.132,3.229-3.132c0.692,0,1.22,0.132,1.456,0.263l-0.28,1.053c-0.264-0.114-0.641-0.22-1.123-0.22
		c-1.054,0-1.878,0.641-1.878,1.957C28.619,15.375,29.321,16.121,30.506,16.121z M35.467,16.121c0.412,0,0.851-0.079,1.123-0.193
		l0.192,1.053c-0.236,0.114-0.798,0.254-1.509,0.254c-2.044,0-3.098-1.281-3.098-2.966c0-2.018,1.439-3.132,3.229-3.132
		c0.692,0,1.22,0.132,1.456,0.263l-0.28,1.053c-0.264-0.114-0.641-0.22-1.123-0.22c-1.054,0-1.878,0.641-1.878,1.957
		C33.58,15.375,34.282,16.121,35.467,16.121z M41.445,17.138h-3.764v-5.914h3.641v1.097h-2.307v1.229h2.176v1.088h-2.176v1.404h2.43
		V17.138z M45.458,17.138c-0.087-0.175-0.236-0.649-0.403-1.378c-0.167-0.746-0.421-0.939-0.974-0.948h-0.395v2.325h-1.325v-5.834
		c0.43-0.07,1.062-0.123,1.781-0.123c0.877,0,1.491,0.132,1.912,0.465c0.36,0.281,0.553,0.702,0.553,1.246
		c0,0.746-0.535,1.264-1.044,1.448v0.026c0.413,0.167,0.641,0.553,0.79,1.097c0.185,0.676,0.359,1.448,0.474,1.676H45.458z"/>
	<rect x="37.25" y="44.167" width="4.25" height="4.833"/>
	<path d="M44.292,12.181c-0.325,0-0.51,0.017-0.606,0.043v1.623h0.526c0.666,0,1.061-0.333,1.061-0.851
		C45.274,12.462,44.905,12.181,44.292,12.181z"/>
	<rect x="37.25" y="38.333" width="4.25" height="4.833"/>
	<rect x="13.597" y="26.667" width="22.653" height="4.833"/>
	<rect x="37.25" y="26.667" width="4.25" height="4.833"/>
	<path d="M13.597,25.667H36.25V21.5H13.597V25.667z M33.635,21.926c0.903,0,1.635,0.732,1.635,1.635
		c0,0.903-0.731,1.635-1.635,1.635c-0.903,0-1.635-0.732-1.635-1.635C32,22.658,32.731,21.926,33.635,21.926z"/>
	<rect x="37.25" y="50" width="4.25" height="4.833"/>
	<rect x="42.5" y="55.834" width="5.25" height="3.166"/>
	<rect x="48.75" y="38.333" width="5.917" height="4.833"/>
	<rect x="48.75" y="44.167" width="5.917" height="4.833"/>
	<rect x="48.75" y="32.5" width="5.917" height="4.833"/>
	<rect x="48.75" y="50" width="5.917" height="4.833"/>
	<rect x="42.5" y="50" width="5.25" height="4.833"/>
	<rect x="48.75" y="21.5" width="5.917" height="4.167"/>
	<rect x="48.75" y="26.667" width="5.917" height="4.833"/>
	<rect x="48.75" y="55.834" width="5.917" height="3.166"/>
	<rect x="7.667" y="55.834" width="4.93" height="3.166"/>
	<rect x="37.25" y="55.834" width="4.25" height="3.166"/>
	<rect x="7.667" y="26.667" width="4.93" height="4.833"/>
	<rect x="7.667" y="32.5" width="4.93" height="4.833"/>
	<path d="M12.597,21.5h-4.93v4.167h4.93V21.5z M10.527,25.038H9.859v-2.34H9.851l-0.563,0.268l-0.113-0.518l0.786-0.364h0.567
		V25.038z"/>
	<rect x="13.597" y="55.834" width="22.653" height="3.166"/>
	<rect x="7.667" y="38.333" width="4.93" height="4.833"/>
	<rect x="13.597" y="50" width="22.653" height="4.833"/>
	<rect x="7.667" y="50" width="4.93" height="4.833"/>
	<rect x="7.667" y="44.167" width="4.93" height="4.833"/>
</g>
</svg>
