<?xml version="1.0" encoding="iso-8859-1"?>
<!-- Generator: Adobe Illustrator 17.0.0, SVG Export Plug-In . SVG Version: 6.00 Build 0)  -->
<!DOCTYPE svg PUBLIC "-//W3C//DTD SVG 1.1//EN" "http://www.w3.org/Graphics/SVG/1.1/DTD/svg11.dtd">
<svg version="1.1" id="Capa_1" xmlns="http://www.w3.org/2000/svg" xmlns:xlink="http://www.w3.org/1999/xlink" x="0px" y="0px"
	 width="64px" height="64px" viewBox="0 0 64 64" style="enable-background:new 0 0 64 64;" xml:space="preserve">
<g>
	<path d="M50.719,28.673c3.087-2.171,7.947-4.02,9.722-7.608c1.492-3.018,1.177-7.248-1.943-9.239
		c-3.626-2.314-8.065-1.883-11.797-0.04c-0.755-1.388-1.694-2.817-2.856-4.285H33.308h-1.962H20.808
		c-1.244,1.572-2.23,3.098-3.009,4.578c-0.08-0.067-0.169-0.13-0.274-0.183C13.747,9.957,9.2,9.466,5.502,11.826
		c-3.12,1.991-3.435,6.221-1.943,9.239c1.775,3.588,6.635,5.436,9.722,7.608c2.204,1.55,4.248,3.932,3.11,6.815
		c-0.899,2.278-3.507,1.701-4.308-0.045c0.077,0.043,0.156,0.08,0.232,0.128c0.914,0.46,1.993-0.232,1.958-1.254
		c-0.063-1.833-0.601-3.344-2.363-4.114c-1.102-0.482-6.328,0.319-6.471-1.001c-0.185-1.71-2.863-1.59-2.677,0.13
		c0.417,3.845,4.445,2.907,6.916,3.301c-0.202,0.169-0.366,0.382-0.414,0.676c-1.321,8.086,10.277,7.883,10.029,0.024
		c1.187,1.861,2.183,3.12,2.183,3.666c0,2,3.333,0.167,4.333,1.836c1,1.669,2,0.83,2,0.83l0.167,5.833c0,0,1.667,1.917-1.083,1.917
		s-1.917,1.917-1.917,1.917c-1.833,0-2.333,1.667-2.333,1.667c-6.167,0-6.333,8.667-6.333,8.667h15.038h1.962h15.038
		c0,0-0.167-8.667-6.333-8.667c0,0-0.5-1.667-2.333-1.667c0,0,0.833-1.917-1.917-1.917S36.679,45.5,36.679,45.5l0.167-5.833
		c0,0,1,0.839,2-0.83c1-1.67,4.333,0.164,4.333-1.836c0-0.446,0.665-1.368,1.556-2.705c0.682,6.903,11.267,6.758,10.002-0.985
		c-0.048-0.294-0.212-0.507-0.414-0.676c2.471-0.394,6.499,0.544,6.916-3.301c0.186-1.72-2.491-1.84-2.677-0.13
		c-0.143,1.32-5.369,0.519-6.471,1.001c-1.762,0.77-2.3,2.281-2.363,4.114c-0.035,1.022,1.043,1.713,1.958,1.254
		c0.075-0.048,0.154-0.085,0.232-0.128c-0.801,1.746-3.409,2.323-4.308,0.045C46.471,32.605,48.515,30.223,50.719,28.673z
		 M16.474,27.727c-1.801-1.62-4.135-2.858-5.94-3.979c-2.336-1.452-5.047-3.18-5.242-6.19c-0.385-5.933,7.797-4.926,10.992-3.287
		c0.151,0.077,0.298,0.117,0.44,0.138C14.684,19.594,15.192,24.108,16.474,27.727z M47.845,14.212
		c3.277-1.602,11.242-2.513,10.862,3.346c-0.195,3.01-2.906,4.738-5.242,6.19c-1.516,0.942-3.405,1.968-5.039,3.232
		C49.532,23.446,49.835,19.127,47.845,14.212z"/>
</g>
</svg>
