<?xml version="1.0" encoding="iso-8859-1"?>
<!-- Generator: Adobe Illustrator 17.0.0, SVG Export Plug-In . SVG Version: 6.00 Build 0)  -->
<!DOCTYPE svg PUBLIC "-//W3C//DTD SVG 1.1//EN" "http://www.w3.org/Graphics/SVG/1.1/DTD/svg11.dtd">
<svg version="1.1" id="Capa_1" xmlns="http://www.w3.org/2000/svg" xmlns:xlink="http://www.w3.org/1999/xlink" x="0px" y="0px"
	 width="64px" height="64px" viewBox="0 0 64 64" style="enable-background:new 0 0 64 64;" xml:space="preserve">
<g>
	<path d="M13.745,39.575L8.989,52.717c-0.494,1.366,0.212,2.873,1.577,3.366c0.296,0.107,0.598,0.158,0.895,0.158
		c1.075,0,2.084-0.665,2.472-1.735l4.585-12.668l9.358-10.528c0.217-0.056,0.433-0.114,0.648-0.173l13.809,10.603
		c0.345,0.265,0.751,0.44,1.181,0.51l15.458,2.503c0.142,0.023,0.284,0.034,0.423,0.034c1.267,0,2.383-0.918,2.592-2.209
		c0.232-1.433-0.741-2.783-2.175-3.015l-14.803-2.397l-10.764-8.266c-0.02-0.816-1.168-3.544-2.38-6.209l1.689,0.746
		c2.8,2.843,5.416,6.046,5.678,6.968c0.251,1.03,1.172,1.721,2.188,1.721c0.176,0,0.355-0.021,0.534-0.065
		c1.209-0.294,1.951-1.512,1.657-2.722c-0.643-2.644-5.224-7.443-7.163-9.385c-0.197-0.197-0.428-0.356-0.684-0.468l-5.949-2.629
		c-0.516-0.228-1.069-0.237-1.57-0.083c-0.463,0.014-1.11,0.041-1.865,0.085c-0.182,2.63-2.357,4.721-5.033,4.721
		c-2.084,0-3.876-1.266-4.654-3.069c-0.01,0.004-0.021,0.007-0.031,0.011c-0.026,0.007-0.05,0.021-0.075,0.029
		c-0.011,0.004-0.021,0.009-0.032,0.013c-0.109,0.037-0.217,0.075-0.322,0.13l-0.313,0.164c-0.08,0.041-0.161,0.082-0.237,0.124
		l-8.274,4.342c-0.323,0.169-0.601,0.415-0.808,0.715L2.28,30.303c-0.706,1.025-0.449,2.428,0.575,3.135
		c0.391,0.269,0.837,0.398,1.278,0.398c0.716,0,1.42-0.34,1.857-0.973l4.002-5.802l6.681-3.506c1.18,2.745,2.818,6.101,4.312,7.593
		l-6.734,7.576C14.03,38.973,13.858,39.262,13.745,39.575z"/>
	<path d="M21.346,20.584c2.105,0,3.816-1.605,4.026-3.654c0.014-0.138,0.042-0.272,0.042-0.414c0-2.247-1.821-4.068-4.068-4.068
		c-2.247,0-4.068,1.821-4.068,4.068c0,0.597,0.136,1.159,0.367,1.67C18.283,19.598,19.696,20.584,21.346,20.584z"/>
	<circle cx="57.951" cy="52.173" r="4.068"/>
</g>
</svg>
