<?xml version="1.0" encoding="iso-8859-1"?>
<!-- Generator: Adobe Illustrator 17.0.0, SVG Export Plug-In . SVG Version: 6.00 Build 0)  -->
<!DOCTYPE svg PUBLIC "-//W3C//DTD SVG 1.1//EN" "http://www.w3.org/Graphics/SVG/1.1/DTD/svg11.dtd">
<svg version="1.1" id="Capa_1" xmlns="http://www.w3.org/2000/svg" xmlns:xlink="http://www.w3.org/1999/xlink" x="0px" y="0px"
	 width="64px" height="64px" viewBox="0 0 64 64" style="enable-background:new 0 0 64 64;" xml:space="preserve">
<g>
	<circle cx="37.747" cy="5.189" r="4.031"/>
	<path d="M16.055,58.811c0,2.226,1.805,4.031,4.031,4.031c2.226,0,4.031-1.805,4.031-4.031c0-1.593-0.932-2.958-2.274-3.612
		c0.706-0.421,1.212-1.157,1.301-2.038l1.521-15.119l9.791-8.058l1.563,0.585v28.85c0,1.484,1.203,2.688,2.688,2.688
		s2.688-1.203,2.688-2.688V31.983l0.847-4.942c0.434-0.157,0.819-0.457,1.051-0.898c0.453-0.861,3.756-3.689,6.556-5.789
		c0.432-0.324,0.708-0.816,0.759-1.354c0.051-0.538-0.127-1.073-0.491-1.473l-4.799-5.279c-0.141-0.155-0.305-0.274-0.478-0.372
		l0.011-0.065c-0.127-0.036-0.251-0.062-0.378-0.096c-0.075-0.02-0.149-0.038-0.224-0.057c-5.721-1.472-10.654-0.486-12.375-0.036
		c-0.616,0.038-1.203,0.371-1.54,0.944l-3.551,6.047c-0.356,0.606-0.352,1.358,0.009,1.96l3.037,5.062
		c-0.449,0.998-0.827,1.708-0.999,2.017l-8.436,6.943c-0.548,0.451-0.895,1.1-0.966,1.806l-1.632,16.221
		c-0.096,0.951,0.321,1.831,1.021,2.38C17.216,55.538,16.055,57.031,16.055,58.811z M44.038,16.549l1.836,2.02
		c-0.773,0.611-1.673,1.344-2.542,2.103L44.038,16.549z M32.084,17.169c-0.069,1.29-0.296,2.564-0.599,3.763l-0.814-1.357
		L32.084,17.169z"/>
</g>
</svg>
