<?xml version="1.0" encoding="iso-8859-1"?>
<!-- Generator: Adobe Illustrator 17.0.0, SVG Export Plug-In . SVG Version: 6.00 Build 0)  -->
<!DOCTYPE svg PUBLIC "-//W3C//DTD SVG 1.1//EN" "http://www.w3.org/Graphics/SVG/1.1/DTD/svg11.dtd">
<svg version="1.1" id="Capa_1" xmlns="http://www.w3.org/2000/svg" xmlns:xlink="http://www.w3.org/1999/xlink" x="0px" y="0px"
	 width="64px" height="64px" viewBox="0 0 64 64" style="enable-background:new 0 0 64 64;" xml:space="preserve">
<g>
	<circle cx="29.971" cy="6.284" r="4.284"/>
	<path d="M56.291,19.124c-0.108-1.23-1.196-2.136-2.423-2.03c-3.349,0.296-7.321-0.387-10.5-1.158
		c-0.77,0.465-1.662,0.748-2.625,0.748c-0.347,0-0.685-0.036-1.013-0.102c-1.438-0.29-2.644-1.194-3.371-2.416
		c-0.455-0.764-0.733-1.646-0.733-2.598c0-0.047,0.013-0.09,0.014-0.137c-0.027-0.007-0.054-0.019-0.082-0.025
		c-3.758-0.783-5.93,1.981-6.528,2.883l-0.033-0.015l-0.021,0.096l-0.06,0.275L26.335,26.41c-0.092,0.443,0.001,0.904,0.265,1.293
		c0.296,0.437,0.785,0.744,1.34,0.842c1.123,0.194,2.173-0.481,2.377-1.463l0.183-0.883l2.115-10.19l0.392,0.081l0.391,0.081
		l-2.298,11.073c-0.083,0.398-0.267,0.755-0.513,1.064c0.058,1.595,0.091,2.977,0.109,3.894l-0.783,9.629l-13.518,7.652
		c-1.343,0.76-1.815,2.465-1.055,3.807c0.514,0.908,1.46,1.418,2.434,1.418c0.466,0,0.939-0.117,1.374-0.363l14.806-8.381
		c0.806-0.456,1.333-1.282,1.408-2.205l0.833-10.249c0.173-0.008,0.346-0.018,0.519-0.03l-1.497,11.769l-9.991,11.848
		c-0.995,1.18-0.845,2.942,0.335,3.937c0.524,0.442,1.164,0.658,1.799,0.658c0.795,0,1.585-0.338,2.137-0.993L40.022,48.22
		c0.347-0.411,0.568-0.914,0.636-1.448l2.049-16.11c0.026-0.206,0.025-0.409,0.007-0.607c0.052-2.215-0.618-6.318-1.781-10.122
		c3.133,0.832,7.335,1.701,11.273,1.701c0.696,0,1.384-0.027,2.055-0.087C55.491,21.438,56.399,20.354,56.291,19.124z"/>
	<polygon points="28.626,14.106 28.625,14.105 28.625,14.105 	"/>
	<path d="M39.178,15.372c0.483,0.199,1.01,0.312,1.565,0.312c0.366,0,0.715-0.063,1.053-0.153c1.76-0.467,3.064-2.057,3.064-3.964
		c0-2.274-1.843-4.117-4.117-4.117s-4.117,1.843-4.117,4.117c0,0.127,0.026,0.246,0.037,0.37c0.08,0.881,0.43,1.676,0.976,2.309
		C38.059,14.73,38.577,15.125,39.178,15.372z"/>
</g>
</svg>
