<?xml version="1.0" encoding="iso-8859-1"?>
<!-- Generator: Adobe Illustrator 17.0.0, SVG Export Plug-In . SVG Version: 6.00 Build 0)  -->
<!DOCTYPE svg PUBLIC "-//W3C//DTD SVG 1.1//EN" "http://www.w3.org/Graphics/SVG/1.1/DTD/svg11.dtd">
<svg version="1.1" id="Capa_1" xmlns="http://www.w3.org/2000/svg" xmlns:xlink="http://www.w3.org/1999/xlink" x="0px" y="0px"
	 width="64px" height="64px" viewBox="0 0 64 64" style="enable-background:new 0 0 64 64;" xml:space="preserve">
<g>
	<path d="M57.525,50.769v0.5h4.108v-4.107h-0.5C59.144,47.162,57.525,48.78,57.525,50.769z"/>
	<path d="M6.476,50.769c0-1.989-1.619-3.607-3.608-3.607h-0.5v4.107h4.108V50.769z"/>
	<path d="M12.732,40.184V23.376c0-0.96-0.781-1.741-1.741-1.741H2.367v20.29h8.624C11.951,41.926,12.732,41.144,12.732,40.184z
		 M9.237,33.143c0.114,0.09,0.134,0.256,0.044,0.371c-0.052,0.066-0.129,0.1-0.208,0.1c-0.057,0-0.114-0.018-0.163-0.057
		L7.83,32.705C7.653,33.088,7.5,33.49,7.391,33.842c-0.036,0.113-0.14,0.185-0.252,0.185c-0.026,0-0.053-0.004-0.079-0.012
		c-0.139-0.045-0.217-0.191-0.173-0.332C6.951,33.478,7.13,32.94,7.4,32.366l-0.865-0.683c-0.114-0.09-0.134-0.256-0.044-0.371
		c0.09-0.114,0.256-0.133,0.371-0.043l0.784,0.618c0.369-0.657,0.849-1.246,1.407-1.291c0.142-0.008,0.273,0.097,0.285,0.242
		c0.012,0.145-0.097,0.272-0.242,0.284c-0.327,0.027-0.698,0.5-1.024,1.101L9.237,33.143z"/>
	<path d="M6.476,12.23v-0.5H2.367v4.108h0.5C4.857,15.838,6.476,14.22,6.476,12.23z"/>
	<path d="M57.525,12.23c0,1.989,1.619,3.608,3.608,3.608h0.5V11.73h-4.108V12.23z"/>
	<path d="M29.762,28.62c0,0.512,0.425,0.928,0.946,0.928c0.34,0,0.626-0.187,0.792-0.453v-0.95
		c-0.167-0.266-0.452-0.454-0.792-0.454C30.187,27.691,29.762,28.108,29.762,28.62z"/>
	<ellipse cx="53.163" cy="32.311" rx="0.945" ry="0.928"/>
	<ellipse cx="22.762" cy="17.294" rx="0.945" ry="0.928"/>
	<path d="M7.476,50.769v0.5H31.5v-6.952l-0.463-0.035c-6.656-0.496-11.87-6.111-11.87-12.782c0-6.67,5.214-12.286,11.87-12.783
		l0.463-0.035V11.73H7.476v0.5c0,2.541-2.067,4.608-4.608,4.608h-0.5v3.797h8.624c1.512,0,2.741,1.229,2.741,2.741v16.807
		c0,1.512-1.229,2.742-2.741,2.742H2.367v3.236h0.5C5.408,46.162,7.476,48.228,7.476,50.769z M19.596,45.271
		c0.369-0.658,0.849-1.246,1.407-1.292c0.142-0.009,0.273,0.097,0.285,0.241c0.012,0.146-0.097,0.273-0.242,0.285
		c-0.327,0.026-0.698,0.499-1.024,1.101l1.167,0.921c0.114,0.09,0.134,0.256,0.043,0.371c-0.052,0.066-0.129,0.1-0.207,0.1
		c-0.057,0-0.114-0.018-0.163-0.057l-1.081-0.853c-0.176,0.384-0.329,0.786-0.439,1.138c-0.036,0.113-0.14,0.186-0.252,0.186
		c-0.026,0-0.053-0.004-0.079-0.012c-0.139-0.045-0.217-0.191-0.173-0.332c0.064-0.205,0.244-0.744,0.514-1.318l-0.865-0.683
		c-0.114-0.091-0.134-0.257-0.044-0.371c0.09-0.114,0.256-0.134,0.371-0.043L19.596,45.271z M22.762,15.838
		c0.812,0,1.473,0.653,1.473,1.456c0,0.803-0.661,1.456-1.473,1.456c-0.813,0-1.474-0.653-1.474-1.456
		C21.289,16.492,21.949,15.838,22.762,15.838z M16.99,16.957c0.09-0.114,0.256-0.133,0.371-0.043l0.784,0.618
		c0.369-0.657,0.849-1.246,1.407-1.292c0.142-0.008,0.272,0.097,0.285,0.242c0.012,0.146-0.097,0.273-0.242,0.284
		c-0.327,0.027-0.698,0.499-1.025,1.101l1.167,0.92c0.114,0.09,0.134,0.256,0.044,0.371c-0.052,0.066-0.129,0.1-0.207,0.1
		c-0.057,0-0.114-0.018-0.163-0.057l-1.081-0.852c-0.176,0.383-0.329,0.786-0.439,1.137c-0.036,0.113-0.14,0.186-0.252,0.186
		c-0.026,0-0.053-0.004-0.079-0.012c-0.139-0.045-0.217-0.191-0.173-0.332c0.064-0.205,0.244-0.744,0.514-1.318l-0.865-0.683
		C16.92,17.238,16.9,17.072,16.99,16.957z"/>
	<path d="M50.988,23.376v14.386c0.725,0.04,1.449,0.08,2.174,0.12c-0.724,0.287-1.45,0.576-2.174,0.863v1.438
		c0,0.961,0.781,1.742,1.741,1.742h8.903v-20.29h-8.903C51.769,21.636,50.988,22.417,50.988,23.376z M51.689,32.31
		c0-0.802,0.662-1.455,1.474-1.455c0.812,0,1.474,0.653,1.474,1.455c0,0.803-0.661,1.457-1.474,1.457
		C52.351,33.768,51.689,33.113,51.689,32.31z M56.723,35.873c0.143-0.01,0.273,0.098,0.285,0.242
		c0.012,0.145-0.097,0.273-0.242,0.283c-0.328,0.027-0.699,0.5-1.025,1.104l1.167,0.92c0.114,0.09,0.134,0.254,0.044,0.369
		c-0.052,0.065-0.129,0.102-0.207,0.102c-0.058,0-0.115-0.018-0.163-0.059L55.5,37.982c-0.177,0.385-0.33,0.785-0.44,1.139
		c-0.035,0.113-0.139,0.184-0.252,0.184c-0.026,0-0.052-0.004-0.079-0.01c-0.139-0.045-0.217-0.193-0.173-0.332
		c0.064-0.205,0.244-0.746,0.513-1.32l-0.865-0.682c-0.114-0.09-0.134-0.258-0.044-0.371c0.091-0.115,0.257-0.133,0.371-0.043
		l0.783,0.617C55.685,36.508,56.165,35.92,56.723,35.873z M54.788,23.769c0.144-0.009,0.273,0.097,0.285,0.242
		c0.012,0.145-0.097,0.273-0.242,0.285c-0.328,0.026-0.699,0.499-1.025,1.1l1.166,0.921c0.114,0.09,0.134,0.256,0.044,0.371
		c-0.052,0.066-0.129,0.101-0.207,0.101c-0.058,0-0.115-0.019-0.164-0.057l-1.081-0.853c-0.177,0.384-0.329,0.785-0.439,1.137
		c-0.036,0.113-0.14,0.186-0.252,0.186c-0.026,0-0.052-0.004-0.079-0.012c-0.139-0.044-0.217-0.191-0.173-0.331
		c0.064-0.204,0.244-0.745,0.513-1.318l-0.865-0.683c-0.114-0.09-0.134-0.256-0.044-0.371c0.091-0.114,0.257-0.134,0.371-0.044
		l0.783,0.618C53.75,24.403,54.229,23.815,54.788,23.769z"/>
	<path d="M31.5,19.672l-0.544,0.048c-6.05,0.532-10.788,5.707-10.788,11.78c0,6.074,4.739,11.248,10.788,11.779l0.544,0.048V32.925
		c-0.352-0.08-0.701-0.169-1.048-0.268l0.027-0.102c0.339,0.067,0.68,0.125,1.021,0.174v-2.886c-0.229,0.146-0.5,0.233-0.792,0.233
		c-0.813,0-1.474-0.653-1.474-1.456c0-0.803,0.661-1.456,1.474-1.456c0.292,0,0.563,0.087,0.792,0.233V19.672z M29.477,30.493
		c0.142-0.008,0.272,0.097,0.285,0.242c0.012,0.146-0.097,0.272-0.242,0.284c-0.327,0.027-0.698,0.5-1.024,1.101l1.167,0.921
		c0.114,0.09,0.134,0.256,0.043,0.371c-0.052,0.066-0.129,0.1-0.207,0.1c-0.057,0-0.114-0.018-0.163-0.057l-1.081-0.853
		c-0.176,0.384-0.329,0.786-0.439,1.138c-0.036,0.113-0.14,0.186-0.252,0.186c-0.026,0-0.053-0.004-0.079-0.012
		c-0.139-0.045-0.217-0.191-0.173-0.332c0.065-0.205,0.244-0.744,0.514-1.318l-0.865-0.683c-0.114-0.09-0.134-0.256-0.044-0.371
		c0.09-0.114,0.256-0.133,0.371-0.043l0.784,0.618C28.438,31.127,28.919,30.539,29.477,30.493z"/>
	<ellipse cx="47.533" cy="34.44" rx="0.946" ry="0.929"/>
	<path d="M45.216,27.783c0-0.512-0.424-0.928-0.946-0.928c-0.107,0-0.206,0.028-0.301,0.06c0.22,0.566,0.393,1.152,0.531,1.751
		C44.908,28.562,45.216,28.215,45.216,27.783z"/>
	<path d="M56.525,12.23v-0.5H32.5v6.952l0.463,0.035c4.862,0.363,8.945,3.464,10.797,7.706c0.159-0.059,0.33-0.095,0.509-0.095
		c0.812,0,1.474,0.653,1.474,1.456c0,0.685-0.483,1.256-1.128,1.411c0.108,0.586,0.167,1.186,0.192,1.794
		c0.346-0.148,0.693-0.296,1.034-0.458l-1.032-0.415l0.021-0.059l2.577-0.696c0.807-0.366,1.612-0.731,2.418-1.096
		c-0.578,0.67-1.156,1.34-1.735,2.01l-1.396,2.274l-0.058,0.01l-0.124-1.26c-0.548,0.336-1.122,0.63-1.713,0.882
		c-0.342,6.367-5.41,11.622-11.836,12.102L32.5,44.317v6.952h24.024v-0.5c0-2.541,2.067-4.607,4.608-4.607h0.5v-3.236h-8.903
		c-1.512,0-2.741-1.23-2.741-2.742v-0.908l-1.631,0.975l-0.056-0.02l0.471-1.168c-0.303,0.031-0.601,0.057-0.89,0.076l-0.034-1.033
		c0.248,0.004,0.484,0.002,0.722,0l-0.757-0.885l0.045-0.041l2.129,0.469V23.376c0-1.511,1.229-2.741,2.741-2.741h8.903v-3.797h-0.5
		C58.592,16.838,56.525,14.771,56.525,12.23z M45.767,39.098c-0.358-0.033-0.717-0.066-1.073-0.117
		c-0.362-0.053-0.715-0.113-1.057-0.18l0.132-0.94c0.354,0.037,0.699,0.068,1.037,0.094c0.344,0.021,0.688,0.049,1.031,0.064
		L45.767,39.098z M47.533,35.894c-0.812,0-1.474-0.652-1.474-1.455c0-0.801,0.661-1.455,1.474-1.455
		c0.812,0,1.473,0.654,1.473,1.455C49.006,35.242,48.345,35.894,47.533,35.894z"/>
	<path d="M32.5,34.063v9.264l0.544-0.048c5.694-0.5,10.224-5.113,10.737-10.719c-0.134,0.043-0.266,0.091-0.4,0.129
		c-1.421,0.394-2.867,0.652-4.319,0.773c-1.453,0.115-2.909,0.115-4.35-0.027c-0.742-0.074-1.48-0.175-2.212-0.308v0.757
		c0.452,0.286,0.914,0.559,1.385,0.811l-0.134,0.228C33.325,34.652,32.908,34.364,32.5,34.063z M39.699,37.039
		c0.681,0.195,1.34,0.355,2.025,0.498l-0.186,0.791c-0.685-0.18-1.383-0.396-2.042-0.625L39.699,37.039z M35.773,35.611
		c0.642,0.283,1.291,0.539,1.943,0.781l-0.212,0.531c-0.653-0.279-1.292-0.594-1.917-0.93L35.773,35.611z"/>
	<path d="M33.044,19.72L32.5,19.672v13.178c0.745,0.074,1.493,0.116,2.238,0.13c1.423,0.018,2.843-0.047,4.24-0.254
		c1.397-0.202,2.772-0.531,4.078-1.03c0.259-0.097,0.515-0.202,0.771-0.304c-0.007-0.82-0.108-1.621-0.28-2.398
		c-0.442-0.252-0.744-0.718-0.744-1.257c0-0.232,0.061-0.448,0.158-0.643C41.33,23.092,37.553,20.117,33.044,19.72z M41.494,29.706
		c0.114,0.091,0.134,0.257,0.044,0.371c-0.052,0.065-0.129,0.101-0.208,0.101c-0.058,0-0.115-0.019-0.163-0.057l-1.081-0.853
		c-0.177,0.384-0.33,0.785-0.439,1.138c-0.036,0.113-0.14,0.185-0.252,0.185c-0.026,0-0.053-0.004-0.079-0.012
		c-0.139-0.044-0.217-0.192-0.173-0.331c0.064-0.205,0.245-0.746,0.514-1.319l-0.865-0.683c-0.114-0.091-0.134-0.256-0.044-0.371
		c0.091-0.114,0.257-0.134,0.371-0.044l0.784,0.618c0.369-0.657,0.849-1.246,1.407-1.291c0.143-0.011,0.273,0.096,0.285,0.241
		c0.012,0.145-0.097,0.273-0.242,0.285c-0.327,0.027-0.698,0.5-1.025,1.101L41.494,29.706z"/>
</g>
</svg>
