<?xml version="1.0" encoding="iso-8859-1"?>
<!-- Generator: Adobe Illustrator 17.0.0, SVG Export Plug-In . SVG Version: 6.00 Build 0)  -->
<!DOCTYPE svg PUBLIC "-//W3C//DTD SVG 1.1//EN" "http://www.w3.org/Graphics/SVG/1.1/DTD/svg11.dtd">
<svg version="1.1" id="Capa_1" xmlns="http://www.w3.org/2000/svg" xmlns:xlink="http://www.w3.org/1999/xlink" x="0px" y="0px"
	 width="64px" height="64px" viewBox="0 0 64 64" style="enable-background:new 0 0 64 64;" xml:space="preserve">
<g>
	<path d="M29.699,53.91c-3.198-0.134-9.021-0.578-11.754-2.042c-2.677-1.435-9.703-1.811-13.151-1.91
		c0.561,0.217,4.927,1.905,8.885,3.548C17.519,55.098,26.768,55.093,29.699,53.91z"/>
	<path d="M37.165,54.146c-0.387,0-0.762-0.021-1.121-0.052c2.033,0.688,5.25,1.292,9.653,0.659
		c5.292-0.764,8.485-2.926,10.719-4.179c-5.35,0.689-13.422,1.854-15.55,2.837C39.673,53.963,38.37,54.146,37.165,54.146z"/>
	<path d="M49.8,34.784c-0.7,0-1.186,0.893-1.186,2.831c0,1.901,0.459,2.807,1.198,2.807c0.753,0,1.161-0.944,1.161-2.831
		C50.974,35.755,50.577,34.784,49.8,34.784z"/>
	<path d="M50.289,14.502l-0.707-1.531c0,0-0.706-3.061-2.118-4.002c0,0-10.949,4.716-15.716,4.713
		c-4.768-0.004-16.304-4.713-16.304-4.713s-1.53,2.589-1.53,4.355l-0.824,1.178c-1.689,4.17-7.075,29.377-8.164,34.515
		c3.553,0.102,10.616,0.496,13.465,2.021c2.757,1.477,9.193,1.858,12.076,1.957l1.281-9.063l1.661,8.708
		c1.025,0.302,4.42,1.139,7.062-0.082c2.722-1.255,14.048-2.717,18.734-3.281c-0.612-1.801-3.015-9.19-4.444-18.176
		C53.114,20.74,50.289,14.502,50.289,14.502z M17.256,14.81l-1.171-0.366l1.021-3.271l1.171,0.366L17.256,14.81z M42.856,12.806
		l0.868,2.71l-1.169,0.374l-0.868-2.71L42.856,12.806z M36.049,14.813l0.596,2.885l-1.2,0.247L34.85,15.06L36.049,14.813z
		 M20.934,16.219l-1.168-0.373l0.971-3.04l1.169,0.374L20.934,16.219z M24.513,17.467l-1.174-0.359l0.972-3.169l1.173,0.359
		L24.513,17.467z M28.729,18.155h-1.227v-3.219h1.227V18.155z M37.175,30.328l-1.083-0.576c0.067-0.128,1.623-3.16-0.706-5.391
		c-0.205-0.196-0.393-0.408-0.571-0.627c0.878,2.773,0.676,6.164,0.665,6.345L34.255,30c0.004-0.053,0.316-5.226-1.413-7.604
		c-1.516-2.084-2.148-4.34-2.365-5.307c-0.166-0.143-0.277-0.35-0.277-0.587c0-0.434,0.351-0.784,0.784-0.784
		c0.433,0,0.784,0.35,0.784,0.784c0,0.125-0.036,0.238-0.087,0.343c0.17,0.731,0.605,2.285,1.527,3.865
		c-0.591-1.711-0.788-3.366-0.851-4.165c-0.123-0.139-0.203-0.315-0.203-0.514c0-0.434,0.352-0.784,0.785-0.784
		c0.432,0,0.784,0.351,0.784,0.784c0,0.159-0.06,0.3-0.142,0.423c0.107,1.279,0.592,5.05,2.651,7.021
		C38.64,25.778,37.902,28.965,37.175,30.328z M38.281,14.354l1.133-0.472l1.125,2.698l-1.133,0.472L38.281,14.354z M44.059,41.747
		h-1.875v-6.566h-0.025l-1.581,0.752l-0.318-1.453l2.206-1.021h1.594V41.747z M45.084,12.068l1.121-0.498l1.123,2.529l-1.121,0.498
		L45.084,12.068z M49.775,41.888c-2.143,0-3.086-1.925-3.1-4.273c0-2.409,1.007-4.297,3.15-4.297c2.205,0,3.085,1.978,3.085,4.247
		C52.911,40.115,51.879,41.888,49.775,41.888z"/>
</g>
</svg>
