<?xml version="1.0" encoding="iso-8859-1"?>
<!-- Generator: Adobe Illustrator 17.0.0, SVG Export Plug-In . SVG Version: 6.00 Build 0)  -->
<!DOCTYPE svg PUBLIC "-//W3C//DTD SVG 1.1//EN" "http://www.w3.org/Graphics/SVG/1.1/DTD/svg11.dtd">
<svg version="1.1" id="Capa_1" xmlns="http://www.w3.org/2000/svg" xmlns:xlink="http://www.w3.org/1999/xlink" x="0px" y="0px"
	 width="64px" height="64px" viewBox="0 0 64 64" style="enable-background:new 0 0 64 64;" xml:space="preserve">
<g>
	<path d="M56.74,50.143c0-6.676-5.431-12.107-12.107-12.107c-1.54,0-3.009,0.3-4.365,0.827c4.779-5.098,12.181-7.059,14.958-14.618
		c3.084-8.397-1.554-20.27-9.313-15.981c0.31-1.457,0.496-2.335,0.496-2.335L44.034,2.75H32.096h-1.062H19.096l-2.375,3.179
		c0,0,0.184,0.862,0.488,2.295c-7.718-4.183-12.32,7.649-9.245,16.021c2.957,8.051,11.163,9.749,15.856,15.653
		c0.008,0.042,0.018,0.094,0.026,0.133c0.342,1.801,1.241,3.034,2.321,3.887c0.115,0.19,0.242,0.348,0.389,0.448H26.25h-2.06
		c-0.69,0-1.25,0.647-1.25,1.445c0,0.798,0.56,1.445,1.25,1.445h0.2c-0.771,0.321-1.325,1.166-1.325,2.167l-1,7.514
		c0,1.277,0.895,2.312,2,2.312h12.616c2.13,1.862,4.907,3,7.952,3C51.309,62.25,56.74,56.819,56.74,50.143z M45.021,12.463
		c0.305,0.062,0.642-0.002,0.986-0.269c6.912-5.356,8.886,6.947,5.793,12.307c-1.661,2.877-4.109,4.69-6.656,6.391
		c-1.609,1.074-3.21,2.145-4.694,3.352C41.75,27.936,43.707,18.664,45.021,12.463z M18.047,30.893
		c-2.547-1.701-4.996-3.514-6.656-6.391c-3.093-5.359-1.119-17.663,5.793-12.307c0.322,0.25,0.639,0.324,0.929,0.282
		c1.31,6.181,3.258,15.407,4.557,21.709C21.205,33.003,19.629,31.95,18.047,30.893z M44.633,59.25c-1.428,0-2.774-0.338-3.978-0.924
		c-3.034-1.478-5.13-4.582-5.13-8.183c0-2.193,0.776-4.205,2.067-5.777c1.67-2.033,4.203-3.331,7.04-3.331
		c5.03,0,9.107,4.077,9.107,9.107C53.74,55.173,49.663,59.25,44.633,59.25z"/>
	<path d="M50.703,45.87c-0.552-0.551-1.446-0.551-1.997,0l-6.1,6.1l-2.045-2.045c-0.139-0.139-0.299-0.242-0.47-0.311
		c-0.509-0.205-1.114-0.102-1.527,0.311c-0.552,0.551-0.552,1.446,0,1.997l2.115,2.115l0.9,0.9c0.009,0.01,0.016,0.022,0.026,0.031
		c0.277,0.277,0.639,0.414,1.001,0.413c0.362,0.001,0.725-0.137,1.001-0.413c0.01-0.01,0.016-0.021,0.026-0.031l7.07-7.07
		C51.254,47.315,51.254,46.421,50.703,45.87z"/>
</g>
</svg>
