<?xml version="1.0" encoding="iso-8859-1"?>
<!-- Generator: Adobe Illustrator 17.0.0, SVG Export Plug-In . SVG Version: 6.00 Build 0)  -->
<!DOCTYPE svg PUBLIC "-//W3C//DTD SVG 1.1//EN" "http://www.w3.org/Graphics/SVG/1.1/DTD/svg11.dtd">
<svg version="1.1" id="Capa_1" xmlns="http://www.w3.org/2000/svg" xmlns:xlink="http://www.w3.org/1999/xlink" x="0px" y="0px"
	 width="64px" height="64px" viewBox="0 0 64 64" style="enable-background:new 0 0 64 64;" xml:space="preserve">
<g>
	<path d="M36.846,2.631c-0.091-0.218-0.301-0.359-0.537-0.359c-0.076,0-0.15,0.015-0.222,0.044L20.859,8.618
		c-0.296,0.123-0.438,0.463-0.315,0.76l7.102,17.161l1.832,4.427l0.349,0.844c0.12,0.288,0.466,0.434,0.759,0.314l0.214-0.089
		c-0.036-0.163-0.072-0.323-0.112-0.495c-0.336-1.419-0.406-2.572-0.332-3.513c0.186-2.371,1.31-3.359,1.597-3.572
		c0.18-0.187,0.83-0.792,1.705-0.792c0.3,0,0.583,0.074,0.851,0.21c0.716,0.361,1.318,1.196,1.796,2.508
		c0.119,0.327,0.339,0.882,0.501,1.198c0.006,0,0.014-0.002,0.021-0.002c0.021,0.051,0.034,0.107,0.071,0.148
		c0.009,0.035,0.023,0.063,0.033,0.096c0.026,0.083,0.053,0.163,0.087,0.233c-0.005,0.001-0.009,0.001-0.014,0.001l0.436,1.161
		l1.269-0.49l0.369-0.143l0.243-0.094l0.234-0.091l0.054-0.021l0.442-0.171l5.766-2.386c0.296-0.123,0.438-0.463,0.315-0.76
		L36.846,2.631z M38.892,19.838l-4.851-1.943l-1.943,4.851l-2.349-0.941l1.943-4.851l-4.851-1.943l0.941-2.349l4.851,1.943
		l1.943-4.851l2.349,0.941l-1.943,4.851l4.851,1.943L38.892,19.838z"/>
	<path d="M22.639,45.229c0.066,0.069,0.122,0.127,0.178,0.181c0.164,0.16,0.274,0.255,0.305,0.28
		c0.092,0.092,0.182,0.181,0.282,0.279l-0.001,0.001l0.339,0.332l0.182,0.178l0.337,0.331l0.181,0.178l0.182,0.178l-0.004,0.007
		c3.962,3.947,4.448,4.792,7.249,7.921c2.982,3.331,4.278,6.488,4.278,6.488s9.662-3.232,8.69-4.864
		c-0.972-1.632-1.304-4.064-1.304-4.064c-0.309-5.706-4.796-12.87-4.464-12.87c0.023,0,0.071,0.036,0.146,0.11
		c0.663,0.661,1.126,1.021,1.665,1.021c0.382,0,0.801-0.181,1.356-0.565c1.336-0.924-1.326-3.787-1.326-3.787
		s0.613-0.166,1.429-1.388s-4.2-3.826-4.2-3.826s1.805-0.37,1.411-1.854c-0.034-0.129-0.079-0.264-0.15-0.411
		c-0.01-0.021-0.021-0.036-0.031-0.056c-0.003-0.007-0.007-0.013-0.011-0.019l-2.211,0.854l-0.149-0.396l-0.592-1.575l0.002-0.001
		c-0.246-0.442-0.574-1.342-0.574-1.342c-0.686-1.884-1.501-2.389-2.177-2.389c-0.779,0-1.374,0.67-1.374,0.67
		s-2.321,1.476-1.11,6.592c0.034,0.145,0.062,0.277,0.094,0.416c0.037,0.166,0.078,0.338,0.111,0.495
		c0.037,0.175,0.068,0.335,0.1,0.5c0.777,3.938,0.25,4.984,0.25,4.984c-0.407,0.351-0.784,0.49-1.126,0.49
		c-0.713,0-1.273-0.602-1.634-1.143c-0.036-0.108-0.07-0.221-0.102-0.337c-0.029-0.103-0.056-0.21-0.081-0.318
		c-0.38-1.615-0.449-3.721-0.454-3.891l0.178-0.257c0.082-0.169,0.179-0.313,0.273-0.462l-1.9-4.592
		c-0.388,0.4-0.813,0.842-1.329,1.369c-2.544,2.601-2.495,4.161-3.208,8.561c-0.475,2.93-1.75,3.962-1.156,5.698
		C21.575,43.983,22.199,44.766,22.639,45.229z"/>
</g>
</svg>
