<?xml version="1.0" encoding="iso-8859-1"?>
<!-- Generator: Adobe Illustrator 17.0.0, SVG Export Plug-In . SVG Version: 6.00 Build 0)  -->
<!DOCTYPE svg PUBLIC "-//W3C//DTD SVG 1.1//EN" "http://www.w3.org/Graphics/SVG/1.1/DTD/svg11.dtd">
<svg version="1.1" id="Capa_1" xmlns="http://www.w3.org/2000/svg" xmlns:xlink="http://www.w3.org/1999/xlink" x="0px" y="0px"
	 width="64px" height="64px" viewBox="0 0 64 64" style="enable-background:new 0 0 64 64;" xml:space="preserve">
<g>
	<path d="M50.704,15.307h-38.15c-3.866,0-7,3.134-7,7v20.42c0,3.866,3.134,7,7,7h38.15c3.866,0,7-3.134,7-7v-20.42
		C57.704,18.44,54.57,15.307,50.704,15.307z M32.338,24.533c4.09,0.359,7.31,3.801,7.31,7.983c0,4.185-3.221,7.624-7.31,7.983
		V24.533z M11.013,18.881h2.2c0,1.213-0.987,2.199-2.2,2.199V18.881z M11.013,25.89h5.749c0.484,0,0.879,0.395,0.879,0.879v11.894
		c0,0.484-0.394,0.879-0.879,0.879h-5.749V25.89z M11.013,46.153v-2.199c1.213,0,2.2,0.986,2.2,2.199H11.013z M30.922,40.5
		c-4.092-0.359-7.312-3.799-7.312-7.983c0-0.535,0.054-1.056,0.154-1.562c0.169,0.283,0.347,0.571,0.545,0.861l-0.176-0.103
		l-0.251,0.428l1.194,0.697l0.014,0.018c0.046,0.057,0.091,0.113,0.14,0.169c0.099,0.113,0.247,0.172,0.405,0.141l0.629,0.369
		l-0.279-0.773c0.006-0.11-0.03-0.22-0.11-0.314l-0.542-1.51L24.873,31.1c-0.297-0.455-0.554-0.903-0.776-1.316
		c1.044-2.865,3.672-4.974,6.824-5.25V40.5z M30.922,21.229c-3.114,0.543-5.326,1.906-5.354,1.924
		c-0.2,0.13-0.258,0.398-0.131,0.597c0.121,0.195,0.397,0.26,0.597,0.134c0.025-0.016,2.037-1.251,4.889-1.776v1.01
		c-3.311,0.247-6.149,2.209-7.63,4.997c-0.023-0.056-0.039-0.094-0.04-0.096c-0.085-0.217-0.341-0.332-0.561-0.244
		c-0.221,0.087-0.331,0.339-0.244,0.562c0.031,0.079,0.159,0.391,0.368,0.834c-0.397,1.041-0.621,2.166-0.621,3.345
		c0,4.963,3.856,9.035,8.728,9.398v1.25c-5.543-0.328-8.996-2.956-9.15-3.075c-0.181-0.143-0.463-0.114-0.608,0.062
		c-0.149,0.187-0.121,0.461,0.065,0.611c0.16,0.128,3.775,2.969,9.693,3.286v2.103H14.628c0-1.993-1.621-3.614-3.615-3.614v-1.582
		h5.749c1.265,0,2.294-1.03,2.294-2.295v-2.484l0.544,0.333c-0.077,0.14-0.155,0.298-0.208,0.471
		c-0.107,0.327-0.145,0.625-0.118,0.938l0.005,0.059l0.201,0.139l0.84-1.178l0.923,0.508l0.126-0.192l-0.013-0.053
		c-0.066-0.273-0.181-0.501-0.355-0.712c-0.07-0.093-0.148-0.167-0.222-0.229l0.64-0.974l-0.206-0.129l-0.053,0.016
		c-0.3,0.086-0.556,0.223-0.828,0.444c-0.086,0.067-0.172,0.146-0.265,0.244c-0.065-0.021-0.141-0.04-0.22-0.051
		c-0.299-0.052-0.531-0.036-0.79,0.038v-9.081c0-1.265-1.029-2.294-2.294-2.294h-5.749v-1.98c1.994,0,3.615-1.621,3.615-3.614
		h16.294V21.229z M52.245,46.153h-2.199c0-1.213,0.986-2.199,2.199-2.199V46.153z M52.245,39.541h-5.946
		c-0.485,0-0.879-0.394-0.879-0.879V26.769c0-0.484,0.394-0.879,0.879-0.879h5.946V39.541z M52.245,24.475h-5.946
		c-1.266,0-2.294,1.029-2.294,2.294v11.894c0,1.265,1.028,2.295,2.294,2.295h5.946v1.582c-1.993,0-3.615,1.621-3.615,3.614H32.338
		v-2.079c0.335-0.007,0.685-0.021,1.068-0.051l-0.177,0.091l0.227,0.442l1.287-0.662c0.021-0.003,0.041-0.004,0.061-0.006
		c0.039-0.003,0.078-0.007,0.112-0.013c0.143-0.019,0.264-0.108,0.327-0.237l0.66-0.346l-0.773-0.176
		c-0.096-0.079-0.2-0.117-0.338-0.096c-0.016,0.003-0.03,0.004-0.046,0.005l-0.021,0.002l-1.507-0.344l-0.109,0.483l0.005,0.002
		c-0.26,0.014-0.519,0.018-0.778,0.021v-1.275c4.871-0.363,8.727-4.435,8.727-9.398s-3.856-9.034-8.727-9.398v-1.197
		c0.341-0.027,0.688-0.047,1.043-0.047c2.097,0,4.059,0.517,5.843,1.538l-0.137,0.461l1.504,0.447
		c0.01,0.007,0.021,0.015,0.039,0.027c0.092,0.072,0.223,0.108,0.323,0.083l0.776,0.23l-0.406-0.615
		c0.014-0.147-0.048-0.292-0.165-0.381c-0.037-0.029-0.072-0.054-0.108-0.079l-0.058-0.042l-0.784-1.185l-0.412,0.273l0.122,0.185
		c-1.985-1.201-4.179-1.809-6.529-1.809c-0.358,0-0.707,0.019-1.052,0.045v-2.173H48.63c0,1.993,1.622,3.614,3.615,3.614V24.475z
		 M52.245,21.08c-1.213,0-2.199-0.986-2.199-2.199h2.199V21.08z"/>
	<path d="M19.906,26.91c-0.109,0.324-0.147,0.621-0.119,0.935l0.005,0.057l0.199,0.143l0.843-1.178l0.925,0.512l0.121-0.197
		l-0.012-0.05c-0.064-0.273-0.175-0.494-0.355-0.714c-0.061-0.079-0.132-0.153-0.221-0.228l0.636-0.967l-0.199-0.139L21.671,25.1
		c-0.303,0.087-0.558,0.225-0.826,0.445c-0.094,0.074-0.181,0.155-0.267,0.247c-0.069-0.023-0.142-0.043-0.219-0.053
		c-0.283-0.05-0.529-0.038-0.8,0.04l-0.05,0.014l-0.115,0.203l0.719,0.444C20.037,26.576,19.959,26.734,19.906,26.91z"/>
	<path d="M27.731,29.507c-0.108,0.327-0.145,0.625-0.117,0.935l0.005,0.057l0.198,0.141l0.841-1.177l0.929,0.515l0.12-0.204
		l-0.012-0.049c-0.066-0.27-0.18-0.497-0.357-0.713c-0.062-0.079-0.133-0.152-0.221-0.227l0.636-0.968l-0.2-0.138l-0.057,0.017
		c-0.302,0.089-0.565,0.231-0.826,0.446c-0.089,0.07-0.177,0.151-0.266,0.246c-0.066-0.021-0.14-0.041-0.219-0.053
		c-0.286-0.051-0.53-0.038-0.801,0.041l-0.047,0.014l-0.119,0.2l0.72,0.447C27.862,29.174,27.785,29.332,27.731,29.507z"/>
	<path d="M39.421,39.999l-0.058,0.017c-0.298,0.087-0.562,0.229-0.826,0.445c-0.09,0.07-0.177,0.152-0.267,0.247
		c-0.079-0.024-0.15-0.042-0.219-0.053c-0.285-0.051-0.53-0.038-0.8,0.038l-0.049,0.014l-0.115,0.204l0.718,0.445
		c-0.079,0.142-0.155,0.297-0.208,0.473c-0.108,0.326-0.146,0.622-0.118,0.933l0.005,0.056l0.197,0.147l0.843-1.182l0.928,0.513
		l0.121-0.2l-0.012-0.05c-0.067-0.273-0.181-0.5-0.356-0.714c-0.07-0.089-0.147-0.162-0.222-0.226l0.637-0.969L39.421,39.999z"/>
	<path d="M45.813,28.375l-0.048,0.014l-0.118,0.202l0.72,0.446c-0.074,0.132-0.153,0.292-0.208,0.471
		c-0.108,0.332-0.145,0.621-0.118,0.936l0.005,0.058l0.199,0.141l0.843-1.177l0.926,0.512l0.122-0.199l-0.012-0.05
		c-0.065-0.27-0.179-0.498-0.357-0.713c-0.072-0.092-0.15-0.167-0.222-0.227l0.637-0.967l-0.199-0.139l-0.057,0.017
		c-0.3,0.087-0.564,0.229-0.826,0.445c-0.089,0.069-0.174,0.146-0.267,0.247c-0.072-0.023-0.143-0.042-0.219-0.052
		C46.33,28.285,46.084,28.298,45.813,28.375z"/>
	<path d="M47.383,34.388c-0.068-0.021-0.143-0.042-0.221-0.053c-0.295-0.051-0.535-0.035-0.801,0.042l-0.047,0.014l-0.118,0.199
		l0.72,0.446c-0.08,0.143-0.155,0.298-0.208,0.472c-0.108,0.322-0.146,0.619-0.119,0.934l0.005,0.06l0.202,0.137l0.839-1.173
		l0.926,0.509l0.122-0.192l-0.012-0.051c-0.065-0.276-0.176-0.497-0.356-0.714c-0.062-0.08-0.132-0.153-0.222-0.229l0.637-0.972
		l-0.201-0.134l-0.056,0.016c-0.302,0.086-0.558,0.224-0.828,0.444C47.545,34.223,47.456,34.31,47.383,34.388z"/>
</g>
</svg>
