<?xml version="1.0" encoding="iso-8859-1"?>
<!-- Generator: Adobe Illustrator 17.0.0, SVG Export Plug-In . SVG Version: 6.00 Build 0)  -->
<!DOCTYPE svg PUBLIC "-//W3C//DTD SVG 1.1//EN" "http://www.w3.org/Graphics/SVG/1.1/DTD/svg11.dtd">
<svg version="1.1" id="Capa_1" xmlns="http://www.w3.org/2000/svg" xmlns:xlink="http://www.w3.org/1999/xlink" x="0px" y="0px"
	 width="64px" height="64px" viewBox="0 0 64 64" style="enable-background:new 0 0 64 64;" xml:space="preserve">
<g>
	<path d="M59.773,34.415c-6.726-7.154-4.252-21.228-3.055-26.368c0.251-1.076-0.242-1.417-1.259-0.986
		c-8.603,3.651-21.715-3.864-23.175-4.728V2.25c0,0-0.028,0.017-0.07,0.042c-0.041-0.025-0.07-0.042-0.07-0.042v0.083
		c-1.46,0.865-14.572,8.379-23.175,4.728C7.952,6.63,7.459,6.972,7.71,8.047c1.197,5.139,3.671,19.213-3.055,26.368
		c-0.757,0.805-0.585,1.342,0.519,1.342h3.85c0,0,0.836,16.757,23.12,24.96v0.054c0.024-0.009,0.046-0.018,0.07-0.027
		c0.024,0.009,0.046,0.018,0.07,0.027v-0.054c22.284-8.203,23.12-24.96,23.12-24.96h3.85C60.358,35.757,60.529,35.22,59.773,34.415z
		 M32.45,46.35c-0.056,0-0.11-0.008-0.166-0.008c-0.047,0-0.092-0.006-0.139-0.007c-9.23-0.165-16.691-7.712-16.691-16.981
		s7.461-16.816,16.691-16.981c0.047-0.001,0.092-0.007,0.139-0.007c0.056-0.001,0.11-0.008,0.166-0.008
		c9.372,0,16.997,7.625,16.997,16.997S41.822,46.35,32.45,46.35z"/>
	<path d="M32.286,24.801c-0.001,0-0.002,0-0.003,0c-0.048,0-0.092,0.013-0.139,0.014c-2.447,0.077-4.411,2.073-4.411,4.539
		c0,2.466,1.964,4.462,4.411,4.539c0.047,0.001,0.092,0.014,0.139,0.014c0.001,0,0.002,0,0.003,0c2.515,0,4.553-2.038,4.553-4.553
		C36.839,26.839,34.801,24.801,32.286,24.801z"/>
	<path d="M32.45,13.857c-0.056,0-0.11,0.008-0.166,0.008c-0.047,0-0.092,0.006-0.139,0.007c-8.403,0.165-15.191,7.039-15.191,15.481
		s6.788,15.316,15.191,15.481c0.047,0.001,0.092,0.007,0.139,0.007c0.056,0.001,0.11,0.008,0.166,0.008
		c8.545,0,15.497-6.952,15.497-15.497S40.995,13.857,32.45,13.857z M42.642,36.209c-1.557-1.23-3.798-1.339-5.486-0.119
		c-1.689,1.221-2.289,3.385-1.607,5.25c-1.04,0.284-2.134,0.438-3.263,0.438c-0.001,0-0.002,0-0.003,0
		c-0.047,0-0.093-0.004-0.139-0.005c-1.142-0.013-2.247-0.18-3.296-0.483c0.709-1.855,0.141-4.027-1.53-5.273
		c-1.67-1.245-3.911-1.169-5.486,0.037c-1.163-1.808-1.871-3.935-1.959-6.219c1.984,0.09,3.867-1.13,4.525-3.108
		c0.657-1.976-0.117-4.08-1.758-5.197c1.377-1.695,3.19-3.02,5.267-3.805c0.528,1.867,2.215,3.239,4.235,3.302
		c0.047,0.001,0.092,0.012,0.139,0.012c0.001,0,0.002,0,0.003,0c2.084,0,3.838-1.402,4.378-3.314c2.146,0.811,4.008,2.199,5.4,3.974
		c-1.658,1.088-2.469,3.178-1.846,5.165c0.624,1.989,2.487,3.242,4.472,3.186C44.564,32.319,43.827,34.425,42.642,36.209z"/>
</g>
</svg>
