<?xml version="1.0" encoding="iso-8859-1"?>
<!-- Generator: Adobe Illustrator 16.0.4, SVG Export Plug-In . SVG Version: 6.00 Build 0)  -->
<!DOCTYPE svg PUBLIC "-//W3C//DTD SVG 1.1//EN" "http://www.w3.org/Graphics/SVG/1.1/DTD/svg11.dtd">
<svg version="1.1" id="Capa_1" xmlns="http://www.w3.org/2000/svg" xmlns:xlink="http://www.w3.org/1999/xlink" x="0px" y="0px"
	 width="64px" height="64px" viewBox="0 0 64 64" style="enable-background:new 0 0 64 64;" xml:space="preserve">
<g>
	<polygon points="11.893,15.708 14.197,17.628 17,14.265 17,22 20,22 20,14.265 22.803,17.628 25.107,15.708 18.5,7.779 	"/>
	<polygon points="20,31.857 20,24 17,24 17,31.857 14.197,28.495 11.893,30.416 18.5,38.343 25.107,30.416 22.803,28.495 	"/>
	<polygon points="11.893,47.585 14.197,49.505 17,46.143 17,54 20,54 20,46.143 22.803,49.505 25.107,47.585 18.5,39.657 	"/>
	<rect x="29" y="12" width="21" height="3"/>
	<rect x="29" y="29" width="21" height="3"/>
	<rect x="29" y="47" width="21" height="3"/>
</g>
</svg>
