<?xml version="1.0" encoding="iso-8859-1"?>
<!-- Generator: Adobe Illustrator 17.0.0, SVG Export Plug-In . SVG Version: 6.00 Build 0)  -->
<!DOCTYPE svg PUBLIC "-//W3C//DTD SVG 1.1//EN" "http://www.w3.org/Graphics/SVG/1.1/DTD/svg11.dtd">
<svg version="1.1" id="Capa_1" xmlns="http://www.w3.org/2000/svg" xmlns:xlink="http://www.w3.org/1999/xlink" x="0px" y="0px"
	 width="64px" height="64px" viewBox="0 0 64 64" style="enable-background:new 0 0 64 64;" xml:space="preserve">
<g>
	<path d="M35.518,8.62c-0.312,0-0.44,0.289-0.46,0.484h0.882C35.94,8.923,35.861,8.62,35.518,8.62z"/>
	<path d="M15,57.335h32.334V4.668H15V57.335z M21.312,54.875h-1.938v-5.25h1.938V54.875z M22.5,54.875h-0.438v-5.25H22.5V54.875z
		 M24.188,54.875h-1v-5.25h1V54.875z M25.25,54.875h-0.438v-5.25h0.438V54.875z M43.729,21.75c0,2.002-1.623,3.625-3.625,3.625
		c-2.002,0-3.625-1.623-3.625-3.625s1.623-3.625,3.625-3.625C42.106,18.125,43.729,19.748,43.729,21.75z M36.86,8.18h0.318V7.734
		l0.729-0.201V8.18h0.533v0.548h-0.533v0.866c0,0.289,0.073,0.421,0.293,0.421c0.104,0,0.152-0.004,0.221-0.02l0.005,0.562
		c-0.093,0.034-0.274,0.065-0.48,0.065c-0.24,0-0.44-0.084-0.562-0.206c-0.138-0.142-0.206-0.371-0.206-0.709V8.727H36.86V8.18z
		 M35.562,8.126c0.773,0,1.066,0.602,1.066,1.194c0,0.127-0.015,0.24-0.023,0.293h-1.542c0.02,0.309,0.327,0.455,0.675,0.455
		c0.255,0,0.46-0.034,0.661-0.103l0.098,0.505c-0.245,0.102-0.543,0.151-0.866,0.151c-0.812,0-1.277-0.471-1.277-1.219
		C34.354,8.796,34.73,8.126,35.562,8.126z M31.904,7.098h0.744v2.09h0.01c0.054-0.103,0.113-0.2,0.172-0.288l0.484-0.72h0.896
		l-0.857,0.969l0.979,1.424h-0.916l-0.582-0.983l-0.187,0.235v0.748h-0.744V7.098z M32.948,19.667
		c-0.598-0.199-0.826-0.521-0.819-0.861c0-0.538,0.456-0.942,1.165-0.942c0.333,0,0.626,0.082,0.802,0.17l-0.152,0.615
		c-0.129-0.07-0.381-0.164-0.621-0.164c-0.217,0-0.339,0.088-0.339,0.229c0,0.14,0.111,0.21,0.462,0.333
		c0.545,0.188,0.768,0.469,0.773,0.884c0,0.539-0.416,0.932-1.235,0.932c-0.375,0-0.709-0.088-0.926-0.205l0.158-0.632
		c0.164,0.1,0.504,0.21,0.768,0.21c0.269,0,0.38-0.088,0.38-0.233C33.363,19.848,33.276,19.778,32.948,19.667z M29.872,17.934
		l0.387,1.329c0.07,0.246,0.117,0.469,0.164,0.697h0.017c0.047-0.234,0.094-0.451,0.158-0.697l0.369-1.329h0.937l-1.065,2.863h-0.89
		l-1.043-2.863H29.872z M28.354,10.572V8.18h0.744v2.393H28.354z M30.93,8.126c0.196,0,0.411,0.033,0.567,0.093L31.38,8.771
		c-0.088-0.039-0.221-0.073-0.416-0.073c-0.392,0-0.646,0.278-0.642,0.671c0,0.436,0.294,0.67,0.656,0.67
		c0.176,0,0.313-0.028,0.426-0.078l0.088,0.548c-0.132,0.063-0.382,0.113-0.666,0.113c-0.772,0-1.268-0.475-1.268-1.224
		C29.559,8.698,30.039,8.126,30.93,8.126z M28.731,7.142c0.24,0,0.387,0.162,0.392,0.372c0,0.206-0.151,0.372-0.401,0.372
		c-0.235,0-0.387-0.166-0.387-0.372C28.335,7.304,28.491,7.142,28.731,7.142z M25.559,7.274h2.535V7.9h-0.9v2.672h-0.744V7.9h-0.891
		V7.274z M23.604,12.625c2.002,0,3.625,1.623,3.625,3.625s-1.623,3.625-3.625,3.625c-2.002,0-3.625-1.623-3.625-3.625
		S21.602,12.625,23.604,12.625z M17.625,30.25H45.5v2.375H17.625V30.25z M17.625,35.375H45.5v2.375H17.625V35.375z M17.625,40.25
		H45.5v2.375H17.625V40.25z M17.625,45.375H45.5v2.375H17.625V45.375z M17.625,49.625h1v5.25h-1V49.625z"/>
</g>
</svg>
