<?xml version="1.0" encoding="iso-8859-1"?>
<!-- Generator: Adobe Illustrator 17.0.0, SVG Export Plug-In . SVG Version: 6.00 Build 0)  -->
<!DOCTYPE svg PUBLIC "-//W3C//DTD SVG 1.1//EN" "http://www.w3.org/Graphics/SVG/1.1/DTD/svg11.dtd">
<svg version="1.1" id="Capa_1" xmlns="http://www.w3.org/2000/svg" xmlns:xlink="http://www.w3.org/1999/xlink" x="0px" y="0px"
	 width="64px" height="64px" viewBox="0 0 64 64" style="enable-background:new 0 0 64 64;" xml:space="preserve">
<g>
	<path d="M56.025,12.716H33v5.988c6.885,0.515,12.333,6.268,12.333,13.282C45.333,39,39.885,44.752,33,45.267v5.988h23.024
		c0-2.816,2.292-5.108,5.108-5.108V43.91h-8.403c-1.787,0-3.241-1.454-3.241-3.241V23.862c0-1.787,1.454-3.241,3.241-3.241h8.403
		v-2.797C58.316,17.824,56.025,15.532,56.025,12.716z"/>
	<path d="M43.333,31.985c0-5.911-4.551-10.773-10.333-11.282v22.563C38.782,42.758,43.333,37.896,43.333,31.985z"/>
	<path d="M31,43.267V20.704c-5.781,0.509-10.332,5.371-10.332,11.282C20.668,37.896,25.219,42.758,31,43.267z"/>
	<path d="M58.025,51.255h3.108v-3.108C59.419,48.147,58.025,49.541,58.025,51.255z"/>
	<path d="M51.488,23.862v16.807c0,0.685,0.557,1.241,1.241,1.241h8.403V22.621h-8.403C52.045,22.621,51.488,23.178,51.488,23.862z"
		/>
	<path d="M31,51.255v-5.988C24.116,44.752,18.668,39,18.668,31.985c0-7.014,5.448-12.767,12.332-13.282v-5.988H7.976
		c0,2.816-2.292,5.108-5.108,5.108v2.797h8.124c1.787,0,3.241,1.454,3.241,3.241v16.807c0,1.787-1.454,3.241-3.241,3.241H2.867
		v2.237c2.817,0,5.108,2.292,5.108,5.108H31z"/>
	<path d="M2.867,48.147v3.108h3.108C5.976,49.541,4.581,48.147,2.867,48.147z"/>
	<path d="M12.232,40.669V23.862c0-0.684-0.557-1.241-1.241-1.241H2.867V41.91h8.124C11.675,41.91,12.232,41.353,12.232,40.669z"/>
	<path d="M5.976,12.716H2.867v3.108C4.581,15.824,5.976,14.43,5.976,12.716z"/>
	<path d="M61.133,15.824v-3.108h-3.108C58.025,14.43,59.419,15.824,61.133,15.824z"/>
</g>
</svg>
