<?xml version="1.0" encoding="utf-8"?>
<!-- Generator: Adobe Illustrator 16.0.0, SVG Export Plug-In . SVG Version: 6.00 Build 0)  -->
<!DOCTYPE svg PUBLIC "-//W3C//DTD SVG 1.1//EN" "http://www.w3.org/Graphics/SVG/1.1/DTD/svg11.dtd">
<svg version="1.1" id="Capa_1" xmlns="http://www.w3.org/2000/svg" xmlns:xlink="http://www.w3.org/1999/xlink" x="0px" y="0px"
	 width="64px" height="64px" viewBox="0 0 64 64" enable-background="new 0 0 64 64" xml:space="preserve">
<g>
	<polygon points="35.303,26.855 43.771,14.735 33.466,5.125 19.074,10.301 19.553,23.864 	"/>
	<polygon points="29.816,51.413 37.567,59.486 51.103,53.706 53.314,41.745 39.876,40.092 	"/>
	<path d="M2.666,43.056l0.171,0.209c4.605,11.749,16.036,20.073,29.417,20.073c17.448,0,31.592-14.144,31.592-31.592
		c0-17.448-14.144-31.592-31.592-31.592c-17.448,0-31.592,14.145-31.592,31.592c0,3.906,0.714,7.646,2.011,11.1L2.666,43.056z
		 M2.309,31.746c0-3.99,0.791-7.797,2.214-11.282l7.473-9.272l1.937-3.106c5.069-3.934,11.424-6.285,18.322-6.285
		c0.166,0,0.329,0.01,0.496,0.012l3.342,1.231l7.366,0.94c4.717,1.911,8.843,4.987,12.013,8.875l-1.226,5.341l4.84,13.649
		l3.092,0.784c-0.475,16.103-13.709,29.056-29.923,29.056c-8.073,0-15.404-3.216-20.795-8.428l5.812-4.992l-5.547-14.297
		l-8.678-2.989l-0.201,6.375C2.499,35.54,2.309,33.665,2.309,31.746z"/>
</g>
</svg>
