<?xml version="1.0" encoding="iso-8859-1"?>
<!-- Generator: Adobe Illustrator 17.0.0, SVG Export Plug-In . SVG Version: 6.00 Build 0)  -->
<!DOCTYPE svg PUBLIC "-//W3C//DTD SVG 1.1//EN" "http://www.w3.org/Graphics/SVG/1.1/DTD/svg11.dtd">
<svg version="1.1" id="Capa_1" xmlns="http://www.w3.org/2000/svg" xmlns:xlink="http://www.w3.org/1999/xlink" x="0px" y="0px"
	 width="64px" height="64px" viewBox="0 0 64 64" style="enable-background:new 0 0 64 64;" xml:space="preserve">
<g>
	<path d="M31.84,12.724l1.414,2.857c0.613,0.475,1.373,0.769,2.208,0.769c0.635,0,1.222-0.177,1.741-0.464
		c1.117-0.617,1.882-1.792,1.882-3.158c0-0.782-0.254-1.502-0.675-2.094c-0.657-0.922-1.729-1.528-2.947-1.528
		C33.463,9.106,31.843,10.726,31.84,12.724z"/>
	<path d="M41.234,4.473c0-0.358-0.068-0.697-0.165-1.024C40.625,1.95,39.253,0.85,37.611,0.85c-0.367,0-0.714,0.071-1.048,0.172
		c0.478,0.202,0.905,0.516,1.214,0.948c0.915,1.276,0.621,3.059-0.655,3.975l-1.815,1.302c0.628,0.522,1.424,0.848,2.304,0.848
		c0.349,0,0.68-0.065,0.999-0.157C40.121,7.502,41.234,6.124,41.234,4.473z"/>
	<path d="M23.271,61.613c0.106,0.014,0.211,0.021,0.316,0.021c1.187,0,2.219-0.88,2.378-2.089l1.491-11.349l3.969-13.203
		l1.709-0.051l2.505,12.219c0.057,0.276,0.161,0.539,0.309,0.778l8.677,14.069c0.454,0.736,1.24,1.141,2.046,1.141
		c0.43,0,0.865-0.116,1.258-0.358c1.129-0.696,1.479-2.175,0.783-3.304l-8.454-13.707L37.73,33.454
		c-0.31-4.641,1.923-11.547,2.834-14.136c0.07-0.126,0.15-0.246,0.194-0.389l1.694-5.463c0.048-0.155,0.078-0.315,0.09-0.477
		l0.538-7.24c0.068-0.913-0.449-1.73-1.23-2.098c0.052,0.267,0.083,0.54,0.083,0.822c0,2.059-1.449,3.779-3.379,4.212l-0.071,0.961
		c0.801,0.785,1.302,1.876,1.302,3.084c0,1.867-1.197,3.447-2.858,4.05l-0.18,0.579l-1.456-0.323L33.787,16.7l-0.044-0.01
		l-0.372-0.083l-0.438-0.097l-0.245-0.495l-0.624-1.26c-0.116-0.194-0.219-0.396-0.302-0.609l-0.603-1.218l-1.303-2.634l4.386-3.146
		l0.284-0.203l0.282-0.202l1.906-1.367c0.964-0.692,1.185-2.034,0.494-2.998c-0.399-0.557-1.017-0.857-1.652-0.885
		c-0.032-0.001-0.063-0.011-0.096-0.011c-0.18,0-0.359,0.037-0.535,0.082c-0.249,0.065-0.493,0.161-0.715,0.32l-0.098,0.07
		L25.87,7.866c-0.855,0.613-1.14,1.756-0.673,2.698l4.039,8.162c-0.045,0.14-0.089,0.281-0.133,0.424
		c-0.044,0.146-0.087,0.295-0.13,0.444c-1.567,5.448-2.215,12.56-2.389,14.817l-3.784,12.588c-0.037,0.124-0.064,0.25-0.081,0.378
		L21.203,58.92C21.031,60.234,21.956,61.44,23.271,61.613z"/>
</g>
</svg>
