<?xml version="1.0" encoding="iso-8859-1"?>
<!-- Generator: Adobe Illustrator 17.0.0, SVG Export Plug-In . SVG Version: 6.00 Build 0)  -->
<!DOCTYPE svg PUBLIC "-//W3C//DTD SVG 1.1//EN" "http://www.w3.org/Graphics/SVG/1.1/DTD/svg11.dtd">
<svg version="1.1" id="Capa_1" xmlns="http://www.w3.org/2000/svg" xmlns:xlink="http://www.w3.org/1999/xlink" x="0px" y="0px"
	 width="64px" height="64px" viewBox="0 0 64 64" style="enable-background:new 0 0 64 64;" xml:space="preserve">
<g>
	<path d="M57.282,47.114l-1.592-2.764l-0.41,2.952c-0.032,0.229-0.224,0.405-0.457,0.415c-8.317,0.379-16.454,3.635-19.441,4.954
		c1.65,0.523,13.205,3.705,24.907-5.315h-2.588C57.527,47.356,57.368,47.264,57.282,47.114z"/>
	<path d="M37.839,19.394c0.24,0,0.479-0.081,0.73-0.249c0.214-0.142,0.241-0.28,0.239-0.397c-0.013-1.066-2.367-3.074-4.453-4.554
		c-0.061,0.002-0.126,0.004-0.185,0.006C35.024,16.619,36.453,19.394,37.839,19.394z"/>
	<path d="M21.249,13.056c0.606,0.021,1.229,0.041,1.858,0.062c0.135-0.961,0.29-1.794,0.342-2.065h-1.745L21.67,11.18
		C21.666,11.194,21.443,12.017,21.249,13.056z"/>
	<path d="M31.001,14.257c-1.405,1.405-3.098,3.376-3.173,4.628c-0.017,0.263,0.044,0.459,0.189,0.616
		c0.146,0.159,0.262,0.177,0.335,0.177c0.356,0,0.888-0.442,1.422-1.183c0.864-1.201,1.569-2.916,1.827-4.237
		c-0.05,0-0.096,0.001-0.146,0.001C31.309,14.259,31.155,14.258,31.001,14.257z"/>
	<path d="M41.921,11.052h-1.702c0.066,0.313,0.232,1.119,0.363,2.017c0.567-0.013,1.144-0.025,1.725-0.039
		c-0.15-1.023-0.314-1.868-0.318-1.884L41.921,11.052z"/>
	<path d="M49.102,12.884c0.817-0.017,1.569-0.032,2.233-0.044l-0.097-1.788h-2.484C48.812,11.31,48.961,12.008,49.102,12.884z"/>
	<path d="M45.7,11.052c0.073,0.282,0.257,1.009,0.419,1.895c0.69-0.015,1.361-0.028,2.007-0.042
		c-0.163-0.988-0.334-1.729-0.336-1.744l-0.024-0.108H45.7z"/>
	<path d="M42.955,11.052c0.05,0.261,0.194,1.041,0.326,1.956c0.622-0.014,1.244-0.027,1.857-0.04
		c-0.191-0.998-0.4-1.773-0.404-1.788l-0.03-0.128H42.955z"/>
	<path d="M24.416,11.146c-0.004,0.017-0.182,0.926-0.337,2.002c0.577,0.017,1.154,0.033,1.725,0.049
		c0.133-0.95,0.311-1.817,0.382-2.145h-1.749L24.416,11.146z"/>
	<path d="M18.614,11.16c-0.003,0.016-0.178,0.777-0.343,1.788c0.625,0.024,1.297,0.048,1.999,0.073
		c0.167-0.919,0.357-1.68,0.434-1.97h-2.064L18.614,11.16z"/>
	<path d="M17.647,11.052h-2.403v1.778c0.533,0.021,1.234,0.051,2.053,0.082C17.438,12.022,17.591,11.312,17.647,11.052z"/>
	<path d="M30.824,52.734c-4.688-4.744-18.741-6.336-18.893-6.353c-0.207-0.022-0.374-0.175-0.419-0.377l-0.601-2.74l-1.423,2.177
		c-0.082,0.125-0.217,0.206-0.367,0.218c-1.228,0.094-2.991,0.045-3.771,0.017c-0.003,0.054-0.008,0.109-0.011,0.163
		C5.339,45.839,11.335,55.805,30.824,52.734z"/>
	<path d="M34.928,51.817c2.955-1.309,11.07-4.572,19.45-5.045l0.549-3.952c0.028-0.204,0.184-0.368,0.387-0.407
		c0.204-0.04,0.408,0.054,0.511,0.233l2.155,3.744h3.11c-0.491-2.642-4.314-22.533-9.609-30.869l-0.093-1.718
		c-0.639,0.014-1.361,0.029-2.148,0.045c0.086,0.686,0.148,1.41,0.148,2.075h-0.967c0-0.65-0.065-1.373-0.153-2.056
		c-0.64,0.014-1.306,0.027-1.991,0.042c0.097,0.692,0.157,1.409,0.132,2.034l-0.966-0.04c0.023-0.595-0.041-1.295-0.141-1.974
		c-0.626,0.014-1.261,0.026-1.897,0.041c0.081,0.718,0.131,1.431,0.103,1.977L42.543,15.9c0.025-0.512-0.028-1.206-0.109-1.906
		c-0.583,0.013-1.162,0.025-1.732,0.038c0.079,0.79,0.099,1.547-0.027,2.016L39.741,15.8c0.091-0.344,0.068-1.001-0.011-1.744
		c-1.383,0.032-2.681,0.064-3.794,0.095c1.782,1.354,3.822,3.203,3.839,4.587c0.005,0.497-0.226,0.917-0.67,1.213
		c-0.409,0.272-0.835,0.411-1.267,0.411c-2.177,0-3.774-3.568-4.552-5.762c-0.04,0.018-0.084,0.026-0.126,0.04
		c-0.041,1.104,0.081,3.815,2.036,5.598l-0.65,0.714c-1.746-1.591-2.229-3.745-2.335-5.232c-0.393,1.199-0.998,2.43-1.655,3.342
		c-0.758,1.051-1.499,1.584-2.205,1.584c-0.391,0-0.753-0.17-1.047-0.49c-0.325-0.354-0.473-0.801-0.441-1.329
		c0.084-1.396,1.498-3.202,2.794-4.58c-0.931-0.012-1.947-0.032-3.001-0.06c-0.067,0.674-0.084,1.276,0.006,1.614l-0.933,0.248
		c-0.118-0.443-0.107-1.145-0.039-1.886c-0.575-0.017-1.155-0.033-1.734-0.051c-0.074,0.66-0.12,1.307-0.096,1.789l-0.965,0.048
		c-0.026-0.517,0.018-1.187,0.091-1.867c-0.643-0.021-1.278-0.042-1.898-0.062c-0.092,0.65-0.149,1.317-0.126,1.886l-0.966,0.04
		c-0.025-0.604,0.031-1.29,0.121-1.959c-0.7-0.026-1.367-0.051-1.986-0.074c-0.086,0.671-0.148,1.377-0.148,2.013h-0.966
		c0-0.656,0.06-1.371,0.144-2.05c-0.761-0.03-1.407-0.056-1.916-0.077v1.482c0,0-8.685,18.384-9.814,29.432
		c0.732,0.026,2.254,0.065,3.382,0l1.922-2.938c0.106-0.163,0.299-0.245,0.491-0.211c0.191,0.034,0.343,0.182,0.385,0.371
		l0.772,3.529c2.321,0.283,14.961,2.029,19.365,6.844l1.494-5.863L34.928,51.817z M20.8,34.364c0.289,0,0.523,0.234,0.523,0.523
		c0,0.289-0.234,0.523-0.523,0.523c-0.288,0-0.523-0.234-0.523-0.523C20.277,34.599,20.512,34.364,20.8,34.364z M19.381,33.177
		c0.289,0,0.523,0.234,0.523,0.523c0,0.288-0.234,0.522-0.523,0.522c-0.289,0-0.523-0.234-0.523-0.522
		C18.857,33.411,19.092,33.177,19.381,33.177z M16.281,33.177c0.288,0,0.522,0.234,0.522,0.523c0,0.288-0.234,0.522-0.522,0.522
		c-0.289,0-0.523-0.234-0.523-0.522C15.758,33.411,15.992,33.177,16.281,33.177z M14.762,34.364c0.289,0,0.523,0.234,0.523,0.523
		c0,0.289-0.234,0.523-0.523,0.523c-0.289,0-0.523-0.234-0.523-0.523C14.238,34.599,14.473,34.364,14.762,34.364z M20.839,37.263
		v3.866l-2.695,2.255l-3.141-2.175v-3.946l-0.886-0.564l3.704-2.415l3.945,2.255L20.839,37.263z"/>
	<path d="M39.253,11.155l-0.05-0.104H27.171l-0.02,0.104c-0.098,0.442-0.254,1.24-0.375,2.065c1.382,0.034,2.696,0.059,3.827,0.067
		c0.402-0.388,0.741-0.695,0.96-0.889c0.025-0.034,0.067-0.052,0.096-0.083c0.131-0.368,0.564-0.646,1.102-0.646
		c0.592,0,1.064,0.335,1.133,0.76c0.089,0.126,0.158,0.265,0.204,0.415c0.167,0.11,0.349,0.233,0.553,0.374
		c1.308-0.039,3.049-0.083,4.955-0.128C39.502,12.389,39.369,11.688,39.253,11.155z"/>
</g>
</svg>
