<?xml version="1.0" encoding="iso-8859-1"?>
<!-- Generator: Adobe Illustrator 17.0.0, SVG Export Plug-In . SVG Version: 6.00 Build 0)  -->
<!DOCTYPE svg PUBLIC "-//W3C//DTD SVG 1.1//EN" "http://www.w3.org/Graphics/SVG/1.1/DTD/svg11.dtd">
<svg version="1.1" id="Capa_1" xmlns="http://www.w3.org/2000/svg" xmlns:xlink="http://www.w3.org/1999/xlink" x="0px" y="0px"
	 width="64px" height="64px" viewBox="0 0 64 64" style="enable-background:new 0 0 64 64;" xml:space="preserve">
<g>
	<path d="M35.271,29.977l0.469-1.149c0.827-0.003,1.684-0.015,2.515-0.038l3.511,8.273l3.267,16.718
		c0.243,1.242,1.332,2.104,2.552,2.104c0.166,0,0.333-0.016,0.502-0.049c1.411-0.276,2.331-1.643,2.055-3.054l-3.319-16.985
		c-0.035-0.177-0.088-0.351-0.159-0.518l-3.088-7.276c0.014-0.092,0.03-0.227,0.048-0.387c-1.763-0.71-3.475-1.379-4.136-1.599
		c-0.761-0.118-1.485-0.541-2.32-1.03c-0.645-0.377-1.541-0.918-2.664-1.609c-0.015-0.009-0.029-0.018-0.044-0.027
		c0.26,2.468,0.336,4.21,0.227,5.195L35.271,29.977z"/>
	<path d="M61.416,26.547l-7.434-4.357l-8.301-6.724c-0.311-0.252-0.673-0.394-1.042-0.441l0-0.005c-0.01,0-0.02,0-0.03,0
		c-0.089-0.01-0.178-0.016-0.267-0.016c-0.064,0-0.128,0.003-0.192,0.01c-0.413-0.006-0.823-0.009-1.228-0.009
		c-5.683,0-10.461,0.594-11.229,0.694c0.728,0.081,1.157,0.138,1.172,0.14l0.587,0.081l0.028,0.174
		c0.101,0.047,0.196,0.098,0.287,0.156c3.056,1.933,5.966,3.714,6.898,4.223c0.717,0.177,1.745,0.552,3.468,1.241
		c0.053-0.68,0.106-1.361,0.156-2.015l7.194,5.827c0.081,0.066,0.168,0.126,0.258,0.179l7.57,4.437
		c0.225,0.132,0.465,0.217,0.708,0.257c0.114,0.019,0.229,0.029,0.343,0.029c0.715,0,1.411-0.369,1.798-1.03
		C62.741,28.405,62.408,27.129,61.416,26.547z"/>
	<path d="M26.701,54.517c1.203,0,2.284-0.839,2.544-2.064l2.484-11.715l-0.785-3.702l-2.088-5.118l-1.119,2.743
		c-0.058,0.143-0.104,0.292-0.136,0.443l-3.449,16.269c-0.298,1.406,0.6,2.788,2.006,3.086
		C26.34,54.499,26.522,54.517,26.701,54.517z"/>
	<path d="M17.447,27.147c0.264,0,0.533-0.05,0.792-0.158c0.579-0.238,1.185-0.485,1.784-0.727c-0.092-1.069-0.205-2.46-0.338-4.169
		l-4.258,3.45c0.025,0.105,0.051,0.211,0.094,0.314C15.851,26.661,16.628,27.147,17.447,27.147z"/>
	<circle cx="38.112" cy="9.472" r="3.926"/>
	<circle cx="8.303" cy="53.339" r="4.13"/>
	<path d="M10.92,22.941l-7.244,4.246c-0.967,0.567-1.291,1.81-0.724,2.777c0.378,0.644,1.056,1.003,1.753,1.003
		c0.111,0,0.223-0.009,0.334-0.028c0.237-0.04,0.47-0.123,0.69-0.251l7.376-4.323c0.088-0.052,0.172-0.11,0.251-0.174l1.22-0.989
		l0.405-0.328l0.472-0.383l2.154-1.745l1.079-0.874l1.064-0.862l0.615-0.499c0.006,0.081,0.013,0.164,0.019,0.246
		c0.011,0.139,0.021,0.277,0.032,0.418c0.011,0.138,0.021,0.277,0.032,0.417c0.117,1.51,0.241,3.075,0.351,4.358
		c0.012,0.143,0.024,0.281,0.036,0.416c0.013,0.144,0.025,0.282,0.037,0.416c0.078,0.871,0.144,1.533,0.187,1.822l-3.009,7.09
		c-0.069,0.162-0.121,0.331-0.155,0.504l-3.234,16.551c-0.269,1.375,0.628,2.707,2.003,2.976c0.164,0.032,0.328,0.047,0.489,0.047
		c1.189,0,2.25-0.84,2.487-2.05l3.183-16.29l3.421-8.062c0.81,0.023,1.645,0.034,2.451,0.037l0.16,0.392l0.216,0.529l0.216,0.53
		l2.423,5.941l0.426,2.009l0.202,0.953l0.207,0.976l2.479,11.693c0.253,1.193,1.306,2.011,2.479,2.011
		c0.174,0,0.351-0.018,0.529-0.056c1.37-0.291,2.246-1.637,1.955-3.008l-3.361-15.853c-0.031-0.148-0.076-0.292-0.133-0.432
		l-1.224-3l-0.216-0.53l-0.216-0.529l-0.972-2.383c0.204-1.245-0.064-4.187-0.388-6.85c0.459,0.286,0.95,0.59,1.445,0.895
		c1.104,0.68,1.995,1.219,2.647,1.6c0.817,0.478,1.47,0.859,2.099,0.938c0.597,0.192,2.26,0.838,4.039,1.553
		c0.129,0.052,0.257,0.103,0.387,0.156c0.129,0.052,0.257,0.104,0.386,0.156c0.428,0.174,0.855,0.347,1.268,0.517
		c0.253,0.105,0.514,0.154,0.772,0.154c0.798,0,1.555-0.474,1.877-1.257c0.427-1.036-0.067-2.222-1.104-2.649
		c-0.93-0.383-1.734-0.713-2.451-1.004c-0.134-0.054-0.261-0.106-0.388-0.157c-0.136-0.055-0.261-0.105-0.389-0.157
		c-1.879-0.755-2.987-1.162-3.689-1.323c-0.925-0.49-4.182-2.494-7.038-4.301c-0.182-0.115-0.377-0.188-0.575-0.239
		c-0.005-0.033-0.009-0.056-0.009-0.056s-0.882-0.121-2.341-0.261c-0.207-0.02-0.425-0.04-0.654-0.06
		c-0.212-0.019-0.433-0.038-0.663-0.056c-0.193-0.016-0.389-0.031-0.594-0.047c-0.847,1.098-2.161,1.819-3.651,1.819
		c-1.61,0-3.027-0.829-3.856-2.08c-0.166,0.001-0.329,0.001-0.496,0.004c-0.062-0.007-0.125-0.01-0.187-0.01
		c-0.087,0-0.173,0.006-0.26,0.016c-0.01,0-0.019,0-0.029,0c0,0,0,0.004,0,0.005c-0.36,0.047-0.713,0.184-1.016,0.43L10.92,22.941z"
		/>
	<path d="M22.012,15.94c0.701,0.782,1.707,1.283,2.84,1.283c1.038,0,1.977-0.417,2.666-1.088c0.12-0.116,0.222-0.248,0.325-0.379
		c0.097-0.122,0.187-0.247,0.269-0.381c0.352-0.579,0.566-1.251,0.566-1.978c0-2.113-1.713-3.826-3.826-3.826
		s-3.826,1.713-3.826,3.826c0,0.631,0.167,1.217,0.438,1.742c0.069,0.135,0.132,0.273,0.216,0.398
		C21.778,15.683,21.896,15.811,22.012,15.94z"/>
</g>
</svg>
