<?xml version="1.0" encoding="iso-8859-1"?>
<!-- Generator: Adobe Illustrator 17.0.0, SVG Export Plug-In . SVG Version: 6.00 Build 0)  -->
<!DOCTYPE svg PUBLIC "-//W3C//DTD SVG 1.1//EN" "http://www.w3.org/Graphics/SVG/1.1/DTD/svg11.dtd">
<svg version="1.1" id="Capa_1" xmlns="http://www.w3.org/2000/svg" xmlns:xlink="http://www.w3.org/1999/xlink" x="0px" y="0px"
	 width="64px" height="64px" viewBox="0 0 64 64" style="enable-background:new 0 0 64 64;" xml:space="preserve">
<g>
	<path d="M32.717,11.351l0.4-0.002c2.485,0,8.133,0.224,12.133,2.056c-0.863-6.174-6.151-10.93-12.562-10.93
		c-6.412,0-11.7,4.757-12.563,10.932c4.011-1.833,9.703-2.058,12.209-2.058L32.717,11.351z"/>
	<path d="M46.41,15.199c-0.325-0.228-0.682-0.433-1.053-0.626c-3.809-1.992-9.741-2.224-12.24-2.224
		c-0.141,0-0.272,0.001-0.39,0.002c-0.119-0.001-0.251-0.002-0.393-0.002c-2.519,0-8.498,0.231-12.316,2.225
		c-0.371,0.193-0.728,0.398-1.053,0.626c0,0-3.698,12.945,12.211,34.126h-0.625h-0.623h-1.563c-1.084,0-1.962,0.879-1.962,1.962
		c0,0.645,0.315,1.212,0.796,1.57c-2.963,1.84-4.943,5.115-4.943,8.859H43.12c0-3.745-1.98-7.019-4.943-8.859
		c0.48-0.358,0.796-0.925,0.796-1.57c0-1.084-0.879-1.962-1.962-1.962h-1.563h-0.623h-0.625
		C50.107,28.144,46.41,15.199,46.41,15.199z M31.309,45.281c-7.661-9.456-9.084-17.586-8.942-22.724
		c0.102-3.674,1.002-5.822,1.002-5.822c0.453-0.318,0.936-0.572,1.426-0.798c-0.136,0.229-0.243,0.471-0.332,0.724
		c-0.076,0.217-0.136,0.442-0.183,0.675c-0.027,0.017-0.057,0.03-0.084,0.047c-0.252,0.743-0.904,3.031-0.828,6.398
		c1.808,1.957,4.217,3.346,6.941,3.863v-0.029c0.092,0.027,0.185,0.048,0.278,0.072c0.074,0.019,0.147,0.04,0.222,0.057
		c0.165,0.037,0.332,0.066,0.5,0.093V45.281z M34.088,45.281V27.834c0.168-0.028,0.335-0.058,0.5-0.095
		c0.067-0.015,0.133-0.035,0.2-0.051c0.1-0.025,0.201-0.048,0.3-0.077v0.031c2.714-0.52,5.112-1.906,6.915-3.855
		c0.084-3.389-0.557-5.666-0.804-6.403c-0.033-0.021-0.069-0.037-0.103-0.058c-0.047-0.233-0.108-0.459-0.184-0.676
		c-0.088-0.252-0.196-0.494-0.332-0.722c0.498,0.229,0.988,0.485,1.448,0.808c0,0,0.896,2.137,1.001,5.794
		C43.177,27.666,41.763,35.808,34.088,45.281z"/>
</g>
</svg>
