<?xml version="1.0" encoding="iso-8859-1"?>
<!-- Generator: Adobe Illustrator 17.0.0, SVG Export Plug-In . SVG Version: 6.00 Build 0)  -->
<!DOCTYPE svg PUBLIC "-//W3C//DTD SVG 1.1//EN" "http://www.w3.org/Graphics/SVG/1.1/DTD/svg11.dtd">
<svg version="1.1" id="Capa_1" xmlns="http://www.w3.org/2000/svg" xmlns:xlink="http://www.w3.org/1999/xlink" x="0px" y="0px"
	 width="64px" height="64px" viewBox="0 0 64 64" style="enable-background:new 0 0 64 64;" xml:space="preserve">
<g>
	<circle cx="43.743" cy="32.011" r="4.783"/>
	<circle cx="39.917" cy="6.666" r="4.783"/>
	<path d="M7.05,38.592c-0.94-0.163-1.903,0.135-2.587,0.801c-0.684,0.667-1.006,1.621-0.867,2.566l2.551,17.274
		c0.218,1.479,1.489,2.542,2.94,2.542c0.145,0,0.291-0.01,0.438-0.032c1.626-0.24,2.75-1.753,2.51-3.379l-1.95-13.202l10.932,1.9
		c0.053,0.009,0.105,0.005,0.158,0.011c0.387,0.135,0.815,0.255,1.308,0.352c6.066,1.185,12.48-1.562,16.398-4.193l7.891,5.748
		c0.338,0.246,0.724,0.419,1.133,0.505l9.992,2.126c0.209,0.044,0.417,0.066,0.622,0.066c1.375,0,2.61-0.958,2.908-2.357
		c0.342-1.608-0.684-3.188-2.292-3.531l-9.371-1.994l-7.579-5.521c-0.822-1.102-2.669-2.165-4.558-2.653l-5.554-5.471l0.811-7.933
		c0.167-1.635-1.023-3.096-2.658-3.264c-1.64-0.166-3.096,1.023-3.264,2.658l-0.957,9.354c-0.092,0.898,0.229,1.79,0.872,2.423
		l2.575,2.536c-2.353-0.081-4.419-0.405-4.419-0.405c-0.003,0.002-0.007,0.005-0.01,0.007L11.397,4.1
		C10.743,2.592,8.99,1.9,7.482,2.554c-1.508,0.654-2.2,2.406-1.546,3.915l14.243,32.845c0.099,0.229,0.229,0.433,0.374,0.623
		c-0.226,0.293-0.441,0.591-0.64,0.892L7.05,38.592z"/>
</g>
</svg>
