<?xml version="1.0" encoding="iso-8859-1"?>
<!-- Generator: Adobe Illustrator 17.0.0, SVG Export Plug-In . SVG Version: 6.00 Build 0)  -->
<!DOCTYPE svg PUBLIC "-//W3C//DTD SVG 1.1//EN" "http://www.w3.org/Graphics/SVG/1.1/DTD/svg11.dtd">
<svg version="1.1" id="Capa_1" xmlns="http://www.w3.org/2000/svg" xmlns:xlink="http://www.w3.org/1999/xlink" x="0px" y="0px"
	 width="64px" height="64px" viewBox="0 0 64 64" style="enable-background:new 0 0 64 64;" xml:space="preserve">
<g>
	<circle cx="36.404" cy="6.929" r="5.191"/>
	<path d="M54.089,30.765c0.297,0.109,0.6,0.161,0.899,0.161c1.059,0,2.054-0.652,2.442-1.703c1.656-4.496-0.99-11.011-1.297-11.739
		l-0.366-0.866l-9.207-4.769c-0.545-0.282-1.141-0.342-1.7-0.231c-4.173-0.358-9.66,2.711-11.087,3.563
		c-0.226,0.135-0.353,0.215-0.353,0.215l0,0.006c-0.24,0.162-0.465,0.35-0.643,0.6l-4.998,6.985l-6.658,3.276
		c-1.289,0.635-1.82,2.194-1.186,3.483c0.453,0.92,1.376,1.454,2.336,1.454c0.386,0,0.777-0.086,1.147-0.268l7.831-3.854
		l2.589-3.617l0.431,8.317c0,0,0.029,0.011,0.077,0.03c0.012,0.147,0.03,0.294,0.068,0.441l0.838,3.23l-5.004,5.669L17.756,56.242
		c-0.916,1.107-0.761,2.747,0.346,3.663c0.485,0.402,1.073,0.597,1.657,0.597c0.748,0,1.491-0.321,2.006-0.943l12.413-15.001
		l2.652-3.005l0.263,1.015l1.451,0.399c4.026,1.106,8.883,2.704,10.231,3.473c0.474,0.67,1.255,1.1,2.123,1.1
		c0.06,0,0.12-0.002,0.181-0.006c1.434-0.098,2.516-1.34,2.418-2.774c-0.149-2.172-2.133-3.204-7.648-5.021
		c-1.678-0.553-3.336-1.049-4.47-1.377l-0.393-1.516l1.736-1.967c1.677-1.055,4.712-9.989,5.289-16.422l3.65,1.891
		c0.7,1.989,1.528,5.334,0.887,7.074C52.05,28.772,52.741,30.268,54.089,30.765z"/>
	<circle cx="10.518" cy="53.603" r="5.465"/>
</g>
</svg>
