<?xml version="1.0" encoding="iso-8859-1"?>
<!-- Generator: Adobe Illustrator 17.0.0, SVG Export Plug-In . SVG Version: 6.00 Build 0)  -->
<!DOCTYPE svg PUBLIC "-//W3C//DTD SVG 1.1//EN" "http://www.w3.org/Graphics/SVG/1.1/DTD/svg11.dtd">
<svg version="1.1" id="Capa_1" xmlns="http://www.w3.org/2000/svg" xmlns:xlink="http://www.w3.org/1999/xlink" x="0px" y="0px"
	 width="64px" height="64px" viewBox="0 0 64 64" style="enable-background:new 0 0 64 64;" xml:space="preserve">
<g>
	<path d="M18.715,40.789v17.582h7.21V38.217C23.327,38.653,20.898,39.539,18.715,40.789z"/>
	<path d="M38.559,39.79c-2.581-1.145-5.434-1.811-8.447-1.877v20.458h8.447V39.79z"/>
	<path d="M14.528,43.889c-3.861,3.707-6.25,8.826-6.25,14.481h6.25V43.889z"/>
	<path d="M33.643,11.183c2.396-1.887,4.547-2.615,6.414-2.181c-2.44-3.117-5.929-5.082-9.814-5.082
		c-6.332,0-11.622,5.19-12.995,12.148C21.209,16.248,27.889,15.716,33.643,11.183z"/>
	<path d="M30.242,35.338c7.375,0,13.355-7.032,13.355-15.709c0-0.315-0.024-0.623-0.04-0.934c-0.201-2.015-1.122-6.55-3.486-7.593
		c-1.316-0.579-3.062-0.024-5.19,1.651c-6.405,5.046-13.674,5.565-17.925,5.324c-0.042,0.51-0.066,1.027-0.066,1.551
		C16.89,28.306,22.867,35.338,30.242,35.338z"/>
	<path d="M41.738,42.021c-0.511,0.818-0.611,5.045-0.631,6.824c-0.037,3.316-0.22,6.231-0.367,6.874
		c-0.101,0.445,0.006,0.906,0.3,1.298c0.985,1.316,3.835,1.59,4.686,1.643c0.299,0.019,0.595,0.028,0.883,0.028
		c1.041,0,4.468-0.144,4.887-1.99c0.099-0.421,1.311-2.279,3.272-4.332c1.053-1.101,3.491-3.796,3.395-5.028
		c-0.07-0.948-0.866-1.831-1.851-2.055c-1.061-0.24-2.605,0.865-3.642,1.938c-0.068-0.379-0.114-0.985-0.053-1.88
		c0.375-5.454-0.191-5.986-0.433-6.214c-0.503-0.472-1.335-0.616-1.981-0.34c-0.043-0.029-0.097-0.074-0.149-0.138
		c-0.721-0.88-2.074-0.969-2.817-0.195c-0.117,0.122-0.361,0.216-0.493,0.217c-0.812-0.185-1.786,0.166-2.249,0.802
		c-0.288,0.395-0.591,1.068-0.759,1.677C42.973,41.01,42.145,41.371,41.738,42.021z M44.083,43.211l0.041,3.744l1-0.011
		l-0.046-4.186c0.266-0.246,0.469-0.577,0.559-0.967c0.091-0.4,0.329-0.941,0.452-1.115c0.023-0.02,0.066-0.047,0.211-0.054
		c0.213,0.048,0.445,0.046,0.681,0.021l-0.496,6.078l0.996,0.081l0.528-6.47c0.195-0.103,0.379-0.224,0.539-0.366
		c0.222,0.257,0.488,0.443,0.764,0.589l-0.355,6.212l0.998,0.057l0.344-6.019c0.131-0.004,0.263-0.005,0.385-0.042
		c0.062,0.748,0.086,2.286-0.062,4.442c-0.13,1.906,0.117,3.208,0.734,3.87c0.3,0.321,0.693,0.498,1.109,0.498
		c0.513,0,1.004-0.256,1.457-0.761c0.836-0.927,1.713-1.475,2.007-1.556c0.086,0.039,0.163,0.111,0.205,0.17
		c-0.225,0.477-1.171,1.844-2.812,3.56c-1.318,1.379-3.36,3.846-3.746,5.153c-0.268,0.209-1.321,0.551-2.968,0.551
		c-0.248,0-0.502-0.008-0.76-0.024c-1.77-0.109-2.781-0.533-3.108-0.761c0.201-1.251,0.338-4.45,0.367-7.036
		c0.031-2.851,0.208-5.024,0.341-5.721C43.657,43.216,43.872,43.231,44.083,43.211z"/>
</g>
</svg>
