<?xml version="1.0" encoding="iso-8859-1"?>
<!-- Generator: Adobe Illustrator 17.0.0, SVG Export Plug-In . SVG Version: 6.00 Build 0)  -->
<!DOCTYPE svg PUBLIC "-//W3C//DTD SVG 1.1//EN" "http://www.w3.org/Graphics/SVG/1.1/DTD/svg11.dtd">
<svg version="1.1" id="Capa_1" xmlns="http://www.w3.org/2000/svg" xmlns:xlink="http://www.w3.org/1999/xlink" x="0px" y="0px"
	 width="64px" height="64px" viewBox="0 0 64 64" style="enable-background:new 0 0 64 64;" xml:space="preserve">
<g>
	<path d="M32.276,3.064c-15.674,0-28.425,12.751-28.425,28.425s12.751,28.425,28.425,28.425s28.425-12.751,28.425-28.425
		S47.95,3.064,32.276,3.064z M14.023,50.569c-5.03-4.814-8.172-11.585-8.172-19.08c0-0.157,0.009-0.311,0.012-0.467l7.36,2.534
		l5.15,13.275L14.023,50.569z M20.049,11.577l13.364-4.808l9.567,8.925l-7.862,11.255l-14.624-2.779L20.049,11.577z M49.926,51.135
		c-0.553,0.497-1.127,0.971-1.72,1.421L37.22,57.249l-7.196-7.499l9.341-10.513l12.478,1.535L49.926,51.135z M53.445,15.689
		c3.3,4.41,5.257,9.881,5.257,15.8c0,0.159-0.009,0.316-0.012,0.474l-1.489-0.378l-4.495-12.674L53.445,15.689z"/>
</g>
</svg>
