<?xml version="1.0" encoding="iso-8859-1"?>
<!-- Generator: Adobe Illustrator 17.0.0, SVG Export Plug-In . SVG Version: 6.00 Build 0)  -->
<!DOCTYPE svg PUBLIC "-//W3C//DTD SVG 1.1//EN" "http://www.w3.org/Graphics/SVG/1.1/DTD/svg11.dtd">
<svg version="1.1" id="Capa_1" xmlns="http://www.w3.org/2000/svg" xmlns:xlink="http://www.w3.org/1999/xlink" x="0px" y="0px"
	 width="64px" height="64px" viewBox="0 0 64 64" style="enable-background:new 0 0 64 64;" xml:space="preserve">
<g>
	<path d="M35.654,13.887c-2.497-0.882-6.203-0.749-8.452-0.554L26.552,29.06h0c0,0,1.313,1.003,2.603,0.432
		c1.289-0.571,3.323-1.571,3.323-1.571s-0.743,2.304-3.075,3.08c-1.338,0.445-2.424,0.082-2.91-0.505l-0.328,7.923
		c-0.02,0.473-0.299,1.189-0.627,1.6c-1.894,2.372-7.835,9.715-10.32,11.682c-2.976,2.357,0.495,7.212,6.447,3.857
		c5.952-3.357,4.067-5.569,6.944-7.212c2.877-1.643,6.844-3.929,4.265-7.642c0,0,4.364-18.922,2.777-26.776L35.654,13.887z
		 M33.37,24.993c-0.822,0-1.488-0.479-1.488-1.071s0.666-1.071,1.488-1.071c0.822,0,1.488,0.479,1.488,1.071
		S34.192,24.993,33.37,24.993z M33.37,21.923c-0.822,0-1.488-0.48-1.488-1.071s0.666-1.071,1.488-1.071
		c0.822,0,1.488,0.479,1.488,1.071S34.192,21.923,33.37,21.923z M33.37,18.78c-0.822,0-1.488-0.479-1.488-1.071
		s0.666-1.071,1.488-1.071c0.822,0,1.488,0.479,1.488,1.071S34.192,18.78,33.37,18.78z"/>
	<path d="M27.518,5.713l-0.262,6.319c2.266-0.183,5.718-0.272,8.456,0.478l0.287-6.797C35.999,5.713,31.485,4.783,27.518,5.713z"/>
	<path d="M37.345,32.783c-0.545,0.182-1.044,0.224-1.482,0.176c-0.59,3.404-1.182,6.174-1.446,7.368
		c0.681,1.2,0.891,2.402,0.623,3.583c-0.612,2.704-3.578,4.398-5.744,5.635c-0.78,0.445-0.988,0.866-1.403,1.706
		c-0.686,1.387-1.625,3.285-5.502,5.482c0.88,1.637,3.58,2.655,7.217,0.605c5.952-3.357,4.067-5.569,6.944-7.212
		c2.877-1.643,6.844-3.929,4.265-7.642c0,0,4.364-18.922,2.777-26.776l0.002-0.039c-1.809-0.639-4.248-0.742-6.312-0.679
		c0.489,4.468-0.281,11.036-1.165,16.453c0.313,0.018,0.646-0.022,0.978-0.17c1.29-0.571,3.323-1.571,3.323-1.571
		S39.677,32.007,37.345,32.783z M41.312,18.421c0.822,0,1.488,0.479,1.488,1.071s-0.666,1.071-1.488,1.071
		c-0.822,0-1.488-0.479-1.488-1.071S40.491,18.421,41.312,18.421z M41.312,21.563c0.822,0,1.488,0.479,1.488,1.071
		s-0.666,1.071-1.488,1.071c-0.822,0-1.488-0.479-1.488-1.071S40.491,21.563,41.312,21.563z M39.825,25.705
		c0-0.592,0.666-1.071,1.488-1.071c0.822,0,1.488,0.479,1.488,1.071s-0.666,1.071-1.488,1.071
		C40.491,26.776,39.825,26.297,39.825,25.705z"/>
	<path d="M43.654,14.293l0.287-6.797c0,0-3.177-0.65-6.543-0.312l-0.251,5.939l0.009,0.003l-0.029,0.581
		C39.175,13.642,41.613,13.733,43.654,14.293z"/>
</g>
</svg>
