<?xml version="1.0" encoding="iso-8859-1"?>
<!-- Generator: Adobe Illustrator 17.0.0, SVG Export Plug-In . SVG Version: 6.00 Build 0)  -->
<!DOCTYPE svg PUBLIC "-//W3C//DTD SVG 1.1//EN" "http://www.w3.org/Graphics/SVG/1.1/DTD/svg11.dtd">
<svg version="1.1" id="Capa_1" xmlns="http://www.w3.org/2000/svg" xmlns:xlink="http://www.w3.org/1999/xlink" x="0px" y="0px"
	 width="64px" height="64px" viewBox="0 0 64 64" style="enable-background:new 0 0 64 64;" xml:space="preserve">
<g>
	<path d="M17.636,48.536c0.121,1.586,2.605,1.597,2.482,0c-0.157-2.045-0.837-3.825-1.828-5.434c2.693,1.806,6.373,2.975,11.429,2.8
		c0,0,0.827,2.813-1.324,3.31c-2.151,0.496,1.48,2.116,1.48,2.116s-9.429,0.952-9.429,5.044h11.754h0.167h11.754
		c0-4.093-9.429-5.044-9.429-5.044s3.632-1.62,1.48-2.116c-2.151-0.496-1.324-3.31-1.324-3.31c5.25,0.181,9.019-1.083,11.736-3.009
		c-1.061,1.664-1.794,3.509-1.957,5.642c-0.122,1.597,2.361,1.586,2.482,0c0.641-8.368,11.461-11.678,15.046-18.549
		c1.104-2.116,0.91-5.525-0.965-7.204c-2.774-2.485-5.761-1.742-8.668,0.189c-0.116,0.077-0.206,0.167-0.285,0.261
		c-3.165-4.545-10.802-2.883-8.288-4.47c3.144-1.986-9.764-2.317-9.764-2.317s1.655-1.611,1.655-4.468
		c0-2.808-1.98-3.628-3.144-3.869l0.001-0.103c0,0-0.162,0.002-0.414,0.033c-0.253-0.031-0.414-0.033-0.414-0.033l0.001,0.103
		c-1.163,0.241-3.144,1.061-3.144,3.869c0,2.857,1.655,4.468,1.655,4.468s-12.908,0.331-9.764,2.317c2.494,1.575-5-0.048-8.21,4.361
		c-0.056-0.053-0.115-0.105-0.185-0.151c-2.907-1.931-5.893-2.674-8.668-0.189C1.68,24.461,1.486,27.87,2.59,29.987
		C6.175,36.858,16.996,40.168,17.636,48.536z M53.549,27.964c0-1.005-0.124-1.88-0.339-2.648c0.182-0.014,0.373-0.073,0.566-0.202
		c2.577-1.712,7.76-0.28,6.38,3.23c-0.53,1.349-1.412,2.49-2.431,3.509c-1.934,1.934-4.065,3.636-6.093,5.467
		c-0.202,0.182-0.402,0.365-0.602,0.549C53.682,33.095,53.549,27.964,53.549,27.964z M10.969,25.115
		c0.135,0.089,0.268,0.141,0.398,0.173c-0.22,0.775-0.348,1.658-0.348,2.676c0,0-0.124,4.907,2.35,9.591
		c-0.086-0.078-0.17-0.156-0.256-0.234c-2.028-1.831-4.159-3.533-6.093-5.467c-1.019-1.019-1.901-2.16-2.431-3.509
		C3.21,24.835,8.392,23.403,10.969,25.115z"/>
</g>
</svg>
