<?xml version="1.0" encoding="iso-8859-1"?>
<!-- Generator: Adobe Illustrator 17.0.0, SVG Export Plug-In . SVG Version: 6.00 Build 0)  -->
<!DOCTYPE svg PUBLIC "-//W3C//DTD SVG 1.1//EN" "http://www.w3.org/Graphics/SVG/1.1/DTD/svg11.dtd">
<svg version="1.1" id="Capa_1" xmlns="http://www.w3.org/2000/svg" xmlns:xlink="http://www.w3.org/1999/xlink" x="0px" y="0px"
	 width="64px" height="64px" viewBox="0 0 64 64" style="enable-background:new 0 0 64 64;" xml:space="preserve">
<g>
	<path d="M59.618,29.162c-0.974-1.728-2.739-2.802-4.607-2.802c-0.8,0-1.587,0.205-2.276,0.593l-3.39,1.909
		c0.024,0.308,0.009,0.601-0.038,0.883c-0.066,0.397-0.209,0.762-0.418,1.096l4.583-2.581c0.482-0.272,1.009-0.4,1.54-0.4
		c1.277,0,2.572,0.745,3.3,2.038c1.031,1.83,1.62,4.093-0.023,5.018L45.18,44.162c-0.089,1.439-0.328,3.096-0.884,4.304
		c-0.355-0.149-0.733-0.25-1.129-0.272l-7.348-0.41c-0.06,0.261-0.128,0.509-0.208,0.739c-0.039,0.113-0.087,0.213-0.131,0.319
		c0.208,0.127,0.394,0.285,0.566,0.457l7.038,0.393c0.095,0.005,0.186,0.025,0.277,0.044c0.283,0.058,0.545,0.172,0.766,0.339
		c0.202,0.153,0.37,0.345,0.498,0.564c0.181,0.311,0.278,0.676,0.256,1.062l-0.319,5.707c-0.057,1.014-0.897,1.799-1.901,1.799
		c-0.036,0-0.072-0.001-0.108-0.003l-5.251-0.293c-0.116,0.261-0.256,0.509-0.437,0.727c-0.234,0.282-0.519,0.519-0.84,0.704
		l6.445,0.36c0.064,0.004,0.128,0.005,0.192,0.005c1.805,0,3.298-1.412,3.398-3.216l0.319-5.707c0.05-0.895-0.25-1.755-0.839-2.429
		c0.554-1.076,0.916-2.52,1.084-4.374l12.477-8.8C60.733,35.208,61.708,32.871,59.618,29.162z"/>
	<path d="M47.495,24.862c0.153,0.194,0.275,0.383,0.409,0.574c0.266,0.377,0.496,0.746,0.689,1.109
		c0.064-1.25,0.157-2.62,0.298-4.096l0.173-1.811l-0.065,0.006l0.814-8.701c0.188-1.264-0.099-2.528-0.81-3.565
		c-0.738-1.075-1.841-1.778-3.105-1.979c-0.238-0.038-0.481-0.057-0.722-0.057c-0.924,0-1.791,0.269-2.527,0.742
		c-0.344-2.261-2.191-4.034-4.48-4.127c-0.063-0.003-0.126-0.004-0.188-0.004h0c-1.936,0-3.603,1.193-4.342,2.924
		C33.594,5.84,33.544,5.813,33.5,5.778c0.186,0.455,0.286,0.942,0.327,1.443c0.01,0.127,0.036,0.25,0.037,0.378l0.408,6.461
		l0.461-6.326c0.075-1.839,1.516-3.282,3.246-3.282c0.042,0,0.085,0.001,0.127,0.003c1.787,0.073,3.173,1.659,3.096,3.542
		l-0.337,8.279l1.062-5.533c0.268-1.69,1.67-2.902,3.247-2.902c0.161,0,0.323,0.013,0.486,0.039
		c1.766,0.281,2.958,2.017,2.662,3.879l-0.987,10.552l0.061-0.006c-0.074,0.777-0.133,1.517-0.184,2.238
		C47.309,24.648,47.406,24.75,47.495,24.862z"/>
	<path d="M5.192,15.882L8.082,28.21c0.127,0.541,0.398,1.006,0.749,1.388c0.162,2.08,0.323,4.402,0.323,5.405
		c0,1.82,3.712,13.283,6.345,15.675c0.432-0.322,0.946-0.544,1.519-0.602l7.657-0.773l0.644-0.065l0.275-0.028l0.714-0.072
		l0.53-0.053l1.151-0.116l0.763-0.077l4.792-0.484l0.017-0.002c0.105-0.011,0.209-0.016,0.312-0.016h0
		c0.22,0,0.433,0.028,0.641,0.072c0.014,0.003,0.026,0.008,0.04,0.011c0.001-0.003,0.003-0.006,0.004-0.009
		c0.097-0.23,0.179-0.475,0.245-0.737c0.351-1.376,0.322-3.131,0.178-4.642L46.97,31.446l0.568-0.551
		c0.136-0.108,0.248-0.226,0.348-0.348c0.732-0.894,0.533-2.139-0.077-3.362c-0.195-0.39-0.431-0.777-0.691-1.15
		c-0.131-0.188-0.266-0.372-0.408-0.551c-0.867-1.096-2.12-1.68-3.331-1.68c-0.775,0-1.534,0.239-2.163,0.737l-6.381,5.049
		c-0.327-1.933-0.889-5.736-1.177-10.434l-0.065,0.017L32.864,7.632c0-0.154-0.025-0.301-0.043-0.451
		c-0.048-0.416-0.155-0.808-0.321-1.17c-0.182-0.395-0.42-0.753-0.715-1.055c-0.635-0.648-1.495-1.051-2.448-1.052
		c-0.001,0-0.003,0-0.004,0c-1.949,0-3.53,1.664-3.532,3.72l-0.105,3.16l-0.025,0.755l-0.026,0.769l-0.049,1.459l-0.176-1.512
		l-0.088-0.759l-0.088-0.757l-0.692-5.952c-0.221-1.904-1.769-3.314-3.547-3.314c-0.13,0-0.26,0.007-0.391,0.023
		c-1.938,0.225-3.316,2.064-3.078,4.107l0.823,9.823L16.8,7.593c-0.334-1.681-1.699-2.863-3.187-2.863
		c-0.182,0-0.366,0.018-0.55,0.054c-1.689,0.336-2.754,2.138-2.379,4.025l1.867,11.146l-1.288-5.496
		c-0.337-1.437-1.618-2.407-3.033-2.407c-0.236,0-0.475,0.027-0.714,0.083C5.84,12.527,4.799,14.205,5.192,15.882z"/>
	<path d="M36.565,57.464l-0.58-5.745l-0.046-0.459c-0.011-0.105-0.035-0.205-0.06-0.305c-0.076-0.298-0.213-0.568-0.399-0.797
		c-0.136-0.167-0.296-0.31-0.476-0.428c-0.144-0.094-0.3-0.168-0.465-0.224c-0.181-0.062-0.372-0.098-0.57-0.108
		c-0.032-0.002-0.063-0.009-0.095-0.009c-0.07,0-0.14,0.003-0.211,0.011l-2.164,0.218l-2.73,0.276l-2.297,0.232l-0.526,0.053
		l-0.787,0.079l-0.767,0.077l-7.275,0.734c-0.135,0.014-0.264,0.042-0.389,0.079c-0.276,0.083-0.527,0.219-0.739,0.399
		c-0.143,0.12-0.262,0.264-0.368,0.417c-0.27,0.391-0.415,0.871-0.363,1.381l0.626,6.204c0.108,1.071,1.011,1.87,2.066,1.87
		c0.07,0,0.14-0.003,0.211-0.011l13.191-1.331l3.354-0.339c0.236-0.024,0.454-0.094,0.658-0.188
		c0.341-0.158,0.627-0.402,0.836-0.705C36.471,58.456,36.617,57.975,36.565,57.464z M25.608,55.089
		c-0.267,0.09-0.526,0.181-0.766,0.272c-0.285,0.108-0.537,0.216-0.769,0.324c-0.478,0.222-0.837,0.439-0.98,0.642
		c-0.846,1.198,1.129,1.804,1.129,1.804c-1.992-0.366-4.056-1.293-2.487-3.532c0.418-0.596,1.341-0.954,2.463-1.166
		c0.245-0.046,0.496-0.087,0.758-0.119c0.248-0.031,0.499-0.058,0.756-0.079c2.898-0.229,6.223,0.174,6.223,0.174
		S28.24,54.203,25.608,55.089z"/>
</g>
</svg>
