<?xml version="1.0" encoding="iso-8859-1"?>
<!-- Generator: Adobe Illustrator 17.0.0, SVG Export Plug-In . SVG Version: 6.00 Build 0)  -->
<!DOCTYPE svg PUBLIC "-//W3C//DTD SVG 1.1//EN" "http://www.w3.org/Graphics/SVG/1.1/DTD/svg11.dtd">
<svg version="1.1" id="Capa_1" xmlns="http://www.w3.org/2000/svg" xmlns:xlink="http://www.w3.org/1999/xlink" x="0px" y="0px"
	 width="64px" height="64px" viewBox="0 0 64 64" style="enable-background:new 0 0 64 64;" xml:space="preserve">
<g>
	<path d="M39.043,8.275c0.553,0.038,1.036,0.289,1.39,0.661c0.365-0.684,0.591-1.453,0.591-2.282c0-2.694-2.184-4.878-4.878-4.878
		s-4.878,2.184-4.878,4.878c0,2.694,2.184,4.878,4.878,4.878c0.307,0,0.606-0.036,0.897-0.09c-0.198-0.35-0.301-0.76-0.271-1.192
		C36.854,9.079,37.87,8.194,39.043,8.275z"/>
	<path d="M25.703,7.675c-0.726,0.165-4.047,0.381-6.923,0.501l-6.837-2.393c-1.13-0.396-2.367,0.2-2.763,1.33
		c-0.395,1.13,0.2,2.367,1.33,2.763l7.227,2.53c0.23,0.08,0.473,0.122,0.716,0.122c0.028,0,0.056,0,0.085-0.002
		c2.692-0.105,4.522-0.221,5.787-0.332c-5.056,7.63-8.735,15.237-9.86,17.649c-0.321,0.375-0.562,0.825-0.666,1.344l-5.42,27.193
		c-0.322,1.615,0.726,3.185,2.341,3.506c0.197,0.039,0.393,0.058,0.586,0.058c1.393,0,2.638-0.981,2.92-2.399l5.42-27.193
		c0.065-0.326,0.061-0.647,0.021-0.959l3.163,0.433c0.001,0.081-0.009,0.152,0,0.24l1.502,16.098l-1.806,11.388
		c-0.258,1.626,0.852,3.154,2.478,3.412C25.163,62.988,25.32,63,25.475,63c1.441,0,2.708-1.047,2.941-2.515l1.865-11.767
		c0.04-0.252,0.047-0.508,0.022-0.762L28.779,32.64l0.049,0.007c-0.028-0.067-0.046-0.135-0.072-0.202
		c-0.039-0.349-0.142-0.674-0.288-0.973c-1.038-4.917,4.086-9.826,6.989-13.229l7.129,4.278l10.111,2.153
		c0.152,0.032,0.304,0.048,0.454,0.048c1.002,0,1.901-0.698,2.118-1.717c0.249-1.171-0.498-2.323-1.669-2.572l-9.403-2.003
		l-6.917-4.15c-0.178-0.107-0.368-0.176-0.559-0.227c-2.138-2.162-7.557-5.236-8.986-6.03C27.175,7.586,26.417,7.43,25.703,7.675z"
		/>
	<polygon points="53.214,2.561 50.287,1.836 47.972,12.517 50.28,13.087 	"/>
	<path d="M46.866,14.772c-0.244,0.986,0.289,1.907,1.239,2.143c0.149,0.037,0.299,0.056,0.446,0.056
		c0.798,0,1.447-0.538,1.653-1.371c0.118-0.478,0.065-0.951-0.148-1.336c-0.224-0.401-0.612-0.688-1.094-0.808
		C48.024,13.226,47.105,13.806,46.866,14.772z"/>
</g>
</svg>
