<?xml version="1.0" encoding="iso-8859-1"?>
<!-- Generator: Adobe Illustrator 17.0.0, SVG Export Plug-In . SVG Version: 6.00 Build 0)  -->
<!DOCTYPE svg PUBLIC "-//W3C//DTD SVG 1.1//EN" "http://www.w3.org/Graphics/SVG/1.1/DTD/svg11.dtd">
<svg version="1.1" id="Capa_1" xmlns="http://www.w3.org/2000/svg" xmlns:xlink="http://www.w3.org/1999/xlink" x="0px" y="0px"
	 width="64px" height="64px" viewBox="0 0 64 64" style="enable-background:new 0 0 64 64;" xml:space="preserve">
<g>
	<path d="M20.178,54.948c3.826-2.238,3.774-7.229,6.676-7.534c2.902-0.305-0.458-5.956,0-9.622
		c0.287-2.293,1.703-11.298,1.642-19.194c0.097-1.086,0.196-3.645-0.56-6.789h0.001c-0.193-1.014-0.439-1.945-0.756-2.754
		c-0.403-1.028-1.834-1.76-2.938-1.76h-5.978c-1.105,0-2.029,0.895-2.029,1.999c0,0.586,0.007,1.293,0.026,2.081H16.25
		c0,4.148,0.336,6.58,0.522,7.607c0.279,2.491,0.695,5.129,1.327,7.66c2.24,8.961,3.259,11.605,0,17.309
		c-3.259,5.704-11.2,8.554-10.182,10.997C8.934,57.393,16.352,57.188,20.178,54.948z M26.966,12.051
		c0.625,2.617,0.63,4.838,0.562,6.026c-0.322,0.071-0.637,0.137-0.948,0.199l-0.363-6.051
		C26.462,12.171,26.712,12.112,26.966,12.051z M24.254,12.61c0.316-0.053,0.638-0.108,0.976-0.175l0.361,6.026
		c-0.46,0.081-0.905,0.151-1.337,0.211V12.61z M21.794,12.917c0.455-0.036,0.943-0.089,1.46-0.158v6.04
		c-0.505,0.056-0.997,0.103-1.46,0.132V12.917z M17.768,18.871c-0.15-0.815-0.438-2.793-0.504-6.117
		c0.309,0.061,0.697,0.119,1.154,0.163l0.33,6.032C18.403,18.93,18.077,18.903,17.768,18.871z M20.036,18.989
		c-0.1,0-0.188-0.005-0.286-0.006l-0.328-6c0.412,0.014,0.873,0.01,1.371-0.008v6.001C20.535,18.984,20.28,18.989,20.036,18.989z"/>
	<path d="M48.291,43.951c-3.259-5.703-2.24-8.348,0-17.309c0.632-2.531,1.048-5.169,1.327-7.66c0.186-1.027,0.522-3.459,0.522-7.607
		h-0.014c0.019-0.788,0.026-1.495,0.026-2.081c0-1.104-0.924-1.999-2.029-1.999h-5.978c-1.104,0-2.536,0.732-2.938,1.76
		c-0.317,0.809-0.564,1.74-0.757,2.754c0,0,0.001,0,0.002,0c-0.755,3.144-0.657,5.703-0.56,6.789
		c-0.061,7.896,1.355,16.901,1.642,19.194c0.458,3.666-2.902,9.317,0,9.622c2.902,0.306,2.85,5.296,6.676,7.534
		c3.826,2.239,11.244,2.444,12.262,0C59.491,52.505,51.55,49.655,48.291,43.951z M39.809,18.276
		c-0.311-0.062-0.625-0.128-0.948-0.199c-0.067-1.188-0.062-3.409,0.562-6.026c0.254,0.062,0.504,0.12,0.748,0.175L39.809,18.276z
		 M42.136,18.673c-0.432-0.06-0.877-0.13-1.337-0.211l0.361-6.026c0.337,0.067,0.659,0.122,0.975,0.175V18.673z M44.596,18.931
		c-0.463-0.029-0.955-0.076-1.46-0.132v-6.04c0.517,0.069,1.005,0.122,1.46,0.158V18.931z M47.972,12.917
		c0.457-0.044,0.845-0.102,1.154-0.163c-0.066,3.324-0.354,5.302-0.504,6.117c-0.309,0.032-0.635,0.059-0.979,0.078L47.972,12.917z
		 M45.596,18.977v-6.001c0.498,0.018,0.96,0.021,1.372,0.008l-0.328,6c-0.097,0.001-0.186,0.006-0.286,0.006
		C46.109,18.989,45.854,18.984,45.596,18.977z"/>
</g>
</svg>
