<?xml version="1.0" encoding="iso-8859-1"?>
<!-- Generator: Adobe Illustrator 17.0.0, SVG Export Plug-In . SVG Version: 6.00 Build 0)  -->
<!DOCTYPE svg PUBLIC "-//W3C//DTD SVG 1.1//EN" "http://www.w3.org/Graphics/SVG/1.1/DTD/svg11.dtd">
<svg version="1.1" id="Capa_1" xmlns="http://www.w3.org/2000/svg" xmlns:xlink="http://www.w3.org/1999/xlink" x="0px" y="0px"
	 width="64px" height="64px" viewBox="0 0 64 64" style="enable-background:new 0 0 64 64;" xml:space="preserve">
<g>
	<path d="M58.669,26.436c0.998,0,1.944-0.592,2.347-1.572c0.534-1.296-0.084-2.779-1.38-3.312c-5.011-2.063-7.355-3.005-8.649-3.302
		c-1.157-0.613-5.229-3.118-8.8-5.377c-0.228-0.144-0.471-0.235-0.719-0.299c-0.007-0.042-0.011-0.07-0.011-0.07
		s-2.451-0.338-6.129-0.593c-0.878,0.596-1.936,0.946-3.075,0.946c-1.299,0-2.492-0.456-3.432-1.213
		c-0.866-0.01-1.754-0.008-2.654,0.006c-0.184,0.003-0.365,0.004-0.549,0.008c-0.027,0.001-0.053,0-0.08,0.001
		c0,0,0.001,0.012,0.001,0.016c-0.293,0.046-0.583,0.137-0.855,0.291l-11.33,6.407l-9.811,3.738
		c-1.31,0.499-1.967,1.965-1.468,3.274c0.386,1.012,1.349,1.635,2.372,1.635c0.3,0,0.605-0.054,0.903-0.167l9.99-3.806
		c0.119-0.046,0.235-0.1,0.346-0.163l10.258-5.801c0.316,4.143,0.728,9.318,0.889,10.396l-3.762,8.865
		c-0.086,0.203-0.151,0.414-0.193,0.631l-4.044,20.695c-0.336,1.719,0.785,3.385,2.504,3.721c0.206,0.04,0.41,0.059,0.612,0.059
		c1.486,0,2.814-1.051,3.109-2.564l3.98-20.369l4.278-10.08c1.013,0.028,2.057,0.043,3.065,0.047l3.77,9.242l4.143,19.545
		c0.316,1.492,1.633,2.514,3.099,2.514c0.218,0,0.439-0.022,0.661-0.069c1.713-0.364,2.808-2.047,2.445-3.761l-4.202-19.822
		c-0.039-0.185-0.094-0.365-0.166-0.54l-3.286-8.055c0.254-1.556-0.08-5.235-0.485-8.565c0.574,0.357,1.188,0.738,1.807,1.12
		c1.381,0.851,2.494,1.524,3.31,2c1.021,0.597,1.838,1.075,2.624,1.173c1.032,0.331,4.611,1.747,7.602,2.979
		C58.02,26.374,58.347,26.436,58.669,26.436z"/>
	<path d="M27.468,7.373c0,1.897,1.113,3.521,2.713,4.294c0.629,0.304,1.326,0.489,2.071,0.489c0.608,0,1.184-0.125,1.719-0.331
		c1.79-0.692,3.065-2.418,3.065-4.452c0-2.642-2.142-4.784-4.784-4.784C29.61,2.59,27.468,4.731,27.468,7.373z"/>
	<circle cx="16.29" cy="32.189" r="4.784"/>
</g>
</svg>
