<?xml version="1.0" encoding="iso-8859-1"?>
<!-- Generator: Adobe Illustrator 17.0.0, SVG Export Plug-In . SVG Version: 6.00 Build 0)  -->
<!DOCTYPE svg PUBLIC "-//W3C//DTD SVG 1.1//EN" "http://www.w3.org/Graphics/SVG/1.1/DTD/svg11.dtd">
<svg version="1.1" id="Capa_1" xmlns="http://www.w3.org/2000/svg" xmlns:xlink="http://www.w3.org/1999/xlink" x="0px" y="0px"
	 width="64px" height="64px" viewBox="0 0 64 64" style="enable-background:new 0 0 64 64;" xml:space="preserve">
<g>
	<path d="M33.643,33.924c1.062-1.891,1.83-3.945,2.336-6.057l1.855,1.522l0.062-0.09L36.72,24.38
		c-0.123-1.672-0.245-3.344-0.368-5.017c-0.591,1.569-1.181,3.139-1.771,4.708l-2.519,4.385l0.05,0.107l1.939-0.827
		c-0.643,1.798-1.382,3.552-2.173,5.293c-1.081,2.416-2.483,4.7-4.081,6.842c-1.595,2.15-3.413,4.137-5.342,6.018
		c-1.939,1.869-4.014,3.627-6.263,5.13l0.1,0.174c2.39-1.328,4.618-2.923,6.74-4.658c2.119-1.739,4.071-3.69,5.859-5.792
		C30.674,38.637,32.269,36.355,33.643,33.924z"/>
	<path d="M23.621,49.323c-1.27,0.383-2.557,0.729-3.858,0.978l0.027,0.197c1.335-0.149,2.649-0.399,3.959-0.687L23.621,49.323z"/>
	<path d="M27.646,48.786c1.271-0.386,2.563-0.825,3.81-1.322l-0.428-0.997c-1.206,0.551-2.403,1.071-3.652,1.557L27.646,48.786z"/>
	<path d="M34.55,44.678l0.615,1.161c1.192-0.576,2.413-1.224,3.574-1.898l-0.812-1.31C36.821,43.359,35.723,44.026,34.55,44.678z"/>
	<path d="M44.084,37.766c-0.482,0.44-0.977,0.865-1.469,1.295c-0.483,0.421-0.987,0.843-1.512,1.266l1.082,1.437
		c0.546-0.373,1.1-0.765,1.657-1.177c0.545-0.409,1.07-0.842,1.596-1.277L44.084,37.766z"/>
	<path d="M53.718,27.772c-1.25,1.117-2.5,2.235-3.75,3.353l-4.263,2.721L45.7,33.963l2.201,0.173
		c-0.315,0.32-0.632,0.641-0.968,0.966l1.43,1.34c0.36-0.415,0.727-0.849,1.092-1.295l0.935,2.197l0.098-0.051l1.234-4.904
		C52.387,30.85,53.053,29.311,53.718,27.772z"/>
	<path d="M16.301,53.205c-0.031-0.274-0.285-0.478-0.555-0.438l-2.791,0.329c-0.367-1.242-0.51-2.374-0.107-2.848
		c0.179-0.21,0.153-0.525-0.058-0.704c-0.209-0.18-0.525-0.154-0.704,0.058c-0.687,0.809-0.542,2.24-0.154,3.614l-1.879,0.222
		c-0.274,0.032-0.471,0.28-0.438,0.555c0.029,0.254,0.245,0.441,0.495,0.441c0.019,0,0.04-0.001,0.059-0.004l2.073-0.244
		c0.407,1.129,0.892,2.096,1.08,2.456c0.089,0.17,0.263,0.268,0.442,0.268c0.078,0,0.158-0.019,0.232-0.058
		c0.244-0.128,0.339-0.43,0.211-0.675c-0.325-0.62-0.652-1.363-0.93-2.113l2.584-0.305C16.138,53.727,16.334,53.479,16.301,53.205z"
		/>
	<path d="M56.662,23.803c-0.368-1.242-0.51-2.373-0.107-2.847c0.179-0.21,0.153-0.526-0.058-0.705
		c-0.209-0.178-0.525-0.151-0.704,0.058c-0.687,0.809-0.542,2.24-0.154,3.615l-1.878,0.221c-0.274,0.032-0.471,0.281-0.438,0.555
		c0.029,0.254,0.245,0.441,0.495,0.441c0.02,0,0.04-0.001,0.06-0.003l2.073-0.244c0.406,1.128,0.891,2.095,1.08,2.455
		c0.089,0.17,0.263,0.268,0.442,0.268c0.079,0,0.158-0.019,0.232-0.057c0.244-0.128,0.339-0.431,0.21-0.675
		c-0.325-0.62-0.651-1.362-0.93-2.112l2.584-0.305c0.274-0.032,0.471-0.281,0.438-0.555c-0.032-0.274-0.287-0.476-0.555-0.438
		L56.662,23.803z"/>
	<path d="M27.684,32.886c-0.032-0.274-0.287-0.474-0.555-0.438l-2.791,0.329c-0.367-1.242-0.51-2.373-0.107-2.847
		c0.179-0.211,0.153-0.526-0.058-0.705c-0.209-0.177-0.525-0.152-0.704,0.058c-0.687,0.809-0.542,2.24-0.154,3.615l-1.878,0.221
		c-0.274,0.032-0.471,0.28-0.437,0.555c0.029,0.254,0.245,0.441,0.495,0.441c0.02,0,0.04-0.001,0.06-0.004l2.072-0.244
		c0.407,1.13,0.892,2.097,1.08,2.457c0.089,0.17,0.263,0.268,0.442,0.268c0.078,0,0.158-0.019,0.232-0.058
		c0.244-0.128,0.339-0.43,0.211-0.675c-0.325-0.62-0.652-1.363-0.93-2.114l2.584-0.304C27.521,33.409,27.717,33.16,27.684,32.886z"
		/>
	<path d="M41.2,10.289c-0.031-0.274-0.286-0.47-0.555-0.438l-2.791,0.329c-0.368-1.242-0.51-2.374-0.107-2.847
		c0.179-0.211,0.153-0.526-0.058-0.705c-0.209-0.178-0.525-0.151-0.704,0.058c-0.687,0.808-0.542,2.24-0.154,3.615l-1.878,0.221
		c-0.274,0.032-0.471,0.281-0.438,0.555c0.029,0.254,0.245,0.441,0.495,0.441c0.02,0,0.04-0.001,0.06-0.003l2.072-0.244
		c0.407,1.129,0.892,2.096,1.08,2.456c0.089,0.171,0.263,0.268,0.442,0.268c0.078,0,0.158-0.018,0.232-0.057
		c0.244-0.128,0.339-0.43,0.211-0.675c-0.325-0.62-0.652-1.364-0.93-2.114l2.584-0.305C41.037,10.812,41.233,10.563,41.2,10.289z"/>
	<path d="M9.274,43.492c-1.089,1.089-1.099,2.85-0.023,3.925c0.517,0.517,1.205,0.801,1.939,0.801c0.748,0,1.452-0.293,1.984-0.825
		c0.526-0.525,0.819-1.223,0.825-1.963c0.006-0.742-0.278-1.44-0.801-1.961C12.158,42.427,10.33,42.438,9.274,43.492z
		 M12.492,44.176c0.331,0.331,0.512,0.773,0.508,1.246c-0.004,0.476-0.192,0.924-0.532,1.264c-0.677,0.676-1.847,0.688-2.51,0.024
		c-0.686-0.686-0.675-1.812,0.023-2.511c0.343-0.343,0.797-0.531,1.277-0.531C11.727,43.668,12.164,43.849,12.492,44.176z"/>
	<path d="M30.172,28.033c1.089-1.089,1.1-2.85,0.024-3.924c-1.043-1.043-2.872-1.03-3.925,0.024
		c-0.526,0.526-0.819,1.224-0.824,1.963c-0.006,0.742,0.278,1.438,0.801,1.961c0.517,0.517,1.206,0.801,1.94,0.801
		C28.935,28.857,29.64,28.565,30.172,28.033z M26.446,26.102c0.004-0.475,0.192-0.924,0.532-1.263
		c0.343-0.343,0.797-0.532,1.277-0.532c0.468,0,0.906,0.18,1.233,0.508c0.686,0.685,0.674,1.812-0.024,2.51
		c-0.678,0.677-1.846,0.687-2.51,0.023C26.624,27.018,26.443,26.575,26.446,26.102z"/>
	<path d="M43.511,32.65c1.089-1.089,1.1-2.85,0.024-3.924c-1.043-1.042-2.87-1.03-3.925,0.024c-1.088,1.089-1.099,2.849-0.023,3.924
		c0.517,0.517,1.205,0.801,1.94,0.801C42.274,33.476,42.978,33.183,43.511,32.65z M40.317,29.457
		c0.344-0.343,0.797-0.532,1.278-0.532c0.467,0,0.905,0.181,1.232,0.508c0.686,0.685,0.674,1.811-0.024,2.51
		c-0.677,0.676-1.847,0.688-2.51,0.024C39.608,31.282,39.619,30.156,40.317,29.457z"/>
	<path d="M48.201,22.256c0.526-0.526,0.819-1.224,0.824-1.963c0.006-0.742-0.278-1.438-0.801-1.961
		c-1.039-1.042-2.868-1.03-3.923,0.023c-0.526,0.526-0.819,1.224-0.824,1.963c-0.006,0.742,0.278,1.438,0.801,1.961
		c0.517,0.517,1.206,0.801,1.941,0.801C46.966,23.081,47.67,22.788,48.201,22.256z M44.477,20.326
		c0.004-0.475,0.192-0.924,0.532-1.263c0.343-0.343,0.796-0.531,1.276-0.531c0.468,0,0.905,0.18,1.232,0.508
		c0.331,0.331,0.512,0.774,0.509,1.247c-0.004,0.475-0.192,0.924-0.532,1.263c-0.677,0.677-1.845,0.687-2.509,0.023
		C44.654,21.241,44.474,20.798,44.477,20.326z"/>
</g>
</svg>
