<?xml version="1.0" encoding="iso-8859-1"?>
<!-- Generator: Adobe Illustrator 17.0.0, SVG Export Plug-In . SVG Version: 6.00 Build 0)  -->
<!DOCTYPE svg PUBLIC "-//W3C//DTD SVG 1.1//EN" "http://www.w3.org/Graphics/SVG/1.1/DTD/svg11.dtd">
<svg version="1.1" id="Capa_1" xmlns="http://www.w3.org/2000/svg" xmlns:xlink="http://www.w3.org/1999/xlink" x="0px" y="0px"
	 width="64px" height="64px" viewBox="0 0 64 64" style="enable-background:new 0 0 64 64;" xml:space="preserve">
<g>
	<path d="M3.823,39.142l20.981,2.17c0.026,0.087,0.045,0.148,0.045,0.148s12.229-1.245,16.346-3.179
		c3.073,0.242,9.364,0.827,13.543,1.231c0.072,0.006,0.144,0.01,0.215,0.01c0.84,0,1.589-0.477,1.961-1.194
		c-1.263-0.655-2.196-1.85-2.465-3.291c-0.107-0.01-0.22-0.021-0.34-0.033l-11.04,0.61c0.009-0.115,0.018-0.231,0.018-0.349
		c0-0.116-0.004-0.232-0.012-0.35l6.357-0.353l4.94-0.274l0.348-0.019l0.333-0.018c0.005,0,0.01-0.002,0.015-0.002
		c1.018-0.066,1.798-0.941,1.741-1.96c-0.023-0.407-0.181-0.774-0.422-1.069c-0.074-0.09-0.155-0.173-0.244-0.248
		c-0.093-0.078-0.192-0.146-0.299-0.205c-0.268-0.148-0.572-0.239-0.898-0.239l-0.101,0.003l-4.64,0.258l-7.775,0.432l-0.818,0.045
		c-0.09-0.116-0.184-0.226-0.281-0.335c-0.101-0.114-0.201-0.228-0.309-0.333c-0.62-0.607-1.339-1.06-2.107-1.252
		c0,0-8.896,3.314-13.056,4.161l-11.205-2.297l-5.229-5.062c-0.879-0.851-2.279-0.827-3.129,0.05
		c-0.85,0.878-0.828,2.279,0.05,3.129l5.692,5.511c0.303,0.293,0.683,0.493,1.095,0.578l2.348,0.481L4.278,34.739
		c-1.22-0.125-2.303,0.759-2.429,1.974C1.723,37.929,2.607,39.016,3.823,39.142z"/>
	<path d="M50.258,30.088c-0.049-2.164-1.811-3.905-3.987-3.905c-2.207,0-3.996,1.789-3.996,3.996c0,0.119,0.025,0.232,0.035,0.349
		L50.258,30.088z"/>
	<path d="M59.057,30.179c-0.779,0-1.499,0.232-2.113,0.617c0.324,0.403,0.535,0.901,0.566,1.454c0.077,1.394-0.983,2.59-2.371,2.694
		c0.011,0.057,0.031,0.111,0.044,0.167c0.265,1.098,0.982,2.007,1.944,2.543c0.574,0.319,1.226,0.517,1.93,0.517
		c2.207,0,3.996-1.789,3.996-3.996S61.264,30.179,59.057,30.179z"/>
</g>
</svg>
