<?xml version="1.0" encoding="iso-8859-1"?>
<!-- Generator: Adobe Illustrator 17.0.0, SVG Export Plug-In . SVG Version: 6.00 Build 0)  -->
<!DOCTYPE svg PUBLIC "-//W3C//DTD SVG 1.1//EN" "http://www.w3.org/Graphics/SVG/1.1/DTD/svg11.dtd">
<svg version="1.1" id="Capa_1" xmlns="http://www.w3.org/2000/svg" xmlns:xlink="http://www.w3.org/1999/xlink" x="0px" y="0px"
	 width="64px" height="64px" viewBox="0 0 64 64" style="enable-background:new 0 0 64 64;" xml:space="preserve">
<g>
	<path d="M8.333,43.667h7.333V25H8.333V43.667z M9.375,30.521h5.25v1h-5.25V30.521z M9.375,32.271h5.25v1.938h-5.25V32.271z
		 M9.375,34.959h5.25v0.438h-5.25V34.959z M9.375,36.084h5.25v1h-5.25V36.084z M9.375,37.709h5.25v0.438h-5.25V37.709z"/>
	<path d="M44.955,30.156c-0.576,0-0.81,0.531-0.846,0.891h1.62C45.729,30.714,45.586,30.156,44.955,30.156z"/>
	<path d="M21.498,43.667h34.918V25H21.498V43.667z M39.673,40.547c-0.293,0-0.555-0.068-0.725-0.16l0.124-0.495
		c0.129,0.078,0.395,0.165,0.601,0.165c0.211,0,0.298-0.069,0.298-0.184c0-0.119-0.068-0.175-0.325-0.262
		c-0.468-0.155-0.646-0.408-0.642-0.674c0-0.422,0.357-0.738,0.912-0.738c0.262,0,0.491,0.065,0.628,0.133l-0.119,0.482
		c-0.101-0.055-0.298-0.128-0.485-0.128c-0.17,0-0.267,0.068-0.267,0.179s0.087,0.165,0.362,0.262
		c0.427,0.146,0.601,0.366,0.605,0.691C40.641,40.239,40.315,40.547,39.673,40.547z M44.109,38.28c0-0.224,0.182-0.406,0.406-0.406
		c0.225,0,0.406,0.183,0.406,0.406c0,0.225-0.182,0.407-0.406,0.407C44.291,38.688,44.109,38.505,44.109,38.28z M46.186,41.977
		c-1.829,0-1.505-2.83-1.505-2.83l1.505-1.807l1.522,1.798C47.708,39.139,48.06,41.977,46.186,41.977z M44.922,37.197
		c0-0.225,0.182-0.407,0.406-0.407c0.225,0,0.406,0.183,0.406,0.407c0,0.224-0.182,0.406-0.406,0.406
		C45.104,37.603,44.922,37.421,44.922,37.197z M47.947,38.664c-0.225,0-0.406-0.182-0.406-0.406c0-0.225,0.182-0.406,0.406-0.406
		s0.406,0.182,0.406,0.406C48.354,38.482,48.172,38.664,47.947,38.664z M47.427,29.346h0.585v-0.819l1.342-0.369v1.189h0.98v1.009
		h-0.98v1.593c0,0.531,0.135,0.774,0.54,0.774c0.188,0,0.278-0.009,0.405-0.036l0.009,1.035c-0.171,0.063-0.505,0.117-0.883,0.117
		c-0.44,0-0.81-0.153-1.035-0.378c-0.252-0.261-0.378-0.685-0.378-1.306v-1.8h-0.585V29.346z M47.541,37.174
		c0,0.225-0.182,0.407-0.406,0.407s-0.406-0.183-0.406-0.407c0-0.224,0.182-0.406,0.406-0.406S47.541,36.95,47.541,37.174z
		 M45.036,29.247c1.423,0,1.963,1.107,1.963,2.196c0,0.234-0.027,0.441-0.045,0.54h-2.836c0.036,0.567,0.604,0.837,1.242,0.837
		c0.468,0,0.847-0.062,1.216-0.189l0.18,0.927c-0.45,0.189-0.999,0.279-1.594,0.279c-1.494,0-2.35-0.864-2.35-2.241
		C42.812,30.48,43.506,29.247,45.036,29.247z M38.308,27.356h1.369V31.2h0.018c0.099-0.189,0.207-0.369,0.315-0.531l0.891-1.323
		h1.648l-1.575,1.782l1.801,2.62H41.09l-1.071-1.81l-0.342,0.433v1.377h-1.369V27.356z M37.682,39.841
		c0.037-0.184,0.073-0.353,0.124-0.546l0.289-1.041h0.733l-0.835,2.242h-0.696l-0.816-2.242h0.757l0.303,1.041
		c0.055,0.192,0.091,0.367,0.128,0.546H37.682z M36.513,29.247c0.36,0,0.757,0.062,1.045,0.171l-0.216,1.018
		c-0.162-0.072-0.405-0.136-0.766-0.136c-0.721,0-1.188,0.514-1.18,1.233c0,0.802,0.54,1.233,1.207,1.233
		c0.324,0,0.576-0.054,0.783-0.144l0.162,1.008c-0.243,0.117-0.702,0.207-1.225,0.207c-1.423,0-2.332-0.873-2.332-2.25
		C33.992,30.3,34.875,29.247,36.513,29.247z M32.469,27.438c0.441,0,0.711,0.297,0.721,0.684c0,0.378-0.279,0.685-0.738,0.685
		c-0.433,0-0.712-0.307-0.712-0.685C31.739,27.734,32.027,27.438,32.469,27.438z M33.144,29.346v4.402h-1.369v-4.402H33.144z
		 M33.667,39.375c0,1.242-1.008,2.25-2.25,2.25s-2.25-1.008-2.25-2.25s1.008-2.25,2.25-2.25S33.667,38.133,33.667,39.375z
		 M26.631,27.681h4.664v1.152h-1.657v4.915h-1.368v-4.915h-1.639V27.681z"/>
</g>
</svg>
