<?xml version="1.0" encoding="iso-8859-1"?>
<!-- Generator: Adobe Illustrator 17.0.0, SVG Export Plug-In . SVG Version: 6.00 Build 0)  -->
<!DOCTYPE svg PUBLIC "-//W3C//DTD SVG 1.1//EN" "http://www.w3.org/Graphics/SVG/1.1/DTD/svg11.dtd">
<svg version="1.1" id="Capa_1" xmlns="http://www.w3.org/2000/svg" xmlns:xlink="http://www.w3.org/1999/xlink" x="0px" y="0px"
	 width="64px" height="64px" viewBox="0 0 64 64" style="enable-background:new 0 0 64 64;" xml:space="preserve">
<g>
	<circle cx="39.241" cy="6.197" r="4.676"/>
	<circle cx="10.518" cy="36.328" r="4.676"/>
	<path d="M47.124,60.294c0.245,1.448,1.5,2.472,2.92,2.472c0.164,0,0.331-0.014,0.498-0.042c1.615-0.273,2.703-1.803,2.43-3.418
		L50.235,43.11c-0.131-0.777-0.567-1.47-1.21-1.926l-9.761-6.915c0.282-0.851,1.07-3.301,1.838-6.301l3.747,3.587
		c0.508,0.487,1.162,0.728,1.814,0.728c0.69,0,1.38-0.271,1.895-0.809c1.002-1.047,0.966-2.707-0.081-3.709l-3.666-3.51
		l-2.024-9.135c-0.021-0.093-0.046-0.183-0.076-0.271c-0.276-1.775-0.972-3.033-2.301-3.353c-0.683-0.164-1.385-0.003-2.094,0.411
		c-0.017,0.008-0.035,0.014-0.052,0.022l-8.894,4.371c-0.405,0.199-0.752,0.499-1.007,0.872l-7.589,11.078
		c-0.819,1.195-0.514,2.828,0.682,3.647c0.453,0.311,0.969,0.459,1.48,0.459c0.836,0,1.658-0.399,2.167-1.141l6.441-9.401
		c-1.631,3.544-3.012,7.251-3.904,9.808c-0.061,0.123-0.116,0.249-0.16,0.383l-3.881,11.772L8.299,47.874
		c-1.582,0.424-2.521,2.049-2.097,3.632c0.355,1.325,1.553,2.199,2.863,2.199c0.254,0,0.512-0.033,0.769-0.102l16.846-4.511
		c0.966-0.259,1.736-0.987,2.049-1.936l3.496-10.606l12.367,8.762L47.124,60.294z"/>
</g>
</svg>
