<?xml version="1.0" encoding="iso-8859-1"?>
<!-- Generator: Adobe Illustrator 17.0.0, SVG Export Plug-In . SVG Version: 6.00 Build 0)  -->
<!DOCTYPE svg PUBLIC "-//W3C//DTD SVG 1.1//EN" "http://www.w3.org/Graphics/SVG/1.1/DTD/svg11.dtd">
<svg version="1.1" id="Capa_1" xmlns="http://www.w3.org/2000/svg" xmlns:xlink="http://www.w3.org/1999/xlink" x="0px" y="0px"
	 width="64px" height="64px" viewBox="0 0 64 64" style="enable-background:new 0 0 64 64;" xml:space="preserve">
<g>
	<path d="M27,4.667c-0.001-0.001-0.001-0.002-0.002-0.004c-2.698,2.078-4.447,5.332-4.447,8.993c0,0.512,0.046,1.013,0.112,1.508
		c1.698,0.72,3.42,0.66,5.251,0.573c1.626-0.077,2.507,0.248,3.069-1.16c-0.139-0.091-0.246-0.23-0.232-0.411
		c0.069-0.902,0.097-1.276-0.542-1.85c-0.152,0.093-0.302,0.187-0.456,0.282c-0.144,0.089-0.361,0.096-0.505,0
		c0.045,0.017,0.09,0.034,0.135,0.05c-0.174,0.07-0.355-0.024-0.487-0.129c-0.75-0.594-0.46,0.063-1.646,0.063
		c-0.592,0-1.266-0.775-1.687-1.146c-0.135-0.119-0.169-0.32-0.129-0.487c0.316-1.316,0.491-1.756,1.334-2.069
		c-0.036-0.131-0.024-0.275,0.05-0.384c0.104-0.149,0.201-0.303,0.303-0.454c-0.297-0.094-0.466-0.412-0.303-0.713
		c0.385-0.709,0.758-1.423,1.116-2.145C27.79,5.17,27.646,5.159,27.5,5.167C27.253,5.163,26.966,4.941,27,4.667z"/>
	<path d="M43.506,7.607c-0.004,0.068-0.008,0.135-0.011,0.203c0.176,0.303-0.043,0.79-0.432,0.752
		c-0.124-0.012-0.232-0.022-0.329-0.031c0.227,0.232,0.461,0.457,0.657,0.717c0.33,0.397,0.68,0.955,0.823,1.456
		c0.361,1.268,0.357,2.688-0.507,3.778c-1.135,1.43-2.152,0.848-2.366-0.439c-0.609,0.317-1.149,0.445-1.803,0.297
		c-0.276,1.858-0.787,4.677,1.533,4.99c0.098,0.013,0.168,0.052,0.225,0.1c0.544-0.23,1.092-0.492,1.635-0.8l1.564-0.886
		c0.492-1.27,0.773-2.646,0.773-4.088C45.268,11.432,44.615,9.361,43.506,7.607z"/>
	<path d="M33.909,2.298c-2.14,0-4.137,0.606-5.848,1.639c0.025,0.14-0.006,0.252-0.185,0.236c0.422,0.039,0.546,0.041,0.923,0.178
		c0.321,0.117,0.444,0.427,0.299,0.734c-0.308,0.652-0.64,1.29-0.977,1.925c0.337,0.04,0.609,0.41,0.394,0.741
		c-0.172,0.272-0.356,0.537-0.536,0.804l0.19,0.095c0.385,0.192,0.291,0.821-0.119,0.914c-2.261,0.513-1.409,2.33,0.651,1.536
		c0.216-0.083,0.448,0.057,0.565,0.23c0.112,0.167,0.126,0.236,0.117,0.264c0.027-0.001,0.07,0.003,0.157,0.027
		c0.128,0.035,0.942-0.63,1.272-0.89c0.001-0.001,0.002-0.002,0.002-0.002l0,0c0.041-0.033,0.078-0.061,0.101-0.079
		c0.484-0.362,0.947,0.382,0.606,0.785c-0.701,0.829,1.047,1.289-0.207,2.293c0.374-0.299,0.97-0.034,0.836,0.487
		c-0.212,0.82-0.521,1.516-0.884,2.286c-0.069,0.146-0.272,0.26-0.432,0.248c-2.715-0.218-5.389,0.369-7.958-0.446
		c0.124,0.516,0.281,1.019,0.473,1.505c0.297,0.101,0.643,0.287,1.161,0.601c3.79,2.299,7.926,2.477,9.104,2.477
		c0.154,0,0.242-0.003,0.251-0.004l0.045-0.002l0.043,0.002c0.011,0,0.097,0.004,0.247,0.004c0.796,0,3.03-0.087,5.589-0.901
		c-0.959-0.486-1.328-1.428-1.422-2.51c-0.038,0.009-0.071,0.023-0.115,0.023c-0.645,0-0.645-1,0-1c0.035,0,0.061,0.013,0.092,0.019
		c0.031-0.982,0.193-1.996,0.283-2.831c0.043-0.397,0.387-0.596,0.752-0.432c0.846,0.202,1.574,0.035,2.183-0.5
		c0.302-0.192,0.787,0.054,0.752,0.432c-0.241,0.496-0.112,0.819,0.385,0.969c0.932-1.188,1.033-2.422,0.302-3.702
		c-0.55-0.84-1.103-1.408-1.852-2.038c-0.163-0.137-0.194-0.432-0.078-0.606c0.042-0.062,0.083-0.125,0.125-0.188
		c0.136-0.204,0.329-0.268,0.565-0.23c0.162,0.021,0.323,0.042,0.485,0.063c-0.134-0.465-0.06-0.853,0.239-1.228
		C40.398,3.826,37.331,2.298,33.909,2.298z M38.647,10.593c-0.461,0.445-1.285,0.29-1.842,0.201
		c-0.155-0.025-0.323-0.196-0.349-0.349c-0.131-0.756-0.607-1.248-1.338-1.463c-0.184-0.054-0.282-0.181-0.323-0.323
		C34.367,8.498,34.438,7.724,35,7.688c1.253-0.081,2.803,0.569,3.58,1.573C38.885,9.655,39.056,10.198,38.647,10.593z M38.185,7.55
		C38.07,7.247,37.773,7.306,37.5,7.333C37.345,7.349,37.23,7.3,37.15,7.22C37.103,7.234,37.057,7.25,37,7.25c-0.645,0-0.645-1,0-1
		c0.146,0,0.254,0.055,0.333,0.134c0.051-0.023,0.103-0.045,0.167-0.051c0.786-0.078,1.364,0.198,1.649,0.95
		C39.378,7.888,38.411,8.147,38.185,7.55z"/>
	<path d="M33.909,61.999C34.027,62,34.111,62,34.145,62v-0.004c1.99-0.037,9.425-0.416,9.425-4.237c0,0-1.591-4.536-4.006-7.422
		c0,0-2.455,1.762-5.655,1.762c-3.397,0-5.655-1.762-5.655-1.762c-2.415,2.887-4.006,7.422-4.006,7.422
		c0,3.821,7.435,4.2,9.425,4.237V62C33.707,62,33.791,62,33.909,61.999z"/>
	<path d="M44.373,20.201c-0.654,0.708-1.251,1.464-1.802,2.256c-3.125,4.489-4.733,10.166-6.331,15.234
		c-1.316,4.174-3.256,9.485-7.301,11.562c0.842,0.536,2.607,1.436,4.97,1.436c3.364,0,5.521-1.826,5.521-1.826
		c0-16.548,3.065-25.027,5.077-28.813C44.461,20.099,44.419,20.152,44.373,20.201z"/>
	<path d="M23.003,19.455c0.017,0.035,0.042,0.081,0.061,0.119c0.061,0.119,0.118,0.234,0.197,0.381
		c1.984,3.698,5.047,12.029,5.122,28.302v0c4.803-2.321,6.407-9.87,7.766-14.434c0.934-3.136,2.127-6.404,3.779-9.383
		c0.172-0.31,0.363-0.607,0.545-0.911c0.245-0.409,0.497-0.812,0.762-1.207c0.667-0.994,1.387-1.947,2.189-2.823
		c-3.932,2.228-8.106,2.388-9.225,2.388c-0.188,0-0.289-0.005-0.289-0.005s-0.104,0.005-0.296,0.005
		c-1.159,0-5.523-0.173-9.539-2.574c-0.028-0.017-0.056-0.031-0.084-0.048c-0.302-0.183-0.542-0.322-0.728-0.415
		c-0.176-0.088-0.305-0.135-0.385-0.135c-0.169,0-0.127,0.211,0.083,0.652C22.975,19.396,22.987,19.427,23.003,19.455z"/>
</g>
</svg>
