<?xml version="1.0" encoding="iso-8859-1"?>
<!-- Generator: Adobe Illustrator 17.0.0, SVG Export Plug-In . SVG Version: 6.00 Build 0)  -->
<!DOCTYPE svg PUBLIC "-//W3C//DTD SVG 1.1//EN" "http://www.w3.org/Graphics/SVG/1.1/DTD/svg11.dtd">
<svg version="1.1" id="Capa_1" xmlns="http://www.w3.org/2000/svg" xmlns:xlink="http://www.w3.org/1999/xlink" x="0px" y="0px"
	 width="64px" height="64px" viewBox="0 0 64 64" style="enable-background:new 0 0 64 64;" xml:space="preserve">
<g>
	<path d="M39.861,23.749c0.978-1.063,1.581-2.476,1.581-4.031c0-3.288-2.675-5.963-5.963-5.963s-5.963,2.675-5.963,5.963
		c0,0.478,0.063,0.941,0.169,1.386c0.301,1.256,0.995,2.359,1.951,3.167l0.284-0.34l0.742-0.888
		c0.669-0.801,1.652-1.261,2.697-1.261c0.571,0,1.127,0.148,1.628,0.411c0.219,0.115,0.431,0.245,0.623,0.406
		c0.638,0.533,1.042,1.263,1.188,2.071C39.19,24.406,39.543,24.094,39.861,23.749z"/>
	<path d="M60.43,39.744l-20.467-3.801c0.08-0.25,0.125-0.513,0.125-0.784V24.924c-0.388,0.344-0.81,0.65-1.268,0.901
		c-0.095,0.628-0.349,1.222-0.766,1.722l-5.217,6.244l0.805,1.018c-0.068-0.004-0.136-0.019-0.205-0.019h-1.434l-3.511,4.203
		c3.7,0.98,11.967,3.15,19.093,5.016c0.357,0.093,0.678,0.249,0.979,0.43l10.629,1.974c0.209,0.039,0.417,0.057,0.623,0.057
		c1.602,0,3.027-1.14,3.33-2.772C63.487,41.856,62.272,40.086,60.43,39.744z"/>
	<path d="M4.947,39.107c0.283-0.071,0.575-0.119,0.879-0.122c0.256-0.005,1.946-0.074,3.735-0.148
		c1.921-0.079,3.599-0.148,5.083-0.208c3.867-0.156,6.355-0.249,8.014-0.295c-0.154-0.303-0.267-0.63-0.328-0.975
		c-0.148-0.84-0.303-1.705-0.46-2.57h-3.364c0.175-1.06,1.206-2.75,2.519-4.55c-0.53-2.779-0.996-5.071-1.22-5.895
		c-0.335-0.688-0.436-1.475-0.286-2.227c0.328-1.636,1.775-2.823,3.441-2.823c0.232,0,0.465,0.023,0.694,0.069
		c0.787,0.158,1.346,0.488,1.78,0.933c0.703,0.719,1.055,1.76,1.344,2.996c0.074,0.318,0.147,0.645,0.22,0.985
		c0.166,0.769,0.362,1.736,0.583,2.864l0.806,1.019l2.609-3.123c-1.447-1.222-2.384-3.021-2.465-5.04
		c-0.218-0.118-0.452-0.196-0.691-0.252c0.066-3.879-0.958-6.492-0.958-6.492C-0.622,9.807,1.212,35.087,2.187,41.877
		C2.523,40.519,3.589,39.447,4.947,39.107z"/>
	<path d="M9.84,45.613c3.591-0.148,13.13-0.543,15.083-0.544h0.053l0.052,0.015c1.881,0.512,8.892,2.356,20.838,5.484
		c1.584,0.413,3.242-0.575,3.652-2.137c0.417-1.595-0.541-3.232-2.137-3.65c-2.398-0.628-4.924-1.29-7.363-1.93
		c-5.159-1.353-9.922-2.606-12.244-3.223c-0.58,0.4-1.264,0.633-1.986,0.633c-0.304,0-0.609-0.04-0.905-0.118
		c-0.658-0.176-1.238-0.537-1.683-1.023c-1.862,0.045-4.953,0.162-10.388,0.384c-0.994,0.041-2.062,0.084-3.219,0.132
		c-1.796,0.074-3.494,0.144-3.756,0.15c-0.199,0.002-0.392,0.025-0.58,0.063c-1.364,0.281-2.393,1.49-2.393,2.928
		c0,0.204,0.021,0.403,0.06,0.596c0.277,1.365,1.486,2.395,2.931,2.395C6.066,45.768,6.799,45.738,9.84,45.613z"/>
	<path d="M35.816,22.62c-0.151-0.026-0.304-0.039-0.456-0.039c-0.776,0-1.547,0.331-2.083,0.973l-0.85,1.017l-0.144,0.172
		l-0.326,0.39l-0.322,0.385l-2.743,3.282l-1.473,1.763c-0.078-0.418-0.158-0.841-0.238-1.264c-0.261-1.375-0.491-2.549-0.693-3.54
		c-0.098-0.479-0.191-0.93-0.274-1.315c-0.032-0.148-0.062-0.282-0.093-0.423c-0.309-1.416-0.593-2.471-1.224-3.134
		c-0.343-0.361-0.782-0.617-1.403-0.741c-0.18-0.036-0.36-0.054-0.537-0.054c-1.266,0-2.398,0.891-2.656,2.18
		c-0.126,0.63-0.023,1.252,0.251,1.781c0.204,0.714,0.625,2.751,1.119,5.316c0.319,1.656,0.668,3.529,1.01,5.418
		c0.147,0.814,0.294,1.63,0.435,2.431c0.072,0.407,0.255,0.767,0.486,1.09c0.101,0.142,0.209,0.274,0.335,0.394
		c0.158,0.149,0.325,0.285,0.516,0.394c0.199,0.113,0.408,0.211,0.635,0.272c0.231,0.061,0.466,0.091,0.699,0.091
		c0.282,0,0.556-0.059,0.822-0.144c0.2-0.064,0.39-0.151,0.572-0.26c0.146-0.088,0.282-0.188,0.411-0.304
		c0.095-0.085,0.194-0.166,0.277-0.266l3.09-3.698l1.37-1.64l5.11-6.116c0.202-0.242,0.344-0.511,0.448-0.791
		c0.072-0.193,0.126-0.39,0.153-0.592c0.025-0.188,0.033-0.377,0.019-0.566c-0.054-0.703-0.379-1.385-0.963-1.873
		C36.717,22.894,36.274,22.698,35.816,22.62z"/>
</g>
</svg>
