<?xml version="1.0" encoding="iso-8859-1"?>
<!-- Generator: Adobe Illustrator 17.0.0, SVG Export Plug-In . SVG Version: 6.00 Build 0)  -->
<!DOCTYPE svg PUBLIC "-//W3C//DTD SVG 1.1//EN" "http://www.w3.org/Graphics/SVG/1.1/DTD/svg11.dtd">
<svg version="1.1" id="Capa_1" xmlns="http://www.w3.org/2000/svg" xmlns:xlink="http://www.w3.org/1999/xlink" x="0px" y="0px"
	 width="64px" height="64px" viewBox="0 0 64 64" style="enable-background:new 0 0 64 64;" xml:space="preserve">
<g>
	<path d="M54.219,32.468c0.042,0.003,0.084,0.004,0.125,0.004c1.074,0,1.975-0.837,2.041-1.923c0.068-1.128-0.791-2.097-1.919-2.165
		l-16.741-1.009l-8.03-3.658c-0.266-0.211-0.578-0.358-0.916-0.417l-0.013-0.006l-0.001,0.002c-0.273-0.046-0.559-0.04-0.845,0.033
		l-12.703,3.24c-0.219,0.056-0.428,0.149-0.618,0.272l-5.712,3.751c-0.945,0.621-1.207,1.889-0.587,2.833
		c0.393,0.599,1.046,0.923,1.713,0.923c0.385,0,0.775-0.109,1.121-0.336l5.426-3.563l9.409-2.4l-4.851,8.247l-3.949,4.082
		L5.641,36.29c-1.419-0.505-2.98,0.239-3.483,1.659c-0.504,1.42,0.24,2.979,1.66,3.483l13.18,4.674
		c0.298,0.106,0.606,0.157,0.911,0.157c0.727,0,1.438-0.29,1.961-0.831l4.759-4.919l4.238,1.505
		c0.216,0.142,0.447,0.265,0.707,0.344l1.689,0.507l0.572,0.203l0.013-0.027l21.028,6.317c0.262,0.079,0.526,0.116,0.786,0.116
		c1.173,0,2.257-0.763,2.612-1.944c0.433-1.443-0.385-2.964-1.828-3.398L34.21,38.057l3.13-6.607L54.219,32.468z"/>
	<circle cx="37.586" cy="21.877" r="3.922"/>
	<circle cx="59.086" cy="35.404" r="3.922"/>
</g>
</svg>
