<?xml version="1.0" encoding="iso-8859-1"?>
<!-- Generator: Adobe Illustrator 17.0.0, SVG Export Plug-In . SVG Version: 6.00 Build 0)  -->
<!DOCTYPE svg PUBLIC "-//W3C//DTD SVG 1.1//EN" "http://www.w3.org/Graphics/SVG/1.1/DTD/svg11.dtd">
<svg version="1.1" id="Capa_1" xmlns="http://www.w3.org/2000/svg" xmlns:xlink="http://www.w3.org/1999/xlink" x="0px" y="0px"
	 width="64px" height="64px" viewBox="0 0 64 64" style="enable-background:new 0 0 64 64;" xml:space="preserve">
<g>
	<path d="M31.22,45.46l-2.225-7.732c-2.607-0.417-5.036-1.358-7.177-2.725C19.731,40.939,17.294,48,17.596,48
		c0.5,0,9.167,12.946,9.167,12.946L31.22,45.46z"/>
	<path d="M46.404,48c0.302,0-2.135-7.061-4.221-12.996c-2.578,1.645-5.573,2.681-8.793,2.916c-0.461,0.034-0.921,0.07-1.39,0.07
		s-0.929-0.037-1.39-0.07L32,42.749l5.237,18.197C37.237,60.946,45.904,48,46.404,48z"/>
	<path d="M32,1.49c-9.665,0-17.5,7.835-17.5,17.5c0,6.086,3.11,11.441,7.823,14.577c1.854,1.233,3.955,2.124,6.215,2.578
		c0.268,0.054,0.544,0.083,0.816,0.125c0.272,0.041,0.54,0.096,0.817,0.125c0.601,0.062,1.211,0.096,1.829,0.096
		s1.228-0.034,1.829-0.096c2.882-0.299,5.554-1.301,7.848-2.827c0.217-0.145,0.423-0.304,0.633-0.458
		c0.212-0.155,0.425-0.307,0.63-0.471c3.996-3.207,6.56-8.125,6.56-13.647C49.5,9.325,41.665,1.49,32,1.49z M35.722,26.777v0.794
		v0.793v1.113c0,0.492-0.399,0.891-0.891,0.891h-0.749h-3.16c-0.19,0-0.356-0.073-0.501-0.174c-0.215-0.151-0.362-0.384-0.38-0.662
		c-0.001-0.019-0.011-0.036-0.011-0.055l-0.001-0.508l0-0.226l-0.023-16.959c-0.001-0.492-0.031-0.891-0.068-0.891
		s-0.423,0.179-0.863,0.4l-1.491,0.748c-0.44,0.221-0.969,0.04-1.183-0.404l-0.367-0.764c-0.213-0.444-0.034-0.99,0.401-1.222
		L29.912,7.8c0.435-0.231,1.186-0.419,1.678-0.419h3.241c0.492,0,0.891,0.399,0.891,0.891V26.777z"/>
</g>
</svg>
