<?xml version="1.0" encoding="iso-8859-1"?>
<!-- Generator: Adobe Illustrator 17.0.0, SVG Export Plug-In . SVG Version: 6.00 Build 0)  -->
<!DOCTYPE svg PUBLIC "-//W3C//DTD SVG 1.1//EN" "http://www.w3.org/Graphics/SVG/1.1/DTD/svg11.dtd">
<svg version="1.1" id="Capa_1" xmlns="http://www.w3.org/2000/svg" xmlns:xlink="http://www.w3.org/1999/xlink" x="0px" y="0px"
	 width="64px" height="64px" viewBox="0 0 64 64" style="enable-background:new 0 0 64 64;" xml:space="preserve">
<g>
	<path d="M32.135,1.674c-16.586,0-30.08,13.494-30.08,30.08s13.494,30.08,30.08,30.08c16.585,0,30.079-13.494,30.079-30.08
		S48.721,1.674,32.135,1.674z M32.135,59.833c-12.222,0-22.64-7.853-26.488-18.776c0.24,0.18,0.489,0.286,0.747,0.286
		c1.711,0,3.437-4.207,3.437-9.397c0-5.19-1.726-9.398-3.437-9.398c-0.322,0-0.633,0.15-0.925,0.427
		C9.163,11.78,19.718,3.674,32.135,3.674c13.788,0,25.278,9.992,27.63,23.114c-0.722-0.716-1.516-1.766-1.947-2.361
		c-0.1-0.159-0.208-0.31-0.322-0.455l-0.002-0.002v0c-0.903-1.136-2.266-1.807-4.314-1.807c-5.187,0-9.391,4.294-9.391,9.59
		c0,5.297,4.205,9.591,9.391,9.591c0.907,0,1.678-0.134,2.336-0.379c0.763-0.284,1.373-0.719,1.858-1.28
		c0.752-0.487,1.462-0.917,2.03-1.252C56.399,50.701,45.316,59.833,32.135,59.833z M57.741,39.314c0,0-0.062,0.046-0.164,0.122
		c0.056-0.075,0.11-0.153,0.162-0.231L57.741,39.314z"/>
	<path d="M29.646,7.653c-5.124,0-12.673,4.559-12.673,10.184c0,1.701,0.226,3.303,0.682,4.713h0c0,0,0.001,0.003,0.001,0.003
		c0.147,0.455,0.318,0.89,0.513,1.301c1.074,2.988,3.203,10.577,0.036,17.08c-0.003,0.007-0.006,0.014-0.01,0.021
		c-0.019,0.04-0.036,0.08-0.056,0.12h0.001c-0.781,1.675-1.167,3.731-1.167,5.955c0,5.624,7.549,10.184,12.673,10.184
		c5.124,0,5.884-4.559,5.884-10.184c0-2.105-0.82-4.061-2.115-5.685h0c0,0-4.561-11.339,0.226-18.121
		c0.083-0.111,0.162-0.224,0.24-0.338c0.003-0.004,0.006-0.009,0.009-0.013h0c1.015-1.486,1.639-3.204,1.639-5.036
		C35.53,12.212,34.77,7.653,29.646,7.653z"/>
	<path d="M55.315,41.116c-0.144,0.107-0.245,0.182-0.313,0.233C55.075,41.294,55.183,41.214,55.315,41.116z"/>
</g>
</svg>
