<?xml version="1.0" encoding="iso-8859-1"?>
<!-- Generator: Adobe Illustrator 17.0.0, SVG Export Plug-In . SVG Version: 6.00 Build 0)  -->
<!DOCTYPE svg PUBLIC "-//W3C//DTD SVG 1.1//EN" "http://www.w3.org/Graphics/SVG/1.1/DTD/svg11.dtd">
<svg version="1.1" id="Capa_1" xmlns="http://www.w3.org/2000/svg" xmlns:xlink="http://www.w3.org/1999/xlink" x="0px" y="0px"
	 width="64px" height="64px" viewBox="0 0 64 64" style="enable-background:new 0 0 64 64;" xml:space="preserve">
<g>
	<path d="M44.17,51.233h7.532v-7.381c-1.616-0.182-2.881-1.541-2.881-3.205V23.84c0-1.664,1.265-3.022,2.881-3.204v-7.942H44.17
		v15.695c0.318,1.139,0.496,2.335,0.496,3.575c0,1.239-0.178,2.436-0.496,3.575V51.233z"/>
	<path d="M55.644,49.621c0.68-2.024,2.572-3.496,4.822-3.496v-2.237h-4.822V49.621z"/>
	<path d="M55.644,14.306v6.293h4.822v-2.797C58.216,17.802,56.323,16.33,55.644,14.306z"/>
	<path d="M29.396,20.809c-5.327,0.923-9.395,5.567-9.395,11.154s4.068,10.231,9.395,11.154V20.809z"/>
	<path d="M60.466,51.233v-3.108c-1.714,0-3.108,1.394-3.108,3.108H60.466z"/>
	<path d="M2.2,48.125v3.108h3.108C5.309,49.519,3.914,48.125,2.2,48.125z"/>
	<path d="M2.2,12.694v3.108c1.714,0,3.108-1.394,3.108-3.108H2.2z"/>
	<path d="M60.466,12.694h-3.108c0,1.714,1.394,3.108,3.108,3.108V12.694z"/>
	<rect x="2.2" y="22.599" width="4.683" height="19.289"/>
	<path d="M11.565,23.84c0-0.505-0.306-0.938-0.741-1.131v19.069c0.435-0.193,0.741-0.625,0.741-1.131V23.84z"/>
	<path d="M29.396,12.694h-7.142v9.538c1.936-1.803,4.404-3.037,7.142-3.439V12.694z"/>
	<path d="M22.254,51.233h7.142v-6.099c-2.738-0.402-5.206-1.636-7.142-3.439V51.233z"/>
	<path d="M2.2,20.599h4.683v-5.875c-0.787,1.809-2.588,3.078-4.683,3.078V20.599z"/>
	<path d="M2.2,46.125c2.095,0,3.896,1.269,4.683,3.078v-5.315H2.2V46.125z"/>
	<path d="M10.824,51.233h7.488V34.787c-0.198-0.912-0.312-1.854-0.312-2.824s0.114-1.912,0.312-2.824V12.694h-7.488v7.956
		c1.549,0.243,2.741,1.574,2.741,3.19v16.807c0,1.616-1.192,2.948-2.741,3.19V51.233z"/>
	<path d="M33.337,51.233h6.891v-9.357c-1.89,1.694-4.267,2.854-6.891,3.252V51.233z"/>
	<path d="M33.337,18.799c2.624,0.398,5.001,1.558,6.891,3.252v-9.357h-6.891V18.799z"/>
	<path d="M50.821,40.647c0,0.557,0.375,1.012,0.881,1.168V22.672c-0.506,0.157-0.881,0.611-0.881,1.168V40.647z"/>
	<rect x="55.644" y="22.599" width="4.822" height="19.289"/>
	<path d="M33.337,43.099c5.294-0.951,9.329-5.572,9.329-11.135s-4.035-10.185-9.329-11.135V43.099z"/>
</g>
</svg>
