<?xml version="1.0" encoding="iso-8859-1"?>
<!-- Generator: Adobe Illustrator 17.0.0, SVG Export Plug-In . SVG Version: 6.00 Build 0)  -->
<!DOCTYPE svg PUBLIC "-//W3C//DTD SVG 1.1//EN" "http://www.w3.org/Graphics/SVG/1.1/DTD/svg11.dtd">
<svg version="1.1" id="Capa_1" xmlns="http://www.w3.org/2000/svg" xmlns:xlink="http://www.w3.org/1999/xlink" x="0px" y="0px"
	 width="64px" height="64px" viewBox="0 0 64 64" style="enable-background:new 0 0 64 64;" xml:space="preserve">
<g>
	<path d="M47.483,30.712c0.567-0.164,1.163-0.256,1.782-0.256c0.331,0,0.654,0.033,0.971,0.081c0.746,0.114,1.453,0.348,2.092,0.695
		l-0.253-2.964c-0.053-0.618-0.342-1.156-0.764-1.547c-3.309-5.382-17.482-16.344-32.199-4.827c0,0-3.006,2.378-1.477,7.902
		l2.715-1.551c0.559-0.319,1.194-0.488,1.838-0.488c0.188,0,0.378,0.015,0.564,0.043l6.745,1.041l5.16,0.796l1.933,0.298
		c0.978,0.151,1.838,0.674,2.423,1.472c0.585,0.798,0.824,1.776,0.673,2.754c-0.202,1.31-1.102,2.379-2.277,2.861
		c-0.064,0.026-0.129,0.049-0.195,0.072c-0.375,0.129-0.771,0.208-1.183,0.208c-0.19,0-0.383-0.015-0.57-0.044l-5.58-0.861
		l2.531,6.328c0.401,1.126,0.315,2.337-0.198,3.377l2.85,0.212c0.093,0.007,0.187,0.01,0.279,0.01c1.16,0,2.261-0.537,2.976-1.463
		c0.772-1.001,0.989-2.322,0.578-3.518l-1.4-4.071c0.268,0.091,2.823-1.066,5.73-2.586C43.927,32.771,45.509,31.282,47.483,30.712z"
		/>
	<polygon points="15.961,39.286 22.1,39.568 21.458,37.764 18.951,37.577 	"/>
	<path d="M62.163,38.466c0-1.321-1.071-2.392-2.392-2.392h-4.127c0.034,0.269,0.058,0.541,0.058,0.819
		c0,1.496-0.517,2.87-1.376,3.965h5.445C61.092,40.858,62.163,39.787,62.163,38.466z"/>
	<path d="M49.265,42.531c1.567,0,2.984-0.641,4.006-1.673c1.008-1.018,1.631-2.418,1.631-3.965c0-0.279-0.027-0.551-0.066-0.819
		c-0.234-1.604-1.137-2.991-2.424-3.859c-0.899-0.606-1.982-0.96-3.147-0.96c-0.029,0-0.058,0.004-0.087,0.004
		c-0.566,0.009-1.112,0.099-1.626,0.262c-1.343,0.428-2.463,1.346-3.159,2.543c-0.484,0.832-0.766,1.796-0.766,2.828
		C43.627,40.007,46.151,42.531,49.265,42.531z"/>
	<path d="M2.518,43.002c-0.089,1.943,1.419,3.598,3.364,3.688l22.457,1.028c1.113,0,2.172-0.533,2.835-1.428
		c0.059-0.08,0.092-0.171,0.144-0.255c0.562-0.907,0.707-2.012,0.345-3.028l-1.849-4.621l-0.852-2.131l-6.06-0.935l-1.216,0.695
		l0.645,1.814l0.922,2.593l-8.588-0.395l-3.793,2.168c-0.537,0.307-1.145,0.471-1.762,0.484c-0.025,0-0.049,0.005-0.074,0.005
		c-1.327,0-2.56-0.715-3.218-1.867c-0.201-0.352-0.326-0.731-0.403-1.118C3.825,39.987,2.594,41.333,2.518,43.002z"/>
	<path d="M28.617,35.392l0.299,0.046l0.161,0.025l0.459,0.071l6.047,0.933c0.151,0.023,0.3,0.035,0.448,0.035
		c0.052,0,0.101-0.011,0.152-0.014c0.339-0.018,0.664-0.093,0.967-0.221c0.897-0.379,1.586-1.194,1.746-2.227
		c0.245-1.585-0.842-3.068-2.427-3.313l-1.31-0.202l-6.408-0.989l-1.721-0.266l-0.445-0.069l-3.954-0.61
		c-0.147-0.023-0.295-0.034-0.442-0.034c-0.503,0-1,0.13-1.442,0.383l-2.863,1.636L7.592,36.457
		c-0.895,0.512-1.408,1.428-1.454,2.387c-0.006,0.133-0.003,0.266,0.009,0.399c0.012,0.133,0.041,0.264,0.071,0.395
		c0.062,0.267,0.15,0.531,0.293,0.781c0.49,0.858,1.355,1.35,2.271,1.431c0.085,0.008,0.167,0.033,0.253,0.033c0,0,0,0,0.001,0
		c0.488,0,0.984-0.123,1.438-0.383l2.698-1.542l0.648-0.37l0.648-0.371l3.056-1.747l3.183-1.819l0.353-0.202l0.353-0.202
		l1.334-0.762L28.617,35.392z"/>
</g>
</svg>
