<?xml version="1.0" encoding="iso-8859-1"?>
<!-- Generator: Adobe Illustrator 17.0.0, SVG Export Plug-In . SVG Version: 6.00 Build 0)  -->
<!DOCTYPE svg PUBLIC "-//W3C//DTD SVG 1.1//EN" "http://www.w3.org/Graphics/SVG/1.1/DTD/svg11.dtd">
<svg version="1.1" id="Capa_1" xmlns="http://www.w3.org/2000/svg" xmlns:xlink="http://www.w3.org/1999/xlink" x="0px" y="0px"
	 width="64px" height="64px" viewBox="0 0 64 64" style="enable-background:new 0 0 64 64;" xml:space="preserve">
<g>
	<circle cx="24.587" cy="21.663" r="2.895"/>
	<path d="M59.164,18.132L36.92,28.176c-0.01,0.002-0.017,0-0.026,0.002c-0.579,0.136-1.477-0.133-2.465-0.58l-2.827-3.064
		c-0.72-0.781-1.879-0.911-2.748-0.365c-0.019-0.014-0.044-0.032-0.044-0.032l-6.385,2.593L3.446,31.192
		c-1.167,0.274-1.892,1.443-1.617,2.611c0.235,1,1.127,1.675,2.112,1.675c0.164,0,0.331-0.019,0.499-0.059l19.35-4.549l10.087,6.839
		c0,0,0.015-0.03,0.038-0.075l9.88,6.393c0.353,0.229,0.763,0.349,1.18,0.349c0.118,0,0.236-0.01,0.354-0.029l6.937-1.146
		c1.183-0.196,1.984-1.313,1.788-2.497c-0.196-1.183-1.314-1.986-2.497-1.789l-6.108,1.009l-9.677-6.261
		c0.036-0.084,0.072-0.168,0.108-0.252l25.07-11.32c1.094-0.493,1.579-1.78,1.086-2.873C61.543,18.124,60.258,17.639,59.164,18.132z
		"/>
	<circle cx="55.472" cy="12.977" r="2.895"/>
</g>
</svg>
