<?xml version="1.0" encoding="iso-8859-1"?>
<!-- Generator: Adobe Illustrator 17.0.0, SVG Export Plug-In . SVG Version: 6.00 Build 0)  -->
<!DOCTYPE svg PUBLIC "-//W3C//DTD SVG 1.1//EN" "http://www.w3.org/Graphics/SVG/1.1/DTD/svg11.dtd">
<svg version="1.1" id="Capa_1" xmlns="http://www.w3.org/2000/svg" xmlns:xlink="http://www.w3.org/1999/xlink" x="0px" y="0px"
	 width="64px" height="64px" viewBox="0 0 64 64" style="enable-background:new 0 0 64 64;" xml:space="preserve">
<g>
	<path d="M35.579,13.585c-1.153,0.148-2.239,0.249-3.47,0.271l-0.061,0.106c-0.005,0.028-0.44,2.603,0.898,3.621
		c0.533-0.864,1.036-1.573,1.396-1.971C35.215,14.648,35.579,13.585,35.579,13.585z"/>
	<path d="M31.335,24.715c0.85-0.11,1.847-1.644,2.131-3.326c0.123-0.724,0.116-1.544-0.172-2.06
		C32.059,21.593,31.028,24.191,31.335,24.715z"/>
	<path d="M47.362,12.598l-0.36-2.337c0,0-4.709,2.365-10.939,3.26c0.117,0.112,0.22,0.259,0.276,0.449
		c0.183,0.626-0.171,1.402-1.113,2.443c-0.4,0.441-0.847,1.077-1.292,1.806c0.696,0.682,0.959,1.883,0.708,3.369
		c-0.335,1.975-1.575,4.143-3.213,4.273c-0.042,0.004-0.082,0.006-0.122,0.006c-0.47,0-0.846-0.225-1.045-0.628
		c-0.578-1.179,0.71-4.209,2.073-6.622c-1.899-1.293-1.56-4.216-1.475-4.773c-7.653-0.202-14.222-3.582-14.222-3.582l-0.719,2.694
		c0,0-5.569,9.882-8.264,16.709c-2.694,6.828-5.031,16.352-5.031,16.352s9.522,7.364,27.309,7.725L31.911,42.6l3.593,11.141
		c0,0,16.17-2.692,25.871-8.265c0,0-4.67-13.832-5.929-17.786C54.188,23.736,49.877,15.114,47.362,12.598z M13.66,47.462
		l-1.527-0.419l1.471-5.35l-0.02-0.007l-1.458,0.261l0.065-1.255l2.025-0.339l1.298,0.357L13.66,47.462z M21.858,44.599
		c-0.315,1.141-1.373,1.823-2.599,2.423l-0.766,0.35l-0.006,0.018l2.555,0.704l-0.357,1.299l-4.788-1.316l0.262-0.955l1.075-0.542
		c1.85-0.922,2.775-1.484,3.004-2.272c0.152-0.549-0.052-1.073-0.83-1.289c-0.581-0.159-1.171-0.008-1.596,0.154l-0.138-1.242
		c0.604-0.249,1.489-0.341,2.393-0.093C21.606,42.262,22.191,43.381,21.858,44.599z"/>
</g>
</svg>
