<?xml version="1.0" encoding="iso-8859-1"?>
<!-- Generator: Adobe Illustrator 17.0.0, SVG Export Plug-In . SVG Version: 6.00 Build 0)  -->
<!DOCTYPE svg PUBLIC "-//W3C//DTD SVG 1.1//EN" "http://www.w3.org/Graphics/SVG/1.1/DTD/svg11.dtd">
<svg version="1.1" id="Capa_1" xmlns="http://www.w3.org/2000/svg" xmlns:xlink="http://www.w3.org/1999/xlink" x="0px" y="0px"
	 width="64px" height="64px" viewBox="0 0 64 64" style="enable-background:new 0 0 64 64;" xml:space="preserve">
<g>
	<path d="M2.551,47.119c0.553,0,1-0.448,1-1V41.75H8.37c0.34-0.257,0.732-0.429,1.091-0.449c0.64-0.036,1.028-0.059,1.043-1.551
		H3.551V18.903h1.018c1.091,0.094,3.05,0.534,5.086,2.319c2.283,2.003,4.872,5.962,6.169,13.701c0.737,0.101,1.542,0.34,2.161,0.788
		c-1.069-7.468-3.41-12.834-7.012-15.993c-0.35-0.307-0.697-0.571-1.043-0.815h7.829c0.977,0.358,2.094,0.95,3.226,1.943
		c2.362,2.072,5.044,6.167,6.358,14.17c0.364,0.081,0.729,0.198,1.07,0.358c-1.334-8.65-4.23-13.054-6.769-15.281
		c-0.545-0.478-1.086-0.865-1.616-1.191h15.73c0.977,0.358,2.094,0.95,3.226,1.943c2.413,2.117,5.163,6.337,6.444,14.689
		c0.136-0.069,0.278-0.131,0.426-0.187v0.376v0.381c-0.116,0.054-0.213,0.122-0.314,0.187c-0.759,0.482-1.124,1.272-1.055,2.707
		c0.125,2.625-0.562,2.938-1.688,3c-0.745,0.041-2.09,1.343-0.665,2H41.5h-0.466h-1.406h-0.933h-1.344
		c5.526-1.11,2.962-4.366,2.962-6.312c0-2.125-3.362-2.127-3.362-2.127c-2.612,0.311-3.888,0.814-3.763,3.439s-0.562,2.938-1.688,3
		c-0.745,0.041-2.09,1.343-0.665,2h-0.632h-0.466h-0.611c-0.002-0.093-0.002-0.192-0.005-0.285c-0.153,0.1-0.316,0.196-0.493,0.285
		h-0.501h-0.432h-1.344c0.718-0.144,1.299-0.324,1.767-0.533c0.405-0.181,0.727-0.382,0.977-0.601
		c1.69-1.476,0.218-3.703,0.218-5.178c0-0.662-0.326-1.117-0.775-1.431c-0.319-0.223-0.698-0.372-1.068-0.475
		c-0.783-0.218-1.519-0.221-1.519-0.221c-2.612,0.311-3.888,0.814-3.763,3.439s-0.562,2.938-1.688,3
		c-0.745,0.041-2.09,1.343-0.665,2h-0.632h-0.466h-0.104c-0.001-0.067-0.001-0.138-0.003-0.204c-0.052-0.121-0.086-0.25-0.102-0.388
		c-0.255,0.22-0.552,0.418-0.901,0.593h-0.933h-0.068h-1.276c0.482-0.097,0.904-0.21,1.27-0.337c1.03-0.358,1.628-0.827,1.952-1.357
		c0.88-1.439-0.26-3.32-0.26-4.619c0-0.277-0.059-0.516-0.159-0.725c-0.389-0.82-1.419-1.16-2.209-1.3
		c-0.557-0.099-0.995-0.101-0.995-0.101c-2.612,0.311-3.888,0.814-3.763,3.439c0.013,0.28,0.013,0.52,0.008,0.75
		c-0.024,1.176-0.278,1.735-0.701,2C10.225,41.919,9.891,41.978,9.5,42c-0.998,0.055-3.078,2.372,1.872,2.372
		c0.27,0,0.573-0.011,0.886-0.025c-0.069,0.104-0.115,0.221-0.124,0.353c-0.001,0.017-0.01,0.032-0.01,0.05
		c0,0.107,0.024,0.207,0.064,0.299c0.116,0.265,0.379,0.451,0.686,0.451h3.775c0.001,0.211,0.01,0.405,0.01,0.619
		c0,0.552,0.447,1,1,1s1-0.448,1-1c0-0.211-0.006-0.411-0.008-0.619h9.498c0.001,0.211,0.01,0.405,0.01,0.619
		c0,0.276,0.224,0.5,0.5,0.5s0.5-0.224,0.5-0.5c0-0.214-0.008-0.409-0.01-0.619h16.705v0.619c0,0.552,0.447,1,1,1s1-0.448,1-1
		v-1.277V44.49v-0.354c2.89-0.42,3.966-1.327,4.259-2.386h0.363h0.352h7.385c0.072,1.378,0.12,2.817,0.12,4.369c0,0.552,0.447,1,1,1
		s1-0.448,1-1c0-13.045-2.586-21.928-7.686-26.401c-3.47-3.042-6.893-2.869-7.47-2.815H4.567c-0.531-0.036-0.906-0.014-1.064,0
		H1.551V40.75v5.369C1.551,46.671,1.998,47.119,2.551,47.119z M47.854,35.257v-0.352V18.88c0.971,0.022,3.205,0.324,5.532,2.393
		c2.691,2.393,5.813,7.536,6.695,18.477h-7.339h-0.358h-0.357c-0.176-0.744-0.418-1.465-0.418-2.062
		c0-2.125-3.362-2.127-3.362-2.127c-0.14,0.017-0.26,0.037-0.393,0.055V35.257z M45.854,18.903v13.501
		c-1.482-6.71-3.982-10.354-6.211-12.309c-0.545-0.478-1.087-0.865-1.616-1.191H45.854z"/>
</g>
</svg>
