<?xml version="1.0" encoding="iso-8859-1"?>
<!-- Generator: Adobe Illustrator 17.0.0, SVG Export Plug-In . SVG Version: 6.00 Build 0)  -->
<!DOCTYPE svg PUBLIC "-//W3C//DTD SVG 1.1//EN" "http://www.w3.org/Graphics/SVG/1.1/DTD/svg11.dtd">
<svg version="1.1" id="Capa_1" xmlns="http://www.w3.org/2000/svg" xmlns:xlink="http://www.w3.org/1999/xlink" x="0px" y="0px"
	 width="64px" height="64px" viewBox="0 0 64 64" style="enable-background:new 0 0 64 64;" xml:space="preserve">
<g>
	<path d="M44.914,33.416c2.073,0,3.753-1.68,3.753-3.753c0-1.109-0.49-2.095-1.255-2.782l-5.336,5.213
		C42.764,32.897,43.773,33.416,44.914,33.416z"/>
	<circle cx="59.247" cy="25.663" r="3.753"/>
	<path d="M60.783,38.192l-18.979-4.462l-0.99-0.402l-0.505-0.205l-0.505-0.205l1.716-1.676l5.048-4.931l6.329-6.183
		c0.123-0.12,0.229-0.251,0.317-0.389c0.528-0.831,0.437-1.946-0.281-2.681c-0.425-0.436-0.989-0.654-1.553-0.654
		c-0.547,0-1.095,0.206-1.517,0.618L35.384,31.163c-0.105,0.078-0.624,0.462-1.379,0.976c-0.198,0.135-0.41,0.277-0.635,0.425
		c-1.946,1.28-4.758,2.914-6.033,2.614c-0.01-0.002-0.017,0-0.026-0.002L5.066,25.132c-1.094-0.493-2.379-0.007-2.873,1.086
		s-0.008,2.379,1.086,2.873l25.07,11.32c0.036,0.084,0.072,0.169,0.108,0.252l-9.677,6.261l-6.108-1.009
		c-1.183-0.197-2.301,0.605-2.497,1.789c-0.195,1.183,0.605,2.301,1.788,2.497l6.937,1.146c0.118,0.019,0.236,0.029,0.354,0.029
		c0.416,0,0.826-0.12,1.18-0.349l9.88-6.393c0.022,0.045,0.038,0.075,0.038,0.075l10.087-6.839l19.35,4.549
		c0.167,0.04,0.334,0.059,0.499,0.059c0.985,0,1.877-0.675,2.112-1.675C62.675,39.634,61.951,38.466,60.783,38.192z"/>
</g>
</svg>
