<?xml version="1.0" encoding="iso-8859-1"?>
<!-- Generator: Adobe Illustrator 17.0.0, SVG Export Plug-In . SVG Version: 6.00 Build 0)  -->
<!DOCTYPE svg PUBLIC "-//W3C//DTD SVG 1.1//EN" "http://www.w3.org/Graphics/SVG/1.1/DTD/svg11.dtd">
<svg version="1.1" id="Capa_1" xmlns="http://www.w3.org/2000/svg" xmlns:xlink="http://www.w3.org/1999/xlink" x="0px" y="0px"
	 width="64px" height="64px" viewBox="0 0 64 64" style="enable-background:new 0 0 64 64;" xml:space="preserve">
<g>
	<path d="M16.35,20.168c0,0.534,0.139,1.031,0.365,1.477l5.917-2.834c-0.518-1.139-1.659-1.935-2.991-1.935
		C17.823,16.877,16.35,18.351,16.35,20.168z"/>
	<path d="M4.916,30.704c1.662,0,3.022-1.236,3.245-2.837c-0.038-0.282-0.04-0.563,0.007-0.837c-0.192-1.635-1.566-2.908-3.253-2.908
		c-1.818,0-3.291,1.474-3.291,3.291C1.625,29.23,3.099,30.704,4.916,30.704z"/>
	<path d="M57.59,34.131c-5.135-2.567-13.538-6.795-14.436-7.319c-0.283-0.186-0.594-0.295-0.911-0.344l-14.237-6.831l-0.566-0.272
		l-0.942-0.452c-0.166-0.111-0.343-0.2-0.534-0.256l-0.041-0.02l-0.003,0.01c-0.163-0.044-0.332-0.07-0.503-0.07
		c-0.283,0-0.57,0.062-0.842,0.192l-1.701,0.815l-5.707,2.733l-7.135,3.417c-0.972,0.466-1.383,1.631-0.917,2.603
		c0.335,0.7,1.034,1.109,1.762,1.109c0.283,0,0.57-0.062,0.842-0.192l12.622-6.045l-0.184,0.531l-0.184,0.532L23.37,26.01
		c-0.012,0.008-0.026,0.012-0.038,0.019c-2.434,1.573-5.208,3.321-6.053,3.791c-0.805,0.093-2.937,0.37-8.921,1.196
		c-1.068,0.147-1.814,1.132-1.667,2.2c0.135,0.977,0.971,1.685,1.931,1.685c0.089,0,0.178-0.006,0.269-0.019
		c3.151-0.435,8.287-1.134,8.997-1.207c0.598-0.006,1.048-0.17,6.769-3.857l10.133,5.727l-0.582,1.329
		c-0.304,0.695-0.246,1.495,0.156,2.139c0.402,0.643,1.096,1.046,1.854,1.077l11.889,0.482c0.031,0.001,0.063,0.002,0.095,0.002
		c1.225,0,2.242-0.968,2.293-2.203c0.051-1.267-0.934-2.336-2.202-2.387l-8.529-0.346l1.93-4.404
		c1.492,0.788,4.995,2.58,13.469,6.817l3.857,4.155c0.453,0.487,1.067,0.734,1.683,0.734c0.559,0,1.12-0.203,1.562-0.614
		c0.929-0.863,0.983-2.316,0.12-3.245l-4.141-4.46C58.058,34.421,57.836,34.254,57.59,34.131z"/>
</g>
</svg>
