<?xml version="1.0" encoding="iso-8859-1"?>
<!-- Generator: Adobe Illustrator 17.0.0, SVG Export Plug-In . SVG Version: 6.00 Build 0)  -->
<!DOCTYPE svg PUBLIC "-//W3C//DTD SVG 1.1//EN" "http://www.w3.org/Graphics/SVG/1.1/DTD/svg11.dtd">
<svg version="1.1" id="Capa_1" xmlns="http://www.w3.org/2000/svg" xmlns:xlink="http://www.w3.org/1999/xlink" x="0px" y="0px"
	 width="64px" height="64px" viewBox="0 0 64 64" style="enable-background:new 0 0 64 64;" xml:space="preserve">
<g>
	<path d="M10.532,54.962c0.547,4.511,5.743,2.666,6.426,1.025c0.684-1.642,3.077-6.632,5.538-8.409
		c2.461-1.777,1.368-3.828,1.368-3.828v-8.777c-4.42-4.141-3.612-15.05-3.574-15.532l0.997,0.08
		c-0.008,0.107-0.719,9.667,2.577,13.971V16.268h-0.249v-6.221h-6.917v6.221h-0.354c0,0,0.684,20.851,0.136,26.799
		C15.933,49.014,9.985,50.449,10.532,54.962z"/>
	<path d="M31.738,43.75c0,0-1.093,2.051,1.368,3.828c2.461,1.777,4.853,6.768,5.538,8.409c0.683,1.641,5.879,3.485,6.426-1.025
		c0.546-4.513-5.401-5.948-5.948-11.896c-0.547-5.948,0.136-26.799,0.136-26.799h-0.354v-6.221h-6.917v6.221h-0.249v17.224
		c3.295-4.304,2.585-13.864,2.577-13.971l0.997-0.08c0.039,0.483,0.846,11.392-3.574,15.532V43.75z"/>
</g>
</svg>
