<?xml version="1.0" encoding="iso-8859-1"?>
<!-- Generator: Adobe Illustrator 17.0.0, SVG Export Plug-In . SVG Version: 6.00 Build 0)  -->
<!DOCTYPE svg PUBLIC "-//W3C//DTD SVG 1.1//EN" "http://www.w3.org/Graphics/SVG/1.1/DTD/svg11.dtd">
<svg version="1.1" id="Capa_1" xmlns="http://www.w3.org/2000/svg" xmlns:xlink="http://www.w3.org/1999/xlink" x="0px" y="0px"
	 width="64px" height="64px" viewBox="0 0 64 64" style="enable-background:new 0 0 64 64;" xml:space="preserve">
<g>
	<circle cx="40.698" cy="57.239" r="4.319"/>
	<circle cx="37.979" cy="5.596" r="4.151"/>
	<path d="M49.6,30.166c0.484,0.484,1.118,0.726,1.752,0.726s1.268-0.242,1.752-0.726c1.793-1.793,2.928-4.726,3.564-6.87
		c0.39-1.315,1.244-4.545,0.749-6.127c-0.321-1.028-0.685-2.192-11.255-6.326c-0.167-0.065-0.336-0.109-0.506-0.137l0.007-0.034
		H30.863c0.001,0.004,0.001,0.008,0.003,0.013c-0.258-0.007-0.519,0.015-0.78,0.093c-0.801,0.241-3.682,1.537-7.113,8.096
		c-3.17,6.061-4.673,8.872-4.687,8.9c-0.645,1.207-0.19,2.708,1.017,3.353c0.372,0.199,0.772,0.293,1.166,0.293
		c0.885,0,1.741-0.475,2.187-1.31c0.015-0.028,1.526-2.855,4.708-8.94c1.922-3.674,3.43-5.066,4.039-5.52
		c-0.11,5.117-2.137,9.539-3.437,11.857L16.431,43.56c-0.148,0.206-0.272,0.427-0.37,0.66l-5.418,12.884
		c-0.721,1.716,0.085,3.691,1.8,4.413c0.427,0.179,0.869,0.264,1.305,0.264c1.316,0,2.566-0.776,3.108-2.065l5.271-12.533
		l11.84-16.478l1.117,0.232l-1.51,10.336l-5.227,2.003c-1.738,0.666-2.607,2.614-1.941,4.352c0.514,1.341,1.792,2.165,3.147,2.165
		c0.401,0,0.808-0.072,1.205-0.224l7.07-2.709c1.138-0.436,1.952-1.453,2.129-2.659l2.114-14.47c0.012-0.08,0.005-0.158,0.011-0.237
		l2.643-13.889c2.976,1.176,6.362,2.659,7.838,3.482c-0.273,1.922-1.456,6.07-2.962,7.576C48.632,27.63,48.632,29.198,49.6,30.166z"
		/>
</g>
</svg>
