<?xml version="1.0" encoding="iso-8859-1"?>
<!-- Generator: Adobe Illustrator 17.0.0, SVG Export Plug-In . SVG Version: 6.00 Build 0)  -->
<!DOCTYPE svg PUBLIC "-//W3C//DTD SVG 1.1//EN" "http://www.w3.org/Graphics/SVG/1.1/DTD/svg11.dtd">
<svg version="1.1" id="Capa_1" xmlns="http://www.w3.org/2000/svg" xmlns:xlink="http://www.w3.org/1999/xlink" x="0px" y="0px"
	 width="64px" height="64px" viewBox="0 0 64 64" style="enable-background:new 0 0 64 64;" xml:space="preserve">
<g>
	<path d="M19,24.929v0.526c2.146,1.223,3.735,3.957,3.735,6.531c0,2.617-1.559,5.298-3.735,6.531v0.618c0,1.93-1.57,3.5-3.5,3.5
		h-5.08c0.18,0.77,0.868,1.346,1.692,1.346h18.803v-4.269c-3.641-0.528-6.449-3.661-6.449-7.446c0-3.785,2.808-6.917,6.449-7.446
		v-4.737H12.112c-0.824,0-1.512,0.576-1.692,1.346h5.08C17.43,21.429,19,22.999,19,24.929z"/>
	<path d="M18,39.135V24.929c0-1.378-1.122-2.5-2.5-2.5h-5.129v19.206H15.5C16.878,41.635,18,40.513,18,39.135z"/>
	<path d="M6.5,36.282h1.871v-8.5H6.5c-0.276,0-0.5,0.224-0.5,0.5v7.5C6,36.058,6.224,36.282,6.5,36.282z"/>
	<path d="M45.735,24.929v14.206c0,1.378,1.121,2.5,2.5,2.5h5.225V22.429h-5.225C46.857,22.429,45.735,23.55,45.735,24.929z"/>
	<path d="M26.467,32.266c0,2.68,1.916,4.919,4.449,5.425v-10.85C28.382,27.346,26.467,29.586,26.467,32.266z"/>
	<path d="M37.533,32.266c0-2.738-2.002-5.013-4.618-5.451v10.902C35.531,37.278,37.533,35.004,37.533,32.266z"/>
	<path d="M7.749,51.301h48.333c2.762,0,5-2.239,5-5V17.762c0-2.761-2.238-5-5-5H7.749c-2.762,0-5,2.239-5,5v28.539
		C2.749,49.062,4.987,51.301,7.749,51.301z M5,28.282c0-0.827,0.673-1.5,1.5-1.5h1.871v-4.956c0-2.064,1.679-3.742,3.742-3.742
		h39.607c2.063,0,3.742,1.679,3.742,3.742v4.956h1.775c0.827,0,1.5,0.673,1.5,1.5v7.5c0,0.827-0.673,1.5-1.5,1.5H55.46v4.957
		c0,2.063-1.679,3.742-3.742,3.742H12.112c-2.063,0-3.742-1.679-3.742-3.742v-4.957H6.5c-0.827,0-1.5-0.673-1.5-1.5V28.282z"/>
	<path d="M57.735,35.782v-7.5c0-0.276-0.224-0.5-0.5-0.5H55.46v8.5h1.775C57.511,36.282,57.735,36.058,57.735,35.782z"/>
	<path d="M53.411,42.635h-5.175c-1.93,0-3.5-1.57-3.5-3.5v-0.618C42.559,37.284,41,34.602,41,31.985c0-2.574,1.59-5.308,3.735-6.531
		v-0.526c0-1.93,1.57-3.5,3.5-3.5h5.175c-0.18-0.77-0.868-1.346-1.692-1.346H32.916v4.711c3.723,0.454,6.618,3.628,6.618,7.472
		c0,3.843-2.895,7.018-6.618,7.472v4.243h18.803C52.542,43.98,53.23,43.404,53.411,42.635z"/>
	<path d="M19,26.623v10.725c1.601-1.165,2.735-3.325,2.735-5.362C21.735,29.948,20.601,27.788,19,26.623z"/>
	<path d="M44.735,37.348V26.623C43.134,27.788,42,29.948,42,31.985C42,34.022,43.135,36.183,44.735,37.348z"/>
</g>
</svg>
