<?xml version="1.0" encoding="iso-8859-1"?>
<!-- Generator: Adobe Illustrator 17.0.0, SVG Export Plug-In . SVG Version: 6.00 Build 0)  -->
<!DOCTYPE svg PUBLIC "-//W3C//DTD SVG 1.1//EN" "http://www.w3.org/Graphics/SVG/1.1/DTD/svg11.dtd">
<svg version="1.1" id="Capa_1" xmlns="http://www.w3.org/2000/svg" xmlns:xlink="http://www.w3.org/1999/xlink" x="0px" y="0px"
	 width="64px" height="64px" viewBox="0 0 64 64" style="enable-background:new 0 0 64 64;" xml:space="preserve">
<g>
	<circle cx="35.169" cy="6.055" r="4.318"/>
	<circle cx="52.669" cy="52.92" r="4.318"/>
	<path d="M22.175,34.723l-12.092-6.665c-1.618-0.891-3.654-0.303-4.547,1.316c-0.892,1.618-0.303,3.654,1.316,4.547l14.783,8.149
		c1.521,0.837,3.432,0.373,4.399-1.072l2.586-3.872l4.53,6.017l7.089,17.177c0.533,1.291,1.78,2.071,3.096,2.071
		c0.425,0,0.858-0.081,1.276-0.254c1.708-0.705,2.522-2.662,1.817-4.371l-7.252-17.573c-0.108-0.262-0.25-0.509-0.421-0.736
		l-4.323-5.742l2.562-15.104l11.18,5.182c0.353,0.163,0.724,0.24,1.09,0.24c0.984,0,1.926-0.561,2.365-1.513
		c0.603-1.305,0.033-2.852-1.273-3.455l-9.953-4.594l-2.768-1.302c-0.254-0.119-0.518-0.182-0.782-0.215L25.652,9.31
		c-0.217-0.114-0.446-0.209-0.698-0.26L24.697,9l-0.203-0.066l-0.001,0.025l-9.425-1.877L8.915,2.177
		C7.792,1.28,6.153,1.464,5.257,2.59C4.36,3.714,4.545,5.352,5.669,6.248l6.648,5.3c0.325,0.259,0.707,0.437,1.114,0.518
		l10.506,2.092c0.141,0.028,0.281,0.037,0.42,0.042l-0.466,17.955L22.175,34.723z"/>
</g>
</svg>
