<?xml version="1.0" encoding="iso-8859-1"?>
<!-- Generator: Adobe Illustrator 17.0.0, SVG Export Plug-In . SVG Version: 6.00 Build 0)  -->
<!DOCTYPE svg PUBLIC "-//W3C//DTD SVG 1.1//EN" "http://www.w3.org/Graphics/SVG/1.1/DTD/svg11.dtd">
<svg version="1.1" id="Capa_1" xmlns="http://www.w3.org/2000/svg" xmlns:xlink="http://www.w3.org/1999/xlink" x="0px" y="0px"
	 width="64px" height="64px" viewBox="0 0 64 64" style="enable-background:new 0 0 64 64;" xml:space="preserve">
<g>
	<path d="M34.651,6.233c0.516,0.973,1.528,1.643,2.706,1.643c1.158,0,2.154-0.647,2.678-1.592c1.774,0.027,3.577,0.066,5.405,0.119
		c0.541,0.88,1.505,1.473,2.614,1.473c1.03,0,1.936-0.511,2.494-1.288c1.183,0.051,2.37,0.11,3.559,0.175
		C54.286,8.29,55.57,9.48,57.146,9.48c1.698,0,3.075-1.377,3.075-3.075S58.844,3.33,57.146,3.33c-1.044,0-1.963,0.523-2.519,1.318
		c-1.179-0.066-2.357-0.124-3.531-0.176C50.93,2.93,49.64,1.725,48.054,1.725c-1.511,0-2.761,1.091-3.02,2.527
		c-1.577-0.044-3.136-0.078-4.673-0.102c-0.299-1.385-1.528-2.425-3.003-2.425c-1.255,0-2.329,0.754-2.808,1.831V3.508
		c0-0.615-1.078-1.114-2.407-1.114c-1.117,0-2.047,0.354-2.319,0.831c-0.538-0.895-1.508-1.5-2.628-1.5
		c-1.486,0-2.725,1.054-3.013,2.455c-1.644,0.031-3.205,0.068-4.66,0.11c-0.245-1.454-1.5-2.564-3.024-2.564
		c-1.595,0-2.892,1.219-3.045,2.775c-1.384,0.057-2.576,0.112-3.518,0.16C9.381,3.857,8.456,3.33,7.407,3.33
		c-1.698,0-3.075,1.377-3.075,3.075S5.709,9.48,7.407,9.48c1.571,0,2.853-1.183,3.038-2.704c0.983-0.048,2.182-0.103,3.584-0.16
		c0.56,0.76,1.454,1.259,2.47,1.259c1.093,0,2.047-0.575,2.593-1.434c1.679-0.049,3.499-0.094,5.441-0.13
		c0.529,0.93,1.517,1.564,2.663,1.564c1.056,0,1.987-0.533,2.54-1.344v5.095c-0.554-0.811-1.484-1.344-2.54-1.344
		c-1.501,0-2.747,1.077-3.017,2.499c-1.641,0.031-3.198,0.068-4.651,0.109c-0.226-1.475-1.49-2.609-3.028-2.609
		c-1.611,0-2.917,1.243-3.049,2.819c-1.368,0.056-2.547,0.111-3.483,0.158c-0.551-0.827-1.491-1.373-2.559-1.373
		c-1.698,0-3.075,1.377-3.075,3.075c0,1.698,1.377,3.075,3.075,3.075c1.556,0,2.829-1.16,3.033-2.659
		c0.992-0.049,2.204-0.104,3.624-0.161c0.562,0.735,1.438,1.216,2.435,1.216c1.075,0,2.018-0.553,2.568-1.389
		c1.693-0.05,3.529-0.095,5.489-0.131c0.535,0.906,1.511,1.52,2.639,1.52c1.056,0,1.987-0.533,2.54-1.344v4.961
		c-0.554-0.811-1.484-1.344-2.54-1.344c-1.354,0-2.491,0.881-2.901,2.096c-1.719,0.032-3.345,0.071-4.859,0.114
		c-0.376-1.274-1.541-2.21-2.937-2.21c-1.472,0-2.698,1.035-3.001,2.416c-1.553,0.064-2.849,0.125-3.845,0.176
		c-0.562-0.604-1.357-0.988-2.246-0.988c-1.698,0-3.075,1.377-3.075,3.075c0,1.698,1.377,3.075,3.075,3.075
		c1.694,0,3.067-1.37,3.074-3.062c0.924-0.045,2.04-0.096,3.332-0.149c0.522,0.953,1.523,1.607,2.686,1.607
		c1.241,0,2.303-0.739,2.789-1.797c1.571-0.046,3.264-0.087,5.061-0.12c0.458,1.124,1.558,1.917,2.846,1.917
		c1.056,0,1.987-0.533,2.54-1.344v37.648c0,0.615,1.078,1.114,2.407,1.114c1.329,0,2.407-0.499,2.407-1.114V23.026
		c0.478,1.077,1.553,1.831,2.808,1.831c1.299,0,2.404-0.808,2.855-1.946c1.653,0.026,3.332,0.063,5.032,0.111
		c0.477,1.08,1.554,1.835,2.81,1.835c1.175,0,2.184-0.667,2.702-1.635c1.102,0.049,2.208,0.103,3.315,0.163c0,0,0,0.001,0,0.001
		c0,1.698,1.377,3.075,3.075,3.075s3.075-1.377,3.075-3.075c0-1.698-1.377-3.075-3.075-3.075c-0.885,0-1.676,0.379-2.237,0.977
		c-1.291-0.073-2.579-0.136-3.863-0.194c-0.313-1.366-1.531-2.387-2.992-2.387c-1.382,0-2.538,0.918-2.925,2.173
		c-1.648-0.046-3.276-0.081-4.879-0.107c-0.419-1.2-1.549-2.066-2.892-2.066c-1.255,0-2.329,0.754-2.808,1.831v-5.702
		c0.042,0,0.084,0,0.126,0c0.524,0.948,1.522,1.598,2.682,1.598c1.14,0,2.123-0.627,2.654-1.548c1.79,0.028,3.609,0.066,5.453,0.12
		c0.546,0.856,1.498,1.428,2.589,1.428c1.01,0,1.898-0.493,2.459-1.245c1.196,0.052,2.396,0.111,3.599,0.177
		c0.199,1.506,1.474,2.673,3.035,2.673c1.698,0,3.075-1.377,3.075-3.075c0-1.698-1.377-3.075-3.075-3.075
		c-1.064,0-2.001,0.54-2.553,1.361c-1.167-0.065-2.331-0.122-3.493-0.174c-0.146-1.563-1.445-2.791-3.047-2.791
		c-1.526,0-2.783,1.114-3.024,2.571c-1.572-0.044-3.126-0.077-4.658-0.102c-0.282-1.408-1.523-2.469-3.014-2.469
		c-1.255,0-2.329,0.754-2.808,1.831v-5.88C34.584,6.233,34.617,6.233,34.651,6.233z"/>
</g>
</svg>
