<?xml version="1.0" encoding="iso-8859-1"?>
<!-- Generator: Adobe Illustrator 17.0.0, SVG Export Plug-In . SVG Version: 6.00 Build 0)  -->
<!DOCTYPE svg PUBLIC "-//W3C//DTD SVG 1.1//EN" "http://www.w3.org/Graphics/SVG/1.1/DTD/svg11.dtd">
<svg version="1.1" id="Capa_1" xmlns="http://www.w3.org/2000/svg" xmlns:xlink="http://www.w3.org/1999/xlink" x="0px" y="0px"
	 width="64px" height="64px" viewBox="0 0 64 64" style="enable-background:new 0 0 64 64;" xml:space="preserve">
<g>
	<circle cx="58.692" cy="34.335" r="4.308"/>
	<path d="M39.735,20.561l2.819,1.476l-0.028-0.062C42.035,20.885,40.857,20.322,39.735,20.561z"/>
	<path d="M3.934,44.456l16.182-1.204l14.971-0.301c0.029-0.001,0.055-0.009,0.083-0.01c4.717,0.477,15.743,0.351,17.325-1.048
		c0.177-0.157,1.354-5.163,0.525-7.323c-0.047-0.802-0.479-1.566-1.223-2.005l-5.851-3.452l-3.653,3.116l0.402,0.224
		c0.021,0.001,0.041-0.003,0.062,0.001l1.685,0.39l1.837,0.425c0.188,0.043,0.306,0.231,0.262,0.42
		c-0.037,0.161-0.182,0.271-0.341,0.271c-0.025,0-0.053-0.003-0.079-0.009l-1.252-0.29l6.246,3.471l0.046,0.026
		c0.169,0.094,0.229,0.307,0.136,0.476c-0.094,0.169-0.307,0.23-0.475,0.136l0,0l-8.945-4.971l-0.153-0.085l-0.236-0.131
		l-0.028-0.105l-0.099-0.376l-0.361-1.365l-2.324-8.788c-0.059-0.223-0.161-0.423-0.293-0.595c-0.403-0.524-1.095-0.786-1.775-0.607
		c-0.437,0.115-0.802,0.394-1.028,0.784c-0.228,0.391-0.289,0.846-0.173,1.282l0.445,1.681l0.126,0.476l0.126,0.476l0.846,3.201
		l0.102,0.385l0.102,0.385l0.903,3.414l0.347,1.311c0.034,0.126,0.085,0.245,0.146,0.359c0.056,0.104,0.122,0.201,0.198,0.292
		c0.076,0.09,0.16,0.172,0.253,0.245c0.069,0.054,0.139,0.108,0.216,0.151l9.962,5.537l0,0c0.169,0.094,0.229,0.307,0.136,0.476
		c-0.063,0.115-0.183,0.18-0.306,0.18c-0.058,0-0.116-0.014-0.17-0.044l-9.963-5.537c-0.151-0.084-0.29-0.187-0.418-0.301
		l-2.142,1.827l-0.228-0.267l-0.227-0.266l2.153-1.836c-0.122-0.198-0.226-0.408-0.286-0.636l-0.389-1.469l-0.764-2.89l-3.709,3.494
		l-0.24-0.255l0,0l0.251,0.28c-0.44,0.679-0.605,2.619-0.563,4.535l-12.365,0.248c-0.045,0.001-0.09,0.003-0.135,0.007L3.564,39.482
		c-1.374,0.102-2.404,1.298-2.302,2.672c0.097,1.311,1.191,2.309,2.484,2.309C3.808,44.463,3.871,44.46,3.934,44.456z"/>
	<path d="M36.43,20.07c0.246-0.065,0.491-0.078,0.732-0.065l-5.853-3.065c-1.054-0.552-2.348-0.143-2.894,0.903
		c-0.549,1.048-0.143,2.346,0.904,2.894l5.678,3.266l-0.267-1.01c-0.164-0.618-0.077-1.262,0.244-1.814
		C35.296,20.627,35.812,20.233,36.43,20.07z"/>
	<path d="M39.353,21.77l2.6,9.829l3.545-3.024l0.642-0.548c0.543-0.463,0.819-1.162,0.739-1.87
		c-0.079-0.709-0.504-1.329-1.136-1.659l-2.724-1.426l-4.074-2.133C39.129,21.18,39.271,21.459,39.353,21.77z"/>
</g>
</svg>
