<?xml version="1.0" encoding="iso-8859-1"?>
<!-- Generator: Adobe Illustrator 17.0.0, SVG Export Plug-In . SVG Version: 6.00 Build 0)  -->
<!DOCTYPE svg PUBLIC "-//W3C//DTD SVG 1.1//EN" "http://www.w3.org/Graphics/SVG/1.1/DTD/svg11.dtd">
<svg version="1.1" id="Capa_1" xmlns="http://www.w3.org/2000/svg" xmlns:xlink="http://www.w3.org/1999/xlink" x="0px" y="0px"
	 width="64px" height="64px" viewBox="0 0 64 64" style="enable-background:new 0 0 64 64;" xml:space="preserve">
<g>
	<path d="M26.653,47.414c2.902-0.305-0.458-5.956,0-9.622c0.421-3.365,3.287-21.19,0.328-28.737c-0.403-1.028-1.834-1.76-2.939-1.76
		h-5.978c-1.105,0-2.029,0.895-2.029,1.999c0,3.45,0.221,10.781,1.862,17.349c2.24,8.961,3.259,11.605,0,17.309
		c-3.259,5.704-11.2,8.554-10.182,10.997c1.018,2.444,8.436,2.239,12.262,0C23.802,52.71,23.751,47.72,26.653,47.414z"/>
	<path d="M47.033,43.951c-3.259-5.703-2.24-8.348,0-17.309c1.641-6.567,1.861-13.898,1.862-17.349c0-1.104-0.924-1.999-2.029-1.999
		h-5.978c-1.104,0-2.536,0.732-2.938,1.76c-2.959,7.548-0.093,25.372,0.328,28.737c0.458,3.666-2.902,9.317,0,9.622
		c2.902,0.306,2.85,5.296,6.676,7.534c3.826,2.239,11.244,2.444,12.262,0C58.233,52.505,50.292,49.655,47.033,43.951z"/>
</g>
</svg>
