<?xml version="1.0" encoding="iso-8859-1"?>
<!-- Generator: Adobe Illustrator 17.0.0, SVG Export Plug-In . SVG Version: 6.00 Build 0)  -->
<!DOCTYPE svg PUBLIC "-//W3C//DTD SVG 1.1//EN" "http://www.w3.org/Graphics/SVG/1.1/DTD/svg11.dtd">
<svg version="1.1" id="Capa_1" xmlns="http://www.w3.org/2000/svg" xmlns:xlink="http://www.w3.org/1999/xlink" x="0px" y="0px"
	 width="64px" height="64px" viewBox="0 0 64 64" style="enable-background:new 0 0 64 64;" xml:space="preserve">
<g>
	<circle cx="49.44" cy="17.254" r="3.354"/>
	<circle cx="5.299" cy="38.486" r="3.354"/>
	<path d="M53.981,25.451c-0.13-0.302-0.347-0.526-0.592-0.708l0.015-0.017l-0.257-0.164l-9.156-5.852l-0.36-0.23l-0.367-0.234
		l-0.064,0.086c-0.115-0.023-0.234-0.036-0.355-0.036h-7.777L28.661,15.2c-0.907-0.438-2.003-0.058-2.443,0.852
		c-0.44,0.909-0.058,2.004,0.852,2.443l6.785,3.278c0.248,0.12,0.52,0.182,0.796,0.182h5.873l-7.49,10.134
		c-3.677,2.006-8.134,4.431-9.436,5.119c-0.258,0.091-0.514,0.234-0.778,0.432c-0.144,0.108-0.269,0.232-0.383,0.364l2.347-0.747
		l0.086-0.025l7.075-2.021c-0.003,0.038-0.011,0.073-0.011,0.112c0,0.098,0.013,0.198,0.035,0.297
		c0.029,0.129,0.08,0.254,0.141,0.376l-7.019,2.005c-0.024,0.007-0.047,0.014-0.07,0.021l-3.096,0.986l-10.551,3.36
		c-1.284,0.409-1.993,1.781-1.584,3.065c0.331,1.038,1.29,1.7,2.324,1.7c0.245,0,0.495-0.037,0.741-0.116l12.102-3.854l1.509-0.481
		l3.961-1.132l10.413-2.975c0.175-0.05,0.338-0.121,0.492-0.204l0.107,0.077l0.373-0.428l0.346-0.397l0.801-0.919l0.436-0.5
		l7.522-8.624l2.527,5.873c0.067,0.155,0.154,0.3,0.261,0.431l5.946,7.319c0.362,0.445,0.889,0.676,1.421,0.676
		c0.406,0,0.814-0.134,1.152-0.41c0.784-0.637,0.904-1.789,0.266-2.574l-5.786-7.122L53.981,25.451z"/>
	<path d="M31.081,42.194l-4.376,1.25l-1.062,0.338c0.656,0.594,1.354,1.242,1.988,1.845c0.472,0.45,1.077,0.672,1.681,0.672
		c0.645,0,1.288-0.254,1.768-0.758C31.979,44.599,31.964,43.13,31.081,42.194z"/>
</g>
</svg>
