<?xml version="1.0" encoding="iso-8859-1"?>
<!-- Generator: Adobe Illustrator 17.0.0, SVG Export Plug-In . SVG Version: 6.00 Build 0)  -->
<!DOCTYPE svg PUBLIC "-//W3C//DTD SVG 1.1//EN" "http://www.w3.org/Graphics/SVG/1.1/DTD/svg11.dtd">
<svg version="1.1" id="Capa_1" xmlns="http://www.w3.org/2000/svg" xmlns:xlink="http://www.w3.org/1999/xlink" x="0px" y="0px"
	 width="64px" height="64px" viewBox="0 0 64 64" style="enable-background:new 0 0 64 64;" xml:space="preserve">
<g>
	<path d="M13.129,55.474l6.602-18.746c-0.375,0.211-0.725,0.467-1.025,0.803h-0.05c-0.102,0.12-0.186,0.254-0.279,0.381
		c-0.006,0.009-0.012,0.019-0.016,0.028c-0.236,0.333-0.451,0.692-0.594,1.094L10.848,57.93
		C11.518,57.928,12.635,56.877,13.129,55.474z"/>
	<path d="M45.224,18.786C45.007,16.28,43.44,6.57,32.155,6.57c-11.423,0-12.889,9.953-13.076,12.311
		c1.754-0.85,6.212-2.631,12.851-2.631C38.84,16.25,43.321,17.903,45.224,18.786z"/>
	<path d="M24.125,23.586c1.543-1.828,4.398-4.083,8.176-4.203c3.866-0.123,6.542,2.564,8.102,4.261
		c0.818,0.89,1.856,0.863,2.467-0.181L45.01,19.8c-1.651-0.789-6.114-2.549-13.08-2.549c-6.598,0-11.042,1.86-12.574,2.614
		l2.309,3.641C22.312,24.525,23.345,24.509,24.125,23.586z"/>
	<path d="M46.921,43.935l1.159,0.121l-1.839-5.023c-0.141-0.405-0.356-0.759-0.596-1.094c-0.004-0.009-0.011-0.018-0.019-0.028
		c-0.09-0.127-0.177-0.263-0.281-0.381h-0.048c-0.266-0.3-0.569-0.548-0.895-0.748L46.921,43.935z"/>
	<path d="M21.572,36.266l-6.95,19.733c-0.256,0.726-0.634,1.383-1.08,1.931h17.597V37.316h1.582V57.93h3.927
		c0,0,2.957-5.076,3.445-6.109c0.357-0.757,0.728-1.084,0.974-1.3c0.19-0.167,0.423-0.372,0.876-1.966
		c0.716-2.522,2.272-3.757,3.432-4.243l-2.834-8.046h-0.177H40.26c0.13-0.257,0.21-0.543,0.21-0.852
		c0-0.955-0.706-1.738-1.623-1.874c3.01-2.217,4.965-5.778,4.965-9.803c0-0.044-0.006-0.087-0.006-0.132l-0.228,0.389
		c-0.488,0.835-1.25,1.313-2.09,1.313c-0.706,0-1.408-0.341-1.977-0.96c-1.791-1.949-4.037-3.942-7.109-3.942l-0.224,0.003
		c-3.89,0.124-6.501,2.732-7.443,3.848c-0.568,0.673-1.287,1.043-2.022,1.043h-0.001c-0.815,0-1.541-0.438-2.046-1.233l-0.587-0.927
		c-0.01,0.199-0.029,0.394-0.029,0.595c0,4.074,2.001,7.678,5.074,9.889c-0.745,0.258-1.283,0.957-1.283,1.79
		c0,0.308,0.08,0.594,0.21,0.852h-2.404H21.572z"/>
	<path d="M46.144,45.063c-0.099,0.018-2.432,0.497-3.359,3.763c-0.533,1.876-0.86,2.164-1.177,2.442
		c-0.216,0.19-0.462,0.406-0.731,0.977c-0.504,1.068-2.073,3.82-2.724,4.953c-0.129,0.224-0.152,0.478-0.063,0.697
		c0.089,0.219,0.282,0.385,0.53,0.456l3.108,0.889l0.928,0.903c0.157,0.153,0.353,0.237,0.552,0.237
		c0.275,0,0.525-0.159,0.668-0.425l2.342-4.357l3.686,0.828c0.492,0.21,1.02,0.331,1.571,0.331c2.58,0,4.678-2.51,4.678-5.594
		c0-3.085-2.099-5.595-4.678-5.595c-0.078,0-0.154,0.009-0.232,0.014l-5.056-0.527L46.144,45.063z M48.503,55.479l-1.982-0.445
		l0.76-1.413C47.576,54.339,47.992,54.975,48.503,55.479z M46.95,49.057c-0.379,1.339-0.799,2.114-1.099,2.539
		c-0.197,0.278-0.679,0.411-1.014,0.35l-1.458-0.267c-0.335-0.061-0.41-0.306-0.212-0.583c0.602-0.847,0.85-1.854,0.951-2.485
		c0.054-0.336,0.34-0.569,0.676-0.516l1.704,0.269C46.834,48.418,47.043,48.729,46.95,49.057z"/>
	<polygon points="41.674,59.41 38.387,58.434 39.234,59.326 42.5,60.26 	"/>
</g>
</svg>
