<?xml version="1.0" encoding="iso-8859-1"?>
<!-- Generator: Adobe Illustrator 17.0.0, SVG Export Plug-In . SVG Version: 6.00 Build 0)  -->
<!DOCTYPE svg PUBLIC "-//W3C//DTD SVG 1.1//EN" "http://www.w3.org/Graphics/SVG/1.1/DTD/svg11.dtd">
<svg version="1.1" id="Capa_1" xmlns="http://www.w3.org/2000/svg" xmlns:xlink="http://www.w3.org/1999/xlink" x="0px" y="0px"
	 width="64px" height="64px" viewBox="0 0 64 64" style="enable-background:new 0 0 64 64;" xml:space="preserve">
<g>
	<path d="M24.448,44.843c0.787,1.341,2.742,0.368,2.461-0.93c0.581,0.129,1.168,0.203,1.755,0.257l-0.555,7.756
		c0,0.031,0.007,0.059,0.008,0.09c-2.691,1.256-4.514,3.667-4.514,6.439H41.11c0-2.772-1.823-5.183-4.514-6.439
		c0.001-0.03,0.008-0.059,0.008-0.09l-0.556-7.764c0.558-0.055,1.115-0.127,1.668-0.25c-0.281,1.299,1.674,2.272,2.461,0.93
		c4.402-7.502,13.511-9.102,19.078-15.309c3.683-4.107,6.051-11.99-0.678-14.698c-2.762-1.112-7.996-0.742-10.807,1.57
		c-0.129-0.83-0.76-1.457-1.634-1.457c0.982,0,1.778-0.796,1.778-1.778c0-0.982-0.796-1.778-1.778-1.778h-0.983H19.471h-0.983
		c-0.982,0-1.778,0.796-1.778,1.778c0,0.982,0.796,1.778,1.778,1.778c-0.874,0-1.505,0.627-1.634,1.457
		c-2.81-2.312-8.045-2.681-10.807-1.57c-6.729,2.709-4.362,10.592-0.678,14.698C10.937,35.741,20.046,37.341,24.448,44.843z
		 M47.564,24.093c1.737,1.172,4.445,0.441,6.404-1.424c1.248-1.188-0.641-3.07-1.886-1.886c-0.437,0.416-2.52,2.463-3.265,0.929
		c-0.463-0.953-0.208-2.143,0.57-2.885c1.833-1.746,5.05-2.801,7.517-1.808c7.088,2.853,1.534,10.358-2.438,13.124
		c-2.911,2.027-6.067,3.735-8.973,5.72C46.486,33.013,47.215,29.202,47.564,24.093z M7.72,17.019
		c2.466-0.993,5.684,0.062,7.517,1.808c0.778,0.741,1.033,1.931,0.57,2.885c-0.745,1.534-2.828-0.513-3.265-0.929
		c-1.245-1.185-3.133,0.698-1.886,1.886c1.959,1.865,4.667,2.596,6.404,1.424c0.349,5.109,1.078,8.92,2.07,11.77
		c-2.906-1.985-6.062-3.693-8.973-5.72C6.186,27.377,0.633,19.872,7.72,17.019z"/>
</g>
</svg>
