<?xml version="1.0" encoding="iso-8859-1"?>
<!-- Generator: Adobe Illustrator 17.0.0, SVG Export Plug-In . SVG Version: 6.00 Build 0)  -->
<!DOCTYPE svg PUBLIC "-//W3C//DTD SVG 1.1//EN" "http://www.w3.org/Graphics/SVG/1.1/DTD/svg11.dtd">
<svg version="1.1" id="Capa_1" xmlns="http://www.w3.org/2000/svg" xmlns:xlink="http://www.w3.org/1999/xlink" x="0px" y="0px"
	 width="64px" height="64px" viewBox="0 0 64 64" style="enable-background:new 0 0 64 64;" xml:space="preserve">
<g>
	<path d="M29.309,43.073l1.103-0.437c0.138-0.055,0.228-0.23,0.191-0.375l-0.508-2.011c-0.022-0.09-0.089-0.146-0.172-0.146
		c-0.025,0-0.053,0.005-0.08,0.017l-1.103,0.437c-0.139,0.055-0.229,0.23-0.192,0.375l0.508,2.01
		C29.086,43.062,29.196,43.118,29.309,43.073z"/>
	<path d="M27.878,59.836l0.561,1.373c0.401,0.983,1.523,1.454,2.506,1.053l18.465-7.538c0.983-0.401,1.454-1.523,1.053-2.506
		l-0.561-1.373c-0.204-0.5-0.595-0.865-1.059-1.053c-0.723-1.337-2.478-4.921-2.629-8.455c-0.19-4.457-3.888-7.966-3.888-7.966
		S34.425,8.999,30.062,3.689s-9.42-0.19-5.88,5.5c3.54,5.69,5.374,13.592,5.374,13.592s-4.85-2.086-6.566,3.604
		c0,0-5.004,0.632-3.802,6.575c0,0-3.224,2.086-0.443,6.006c2.782,3.92,2.845,3.92,3.098,4.868c0.253,0.948,3.098,5.374,4.109,6.954
		c0.865,1.351,1.406,6.157,1.96,7.526C27.701,58.779,27.67,59.325,27.878,59.836z M34.669,33.513l1.541-1.822
		c0.204-0.241,0.593-0.521,0.886-0.637l0.536-0.212c0.375-0.149,0.824,0.045,0.974,0.421l4.666,11.769
		c0.073,0.187,0.07,0.39-0.009,0.574c-0.079,0.184-0.226,0.326-0.412,0.399l-0.731,0.29c-0.088,0.035-0.182,0.053-0.276,0.053
		c-0.309,0-0.582-0.186-0.696-0.474l-4.031-10.168c-0.019-0.046-0.038-0.064-0.044-0.067c0.004,0.002-0.019,0.013-0.048,0.047
		c-0.321,0.375-0.805,0.948-1.121,1.324c-0.271,0.322-0.762,0.303-1.008-0.037l-0.266-0.368
		C34.399,34.292,34.418,33.811,34.669,33.513z M27.671,45.593l-0.673,0.267c-0.374,0.15-0.823-0.044-0.973-0.421l-0.089-0.223
		c-0.074-0.187-0.07-0.39,0.009-0.574c0.08-0.184,0.227-0.326,0.413-0.399l0.849-0.336c0.141-0.056,0.229-0.228,0.191-0.375
		l-0.508-2.011c-0.029-0.118-0.139-0.172-0.253-0.129l-0.75,0.298c-0.378,0.151-0.825-0.046-0.974-0.421l-0.088-0.223
		c-0.074-0.185-0.071-0.388,0.008-0.572c0.079-0.185,0.226-0.327,0.412-0.401l0.928-0.367c0.139-0.055,0.229-0.232,0.194-0.377
		l-0.733-2.962c-0.097-0.391,0.121-0.813,0.496-0.962l0.204-0.082c0.392-0.152,0.82,0.07,0.922,0.472l0.745,2.957
		c0.03,0.119,0.14,0.174,0.253,0.129l1.104-0.438c0.139-0.055,0.229-0.232,0.194-0.377l-0.732-2.962
		c-0.097-0.391,0.121-0.814,0.496-0.962l0.223-0.089c0.393-0.155,0.821,0.07,0.922,0.472l0.746,2.956
		c0.031,0.117,0.139,0.173,0.254,0.129l0.672-0.267c0.378-0.151,0.825,0.046,0.974,0.421l0.088,0.223
		c0.152,0.385-0.036,0.821-0.421,0.973l-0.849,0.337c-0.139,0.055-0.227,0.229-0.189,0.373l0.521,2.005
		c0.03,0.119,0.142,0.178,0.256,0.13l0.751-0.297c0.376-0.15,0.824,0.045,0.974,0.421l0.088,0.223
		c0.074,0.185,0.071,0.389-0.008,0.573s-0.226,0.327-0.412,0.401l-0.928,0.367c-0.141,0.056-0.229,0.229-0.192,0.376l0.767,3.061
		c0.099,0.391-0.118,0.814-0.493,0.962l-0.243,0.096c-0.385,0.156-0.819-0.069-0.92-0.472l-0.766-3.061
		c-0.029-0.117-0.135-0.177-0.252-0.129l-1.104,0.438c-0.139,0.055-0.229,0.23-0.192,0.375l0.768,3.061
		c0.099,0.391-0.118,0.814-0.494,0.962l-0.241,0.097c-0.087,0.034-0.176,0.051-0.266,0.051c-0.313,0-0.577-0.21-0.656-0.523
		l-0.768-3.061C27.894,45.604,27.785,45.548,27.671,45.593z"/>
</g>
</svg>
