<?xml version="1.0" encoding="iso-8859-1"?>
<!-- Generator: Adobe Illustrator 16.0.4, SVG Export Plug-In . SVG Version: 6.00 Build 0)  -->
<!DOCTYPE svg PUBLIC "-//W3C//DTD SVG 1.1//EN" "http://www.w3.org/Graphics/SVG/1.1/DTD/svg11.dtd">
<svg version="1.1" id="Capa_1" xmlns="http://www.w3.org/2000/svg" xmlns:xlink="http://www.w3.org/1999/xlink" x="0px" y="0px"
	 width="64px" height="64px" viewBox="0 0 64 64" style="enable-background:new 0 0 64 64;" xml:space="preserve">
<g>
	<path d="M17.614,44.748l0.908-1.263l0.277,0.386l1.881,2.614l6.156-8.559l1.277-1.774l0.39,0.542l2.607,3.625l5.803-8.068
		c0.483-0.673,0.331-1.61-0.342-2.094c-0.672-0.482-1.609-0.331-2.094,0.342l-2.731,3.796l-0.637,0.886l-0.194-0.271l-2.803-3.896
		L20.68,41.349l-2.158-3L14,44.635V16h-3v34h37v-3H15.994L17.614,44.748z"/>
	<path d="M42.917,13.345c-4.91,0-8.905,3.995-8.905,8.905s3.995,8.905,8.905,8.905s8.905-3.995,8.905-8.905
		S47.827,13.345,42.917,13.345z M48.321,24.625c-0.304-0.15-0.64-0.242-1.001-0.242c-1.254,0-2.271,1.017-2.271,2.271
		c0,0.36,0.092,0.697,0.241,1c-0.727,0.32-1.529,0.5-2.374,0.5c-0.846,0-1.647-0.181-2.375-0.501
		c0.149-0.303,0.241-0.639,0.241-0.999c0-1.254-1.018-2.271-2.271-2.271c-0.36,0-0.696,0.092-0.999,0.241
		c-0.32-0.728-0.501-1.53-0.501-2.375s0.181-1.647,0.501-2.375c0.303,0.149,0.639,0.241,0.999,0.241
		c1.254,0,2.271-1.017,2.271-2.271c0-0.36-0.092-0.696-0.241-0.999c0.728-0.32,1.529-0.501,2.375-0.501
		c0.845,0,1.647,0.181,2.374,0.5c-0.149,0.303-0.241,0.639-0.241,1c0,1.254,1.017,2.271,2.271,2.271
		c0.361,0,0.697-0.092,1.001-0.242c0.32,0.728,0.501,1.53,0.501,2.375S48.642,23.898,48.321,24.625z"/>
	<circle cx="42.917" cy="22.25" r="2.271"/>
</g>
</svg>
