<?xml version="1.0" encoding="iso-8859-1"?>
<!-- Generator: Adobe Illustrator 17.0.0, SVG Export Plug-In . SVG Version: 6.00 Build 0)  -->
<!DOCTYPE svg PUBLIC "-//W3C//DTD SVG 1.1//EN" "http://www.w3.org/Graphics/SVG/1.1/DTD/svg11.dtd">
<svg version="1.1" id="Capa_1" xmlns="http://www.w3.org/2000/svg" xmlns:xlink="http://www.w3.org/1999/xlink" x="0px" y="0px"
	 width="64px" height="64px" viewBox="0 0 64 64" style="enable-background:new 0 0 64 64;" xml:space="preserve">
<g>
	<path d="M23.084,27.178c0,0,0.338-0.288,0.965-0.686l2.702,6.687c0.001,0,0.001,0,0.002,0l0.064-0.003l0.306,0.018
		c2.413,0.163,4.292,2.164,4.292,4.588c0,0.885-0.252,1.721-0.698,2.433l0.155,0.157c0.26,0.114,0.5,0.285,0.717,0.509
		c0.082,0.093,0.129,0.155,0.18,0.227c0.094,0.133,0.221,0.327,0.31,0.58l0.175,0.476l0.117,0.037h-0.104l0.405,1.107h0.469
		l0.405-1.107h-0.147l0.167-0.053l0.173-0.473c0.087-0.24,0.212-0.434,0.299-0.558c0.052-0.072,0.118-0.164,0.22-0.258
		c0.23-0.244,0.513-0.437,0.84-0.575c-0.475-0.726-0.743-1.589-0.743-2.503c0-2.444,1.917-4.465,4.363-4.602l0.064-0.003
		l0.066,0.004l2.529-6.256c0.572,0.44,0.876,0.754,0.876,0.754l4.416-6.75c0,0-5.347-4.418-14.347-4.417
		c-8,0.002-13.942,4.919-13.942,4.919L23.084,27.178z M33.464,31.56c-0.25,0.036-0.527,0.065-0.777,0.065
		c-0.251,0-0.53-0.041-0.781-0.092c-0.427-0.087-0.763-0.433-0.763-0.721c0-0.288,0.268-0.297,0.666-0.154
		c0.212,0.076,0.466,0.134,0.749,0.134c0.301,0,0.603-0.065,0.866-0.148c0.464-0.147,0.807-0.1,0.807,0.211
		C34.23,31.165,33.891,31.498,33.464,31.56z M31.143,28.605c0-0.299,0.242-0.542,0.541-0.542c0.299,0,0.541,0.242,0.541,0.542
		s-0.242,0.542-0.541,0.542C31.385,29.146,31.143,28.904,31.143,28.605z M33.352,28.605c0-0.299,0.242-0.542,0.541-0.542
		c0.299,0,0.541,0.242,0.541,0.542s-0.242,0.542-0.541,0.542C33.594,29.146,33.352,28.904,33.352,28.605z M32.799,24.053
		c2.53,0.017,4.592,0.658,6.143,1.396c-0.012,0.028-0.029,0.053-0.039,0.083l-2.94,7.571l0.001,0.056h-0.064h-0.488h-0.637h-0.967
		c0.349-0.11,0.673-0.274,0.967-0.478v-4.684h-5.007c-0.289,0.518-0.466,1.106-0.466,1.742c0,1.609,1.061,2.958,2.519,3.42h-2.047
		h-0.082h-0.057l0.001-0.056l-2.94-7.571c-0.039-0.11-0.094-0.208-0.156-0.301C28.146,24.587,30.261,24.036,32.799,24.053z"/>
	<path d="M7.781,56.606c0.732,0.263,1.539-0.116,1.802-0.848l2.94-7.571l-0.34,5.171c-0.061,0.917,0.309,1.728,0.924,2.277V41.201
		h-0.346H12.68h-0.166h-0.082c-0.205,0.085-0.389,0.206-0.539,0.374c-0.045,0.035-0.07,0.075-0.098,0.112
		c-0.074,0.107-0.138,0.213-0.181,0.331L6.934,54.804C6.67,55.536,7.05,56.342,7.781,56.606z"/>
	<path d="M18.899,56.606c0.732,0.263,1.539-0.116,1.802-0.848l0.681-1.753l0.68,1.753c0.265,0.732,1.071,1.111,1.805,0.848
		c0.73-0.265,1.111-1.07,0.848-1.802l-0.489-1.336V41.201H23.88h-0.082h-0.166H23.55c-0.205,0.085-0.389,0.206-0.539,0.374
		c-0.045,0.035-0.07,0.075-0.098,0.112c-0.074,0.107-0.138,0.213-0.181,0.331l-1.349,3.685l-1.349-3.685
		c-0.042-0.12-0.105-0.224-0.176-0.323c-0.032-0.046-0.06-0.086-0.09-0.121c-0.163-0.169-0.348-0.289-0.558-0.342
		c0.006-0.032-0.076-0.032-0.076-0.032h-0.166h-0.081h-0.347v12.266l-0.489,1.336C17.788,55.536,18.168,56.342,18.899,56.606z
		 M23.642,48.188l-0.205,3.124l-0.489-1.336L23.642,48.188z M19.818,49.978l-0.49,1.338l-0.206-3.129L19.818,49.978z"/>
	<path d="M30.433,37.782c0-1.928-1.513-3.497-3.418-3.594c-0.032-0.01-0.062-0.005-0.094-0.005c-0.031,0-0.062-0.004-0.094-0.004
		c-1.906,0.107-3.419,1.675-3.419,3.604c0,1.609,1.061,2.957,2.519,3.42h-0.701v15.001c0.277,0.088,0.568,0.149,0.88,0.149h0.337
		v-15.4h1v15.4h0.336c0.312,0,0.604-0.061,0.881-0.149V41.201h-0.745C29.372,40.739,30.433,39.391,30.433,37.782z M25.815,36.084
		c0.299,0,0.541,0.242,0.541,0.542s-0.242,0.542-0.541,0.542c-0.299,0-0.541-0.242-0.541-0.542S25.517,36.084,25.815,36.084z
		 M27.596,39.581c-0.25,0.036-0.527,0.065-0.777,0.065c-0.251,0-0.53-0.041-0.781-0.092c-0.427-0.087-0.763-0.433-0.763-0.721
		c0-0.288,0.269-0.297,0.666-0.154c0.212,0.076,0.466,0.134,0.749,0.134c0.301,0,0.603-0.065,0.866-0.148
		c0.464-0.147,0.807-0.1,0.807,0.211S28.022,39.519,27.596,39.581z M28.024,37.167c-0.299,0-0.541-0.242-0.541-0.542
		s0.242-0.542,0.541-0.542c0.299,0,0.541,0.242,0.541,0.542S28.323,37.167,28.024,37.167z"/>
	<path d="M32.704,55.758l0.238-0.614l0.238,0.613c0.265,0.732,1.071,1.111,1.805,0.848c0.572-0.208,0.925-0.748,0.926-1.323
		c0.099,0.124,0.199,0.247,0.317,0.353V41.201h-0.346h-0.082h-0.166h-0.082c-0.205,0.085-0.389,0.206-0.539,0.374
		c-0.045,0.035-0.07,0.075-0.098,0.112c-0.074,0.107-0.138,0.213-0.181,0.331l-1.792,4.893l-1.792-4.893
		c-0.042-0.12-0.105-0.224-0.176-0.323c-0.032-0.046-0.06-0.086-0.09-0.121c-0.163-0.169-0.348-0.289-0.558-0.342
		c0.006-0.032-0.076-0.032-0.076-0.032h-0.166h-0.081h-0.347v14.433c0.118-0.106,0.219-0.229,0.317-0.353
		c0,0.577,0.352,1.119,0.926,1.326C31.635,56.869,32.441,56.49,32.704,55.758z M35.644,48.188l-0.34,5.171c0,0.001,0,0.002,0,0.003
		l-0.81-2.213L35.644,48.188z M30.581,53.367c0-0.003,0.001-0.007,0-0.01l-0.34-5.17l1.151,2.964L30.581,53.367z"/>
	<path d="M42.732,56.606c0.732,0.263,1.539-0.116,1.802-0.848l0.325-0.836l0.325,0.836c0.265,0.732,1.071,1.111,1.805,0.848
		c0.511-0.185,0.844-0.636,0.912-1.14c0.104,0.109,0.204,0.223,0.325,0.314v-14.58h-0.513h-0.082h-0.166h-0.082
		c-0.205,0.085-0.389,0.206-0.539,0.374c-0.045,0.035-0.07,0.075-0.098,0.112c-0.074,0.107-0.138,0.213-0.181,0.331l-1.705,4.657
		l-1.705-4.657c-0.042-0.12-0.105-0.224-0.176-0.323c-0.032-0.046-0.06-0.086-0.09-0.121c-0.163-0.169-0.348-0.289-0.558-0.342
		c0.006-0.032-0.076-0.032-0.076-0.032H42.09h-0.081h-0.347v14.433c0.058-0.052,0.103-0.118,0.157-0.174
		C41.884,55.966,42.219,56.421,42.732,56.606z M47.475,48.188l-0.314,4.773l-0.747-2.041L47.475,48.188z M43.306,50.922
		l-0.748,2.043l-0.314-4.777L43.306,50.922z"/>
	<path d="M54.81,41.696c-0.032-0.046-0.06-0.086-0.09-0.121c-0.163-0.169-0.348-0.289-0.558-0.342
		c0.006-0.032-0.076-0.032-0.076-0.032H53.92h-0.081h-0.18v14.287c0.517-0.543,0.81-1.296,0.755-2.131l-0.34-5.17l2.94,7.571
		c0.265,0.732,1.071,1.111,1.805,0.848c0.73-0.265,1.111-1.07,0.848-1.802l-4.681-12.785C54.943,41.899,54.88,41.795,54.81,41.696z"
		/>
	<path d="M50.483,32.118c-0.032-0.046-0.06-0.086-0.09-0.121c-0.163-0.169-0.348-0.289-0.558-0.342
		c0.005-0.027-0.045-0.03-0.063-0.03c0.234,0.393,0.531,0.933,0.804,1.555l0.232,0.013c0.046,0.003,0.088,0.018,0.134,0.022
		l-0.283-0.774C50.617,32.322,50.554,32.217,50.483,32.118z"/>
	<path d="M43.217,31.623h-0.078h-0.082c-0.205,0.085-0.389,0.206-0.539,0.374c-0.045,0.035-0.07,0.075-0.098,0.112
		c-0.074,0.107-0.138,0.213-0.181,0.332l-0.658,1.799c0.118,0.098,0.23,0.202,0.339,0.311
		C42.244,33.376,42.821,32.286,43.217,31.623z"/>
	<path d="M54.266,37.782c0-1.928-1.513-3.497-3.418-3.594c-0.032-0.01-0.062-0.005-0.094-0.005c-0.031,0-0.062-0.004-0.094-0.004
		c-1.906,0.107-3.419,1.675-3.419,3.604c0,1.383,0.786,2.569,1.932,3.17h0.053v0.032c0.171,0.086,0.35,0.16,0.534,0.218h-0.534
		v15.054c0.227,0.057,0.464,0.096,0.713,0.096h0.504v-15.4h1v15.4h0.169c0.375,0,0.726-0.077,1.048-0.203V41.201h-0.912
		C53.205,40.739,54.266,39.391,54.266,37.782z M49.838,36.084c0.299,0,0.541,0.242,0.541,0.542s-0.242,0.542-0.541,0.542
		c-0.299,0-0.541-0.242-0.541-0.542S49.539,36.084,49.838,36.084z M51.618,39.581c-0.25,0.036-0.527,0.065-0.777,0.065
		c-0.251,0-0.53-0.041-0.781-0.092c-0.427-0.087-0.763-0.433-0.763-0.721c0-0.288,0.268-0.297,0.666-0.154
		c0.212,0.076,0.466,0.134,0.749,0.134c0.301,0,0.603-0.065,0.866-0.148c0.464-0.147,0.807-0.1,0.807,0.211
		S52.045,39.519,51.618,39.581z M52.047,37.167c-0.299,0-0.541-0.242-0.541-0.542s0.242-0.542,0.541-0.542
		c0.299,0,0.541,0.242,0.541,0.542S52.346,37.167,52.047,37.167z"/>
	<path d="M46.521,24.61c-0.032-0.01-0.061-0.005-0.094-0.005c-0.031,0-0.061-0.004-0.094-0.004
		c-1.906,0.106-3.419,1.675-3.419,3.604c0,1.609,1.061,2.957,2.519,3.42H44.1c-0.36,0.561-1.291,2.122-1.583,3.661
		c0.474,0.719,0.754,1.574,0.754,2.497c0,0.372-0.054,0.732-0.139,1.082l-0.11,1.675c0.148,0.096,0.291,0.206,0.423,0.342
		c0.082,0.093,0.129,0.155,0.18,0.227c0.094,0.133,0.221,0.327,0.31,0.58l0.175,0.476l0.117,0.037h-0.104l0.573,1.566l0.573-1.566
		h-0.147l0.167-0.053l0.173-0.473c0.087-0.24,0.212-0.434,0.299-0.558c0.052-0.072,0.118-0.164,0.22-0.258
		c0.231-0.244,0.513-0.437,0.84-0.575c-0.475-0.726-0.743-1.589-0.743-2.503c0-2.223,1.592-4.08,3.72-4.503
		c-0.343-0.742-0.709-1.348-0.906-1.655h-1.469c1.458-0.462,2.519-1.81,2.519-3.419C49.939,26.276,48.427,24.707,46.521,24.61z
		 M45.332,26.657c0.299,0,0.541,0.242,0.541,0.542c0,0.299-0.242,0.542-0.541,0.542c-0.299,0-0.541-0.242-0.541-0.542
		C44.791,26.899,45.033,26.657,45.332,26.657z M47.112,30.154c-0.25,0.036-0.527,0.065-0.777,0.065c-0.251,0-0.53-0.041-0.781-0.092
		c-0.427-0.087-0.763-0.433-0.763-0.721c0-0.288,0.269-0.297,0.666-0.154c0.212,0.076,0.466,0.134,0.749,0.134
		c0.301,0,0.603-0.066,0.866-0.149c0.464-0.147,0.807-0.1,0.807,0.211C47.879,29.758,47.539,30.092,47.112,30.154z M47.541,27.74
		c-0.299,0-0.541-0.242-0.541-0.542c0-0.299,0.242-0.542,0.541-0.542c0.299,0,0.541,0.242,0.541,0.542
		C48.082,27.498,47.84,27.74,47.541,27.74z"/>
	<path d="M17.297,31.281c0,1.609,1.06,2.957,2.518,3.42h-0.819c0.74,0.817,1.193,1.896,1.193,3.081c0,0.885-0.252,1.721-0.698,2.433
		l0.155,0.157c0.26,0.114,0.5,0.285,0.717,0.509c0.082,0.093,0.129,0.155,0.18,0.227c0.094,0.133,0.221,0.327,0.309,0.58
		l0.175,0.476l0.117,0.037h-0.103l0.217,0.594l0.218-0.594h-0.148l0.167-0.053l0.173-0.473c0.087-0.24,0.212-0.434,0.299-0.558
		c0.052-0.072,0.118-0.164,0.22-0.258c0.231-0.244,0.513-0.437,0.84-0.575c-0.475-0.726-0.743-1.589-0.743-2.503
		c0-1.183,0.456-2.261,1.196-3.08h-1.677c1.458-0.462,2.519-1.81,2.519-3.419c0-1.928-1.513-3.497-3.418-3.594
		c-0.032-0.01-0.061-0.005-0.094-0.005c-0.031,0-0.062-0.004-0.094-0.004C18.81,27.784,17.297,29.353,17.297,31.281z M21.913,30.313
		c0.299,0,0.541,0.242,0.541,0.542s-0.242,0.542-0.541,0.542c-0.299,0-0.541-0.242-0.541-0.542S21.614,30.313,21.913,30.313z
		 M19.704,30.313c0.299,0,0.541,0.242,0.541,0.542s-0.242,0.542-0.541,0.542c-0.299,0-0.541-0.242-0.541-0.542
		S19.405,30.313,19.704,30.313z M19.829,32.907c0.212,0.076,0.466,0.134,0.749,0.134c0.301,0,0.603-0.065,0.866-0.148
		c0.464-0.148,0.807-0.1,0.807,0.211c0,0.311-0.34,0.644-0.767,0.706c-0.25,0.036-0.527,0.065-0.777,0.065
		c-0.251,0-0.53-0.041-0.781-0.092c-0.427-0.087-0.763-0.433-0.763-0.721C19.163,32.774,19.432,32.764,19.829,32.907z"/>
	<path d="M14.75,37.375c-0.177,0-0.326-0.09-0.425-0.221l-1.856,1.74c0.218,0.664,0.63,1.234,1.163,1.664l0.998-0.936
		c-0.249-0.149-0.422-0.378-0.422-0.582c0-0.288,0.268-0.297,0.666-0.154c0.128,0.046,0.274,0.08,0.43,0.104l1.739-1.632
		c-0.028,0.005-0.055,0.017-0.085,0.017c-0.299,0-0.541-0.242-0.541-0.542s0.242-0.542,0.541-0.542s0.541,0.242,0.541,0.542
		c0,0.042-0.015,0.08-0.024,0.119l1.236-1.16c-0.379-0.57-0.917-1.021-1.551-1.3l-2.062,1.935c0.115,0.099,0.192,0.242,0.192,0.406
		C15.291,37.133,15.049,37.375,14.75,37.375z"/>
	<path d="M12.29,37.781c0,0.129,0.018,0.253,0.031,0.379l4.144-3.888c-0.186-0.04-0.374-0.075-0.569-0.085
		c-0.032-0.01-0.061-0.005-0.094-0.005c-0.031,0-0.061-0.004-0.094-0.004C13.803,34.284,12.29,35.853,12.29,37.781z"/>
	<path d="M19.314,37.782c0-0.5-0.105-0.975-0.29-1.407l-2.71,2.541c0.059-0.015,0.121-0.026,0.176-0.044
		c0.464-0.147,0.807-0.1,0.807,0.211s-0.34,0.644-0.767,0.706c-0.25,0.036-0.527,0.065-0.777,0.065
		c-0.131,0-0.268-0.012-0.406-0.029l-1.172,1.099c0.202,0.11,0.411,0.207,0.634,0.278h-0.701v15.001
		c0.277,0.088,0.568,0.149,0.88,0.149h0.337v-15.15h1v15.15h0.336c0.312,0,0.604-0.061,0.881-0.149V41.201h-0.745
		C18.254,40.739,19.314,39.391,19.314,37.782z"/>
	<path d="M34.774,26.786c-0.535-0.371-1.173-0.605-1.866-0.641v-0.01c-0.032,0-0.062,0.004-0.094,0.004
		c-0.031,0-0.062-0.004-0.094-0.004v0.009c-1.001,0.051-1.886,0.514-2.508,1.215h4.561V26.786z"/>
	<path d="M35.86,27.996h-0.449v4.113c0.565-0.631,0.915-1.455,0.915-2.37C36.326,29.103,36.149,28.514,35.86,27.996z"/>
	<polygon points="35.411,27.356 35.411,27.359 35.414,27.359 	"/>
	<path d="M35.435,37.543h6.978c-0.05-0.751-0.327-1.434-0.769-1.988h-5.442C35.761,36.11,35.484,36.792,35.435,37.543z
		 M40.028,36.084c0.299,0,0.541,0.242,0.541,0.542s-0.242,0.542-0.541,0.542c-0.299,0-0.541-0.242-0.541-0.542
		S39.729,36.084,40.028,36.084z M37.819,36.084c0.299,0,0.541,0.242,0.541,0.542s-0.242,0.542-0.541,0.542
		c-0.299,0-0.541-0.242-0.541-0.542S37.521,36.084,37.819,36.084z"/>
	<path d="M42.403,38.18h-6.96c0.055,0.489,0.204,0.947,0.436,1.356h2.112c-0.401-0.104-0.713-0.427-0.713-0.703
		c0-0.288,0.269-0.297,0.666-0.154c0.212,0.076,0.466,0.134,0.749,0.134c0.301,0,0.603-0.065,0.866-0.148
		c0.464-0.147,0.807-0.1,0.807,0.211c0,0.273-0.269,0.553-0.621,0.661h2.223C42.2,39.127,42.349,38.669,42.403,38.18z"/>
	<path d="M36.345,40.172c0.425,0.469,0.965,0.833,1.585,1.029h-0.701v15.001c0.277,0.088,0.568,0.149,0.88,0.149h0.337v-15.4h1v15.4
		h0.336c0.312,0,0.603-0.061,0.881-0.149V41.201h-0.745c0.62-0.197,1.16-0.56,1.585-1.029H36.345z"/>
	<path d="M38.924,34.182c-0.031,0-0.061-0.004-0.094-0.004c-0.748,0.042-1.431,0.315-1.99,0.74h4.164
		c-0.559-0.423-1.24-0.692-1.986-0.73C38.985,34.178,38.956,34.182,38.924,34.182z"/>
</g>
</svg>
