<?xml version="1.0" encoding="iso-8859-1"?>
<!-- Generator: Adobe Illustrator 17.0.0, SVG Export Plug-In . SVG Version: 6.00 Build 0)  -->
<!DOCTYPE svg PUBLIC "-//W3C//DTD SVG 1.1//EN" "http://www.w3.org/Graphics/SVG/1.1/DTD/svg11.dtd">
<svg version="1.1" id="Capa_1" xmlns="http://www.w3.org/2000/svg" xmlns:xlink="http://www.w3.org/1999/xlink" x="0px" y="0px"
	 width="64px" height="64px" viewBox="0 0 64 64" style="enable-background:new 0 0 64 64;" xml:space="preserve">
<g>
	<path d="M16.669,58.725h7.21V38.571c-2.598,0.436-5.026,1.322-7.21,2.572V58.725z"/>
	<path d="M28.065,58.725h8.447V40.144c-2.581-1.145-5.434-1.811-8.447-1.876V58.725z"/>
	<path d="M12.482,44.244c-3.861,3.706-6.25,8.826-6.25,14.481h6.25V44.244z"/>
	<path d="M31.597,11.538c2.396-1.887,4.547-2.615,6.414-2.181c-2.44-3.117-5.929-5.082-9.814-5.082
		c-6.332,0-11.622,5.19-12.995,12.148C19.163,16.603,25.843,16.07,31.597,11.538z"/>
	<path d="M28.196,35.693c7.375,0,13.355-7.032,13.355-15.709c0-0.315-0.024-0.623-0.04-0.934c-0.201-2.015-1.122-6.55-3.486-7.593
		c-1.316-0.579-3.062-0.024-5.19,1.651c-6.405,5.046-13.674,5.565-17.925,5.324c-0.042,0.51-0.066,1.027-0.066,1.551
		C14.844,28.661,20.821,35.693,28.196,35.693z"/>
	<path d="M59.383,34.711l-15.327-0.524l-0.008,0.059l-3.18-0.167L39.552,59l4.112,0.217l0.647-12.255l12.203,3.884
		c1.444,0.46,2.83-0.378,3.096-1.871l2.036-11.467C61.912,36.015,60.898,34.763,59.383,34.711z"/>
</g>
</svg>
