<?xml version="1.0" encoding="iso-8859-1"?>
<!-- Generator: Adobe Illustrator 17.0.0, SVG Export Plug-In . SVG Version: 6.00 Build 0)  -->
<!DOCTYPE svg PUBLIC "-//W3C//DTD SVG 1.1//EN" "http://www.w3.org/Graphics/SVG/1.1/DTD/svg11.dtd">
<svg version="1.1" id="Capa_1" xmlns="http://www.w3.org/2000/svg" xmlns:xlink="http://www.w3.org/1999/xlink" x="0px" y="0px"
	 width="64px" height="64px" viewBox="0 0 64 64" style="enable-background:new 0 0 64 64;" xml:space="preserve">
<g>
	<path d="M44.795,16.348c0-2.24,0.152-4.513,1.082-5.381C44,5.184,38.575,1,32.167,1s-11.834,4.184-13.711,9.967
		c0.93,0.869,1.082,3.141,1.082,5.381c0,5.939,4.868,8.084,8.766,8.849c-0.053-0.259-0.08-0.525-0.08-0.795
		c0-2.174,1.769-3.943,3.943-3.943s3.943,1.769,3.943,3.943c0,0.27-0.027,0.536-0.08,0.795
		C39.927,24.432,44.795,22.287,44.795,16.348z"/>
	<path d="M46.811,11.594c-0.216,0-0.417,0.211-0.584,0.664c-0.258,0.702-0.432,1.997-0.432,4.09c0,7.911-7.723,9.716-11.541,10.126
		c0.528-0.532,0.855-1.264,0.855-2.072c0-1.625-1.317-2.943-2.943-2.943c-1.625,0-2.943,1.317-2.943,2.943
		c0,0.809,0.327,1.54,0.855,2.072c-3.818-0.409-11.541-2.215-11.541-10.126c0-2.093-0.173-3.388-0.432-4.09
		c-0.167-0.453-0.368-0.664-0.584-0.664c-1.128-0.001-2.61,5.513-1.152,9.432c0.481,1.294,1.376,2.57,2.475,3.773
		c-0.202-0.001-0.404-0.001-0.616,0.013c-0.013,0.001-0.022,0.008-0.035,0.01c-0.198,0.018-0.365,0.079-0.508,0.167
		c-0.906,0.55-0.736,2.229,0.544,2.147c0.683-0.044,1.253,0.024,1.746,0.168c0.914,0.268,1.529,0.832,1.938,1.599
		c2.193,4.111-1.413,13.977,4.478,14.716c0.172,0.022,0.343,0.044,0.531,0.049c0.155,0.005,0.324-0.005,0.49-0.012
		c0.237,1.182,0.884,1.831,0.884,1.831h0.929v5.895c-1.215,0.35-2.013,0.906-2.013,1.539c0,0.023,0.015,0.044,0.017,0.067h-1.566
		c-1.026,0-1.858,0.832-1.858,1.858v5.575c0,1.026,0.832,1.858,1.858,1.858h13.009c1.026,0,1.859-0.832,1.859-1.858v-5.575
		c0-1.026-0.832-1.858-1.859-1.858h-1.566c0.002-0.023,0.017-0.044,0.017-0.067c0-0.632-0.798-1.188-2.013-1.539v-5.895h0.929
		c0,0,0.647-0.65,0.884-1.832c0.167,0.007,0.335,0.016,0.49,0.012c0.188-0.005,0.36-0.025,0.531-0.045
		c5.952-0.712,2.289-10.665,4.53-14.759c0.402-0.734,0.997-1.275,1.869-1.544c0.503-0.155,1.087-0.229,1.794-0.184
		c1.289,0.083,1.454-1.624,0.526-2.161c-0.146-0.085-0.314-0.144-0.515-0.159c-0.004,0-0.007-0.003-0.011-0.003
		c-0.222-0.014-0.435-0.015-0.646-0.013c1.099-1.202,1.993-2.478,2.474-3.772C49.421,17.107,47.939,11.594,46.811,11.594z
		 M29.069,38.518c-0.813,1.035-1.276,1.97-1.518,2.799c-0.181,0.005-0.348-0.008-0.507-0.033c-0.169-0.026-0.334-0.058-0.479-0.116
		c-2.713-1.065-1.508-7.219-1.636-9.659c-0.009-0.171-0.026-0.337-0.042-0.504c-0.021-0.22-0.047-0.436-0.079-0.648
		c-0.036-0.238-0.079-0.471-0.13-0.697c2.416,1.636,4.392,2.663,4.392,2.663S32.476,34.182,29.069,38.518z M37.773,41.182
		c-0.146,0.055-0.312,0.083-0.482,0.107c-0.159,0.023-0.328,0.032-0.509,0.026c-0.243-0.828-0.705-1.762-1.518-2.796
		c-3.407-4.336,0-6.195,0-6.195s1.995-1.036,4.427-2.686c-0.051,0.227-0.095,0.46-0.132,0.699c-0.033,0.213-0.06,0.429-0.081,0.65
		c-0.016,0.173-0.034,0.345-0.043,0.523C39.306,33.958,40.523,40.149,37.773,41.182z"/>
</g>
</svg>
