<?xml version="1.0" encoding="iso-8859-1"?>
<!-- Generator: Adobe Illustrator 17.0.0, SVG Export Plug-In . SVG Version: 6.00 Build 0)  -->
<!DOCTYPE svg PUBLIC "-//W3C//DTD SVG 1.1//EN" "http://www.w3.org/Graphics/SVG/1.1/DTD/svg11.dtd">
<svg version="1.1" id="Capa_1" xmlns="http://www.w3.org/2000/svg" xmlns:xlink="http://www.w3.org/1999/xlink" x="0px" y="0px"
	 width="64px" height="64px" viewBox="0 0 64 64" style="enable-background:new 0 0 64 64;" xml:space="preserve">
<g>
	<path d="M49.289,21.458c0.849-1.412-1.355-2.692-2.201-1.286c-0.589,0.979-1.107,2.245-1.612,3.655
		c-0.058,0.001-0.115-0.001-0.175,0.007c-1.252,0.174-2.497,0.388-3.738,0.621c0.35-1.416,0.517-2.568,0.426-3.314
		c-0.024-0.371-0.094-0.668-0.231-0.857c-0.345-0.474-0.844-0.845-1.435-1.136c0.083-0.222,0.135-0.46,0.135-0.712
		c0-0.192-0.035-0.374-0.085-0.55c-0.17-0.954-1-1.68-2.003-1.68h-0.569c0.485-0.22,0.824-0.707,0.824-1.274
		c0-0.774-0.628-1.402-1.402-1.402h-0.596c0.131-0.189,0.214-0.441,0.214-0.722c0-0.581-0.342-1.051-0.765-1.051h-2.719v-1.29
		c2.008-0.59,3.483-2.426,3.483-4.625C36.842,3.168,34.674,1,32,1s-4.842,2.168-4.842,4.842c0,2.199,1.475,4.034,3.483,4.625v1.29
		h-2.719c-0.422,0-0.765,0.471-0.765,1.051c0,0.281,0.083,0.534,0.214,0.722h-0.596c-0.774,0-1.402,0.628-1.402,1.402
		c0,0.568,0.339,1.054,0.824,1.274h-0.569c-1.126,0-2.039,0.913-2.039,2.039c0,0.192,0.035,0.374,0.085,0.55
		c0.02,0.112,0.052,0.219,0.09,0.324c-0.616,0.295-1.135,0.675-1.491,1.165c-0.223,0.306-0.279,0.879-0.213,1.642
		c0.037,0.638,0.17,1.423,0.387,2.331c-1.229-0.231-2.461-0.443-3.701-0.615c-0.061-0.008-0.117-0.006-0.175-0.007
		c-0.505-1.41-1.023-2.676-1.612-3.655c-0.846-1.406-3.05-0.126-2.201,1.286c3.721,6.185,4.679,20.248,14.216,20.041
		c0.437,0.944,0.855,1.819,1.239,2.601c-0.113,1.955-0.715,6.383-3.851,7.468c-1.042,0.36-1.169,0.657-0.791,0.901
		c-1.084,0.048-1.95,0.934-1.95,2.03v5.862c0,1.126,0.913,2.039,2.039,2.039h12.711c1.126,0,2.039-0.913,2.039-2.039v-5.862
		c0-1.098-0.869-1.986-1.956-2.031c0.377-0.243,0.249-0.54-0.792-0.9c-3.097-1.071-3.723-5.405-3.847-7.396
		c0.368-0.747,0.767-1.58,1.186-2.48C44.607,41.783,45.559,27.66,49.289,21.458z M40.774,27.198c1.26-0.249,2.523-0.484,3.791-0.689
		c-1.763,5.327-3.765,11.386-8.348,12.31C37.884,35.057,39.635,30.734,40.774,27.198z M19.483,26.318
		c1.251,0.202,2.497,0.434,3.74,0.679c1.115,3.505,2.859,7.827,4.529,11.608C23.226,37.627,21.236,31.614,19.483,26.318z
		 M32.012,47.422l0-0.092c0,0,0,0,0-0.001L32.012,47.422z M32,7.685c-1.016,0-1.842-0.826-1.842-1.842S30.984,4,32,4
		c1.016,0,1.842,0.826,1.842,1.842S33.015,7.685,32,7.685z"/>
</g>
</svg>
