<?xml version="1.0" encoding="iso-8859-1"?>
<!-- Generator: Adobe Illustrator 17.0.0, SVG Export Plug-In . SVG Version: 6.00 Build 0)  -->
<!DOCTYPE svg PUBLIC "-//W3C//DTD SVG 1.1//EN" "http://www.w3.org/Graphics/SVG/1.1/DTD/svg11.dtd">
<svg version="1.1" id="Capa_1" xmlns="http://www.w3.org/2000/svg" xmlns:xlink="http://www.w3.org/1999/xlink" x="0px" y="0px"
	 width="64px" height="64px" viewBox="0 0 64 64" style="enable-background:new 0 0 64 64;" xml:space="preserve">
<g>
	<path d="M58.379,4.232L44.733,7.464l0.635-4.694H18.136l0.699,4.593L5.615,4.232c-1.141-0.27-1.665,0.372-1.17,1.436l20.988,45.038
		l0.791,5.197h-8.517c-1.173,0-2.124,0.951-2.124,2.124v0.36c0,1.173,0.951,2.124,2.124,2.124h22.061
		C41.468,61.457,43.421,62,45.5,62c6.525,0,11.833-5.308,11.833-11.833c0-6.525-5.308-11.833-11.833-11.833
		c-0.324,0-0.642,0.023-0.959,0.049L59.559,5.673C60.049,4.607,59.52,3.962,58.379,4.232z M9.716,9.771l9.841,2.331l0.067,0.016
		l1.651,11.27l2.121,14.482L9.716,9.771z M45.5,41.333c4.879,0,8.833,3.955,8.833,8.833c0,3.958-2.603,7.306-6.19,8.43
		C47.309,58.858,46.421,59,45.5,59c-2.687,0-5.09-1.204-6.71-3.097c-0.184-0.215-0.357-0.438-0.52-0.671
		c-1.007-1.435-1.603-3.179-1.603-5.065c0-4.017,2.684-7.402,6.354-8.474C43.808,41.463,44.638,41.333,45.5,41.333z M40.838,37.87
		l3.772-25.752l9.908-2.347L40.838,37.87z"/>
	<path d="M39.595,49.153c-0.256,0.24-0.418,0.575-0.436,0.949c-0.001,0.022-0.006,0.042-0.006,0.064
		c0,0.769,0.624,1.393,1.393,1.393h9.907c0.769,0,1.393-0.624,1.393-1.393c0-0.769-0.624-1.393-1.393-1.393h-9.907
		C40.177,48.773,39.844,48.919,39.595,49.153z"/>
</g>
</svg>
