<?xml version="1.0" encoding="iso-8859-1"?>
<!-- Generator: Adobe Illustrator 17.0.0, SVG Export Plug-In . SVG Version: 6.00 Build 0)  -->
<!DOCTYPE svg PUBLIC "-//W3C//DTD SVG 1.1//EN" "http://www.w3.org/Graphics/SVG/1.1/DTD/svg11.dtd">
<svg version="1.1" id="Capa_1" xmlns="http://www.w3.org/2000/svg" xmlns:xlink="http://www.w3.org/1999/xlink" x="0px" y="0px"
	 width="64px" height="64px" viewBox="0 0 64 64" style="enable-background:new 0 0 64 64;" xml:space="preserve">
<g>
	<path d="M52.445,10.25c-1.909-3.306-6.651-2.778-10.039-1.2c0.759-2.119,1.255-3.384,1.255-3.384h-2.086
		c-0.284-1.747-4.454-3.135-9.571-3.135s-9.287,1.388-9.571,3.135h-2.086c0,0,0.509,1.296,1.282,3.46
		c-3.396-1.637-8.264-2.236-10.205,1.124c-2.324,4.024,3.453,11.604,4.03,15.662c0.063,0.444,0.3,0.921,0.799,1.005
		c3.411,0.576,6.263,1.958,9.094,3.668c-0.353,0.101-0.706,0.202-1.06,0.303c-0.68,0.194-0.928,0.98-0.601,1.57
		c0.821,1.477,5.038,8.657,0.816,7.083c-1.282-0.478-1.786,1.584-0.521,2.055c7.345,2.737,4.204-5.029,2.158-9.033
		c0.668-0.191,1.336-0.382,2.003-0.573c1.394,6.991,2.074,13.986,0.882,19.032c-1.707,0.226-2.854,0.64-2.854,1.114
		c0,0.417,0.885,1.144,2.256,1.681c-1.782,2.103-2.961,5.392-2.961,7.682H38.54c0-2.289-1.179-5.578-2.961-7.681
		c1.371-0.537,2.256-1.265,2.256-1.681c0-0.474-1.147-0.888-2.854-1.114c-1.189-5.037-0.514-12.016,0.875-18.994
		c0.624,0.178,1.248,0.357,1.872,0.535c-2.046,4.004-5.187,11.77,2.158,9.033c1.265-0.471,0.762-2.533-0.521-2.055
		c-4.222,1.573-0.005-5.607,0.816-7.083c0.328-0.589,0.08-1.375-0.601-1.57c-0.353-0.101-0.706-0.202-1.06-0.303
		c2.831-1.71,5.683-3.092,9.094-3.668c0.499-0.084,0.736-0.562,0.799-1.005C48.991,21.854,54.769,14.274,52.445,10.25z
		 M18.566,25.164c-1.848-0.312-1.752-2.559-2.462-4.377c-1.001-2.561-2.811-5.761-2.827-8.569
		c-0.016-2.781,11.022-3.888,6.657,1.895c-0.814,1.078,0.707,2.558,1.53,1.467c0.569-0.754,1.084-1.529,1.592-2.31
		c1.458,4.388,3.225,10.208,4.563,16.218C24.86,27.688,21.821,25.713,18.566,25.164z M47.765,20.787
		c-0.71,1.817-0.614,4.065-2.462,4.377c-3.191,0.538-6.174,2.447-8.89,4.217c1.32-5.907,3.051-11.625,4.491-15.97
		c0.479,0.734,0.966,1.46,1.501,2.169c0.823,1.091,2.344-0.389,1.53-1.467c-4.365-5.783,6.674-4.676,6.657-1.895
		C50.576,15.027,48.766,18.227,47.765,20.787z"/>
</g>
</svg>
