<?xml version="1.0" encoding="iso-8859-1"?>
<!-- Generator: Adobe Illustrator 16.0.4, SVG Export Plug-In . SVG Version: 6.00 Build 0)  -->
<!DOCTYPE svg PUBLIC "-//W3C//DTD SVG 1.1//EN" "http://www.w3.org/Graphics/SVG/1.1/DTD/svg11.dtd">
<svg version="1.1" id="Capa_1" xmlns="http://www.w3.org/2000/svg" xmlns:xlink="http://www.w3.org/1999/xlink" x="0px" y="0px"
	 width="64px" height="64px" viewBox="0 0 64 64" style="enable-background:new 0 0 64 64;" xml:space="preserve">
<g>
	<path d="M55.631,26.706L46.126,17.2c-0.567-0.568-1.333-0.879-2.121-0.879c-0.19,0-0.382,0.018-0.573,0.055l-7.166,1.394
		c-1.133,0.22-2.037,1.071-2.33,2.187c-0.291,1.119-1.293,1.901-2.436,1.901c-1.142,0-2.144-0.782-2.436-1.901
		c-0.291-1.116-1.197-1.967-2.33-2.187l-7.166-1.394c-0.191-0.037-0.382-0.055-0.573-0.055c-0.788,0-1.553,0.311-2.121,0.879
		l-9.506,9.506c-0.563,0.563-0.879,1.326-0.879,2.121c0,0.796,0.316,1.559,0.879,2.121l5.185,5.185
		c0.586,0.586,1.354,0.879,2.121,0.879c0.768,0,1.535-0.293,2.121-0.879l0.462-0.462l-0.964,9.64
		c-0.084,0.842,0.192,1.879,0.761,2.506C17.623,48.445,18.431,49,19.279,49h24.442c0.848,0,1.656-0.555,2.225-1.184
		c0.568-0.627,0.845-1.565,0.761-2.408l-0.964-9.688l0.462,0.438c0.586,0.586,1.354,0.865,2.121,0.865s1.536-0.299,2.12-0.885
		l5.186-5.188c0.562-0.563,0.879-1.327,0.879-2.123S56.193,27.269,55.631,26.706z M19.279,46l1.07-10.812L30.027,46H19.279z
		 M48.326,34.012l-6.405-6.209L43.721,46h-9.668L20.749,31.138l0.33-3.335l-6.405,6.307L9.49,28.876l9.506-9.53l7.166,1.382
		c0.621,2.379,2.765,4.137,5.339,4.137s4.718-1.767,5.339-4.147l7.165-1.397l9.507,9.506L48.326,34.012z"/>
	<circle cx="35.895" cy="28.381" r="3.344"/>
</g>
</svg>
