<?xml version="1.0" encoding="iso-8859-1"?>
<!-- Generator: Adobe Illustrator 17.0.0, SVG Export Plug-In . SVG Version: 6.00 Build 0)  -->
<!DOCTYPE svg PUBLIC "-//W3C//DTD SVG 1.1//EN" "http://www.w3.org/Graphics/SVG/1.1/DTD/svg11.dtd">
<svg version="1.1" id="Capa_1" xmlns="http://www.w3.org/2000/svg" xmlns:xlink="http://www.w3.org/1999/xlink" x="0px" y="0px"
	 width="64px" height="64px" viewBox="0 0 64 64" style="enable-background:new 0 0 64 64;" xml:space="preserve">
<g>
	<path d="M24.332,59.354c0.422,1.021,1.592,1.506,2.613,1.083l28.182-11.662c1.021-0.422,1.506-1.592,1.083-2.613L39.031,4.646
		c-0.422-1.021-1.592-1.506-2.613-1.083L8.236,15.225c-1.021,0.422-1.506,1.592-1.083,2.613L24.332,59.354z M19.058,23.097
		l11.024,4.415l4.415-11.024l5.338,2.138L35.419,29.65l11.024,4.415l-2.138,5.338l-11.024-4.415l-4.415,11.024l-5.338-2.138
		l4.415-11.024L16.92,28.435L19.058,23.097z"/>
</g>
</svg>
