<?xml version="1.0" encoding="iso-8859-1"?>
<!-- Generator: Adobe Illustrator 17.0.0, SVG Export Plug-In . SVG Version: 6.00 Build 0)  -->
<!DOCTYPE svg PUBLIC "-//W3C//DTD SVG 1.1//EN" "http://www.w3.org/Graphics/SVG/1.1/DTD/svg11.dtd">
<svg version="1.1" id="Capa_1" xmlns="http://www.w3.org/2000/svg" xmlns:xlink="http://www.w3.org/1999/xlink" x="0px" y="0px"
	 width="64px" height="64px" viewBox="0 0 64 64" style="enable-background:new 0 0 64 64;" xml:space="preserve">
<g>
	<path d="M4.934,49.391c0.967,0,1.75-0.784,1.75-1.75V23.248c0.936,0.222,2.196,0.734,3.494,1.904
		c2.805,2.527,6.147,8.48,6.147,22.489c0,0.966,0.783,1.75,1.75,1.75s1.75-0.784,1.75-1.75c0-11.791-2.268-20.03-6.735-24.534
		h31.363v24.534c0,0.966,0.783,1.75,1.75,1.75s1.75-0.784,1.75-1.75V23.176c0.957,0.172,2.374,0.655,3.841,1.977
		c2.805,2.527,6.147,8.48,6.147,22.489c0,0.966,0.783,1.75,1.75,1.75s1.75-0.784,1.75-1.75c0-12.398-2.503-20.879-7.438-25.208
		c-2.282-2.002-4.57-2.613-6.05-2.782v-0.043h-0.475c-0.47-0.029-0.812-0.015-0.999,0H5.863c-0.47-0.029-0.812-0.015-0.999,0h-1.68
		v28.034C3.184,48.607,3.967,49.391,4.934,49.391z"/>
</g>
</svg>
