<?xml version="1.0" encoding="iso-8859-1"?>
<!-- Generator: Adobe Illustrator 17.0.0, SVG Export Plug-In . SVG Version: 6.00 Build 0)  -->
<!DOCTYPE svg PUBLIC "-//W3C//DTD SVG 1.1//EN" "http://www.w3.org/Graphics/SVG/1.1/DTD/svg11.dtd">
<svg version="1.1" id="Capa_1" xmlns="http://www.w3.org/2000/svg" xmlns:xlink="http://www.w3.org/1999/xlink" x="0px" y="0px"
	 width="64px" height="64px" viewBox="0 0 64 64" style="enable-background:new 0 0 64 64;" xml:space="preserve">
<g>
	<path d="M60.177,13.965H3.965c-0.553,0-1,0.448-1,1V53.19c0,0.553,0.447,1,1,1h56.212c0.552,0,1-0.447,1-1V14.965
		C61.177,14.413,60.728,13.965,60.177,13.965z M59.177,51.19c0,0.553-0.447,1-1,1H5.965c-0.553,0-1-0.447-1-1V16.965
		c0-0.552,0.447-1,1-1h52.212c0.553,0,1,0.448,1,1V51.19z"/>
	<path d="M7.303,38.396h2.512c0.553,0,1-0.447,1-1v-6.635c0-0.553-0.447-1-1-1H7.303c-0.553,0-1,0.447-1,1v6.635
		C6.303,37.948,6.75,38.396,7.303,38.396z M8.546,32.001L8.546,32.001c0.003-0.001,0.007,0,0.011,0C8.56,32.001,8.563,32,8.566,32
		v0.002c0.213,0.01,0.382,0.184,0.382,0.4c0,0.215-0.169,0.39-0.382,0.4v0.001c-0.003,0-0.007,0-0.01,0c-0.004,0-0.008,0-0.011,0
		v-0.001c-0.213-0.011-0.382-0.185-0.382-0.4C8.164,32.186,8.333,32.012,8.546,32.001z M8.089,32.986
		c0.005-0.014,0.012-0.025,0.02-0.036c0-0.001,0.001-0.001,0.001-0.001c0.003-0.005,0.006-0.009,0.01-0.013H8.12
		c0.017-0.018,0.037-0.032,0.062-0.038l-0.001-0.004h0.009h0.019h0.009H8.9h0.009h0.018h0.009l-0.001,0.004
		c0.025,0.006,0.045,0.019,0.062,0.038h0.001c0.004,0.004,0.007,0.008,0.01,0.013c0,0,0.001,0,0.001,0.001
		c0.008,0.011,0.015,0.022,0.019,0.036l0.522,1.425c0.029,0.082-0.014,0.171-0.095,0.201c-0.082,0.029-0.172-0.013-0.201-0.095
		l-0.328-0.844l0.06,0.91l0.298,1.72c0.023,0.105,0.001,0.205-0.136,0.223c-0.138,0.018-0.268-0.053-0.292-0.158l-0.298-1.491
		L8.26,36.368c-0.023,0.105-0.153,0.177-0.291,0.158c-0.138-0.018-0.159-0.117-0.136-0.223l0.298-1.72l0.06-0.91l-0.328,0.844
		c-0.028,0.082-0.119,0.124-0.2,0.095c-0.082-0.029-0.124-0.119-0.095-0.201L8.089,32.986z"/>
	<path d="M57.189,29.761h-2.512c-0.553,0-1,0.447-1,1v6.635c0,0.553,0.447,1,1,1h2.512c0.553,0,1-0.447,1-1v-6.635
		C58.189,30.208,57.742,29.761,57.189,29.761z"/>
	<path d="M30.478,17.385H11.59c-0.553,0-0.988,0.454-1.115,0.991c-0.372,1.572-1.609,2.81-3.181,3.183
		c-0.537,0.128-0.991,0.563-0.991,1.115v3.408c0,0.552,0.447,1,1,1h5.219c0.553,0,1,0.448,1,1v0.948c0,0.553,0.067,1,0.151,1h0.151
		c2.092,0.188,3.745,1.916,3.745,4.048c0,1.786-1.161,3.288-2.768,3.821c-0.524,0.174-1.01,0.207-1.054,0.209
		c-0.04,0.002-0.08,0.002-0.08,0.002c-0.024,0.001-0.049,0.005-0.072,0.008c-0.04,0.006-0.074,0.455-0.074,1.007
		c0,0.306,0,0.642,0,0.947c0,0.552-0.447,1.001-1,1.001H7.303c-0.553,0-1,0.447-1,1v3.409c0,0.552,0.453,0.987,0.99,1.115
		c1.572,0.372,2.809,1.608,3.182,3.181c0.127,0.537,0.562,0.992,1.115,0.992h18.889c0.553,0,1-0.447,1-1V38.985
		c0-0.553-0.442-1.101-0.929-1.363c-1.261-0.684-2.119-2.009-2.119-3.544c0-1.535,0.858-2.862,2.119-3.544
		c0.486-0.264,0.929-0.812,0.929-1.364V18.385C31.478,17.833,31.031,17.385,30.478,17.385z M27.056,21.392v-0.001
		c0.003,0,0.007,0.001,0.011,0.001c0.003,0,0.007-0.001,0.01-0.001v0.002c0.213,0.01,0.382,0.185,0.382,0.4
		c0,0.215-0.169,0.39-0.382,0.4v0.001c-0.003,0-0.007,0-0.01,0c-0.004,0-0.008,0-0.011,0v-0.001c-0.213-0.011-0.382-0.186-0.382-0.4
		C26.674,21.577,26.843,21.402,27.056,21.392z M21.454,28.077L21.454,28.077c0.003-0.001,0.007,0,0.011,0
		c0.003,0,0.007-0.001,0.01-0.001v0.002c0.213,0.01,0.382,0.185,0.382,0.4c0,0.215-0.169,0.39-0.382,0.4v0.001
		c-0.003,0-0.007,0-0.01,0c-0.004,0-0.008,0-0.011,0v-0.001c-0.213-0.011-0.382-0.186-0.382-0.4
		C21.072,28.263,21.241,28.088,21.454,28.077z M17.878,21.392v-0.001c0.003,0,0.007,0.001,0.011,0.001
		c0.003,0,0.007-0.001,0.01-0.001v0.002c0.213,0.01,0.382,0.185,0.382,0.4c0,0.215-0.169,0.39-0.382,0.4v0.001
		c-0.003,0-0.007,0-0.01,0c-0.004,0-0.008,0-0.011,0v-0.001c-0.213-0.011-0.382-0.186-0.382-0.4
		C17.496,21.577,17.665,21.402,17.878,21.392z M17.878,41.577L17.878,41.577c0.003-0.001,0.007,0,0.011,0
		c0.003,0,0.007-0.001,0.01-0.001v0.002c0.213,0.01,0.382,0.185,0.382,0.4c0,0.215-0.169,0.39-0.382,0.4v0.001
		c-0.003,0-0.007,0-0.01,0c-0.004,0-0.008,0-0.011,0v-0.001c-0.213-0.011-0.382-0.186-0.382-0.4
		C17.496,41.763,17.665,41.588,17.878,41.577z M18.787,44.188c-0.082,0.029-0.172-0.013-0.201-0.095l-0.328-0.844l0.061,0.91
		l0.298,1.72c0.023,0.106,0.001,0.205-0.136,0.223c-0.138,0.019-0.269-0.053-0.292-0.158l-0.298-1.491l-0.299,1.491
		c-0.023,0.106-0.153,0.177-0.291,0.158c-0.138-0.018-0.159-0.117-0.136-0.223l0.298-1.72l0.06-0.91l-0.328,0.844
		c-0.028,0.082-0.119,0.124-0.2,0.095c-0.082-0.029-0.124-0.119-0.095-0.201l0.522-1.425c0.005-0.014,0.012-0.025,0.019-0.036
		c0-0.001,0.001-0.001,0.001-0.001c0.003-0.005,0.006-0.009,0.01-0.013h0.001c0.017-0.019,0.037-0.032,0.062-0.038l-0.001-0.004
		h0.009h0.018h0.009h0.684h0.009h0.019h0.009l-0.001,0.004c0.024,0.006,0.045,0.019,0.062,0.038h0.001
		c0.004,0.004,0.007,0.008,0.01,0.013c0,0,0.001,0,0.001,0.001c0.008,0.011,0.015,0.022,0.02,0.036l0.521,1.425
		C18.911,44.069,18.868,44.158,18.787,44.188z M18.787,24.003c-0.082,0.029-0.172-0.013-0.201-0.095l-0.328-0.844l0.061,0.91
		l0.298,1.72c0.023,0.106,0.001,0.205-0.136,0.223c-0.138,0.018-0.269-0.053-0.292-0.158l-0.298-1.491l-0.299,1.491
		c-0.023,0.105-0.153,0.177-0.291,0.158c-0.138-0.018-0.159-0.117-0.136-0.223l0.298-1.72l0.06-0.91l-0.328,0.844
		c-0.028,0.082-0.119,0.124-0.2,0.095c-0.082-0.029-0.124-0.119-0.095-0.201l0.522-1.425c0.005-0.014,0.012-0.025,0.019-0.036
		c0-0.001,0.001-0.001,0.001-0.001c0.003-0.005,0.006-0.009,0.01-0.013h0.001c0.017-0.018,0.037-0.032,0.062-0.038l-0.001-0.004
		h0.009h0.018h0.009h0.684h0.009h0.019h0.009l-0.001,0.004c0.024,0.006,0.045,0.018,0.062,0.038h0.001
		c0.004,0.004,0.007,0.008,0.01,0.013c0,0,0.001,0,0.001,0.001c0.008,0.011,0.015,0.023,0.02,0.036l0.521,1.425
		C18.911,23.884,18.868,23.973,18.787,24.003z M22.363,38.355c-0.082,0.029-0.172-0.013-0.201-0.095l-0.328-0.844l0.06,0.91
		l0.298,1.72c0.023,0.105,0.001,0.205-0.136,0.223c-0.138,0.019-0.268-0.053-0.292-0.158l-0.298-1.491l-0.299,1.491
		c-0.024,0.106-0.153,0.177-0.291,0.158c-0.138-0.017-0.159-0.117-0.136-0.223l0.298-1.72l0.06-0.91l-0.328,0.844
		c-0.028,0.082-0.119,0.124-0.2,0.095c-0.082-0.029-0.124-0.119-0.095-0.201l0.521-1.425c0.005-0.014,0.012-0.025,0.02-0.036
		c0-0.001,0.001-0.001,0.001-0.001c0.003-0.005,0.006-0.009,0.01-0.013h0.001c0.017-0.019,0.037-0.032,0.062-0.038l-0.001-0.004
		h0.009h0.018h0.009h0.684h0.009h0.018h0.009l-0.001,0.004c0.024,0.006,0.045,0.019,0.062,0.038h0.001
		c0.004,0.004,0.007,0.008,0.01,0.013c0,0,0.001,0,0.001,0.001c0.008,0.011,0.015,0.022,0.019,0.036l0.522,1.425
		C22.487,38.236,22.444,38.325,22.363,38.355z M21.856,36.146c0,0.215-0.169,0.39-0.382,0.4v0.001c-0.003,0-0.007,0-0.01,0
		c-0.004,0-0.008,0-0.011,0v-0.001c-0.213-0.011-0.382-0.185-0.382-0.4c0-0.216,0.169-0.391,0.382-0.401v-0.001
		c0.003,0,0.007,0.001,0.011,0.001c0.003,0,0.007-0.001,0.01-0.001v0.002C21.688,35.755,21.856,35.93,21.856,36.146z M22.363,30.688
		c-0.082,0.029-0.172-0.013-0.201-0.095l-0.328-0.844l0.06,0.91l0.298,1.72c0.023,0.106,0.001,0.205-0.136,0.223
		c-0.138,0.019-0.268-0.053-0.292-0.158l-0.298-1.491l-0.299,1.491c-0.024,0.106-0.153,0.177-0.291,0.158
		c-0.138-0.018-0.159-0.117-0.136-0.223l0.298-1.72l0.06-0.91l-0.328,0.844c-0.028,0.082-0.119,0.124-0.2,0.095
		c-0.082-0.029-0.124-0.119-0.095-0.201l0.521-1.425c0.005-0.014,0.012-0.025,0.02-0.036c0-0.001,0.001-0.001,0.001-0.001
		c0.003-0.005,0.006-0.009,0.01-0.013h0.001c0.017-0.019,0.037-0.032,0.062-0.038l-0.001-0.004h0.009h0.018h0.009h0.684h0.009h0.018
		h0.009l-0.001,0.004c0.024,0.006,0.045,0.019,0.062,0.038h0.001c0.004,0.004,0.007,0.008,0.01,0.013c0,0,0.001,0,0.001,0.001
		c0.008,0.011,0.015,0.022,0.019,0.036l0.522,1.425C22.487,30.569,22.444,30.658,22.363,30.688z M26.077,23.802l0.521-1.425
		c0.005-0.014,0.012-0.025,0.02-0.036c0-0.001,0.001-0.001,0.001-0.001c0.003-0.005,0.006-0.009,0.01-0.013h0.001
		c0.017-0.018,0.037-0.032,0.062-0.038l-0.001-0.004h0.009h0.019h0.009h0.684h0.009h0.019h0.009l-0.001,0.004
		c0.024,0.006,0.045,0.018,0.062,0.038h0.001c0.004,0.004,0.007,0.008,0.01,0.013c0,0,0.001,0,0.001,0.001
		c0.008,0.011,0.015,0.023,0.02,0.036l0.521,1.425c0.029,0.082-0.014,0.171-0.095,0.201c-0.082,0.029-0.172-0.013-0.201-0.095
		l-0.328-0.844l0.061,0.91l0.298,1.72c0.023,0.106,0.001,0.205-0.136,0.223c-0.138,0.018-0.269-0.053-0.292-0.158l-0.298-1.491
		l-0.299,1.491c-0.023,0.105-0.153,0.177-0.291,0.158c-0.138-0.018-0.159-0.117-0.136-0.223l0.298-1.72l0.06-0.91l-0.328,0.844
		c-0.028,0.082-0.119,0.124-0.2,0.095C26.09,23.974,26.048,23.884,26.077,23.802z M26.711,42.232c0-0.216,0.169-0.391,0.382-0.401
		V41.83c0.003,0,0.007,0.001,0.011,0.001c0.003,0,0.007-0.001,0.01-0.001v0.002c0.213,0.01,0.382,0.185,0.382,0.4
		c0,0.215-0.169,0.39-0.382,0.4v0.001c-0.003,0-0.007,0-0.01,0c-0.004,0-0.008,0-0.011,0v-0.001
		C26.88,42.622,26.711,42.447,26.711,42.232z M28.002,44.442c-0.082,0.029-0.172-0.013-0.201-0.095l-0.328-0.844l0.061,0.91
		l0.298,1.72c0.023,0.105,0.001,0.205-0.136,0.223c-0.138,0.019-0.268-0.053-0.292-0.158l-0.298-1.491l-0.299,1.491
		c-0.023,0.106-0.153,0.177-0.291,0.158c-0.138-0.018-0.159-0.117-0.136-0.223l0.298-1.72l0.06-0.91l-0.328,0.844
		c-0.028,0.082-0.119,0.124-0.2,0.095c-0.082-0.029-0.124-0.119-0.095-0.201l0.521-1.425c0.005-0.014,0.012-0.025,0.02-0.036
		c0-0.001,0.001-0.001,0.001-0.001c0.003-0.005,0.006-0.009,0.01-0.013h0.001c0.017-0.019,0.037-0.032,0.061-0.038l-0.001-0.004
		h0.009h0.019h0.009h0.684h0.009h0.019h0.009l-0.001,0.004c0.024,0.006,0.045,0.019,0.062,0.038h0.001
		c0.004,0.004,0.007,0.008,0.01,0.013c0,0,0.001,0,0.001,0.001c0.008,0.011,0.015,0.022,0.02,0.036l0.521,1.425
		C28.126,44.323,28.083,44.412,28.002,44.442z"/>
	<path d="M57.055,41.073h-5.086c-0.553,0-1-0.447-1-1v-0.955c0-0.553-0.016-0.996-0.034-0.997c-0.011-0.001-0.022-0.003-0.034-0.003
		H50.85c-2.179-0.07-3.928-1.846-3.928-4.04c0-2.194,1.749-3.972,3.928-4.036c0.024-0.002,0.043-0.004,0.059-0.006
		c0.033-0.004,0.061-0.455,0.061-1.007c0-0.306,0-0.642,0-0.946c0-0.553,0.447-1.001,1-1.001h5.086c0.553,0,1-0.448,1-1v-3.408
		c0-0.552-0.454-0.987-0.991-1.115c-1.573-0.372-2.811-1.61-3.183-3.183c-0.127-0.537-0.562-0.991-1.115-0.991H34.478
		c-0.553,0-1,0.448-1,1V29.17c0,0.552,0.442,1.101,0.928,1.364c1.261,0.682,2.119,2.009,2.119,3.544
		c0,1.535-0.858,2.861-2.119,3.544c-0.485,0.264-0.928,0.812-0.928,1.363v10.785c0,0.553,0.447,1,1,1h18.287
		c0.553,0,0.988-0.453,1.115-0.991c0.372-1.572,1.609-2.81,3.183-3.182c0.538-0.128,0.991-0.563,0.991-1.115v-3.409
		C58.055,41.521,57.607,41.073,57.055,41.073z M40.685,32.448L40.685,32.448c0.003-0.001,0.007,0,0.011,0
		c0.003,0,0.007-0.001,0.01-0.001v0.002c0.213,0.01,0.382,0.185,0.382,0.4c0,0.215-0.169,0.39-0.382,0.4v0.001
		c-0.003,0-0.007,0-0.01,0c-0.004,0-0.008,0-0.011,0V33.25c-0.213-0.011-0.382-0.185-0.382-0.4
		C40.303,32.634,40.472,32.459,40.685,32.448z M41.594,35.06c-0.082,0.029-0.172-0.013-0.201-0.095l-0.328-0.844l0.061,0.91
		l0.298,1.72c0.023,0.105,0.001,0.205-0.136,0.223c-0.138,0.019-0.269-0.053-0.292-0.158l-0.298-1.491l-0.299,1.491
		c-0.023,0.106-0.153,0.177-0.291,0.158c-0.138-0.018-0.159-0.117-0.136-0.223l0.298-1.72l0.06-0.91l-0.328,0.844
		c-0.028,0.082-0.119,0.124-0.2,0.095c-0.082-0.029-0.124-0.119-0.095-0.201l0.521-1.425c0.005-0.014,0.012-0.025,0.02-0.036
		l0.001-0.001c0.003-0.005,0.006-0.009,0.01-0.013h0.001c0.017-0.019,0.037-0.032,0.061-0.038l-0.001-0.004h0.009h0.019h0.009h0.684
		h0.009h0.019h0.009l-0.001,0.004c0.024,0.006,0.045,0.019,0.062,0.038h0.001c0.004,0.004,0.007,0.008,0.01,0.013l0.001,0.001
		c0.008,0.011,0.015,0.022,0.02,0.036l0.521,1.425C41.718,34.94,41.675,35.029,41.594,35.06z"/>
</g>
</svg>
