<?xml version="1.0" encoding="iso-8859-1"?>
<!-- Generator: Adobe Illustrator 17.0.0, SVG Export Plug-In . SVG Version: 6.00 Build 0)  -->
<!DOCTYPE svg PUBLIC "-//W3C//DTD SVG 1.1//EN" "http://www.w3.org/Graphics/SVG/1.1/DTD/svg11.dtd">
<svg version="1.1" id="Capa_1" xmlns="http://www.w3.org/2000/svg" xmlns:xlink="http://www.w3.org/1999/xlink" x="0px" y="0px"
	 width="64px" height="64px" viewBox="0 0 64 64" style="enable-background:new 0 0 64 64;" xml:space="preserve">
<g>
	<path d="M59.106,13.887H2.894c-0.552,0-1,0.448-1,1v38.226c0,0.553,0.448,1,1,1h56.213c0.552,0,1-0.447,1-1V14.887
		C60.106,14.335,59.658,13.887,59.106,13.887z M58.106,52.112H3.894V15.887h54.213V52.112z"/>
	<rect x="52.606" y="29.683" width="4.512" height="8.635"/>
	<path d="M9.743,29.683H5.231v8.635h4.512V29.683z M7.487,35.584c-0.875,0-1.584-0.709-1.584-1.584s0.709-1.584,1.584-1.584
		S9.071,33.125,9.071,34S8.362,35.584,7.487,35.584z"/>
	<path d="M56.983,46.404v-5.409h-7.085V38.04h-0.001v0.007c-0.023,0-0.044-0.007-0.067-0.007h-0.052v-0.006
		c-2.178-0.065-3.928-1.84-3.928-4.034c0-2.194,1.75-3.972,3.928-4.036V29.96h0.042c0.026,0,0.052-0.008,0.077-0.008v0.008h0.001
		v-2.956h7.085v-5.408c-2.368,0-4.288-1.92-4.288-4.289H32.407v12.785c1.749,0.446,3.048,2.021,3.048,3.908s-1.299,3.46-3.048,3.907
		v12.785h20.288C52.695,48.324,54.615,46.404,56.983,46.404z M36.457,34c0-0.215,0.044-0.419,0.121-0.606l0.068,0.312l0.352-0.168
		h0.006V35h0.417v-1.845h-0.354l-0.481,0.222c0.241-0.565,0.802-0.961,1.456-0.961c0.875,0,1.584,0.709,1.584,1.584
		s-0.709,1.584-1.584,1.584S36.457,34.875,36.457,34z M38.541,42.511c-0.875,0-1.584-0.709-1.584-1.584s0.709-1.584,1.584-1.584
		s1.584,0.709,1.584,1.584S39.416,42.511,38.541,42.511z M38.541,28.656c-0.875,0-1.584-0.709-1.584-1.584s0.709-1.584,1.584-1.584
		s1.584,0.709,1.584,1.584S39.416,28.656,38.541,28.656z M43.111,35.584c-0.875,0-1.584-0.709-1.584-1.584s0.709-1.584,1.584-1.584
		s1.584,0.709,1.584,1.584S43.986,35.584,43.111,35.584z"/>
	<path d="M9.519,50.692h20.888V37.907C28.659,37.46,27.36,35.888,27.36,34s1.299-3.461,3.047-3.908V17.307H9.519
		c0,2.369-1.92,4.289-4.288,4.289v5.408h7.22v2.948h0.302v0.03c2.092,0.157,3.746,1.886,3.746,4.018
		c0,2.132-1.654,3.859-3.746,4.017v0.016h-0.156c-0.049,0.002-0.096,0.015-0.145,0.015v-0.015h-0.001v2.963h-7.22v5.409
		C7.6,46.404,9.519,48.324,9.519,50.692z M26.792,25.583c0.875,0,1.584,0.709,1.584,1.584s-0.709,1.584-1.584,1.584
		s-1.584-0.709-1.584-1.584S25.917,25.583,26.792,25.583z M26.792,39.438c0.875,0,1.584,0.709,1.584,1.584s-0.709,1.584-1.584,1.584
		s-1.584-0.709-1.584-1.584S25.917,39.438,26.792,39.438z M18.917,19.321c0.875,0,1.584,0.709,1.584,1.584s-0.709,1.584-1.584,1.584
		s-1.584-0.709-1.584-1.584S18.042,19.321,18.917,19.321z M18.917,27.167c0.875,0,1.584,0.709,1.584,1.584s-0.709,1.584-1.584,1.584
		s-1.584-0.709-1.584-1.584S18.042,27.167,18.917,27.167z M18.917,36.269c0.875,0,1.584,0.709,1.584,1.584s-0.709,1.584-1.584,1.584
		s-1.584-0.709-1.584-1.584S18.042,36.269,18.917,36.269z M18.917,44.115c0.875,0,1.584,0.709,1.584,1.584s-0.709,1.584-1.584,1.584
		s-1.584-0.709-1.584-1.584S18.042,44.115,18.917,44.115z"/>
	<polygon points="6.784,33.382 6.855,33.706 7.207,33.538 7.213,33.538 7.213,35 7.63,35 7.63,33.155 7.275,33.155 	"/>
	<path d="M19.536,21.458h-0.698v-0.006l0.17-0.142c0.269-0.239,0.491-0.485,0.491-0.798c0-0.332-0.228-0.576-0.647-0.576
		c-0.246,0-0.465,0.085-0.602,0.191l0.122,0.307c0.097-0.071,0.235-0.15,0.395-0.15c0.213,0,0.301,0.119,0.301,0.269
		c-0.003,0.215-0.198,0.423-0.604,0.786l-0.235,0.213v0.261h1.309V21.458z"/>
	<path d="M18.729,29.373c-0.176,0-0.352-0.07-0.428-0.113l-0.089,0.326c0.108,0.065,0.31,0.128,0.548,0.128
		c0.469,0,0.755-0.238,0.755-0.562c0-0.244-0.179-0.412-0.399-0.452v-0.005c0.227-0.077,0.337-0.233,0.337-0.429
		c0-0.253-0.218-0.46-0.609-0.46c-0.241,0-0.46,0.068-0.571,0.139l0.089,0.312c0.073-0.045,0.233-0.11,0.383-0.11
		c0.185,0,0.273,0.082,0.273,0.192c0,0.156-0.182,0.213-0.326,0.213h-0.171v0.31h0.176c0.19,0,0.372,0.082,0.372,0.267
		C19.067,29.266,18.954,29.373,18.729,29.373z"/>
	<path d="M18.988,38.808h0.408v-0.439h0.219v-0.324h-0.219v-1.081h-0.53l-0.695,1.124v0.281h0.817V38.808z M18.571,38.044
		l0.003-0.006l0.243-0.402c0.062-0.116,0.114-0.225,0.174-0.344h0.008c-0.005,0.119-0.011,0.232-0.011,0.344v0.408H18.571z"/>
	<path d="M19.53,45.941c0-0.216-0.085-0.368-0.225-0.462c-0.127-0.094-0.309-0.134-0.485-0.134c-0.045,0-0.079,0-0.119,0.006
		l0.04-0.284h0.715v-0.354H18.44l-0.119,0.968c0.073-0.012,0.144-0.017,0.247-0.017c0.369,0,0.52,0.116,0.52,0.306
		c0,0.196-0.19,0.281-0.369,0.281c-0.168,0-0.335-0.051-0.415-0.091l-0.079,0.323c0.102,0.055,0.289,0.105,0.514,0.105
		C19.235,46.589,19.53,46.285,19.53,45.941z"/>
	<path d="M26.801,42.151c0.397,0,0.678-0.301,0.678-0.667c0-0.383-0.261-0.602-0.57-0.602c-0.17,0-0.301,0.054-0.392,0.144h-0.008
		c0.048-0.213,0.218-0.408,0.602-0.439c0.067-0.006,0.119-0.009,0.167-0.006V40.25c-0.04-0.003-0.094-0.006-0.173,0.003
		c-0.287,0.014-0.528,0.102-0.71,0.27c-0.201,0.188-0.329,0.477-0.329,0.823C26.065,41.785,26.307,42.151,26.801,42.151z
		 M26.514,41.351c0.04-0.091,0.137-0.161,0.253-0.161c0.185,0,0.275,0.147,0.275,0.317c0,0.188-0.097,0.326-0.247,0.326
		c-0.198,0-0.292-0.176-0.301-0.371C26.494,41.41,26.5,41.377,26.514,41.351z"/>
	<polygon points="26.965,26.761 26.205,28.245 26.662,28.245 27.422,26.673 27.422,26.4 26.119,26.4 26.119,26.755 26.965,26.755 	
		"/>
	<polygon points="37.284,26.315 37.355,26.639 37.707,26.471 37.713,26.471 37.713,27.933 38.13,27.933 38.13,26.088 37.775,26.088 
			"/>
	<polygon points="38.86,26.315 38.932,26.639 39.283,26.471 39.289,26.471 39.289,27.933 39.706,27.933 39.706,26.088 
		39.352,26.088 	"/>
	<path d="M38.693,35.031c0.469,0,0.698-0.395,0.698-0.962c0-0.506-0.195-0.945-0.687-0.945c-0.477,0-0.701,0.42-0.701,0.956
		C38.007,34.602,38.217,35.031,38.693,35.031z M38.699,33.45c0.173,0,0.261,0.216,0.261,0.625c0,0.42-0.091,0.63-0.258,0.63
		c-0.165,0-0.267-0.202-0.267-0.625C38.435,33.649,38.543,33.45,38.699,33.45z"/>
	<path d="M38.811,40.763v-0.009c0.185-0.091,0.27-0.247,0.27-0.406c0-0.224-0.179-0.474-0.61-0.474c-0.368,0-0.649,0.207-0.649,0.52
		c0,0.161,0.088,0.312,0.267,0.405v0.006c-0.201,0.088-0.329,0.241-0.329,0.463c0,0.25,0.216,0.514,0.684,0.514
		c0.429,0,0.71-0.228,0.71-0.562C39.152,40.983,38.993,40.83,38.811,40.763z M38.451,40.166c0.159,0,0.225,0.114,0.225,0.231
		c0,0.113-0.088,0.204-0.188,0.232c-0.148-0.045-0.259-0.125-0.259-0.25C38.229,40.266,38.304,40.166,38.451,40.166z M38.46,41.483
		c-0.162,0-0.264-0.125-0.262-0.259c0-0.133,0.083-0.235,0.225-0.275c0.168,0.046,0.29,0.143,0.29,0.304
		C38.713,41.384,38.61,41.483,38.46,41.483z"/>
	<path d="M43.073,33.124c-0.405,0-0.695,0.304-0.695,0.664c0,0.36,0.262,0.576,0.573,0.576c0.168,0,0.29-0.048,0.372-0.134
		l0.006,0.003c-0.031,0.14-0.111,0.262-0.233,0.344c-0.096,0.068-0.229,0.104-0.363,0.113c-0.085,0.003-0.13,0.006-0.186,0v0.335
		c0.048,0.003,0.125,0.006,0.195,0c0.287-0.011,0.531-0.097,0.707-0.255c0.201-0.188,0.323-0.466,0.323-0.852
		C43.771,33.487,43.548,33.124,43.073,33.124z M43.309,33.938c-0.039,0.065-0.122,0.119-0.241,0.119
		c-0.173,0-0.261-0.136-0.261-0.295c0-0.193,0.106-0.323,0.25-0.323c0.201,0,0.275,0.192,0.273,0.389
		C43.329,33.882,43.323,33.91,43.309,33.938z"/>
</g>
</svg>
