<?xml version="1.0" encoding="iso-8859-1"?>
<!-- Generator: Adobe Illustrator 17.0.0, SVG Export Plug-In . SVG Version: 6.00 Build 0)  -->
<!DOCTYPE svg PUBLIC "-//W3C//DTD SVG 1.1//EN" "http://www.w3.org/Graphics/SVG/1.1/DTD/svg11.dtd">
<svg version="1.1" id="Capa_1" xmlns="http://www.w3.org/2000/svg" xmlns:xlink="http://www.w3.org/1999/xlink" x="0px" y="0px"
	 width="64px" height="64px" viewBox="0 0 64 64" style="enable-background:new 0 0 64 64;" xml:space="preserve">
<g>
	<path d="M25.82,49.952l0.745,4.893h-8.019c-1.105,0-2,0.895-2,2v0.339c0,1.105,0.895,2,2,2h26.679c1.105,0,2-0.895,2-2v-0.339
		c0-1.105-0.895-2-2-2h-7.402l0.662-4.893l19.47-42.403c0.461-1.004-0.037-1.611-1.112-1.357L43.993,9.235l0.598-4.42H18.949
		l0.658,4.325L7.158,6.192C6.084,5.938,5.59,6.543,6.057,7.544L25.82,49.952z M43.877,13.617l9.33-2.21L40.325,37.865L43.877,13.617
		z M20.286,13.602l0.063,0.015l1.554,10.612l1.997,13.636L11.02,11.407L20.286,13.602z"/>
</g>
</svg>
