<?xml version="1.0" encoding="iso-8859-1"?>
<!-- Generator: Adobe Illustrator 17.0.0, SVG Export Plug-In . SVG Version: 6.00 Build 0)  -->
<!DOCTYPE svg PUBLIC "-//W3C//DTD SVG 1.1//EN" "http://www.w3.org/Graphics/SVG/1.1/DTD/svg11.dtd">
<svg version="1.1" id="Capa_1" xmlns="http://www.w3.org/2000/svg" xmlns:xlink="http://www.w3.org/1999/xlink" x="0px" y="0px"
	 width="64px" height="64px" viewBox="0 0 64 64" style="enable-background:new 0 0 64 64;" xml:space="preserve">
<g>
	<circle cx="57.107" cy="27.662" r="5.166"/>
	<path d="M3.047,27.159c2.232,1.604,6.186,2.946,12.089,4.101c3.078,0.602,5.82,0.98,7.075,1.139l2.6,1.611l-2.613-1.339
		L3.949,43.672c-1.499,0.904-1.981,2.851-1.078,4.349c0.595,0.987,1.642,1.533,2.716,1.533c0.557,0,1.121-0.147,1.633-0.456
		l15.227-9.18l6.472,3.315l-0.123,0.155c5.389,3.592,13.372,1.93,19.031-0.202l-0.002,0.015l-9.27,7.108
		c-1.389,1.065-1.651,3.054-0.586,4.442c0.624,0.814,1.565,1.241,2.517,1.241c0.673,0,1.351-0.213,1.926-0.654l11.302-8.666
		l1.292-8.624c0.113-0.752-0.049-1.482-0.41-2.088c-0.96-2.425-3.643-4.538-6.931-3.13l-6.508-4.397
		c-1.45-0.98-3.42-0.599-4.399,0.851c-0.98,1.45-0.599,3.419,0.851,4.399l2.107,1.424c-0.708-0.088-1.321-0.251-1.824-0.431
		c-0.083-0.064-0.171-0.125-0.262-0.181l-13.279-8.227l-0.707-0.08C14.05,25.1,8.187,23.049,6.745,22.013
		c-1.421-1.022-3.401-0.697-4.422,0.724C1.302,24.157,1.626,26.137,3.047,27.159z"/>
	<circle cx="18.879" cy="13.244" r="5.166"/>
</g>
</svg>
