<?xml version="1.0" encoding="iso-8859-1"?>
<!-- Generator: Adobe Illustrator 17.0.0, SVG Export Plug-In . SVG Version: 6.00 Build 0)  -->
<!DOCTYPE svg PUBLIC "-//W3C//DTD SVG 1.1//EN" "http://www.w3.org/Graphics/SVG/1.1/DTD/svg11.dtd">
<svg version="1.1" id="Capa_1" xmlns="http://www.w3.org/2000/svg" xmlns:xlink="http://www.w3.org/1999/xlink" x="0px" y="0px"
	 width="64px" height="64px" viewBox="0 0 64 64" style="enable-background:new 0 0 64 64;" xml:space="preserve">
<g>
	<circle cx="31.694" cy="14.501" r="13.703"/>
	<path d="M62.094,33.54v-0.766V32.01l-2.026-0.503v0.001l-4.708-1.17v0.001l-4.386-1.089c-0.879-0.224-1.814-0.35-2.803-0.423v-0.03
		l-0.947-0.046c-0.146-0.012-0.292-0.023-0.479-0.026l-3.283-0.005v-0.002h-1.485h-0.357l-0.136,0.568
		c-0.885,3.682-3.861,6.536-7.581,7.272c-1.572,0.309-2.738,0.276-4.375-0.158c-3.479-0.921-6.156-3.646-6.989-7.114l-0.136-0.568
		h-0.995h-1.485h-2.345l-0.247,0.012c-0.204,0-0.412,0.009-0.632,0.023v-0.006l-0.805,0.068l-0.68,0.058v0.01
		c-0.755,0.087-1.422,0.205-2.055,0.367l-5.134,1.275v-0.001l-4.708,1.17v-0.001L1.833,32.06v0.001v0.765v0.765v15.447v0.756v0.639
		v0.101c0.188-0.01,0.373,0,0.551,0.049l0.004,0.001c0.664,0.182,1.059,0.761,1.059,1.552v9.066H4.19h0.742v-9.066
		c0-1.246-0.618-2.283-1.614-2.78V33.221l3.222-0.799v28.78h0.743h0.742h7.189h0.743H16.7V30.237
		c0.218-0.014,0.439-0.025,0.669-0.025c0.001,0,0.001,0,0.003,0l2.552-0.012v31h0.742h0.743h7.188h0.743h0.742V38.047
		c1.143,0.22,2.123,0.249,3.224,0.11v23.044h0.742h0.743h7.188h0.743h0.106c1.661,0.644,3.459,1.011,5.345,1.011
		c8.192,0,14.857-6.665,14.857-14.857c0-1.808-0.341-3.534-0.935-5.139V33.54z M43.463,30.201l3.172,0.003l0.052,0.003v2.366
		c-1.117,0.111-2.193,0.356-3.224,0.702V30.201z M59.527,50.763c-0.052,0.172-0.114,0.339-0.173,0.508
		c-0.513,1.463-1.302,2.793-2.308,3.931c-1.579,1.784-3.683,3.085-6.075,3.665c-0.899,0.218-1.832,0.346-2.798,0.346
		c-0.251,0-0.496-0.022-0.742-0.037c-0.25-0.016-0.498-0.035-0.743-0.065c-1.132-0.142-2.215-0.437-3.224-0.874
		c-0.253-0.109-0.499-0.231-0.742-0.357c-0.254-0.132-0.5-0.277-0.743-0.426c-3.393-2.086-5.663-5.822-5.663-10.097
		s2.27-8.01,5.663-10.097c0.243-0.15,0.489-0.294,0.743-0.426c0.243-0.126,0.489-0.248,0.742-0.357
		c1.009-0.437,2.092-0.732,3.224-0.874c0.245-0.031,0.493-0.05,0.743-0.065c0.247-0.015,0.492-0.037,0.742-0.037
		c2.707,0,5.193,0.917,7.189,2.443c0.256,0.196,0.503,0.402,0.742,0.618c0.258,0.233,0.506,0.476,0.743,0.731
		c1.969,2.117,3.183,4.946,3.183,8.065C60.029,48.54,59.85,49.683,59.527,50.763z M60.069,38.493
		c-0.908-1.215-1.993-2.286-3.222-3.175v-3.08l3.222,0.799V38.493z"/>
	<path d="M56.075,41.791c-0.207-0.207-0.453-0.347-0.713-0.435c-0.641-0.216-1.376-0.076-1.887,0.435l-5.302,5.302l-0.742,0.742
		l-0.743,0.743l-1.154,1.154l-2.07-2.07L42.87,47.07c-0.046-0.046-0.099-0.081-0.149-0.121c-0.224-0.181-0.476-0.306-0.743-0.367
		c-0.596-0.135-1.245,0.024-1.708,0.488c-0.718,0.718-0.718,1.882,0,2.6l1.708,1.708l0.743,0.743l0.742,0.742l0.732,0.732
		c0.012,0.013,0.021,0.028,0.033,0.041c0.36,0.36,0.832,0.539,1.304,0.538c0.411,0.001,0.817-0.143,1.154-0.416
		c0.05-0.04,0.103-0.076,0.149-0.122c0.013-0.013,0.021-0.028,0.033-0.041l0.56-0.56l0.742-0.742l7.189-7.189l0.713-0.713
		c0.011-0.011,0.018-0.024,0.029-0.035c0.675-0.709,0.675-1.821,0-2.53C56.093,41.815,56.085,41.802,56.075,41.791z"/>
</g>
</svg>
