<?xml version="1.0" encoding="iso-8859-1"?>
<!-- Generator: Adobe Illustrator 16.0.4, SVG Export Plug-In . SVG Version: 6.00 Build 0)  -->
<!DOCTYPE svg PUBLIC "-//W3C//DTD SVG 1.1//EN" "http://www.w3.org/Graphics/SVG/1.1/DTD/svg11.dtd">
<svg version="1.1" id="Capa_1" xmlns="http://www.w3.org/2000/svg" xmlns:xlink="http://www.w3.org/1999/xlink" x="0px" y="0px"
	 width="64px" height="64px" viewBox="0 0 64 64" style="enable-background:new 0 0 64 64;" xml:space="preserve">
<path d="M56.631,26.706L47.126,17.2c-0.567-0.568-1.333-0.879-2.121-0.879c-0.19,0-0.382,0.018-0.573,0.055l-7.166,1.394
	c-1.133,0.22-2.037,1.071-2.33,2.187c-0.291,1.119-1.293,1.901-2.436,1.901c-1.142,0-2.144-0.782-2.436-1.901
	c-0.291-1.116-1.197-1.967-2.33-2.187l-7.166-1.394c-0.191-0.037-0.383-0.055-0.573-0.055c-0.788,0-1.553,0.311-2.121,0.879
	l-9.506,9.506c-0.563,0.563-0.879,1.326-0.879,2.121c0,0.796,0.316,1.559,0.879,2.121l5.185,5.185
	c0.586,0.586,1.354,0.879,2.121,0.879c0.768,0,1.535-0.293,2.121-0.879l0.462-0.462l-0.964,9.64
	c-0.084,0.842,0.192,1.879,0.761,2.506C18.623,48.445,19.431,49,20.279,49h24.442c0.848,0,1.656-0.555,2.225-1.184
	c0.568-0.627,0.845-1.565,0.761-2.408l-0.964-9.688l0.462,0.438c0.586,0.586,1.354,0.865,2.121,0.865s1.536-0.299,2.12-0.885
	l5.186-5.188c0.562-0.563,0.879-1.327,0.879-2.123S57.193,27.269,56.631,26.706z M11.492,29.888l-1.003-1.012l9.506-9.53l1.709,0.33
	L11.492,29.888z M25,46h-4.721l1.8-18.197l-6.405,6.307l-2.071-2.09L25,20.622V46z M31,46h-3V22.512
	c0.718,1.021,1.769,1.779,3,2.128V46z M37,46h-3V24.639c1.231-0.351,2.282-1.111,3-2.134V46z M49.326,34.012l-6.405-6.209L44.721,46
	H40V21.121l11.108,11.108L49.326,34.012z M53.229,30.109L42.86,19.739l2.145-0.418l9.507,9.506L53.229,30.109z"/>
</svg>
