<?xml version="1.0" encoding="iso-8859-1"?>
<!-- Generator: Adobe Illustrator 17.0.0, SVG Export Plug-In . SVG Version: 6.00 Build 0)  -->
<!DOCTYPE svg PUBLIC "-//W3C//DTD SVG 1.1//EN" "http://www.w3.org/Graphics/SVG/1.1/DTD/svg11.dtd">
<svg version="1.1" id="Capa_1" xmlns="http://www.w3.org/2000/svg" xmlns:xlink="http://www.w3.org/1999/xlink" x="0px" y="0px"
	 width="64px" height="64px" viewBox="0 0 64 64" style="enable-background:new 0 0 64 64;" xml:space="preserve">
<g>
	<path d="M53.436,12.694H34.412c-1.104,0-2,0.896-2,2v1.988c0,1.104,0.899,2.051,1.976,2.298
		c5.923,1.354,10.356,6.656,10.356,12.984c0,6.328-4.434,11.629-10.356,12.984c-1.076,0.247-1.976,1.193-1.976,2.298v1.988
		c0,1.104,0.896,2,2,2h19.024c1.105,0,1.964-0.928,2.387-1.949c0.519-1.252,1.521-2.254,2.773-2.773
		c1.021-0.423,1.948-0.887,1.948-1.504c0-0.618-0.895-1.119-2-1.119h-6.404c-1.787,0-3.24-1.454-3.24-3.241V23.84
		c0-1.787,1.453-3.241,3.24-3.241h6.404c1.105,0,2-0.626,2-1.399c0-0.773-0.928-1.362-1.948-1.785
		c-1.253-0.518-2.255-1.521-2.774-2.773C55.4,13.622,54.541,12.694,53.436,12.694z"/>
	<path d="M34.379,42.895c4.813-1.307,8.365-5.709,8.365-10.932c0-5.222-3.552-9.625-8.365-10.932
		c-1.066-0.289-1.967,0.545-1.967,1.65v18.563C32.412,42.35,33.312,43.184,34.379,42.895z"/>
	<path d="M28.445,21.032c-4.814,1.307-8.365,5.71-8.365,10.932c0,5.222,3.552,9.625,8.365,10.932
		c1.066,0.289,1.967-0.545,1.967-1.65V22.682C30.412,21.577,29.512,20.743,28.445,21.032z"/>
	<path d="M58.681,48.748c-0.235,0.177-0.445,0.386-0.622,0.621c-0.663,0.883,0.074,1.864,0.932,1.864
		c0.858,0,1.555-0.696,1.555-1.554C60.545,48.821,59.563,48.083,58.681,48.748z"/>
	<path d="M4.227,46.511c1.252,0.519,2.255,1.522,2.773,2.773c0.422,1.021,1.281,1.948,2.386,1.948h19.025c1.104,0,2-0.896,2-2
		v-1.988c0-1.104-0.899-2.051-1.976-2.298c-5.923-1.354-10.356-6.656-10.356-12.984c0-6.328,4.434-11.629,10.356-12.984
		c1.076-0.247,1.976-1.193,1.976-2.298v-1.988c0-1.104-0.896-2-2-2H9.387c-1.105,0-1.964,0.928-2.386,1.949
		c-0.519,1.251-1.521,2.254-2.772,2.772c-1.02,0.423-1.949,1.013-1.949,1.785c0,0.773,0.896,1.399,2,1.399h6.123
		c1.787,0,3.241,1.454,3.241,3.241v16.807c0,1.787-1.454,3.241-3.241,3.241H4.279c-1.104,0-2,0.5-2,1.119
		C2.279,45.624,3.207,46.088,4.227,46.511z"/>
	<path d="M3.833,51.233c0.858,0,1.595-0.981,0.932-1.864c-0.177-0.235-0.387-0.445-0.622-0.622
		c-0.883-0.664-1.863,0.073-1.863,0.931C2.279,50.537,2.975,51.233,3.833,51.233z"/>
	<path d="M4.143,15.179c0.235-0.177,0.444-0.386,0.621-0.621c0.664-0.883-0.072-1.864-0.931-1.864s-1.554,0.696-1.554,1.554
		C2.279,15.106,3.26,15.843,4.143,15.179z"/>
	<path d="M58.68,15.179c0.883,0.664,1.865-0.073,1.865-0.931c0-0.858-0.696-1.554-1.555-1.554c-0.857,0-1.595,0.981-0.932,1.864
		C58.235,14.793,58.445,15.002,58.68,15.179z"/>
	<path d="M4.961,38.5H4.279c-1.104,0-2,0.758-2,1.694c0,0.936,0.896,1.694,2,1.694h6.123c0.685,0,1.241-0.557,1.241-1.241V23.84
		c0-0.684-0.557-1.241-1.241-1.241H4.279c-1.104,0-2,0.649-2,1.451c0,0.801,0.896,1.45,2,1.45h0.682c1.104,0,2,0.896,2,2v9
		C6.961,37.604,6.065,38.5,4.961,38.5z"/>
	<path d="M57.956,25.463h0.589c1.105,0,2-0.641,2-1.432c0-0.791-0.895-1.432-2-1.432h-6.404c-0.684,0-1.24,0.557-1.24,1.241v16.807
		c0,0.685,0.557,1.241,1.24,1.241h6.404c1.105,0,2-0.767,2-1.712s-0.895-1.712-2-1.712h-0.589c-1.105,0-2-0.896-2-2v-9
		C55.956,26.359,56.852,25.463,57.956,25.463z"/>
</g>
</svg>
