<?xml version="1.0" encoding="iso-8859-1"?>
<!-- Generator: Adobe Illustrator 17.0.0, SVG Export Plug-In . SVG Version: 6.00 Build 0)  -->
<!DOCTYPE svg PUBLIC "-//W3C//DTD SVG 1.1//EN" "http://www.w3.org/Graphics/SVG/1.1/DTD/svg11.dtd">
<svg version="1.1" id="Capa_1" xmlns="http://www.w3.org/2000/svg" xmlns:xlink="http://www.w3.org/1999/xlink" x="0px" y="0px"
	 width="64px" height="64px" viewBox="0 0 64 64" style="enable-background:new 0 0 64 64;" xml:space="preserve">
<g>
	<path d="M55.678,48.174c0.026-9.845-8.537-30.849-10.875-36.398c-0.331,0.039-0.663,0.074-0.997,0.109
		c2.268,5.158,10.167,24.004,10.478,36.806C54.775,48.515,55.241,48.342,55.678,48.174z"/>
	<path d="M16.778,11.762c-0.812-0.081-1.268-0.136-1.268-0.136C5.804,35.307,3.669,47.573,3.669,47.573
		c0.42,0,1.257,0.159,2.346,0.41C6.095,37.95,14.168,17.963,16.778,11.762z"/>
	<path d="M8.644,48.638c0.33-12.729,8.126-31.398,10.439-36.67c-0.358-0.028-0.694-0.058-1.005-0.085
		c-2.406,5.719-10.919,26.66-10.829,36.399C7.692,48.393,8.153,48.51,8.644,48.638z"/>
	<path d="M28.524,52.024c0-1.417,1.6-6.904,1.6-6.904c1.707,5.12,3.841,6.827,3.841,6.827c7.248,0.457,14.19-1.194,19.08-2.828
		c-0.149-12.746-8.573-32.629-10.543-37.106c-8.506,0.776-16.978,0.426-22.102,0.056c-2.007,4.57-10.303,24.201-10.516,36.896
		c3.836,1.023,8.557,2.353,11.812,3.06C27.458,53.274,28.524,52.024,28.524,52.024z M48.046,44.528l2.133,1.921l-4.906,1.92
		L48.046,44.528z M42.94,14.37l-1.493,2.701l-0.544-0.301l1.494-2.701L42.94,14.37z M41.62,14.37l-1.493,2.701l-0.544-0.301
		l1.493-2.701L41.62,14.37z M40.299,14.37l-1.493,2.701l-0.544-0.301l1.493-2.701L40.299,14.37z M38.978,14.37l-1.493,2.701
		l-0.543-0.301l1.493-2.701L38.978,14.37z M37.658,14.37l-1.494,2.701l-0.543-0.301l1.493-2.701L37.658,14.37z M36.338,14.37
		l-1.493,2.701l-0.544-0.301l1.493-2.701L36.338,14.37z M35.017,14.37l-1.493,2.701l-0.544-0.301l1.494-2.701L35.017,14.37z
		 M33.697,14.37l-1.494,2.701l-0.543-0.301l1.493-2.701L33.697,14.37z M31.832,14.069l0.544,0.301l-1.493,2.701l-0.544-0.301
		L31.832,14.069z M31.056,14.37l-1.493,2.701l-0.544-0.301l1.494-2.701L31.056,14.37z M29.734,14.37l-1.493,2.701l-0.543-0.301
		l1.493-2.701L29.734,14.37z M28.415,14.37l-1.493,2.701l-0.544-0.301l1.493-2.701L28.415,14.37z M27.094,14.37l-1.493,2.701
		l-0.544-0.301l1.494-2.701L27.094,14.37z M25.773,14.37l-1.493,2.701l-0.543-0.301l1.493-2.701L25.773,14.37z M24.28,14.37
		l-1.493,2.701l-0.543-0.301l1.493-2.701L24.28,14.37z M19.257,16.771l1.493-2.701l0.544,0.301l-1.493,2.701L19.257,16.771z
		 M20.75,16.771l1.494-2.701l0.543,0.301l-1.493,2.701L20.75,16.771z"/>
	<path d="M59.992,46.294c-1.493-2.134-5.227-17.495-6.507-20.802c-1.122-2.898-6.014-11.369-7.203-13.415
		c2.715,6.479,10.395,25.651,10.624,35.608C58.856,46.885,59.992,46.294,59.992,46.294z"/>
</g>
</svg>
