<?xml version="1.0" encoding="iso-8859-1"?>
<!-- Generator: Adobe Illustrator 17.0.0, SVG Export Plug-In . SVG Version: 6.00 Build 0)  -->
<!DOCTYPE svg PUBLIC "-//W3C//DTD SVG 1.1//EN" "http://www.w3.org/Graphics/SVG/1.1/DTD/svg11.dtd">
<svg version="1.1" id="Capa_1" xmlns="http://www.w3.org/2000/svg" xmlns:xlink="http://www.w3.org/1999/xlink" x="0px" y="0px"
	 width="64px" height="64px" viewBox="0 0 64 64" style="enable-background:new 0 0 64 64;" xml:space="preserve">
<g>
	<circle cx="36.628" cy="6.551" r="4.479"/>
	<circle cx="48.5" cy="8.095" r="4.479"/>
	<path d="M30.766,10.831c0.03-0.148,0.048-0.303,0.059-0.463l-0.269,0.421L30.766,10.831z"/>
	<path d="M57.046,40.29c1.025-1.431,0.696-3.423-0.735-4.448L39.99,24.151c-0.308-0.221-0.652-0.384-1.018-0.484l-12.216-3.332
		c0.026-0.518,0.191-1.24,0.448-2.054l-3.32-0.331c-1.343-0.019-2.573-0.758-3.22-1.939c-0.655-1.196-0.607-2.653,0.127-3.803
		l4.024-6.301c0.058-0.091,0.125-0.174,0.189-0.259c-1.634,0.536-3.04,1.357-3.04,1.357c-9.523,7.386-7.609,17.663-6.493,21.408
		c0.05,0.38,0.163,0.759,0.359,1.115l0.033,0.06c0.064,0.169,0.105,0.266,0.105,0.266s0.012-0.008,0.03-0.021l6.919,12.599
		l6.136,17.366c0.463,1.309,1.693,2.127,3.006,2.127c0.352,0,0.711-0.059,1.062-0.183c1.66-0.586,2.531-2.408,1.944-4.068
		l-6.223-17.611c-0.058-0.163-0.128-0.321-0.212-0.472L21.418,26.46c-0.06-0.109-0.137-0.202-0.207-0.301
		c0.306-0.224,0.613-0.45,0.917-0.677c0.29,0.201,0.611,0.368,0.971,0.466l13.643,3.721l15.856,11.357
		c0.562,0.403,1.211,0.597,1.854,0.597C55.444,41.622,56.423,41.159,57.046,40.29z"/>
	<path d="M29.432,5.614c-0.455-0.291-0.965-0.43-1.468-0.43c-0.077,0-0.152,0.022-0.229,0.028c-0.819,0.069-1.601,0.488-2.077,1.234
		l-4.024,6.301c-0.537,0.841-0.573,1.909-0.093,2.784c0.479,0.875,1.398,1.42,2.396,1.42l3.599,0.359l6.422,0.641
		c1.509,0,2.733-1.224,2.733-2.733c0-1.509-1.224-2.733-2.733-2.733l-3.546-0.705l-1.486-0.295l1.339-2.097
		c0.162-0.253,0.263-0.524,0.333-0.8C30.88,7.477,30.451,6.265,29.432,5.614z"/>
</g>
</svg>
