<?xml version="1.0" encoding="iso-8859-1"?>
<!-- Generator: Adobe Illustrator 16.0.4, SVG Export Plug-In . SVG Version: 6.00 Build 0)  -->
<!DOCTYPE svg PUBLIC "-//W3C//DTD SVG 1.1//EN" "http://www.w3.org/Graphics/SVG/1.1/DTD/svg11.dtd">
<svg version="1.1" id="Capa_1" xmlns="http://www.w3.org/2000/svg" xmlns:xlink="http://www.w3.org/1999/xlink" x="0px" y="0px"
	 width="64px" height="64px" viewBox="0 0 64 64" style="enable-background:new 0 0 64 64;" xml:space="preserve">
<g>
	<path d="M38.917,29.345c-2.089,0-4.008,0.728-5.527,1.937c-0.003-0.282-0.083-0.567-0.252-0.819l-3.256-4.87l-1.941,2.903
		l-0.845,1.264l-2.369-3.542l-4.541-6.791l-1.62,2.422l-0.386,0.578l-1.083-1.619L15,17.67V16h-3v4H9v3h3v3H9v3h3v3H9v3h3v3H9v3h3v4
		h3V23.067l3.18,4.756l2.006-3l6.91,10.333l2.786-4.167l0.762,1.14c0.29,0.433,0.766,0.665,1.25,0.665
		c-1.175,1.509-1.882,3.399-1.882,5.455c0,4.91,3.995,8.905,8.905,8.905s8.905-3.995,8.905-8.905S43.827,29.345,38.917,29.345z
		 M44.321,40.625c-0.304-0.149-0.64-0.241-1.001-0.241c-1.254,0-2.271,1.017-2.271,2.271c0,0.36,0.092,0.696,0.241,0.999
		c-0.727,0.32-1.529,0.501-2.374,0.501c-0.846,0-1.647-0.181-2.375-0.501c0.149-0.303,0.241-0.639,0.241-0.999
		c0-1.255-1.018-2.271-2.271-2.271c-0.36,0-0.696,0.092-0.999,0.241c-0.32-0.728-0.501-1.529-0.501-2.375s0.181-1.647,0.501-2.375
		c0.303,0.149,0.639,0.241,0.999,0.241c1.254,0,2.271-1.017,2.271-2.271c0-0.36-0.092-0.696-0.241-0.999
		c0.728-0.32,1.529-0.501,2.375-0.501c0.845,0,1.647,0.181,2.374,0.501c-0.149,0.303-0.241,0.639-0.241,0.999
		c0,1.255,1.017,2.271,2.271,2.271c0.361,0,0.697-0.092,1.001-0.241c0.32,0.727,0.501,1.529,0.501,2.375
		S44.642,39.898,44.321,40.625z"/>
	<circle cx="38.917" cy="38.25" r="2.271"/>
</g>
</svg>
