<?xml version="1.0" encoding="iso-8859-1"?>
<!-- Generator: Adobe Illustrator 17.0.0, SVG Export Plug-In . SVG Version: 6.00 Build 0)  -->
<!DOCTYPE svg PUBLIC "-//W3C//DTD SVG 1.1//EN" "http://www.w3.org/Graphics/SVG/1.1/DTD/svg11.dtd">
<svg version="1.1" id="Capa_1" xmlns="http://www.w3.org/2000/svg" xmlns:xlink="http://www.w3.org/1999/xlink" x="0px" y="0px"
	 width="64px" height="64px" viewBox="0 0 64 64" style="enable-background:new 0 0 64 64;" xml:space="preserve">
<g>
	<path d="M19.582,40.151c0.272-0.018,0.474-0.133,0.635-0.281c2.511,3.35,5.603,5.586,9.386,5.648v6.431h-0.487
		c-0.704,0-1.275,0.777-1.275,1.735c0,0.512,0.166,0.967,0.425,1.285c-1.863,1.582-3.095,4.299-3.095,7.39h13.734
		c0-3.276-1.385-6.13-3.439-7.659c0.153-0.286,0.245-0.635,0.245-1.016c0-0.958-0.571-1.735-1.275-1.735h-0.487v-6.42
		c0.097,0,0.189-0.018,0.285-0.021v0.021c3.858,0,6.999-2.262,9.546-5.66c0.161,0.149,0.364,0.263,0.635,0.281
		c5.613,0.378,10.981-3.08,12.42-8.716c0.714-2.796,0.792-5.538-0.25-8.271c-0.938-2.46-5.982-6.819-0.442-7.688
		c1.323-0.208,0.76-2.214-0.554-2.008c-1.1,0.173-1.981,0.446-2.67,0.803c0.592-3.371,0.832-5.613,0.832-5.613h-0.285h-4.835h-0.285
		c0,1.83-0.056,3.56-0.16,5.197h-1.581c0.345-1.847,0.51-3.021,0.51-3.021h-3.362c-1.509-5.213-6.308-9.027-12.007-9.027
		S21.25,5.622,19.742,10.834h-3.145c0,0,0.165,1.175,0.51,3.021h-1.296c-0.104-1.637-0.16-3.366-0.16-5.197h-0.285h-4.835h-0.285
		c0,0,0.24,2.242,0.832,5.613c-0.689-0.357-1.57-0.631-2.67-0.803c-1.313-0.206-1.877,1.8-0.554,2.008
		c5.54,0.869,0.496,5.228-0.442,7.688c-1.042,2.733-0.964,5.475-0.25,8.271C8.601,37.071,13.969,40.529,19.582,40.151z
		 M51.877,19.494c0.217,0.409,0.473,0.833,0.78,1.275c4.836,6.958,1.857,17.537-7.66,17.319
		C48.351,32.747,50.531,25.479,51.877,19.494z M33.952,26.617c3.004-0.535,5.638-2.132,7.49-4.401
		c-1.964,10.653-5.867,12.9-7.49,13.37V26.617z M33.952,38.072c6.584-0.885,10.344-13.464,12.046-21.216h1.93
		c-2.362,21.972-13.976,24.942-13.976,24.942V38.072z M29.603,26.626v8.91c-1.69-0.564-5.354-2.947-7.274-13.009
		C24.176,24.642,26.718,26.126,29.603,26.626z M17.717,16.855c1.689,7.691,5.4,20.14,11.886,21.203v3.59
		c-2.137-0.798-11.443-5.373-13.531-24.793H17.717z M11.343,20.769c0.307-0.442,0.564-0.866,0.78-1.275
		c1.345,5.986,3.525,13.253,6.879,18.594C9.486,38.305,6.507,27.727,11.343,20.769z"/>
</g>
</svg>
