<?xml version="1.0" encoding="iso-8859-1"?>
<!-- Generator: Adobe Illustrator 17.0.0, SVG Export Plug-In . SVG Version: 6.00 Build 0)  -->
<!DOCTYPE svg PUBLIC "-//W3C//DTD SVG 1.1//EN" "http://www.w3.org/Graphics/SVG/1.1/DTD/svg11.dtd">
<svg version="1.1" id="Capa_1" xmlns="http://www.w3.org/2000/svg" xmlns:xlink="http://www.w3.org/1999/xlink" x="0px" y="0px"
	 width="64px" height="64px" viewBox="0 0 64 64" style="enable-background:new 0 0 64 64;" xml:space="preserve">
<g>
	<path d="M9.465,28.19c3.364,2.183,12.617,5.483,11.26,10.694c-0.376,1.446,1.856,2.059,2.232,0.615
		c0.418-1.605,0.219-3.014-0.374-4.266c1.961,1.531,4.341,2.775,7.243,3.495c0,0-3.819,0.579-1.157,2.315
		c2.662,1.736,1.157,5.786,1.157,5.786h-1.157v6.26c0,0,0.579-0.566,1.042,1.633s-4.437-1.157-5.922,2.777h7.341h1.242h7.341
		c-1.485-3.935-6.385-0.579-5.922-2.777c0.463-2.199,1.042-1.633,1.042-1.633v-6.26h-1.157c0,0-1.504-4.05,1.157-5.786
		c2.662-1.736-1.157-2.315-1.157-2.315c2.902-0.72,5.282-1.964,7.243-3.495c-0.593,1.252-0.792,2.66-0.374,4.266
		c0.376,1.443,2.608,0.831,2.232-0.615c-1.357-5.211,7.896-8.511,11.26-10.694c3.448-2.237,7.561-5.278,7.929-9.759
		c0.303-3.697-1.531-9.921-6.372-9.588c-1.651,0.114-3.277,0.768-4.191,2.243c-0.665,1.074-0.998,2.09-1.215,3.333
		c-0.358,2.055-0.277,1.815-3.088,1.974c-0.715,0.04-1.084,0.599-1.111,1.157H32.373H31.13H17.513
		c-0.027-0.558-0.396-1.117-1.111-1.157c-2.811-0.159-2.729,0.081-3.088-1.974c-0.217-1.243-0.55-2.26-1.215-3.333
		c-0.914-1.476-2.54-2.13-4.191-2.243c-4.841-0.333-6.676,5.891-6.372,9.588C1.905,22.912,6.017,25.953,9.465,28.19z M49.788,18.351
		c0.587-0.114,1.176-0.24,1.786-0.378c0.489-0.111,0.863-0.621,0.85-1.116c-0.06-2.153,0.691-6.893,4.068-5.544
		c2.713,1.083,3.83,4.879,3.066,7.547c-1.205,4.212-5.372,6.609-8.923,8.693c-1.64,0.962-3.745,2.041-5.626,3.352
		C48.48,25.989,49.515,20.391,49.788,18.351z M7.011,11.312c3.377-1.348,4.128,3.392,4.068,5.544
		c-0.014,0.495,0.361,1.005,0.85,1.116c0.61,0.138,1.199,0.265,1.786,0.378c0.273,2.041,1.308,7.638,4.778,12.553
		c-1.881-1.311-3.986-2.389-5.626-3.352c-3.55-2.083-7.717-4.481-8.923-8.693C3.181,16.191,4.298,12.396,7.011,11.312z"/>
</g>
</svg>
