<?xml version="1.0" encoding="iso-8859-1"?>
<!-- Generator: Adobe Illustrator 17.0.0, SVG Export Plug-In . SVG Version: 6.00 Build 0)  -->
<!DOCTYPE svg PUBLIC "-//W3C//DTD SVG 1.1//EN" "http://www.w3.org/Graphics/SVG/1.1/DTD/svg11.dtd">
<svg version="1.1" id="Capa_1" xmlns="http://www.w3.org/2000/svg" xmlns:xlink="http://www.w3.org/1999/xlink" x="0px" y="0px"
	 width="64px" height="64px" viewBox="0 0 64 64" style="enable-background:new 0 0 64 64;" xml:space="preserve">
<g>
	<path d="M60.608,12.505l-2.911-0.723v0l-5.84-1.45v0l-3.171-0.787v0l-3.953-0.981c-0.59-0.151-1.221-0.235-1.888-0.284V8.257
		l-0.641-0.029c-0.096-0.008-0.191-0.015-0.316-0.017l-2.213-0.003V8.206h-1h-0.241l-0.092,0.383c-0.596,2.479-2.6,4.4-5.104,4.895
		c-1.064,0.211-1.846,0.185-2.946-0.106c-2.343-0.62-4.146-2.455-4.706-4.789l-0.092-0.383h-0.67h-1h-1.579l-0.159,0.007
		c-0.14,0-0.283,0.006-0.433,0.016V8.225l-0.542,0.046l-0.458,0.039v0.016c-0.5,0.058-0.961,0.131-1.383,0.239L14.813,9.67v0
		l-3.171,0.787v0l-5.841,1.45v0l-2.41,0.598c-0.654,0.163-1.204,0.569-1.549,1.146c-0.345,0.576-0.442,1.253-0.275,1.905
		l1.731,6.787c0.286,1.123,1.295,1.907,2.454,1.907c0.016,0,0.033-0.003,0.049-0.003v0.067l5.588-1.387
		c0.213-0.054,0.424-0.053,0.623,0.001l0.002,0.001c0.447,0.121,0.714,0.511,0.714,1.046v31.875c0,1.24,0.902,2.268,2.084,2.476
		v0.044h0.436h0.564h4.84h1h2.171h1h4.84h1h2.171h1h4.841h1h2.17h1h4.841h1h0.09c1.389,0,2.519-1.13,2.519-2.52v-31.87
		c0-0.375,0.134-0.688,0.376-0.883l0.001-0.001c0.247-0.197,0.596-0.255,0.963-0.164l4.062,1.009v0l0.94,0.233c0,0,0.001,0,0.001,0
		l0.058,0.015v-0.007c0.181,0.04,0.365,0.067,0.55,0.067c1.159,0,2.168-0.784,2.454-1.907l1.731-6.787
		c0.167-0.652,0.069-1.33-0.275-1.906C61.812,13.075,61.263,12.668,60.608,12.505z M5.802,23.25
		c-0.689,0.037-1.357-0.458-1.534-1.153L2.536,15.31c-0.101-0.392-0.042-0.799,0.165-1.145s0.538-0.591,0.931-0.688l2.17-0.539
		V23.25z M14.813,57.307c-0.626-0.188-1.084-0.77-1.084-1.456V23.976c0-0.84-0.416-1.538-1.087-1.873V11.239l2.171-0.539V57.307z
		 M23.824,57.371h-2.171V9.23c0.148-0.01,0.298-0.017,0.452-0.017c0,0,0,0,0.001,0l1.718-0.007V57.371z M32.835,57.371h-2.171
		V14.489c0.762,0.147,1.42,0.17,2.171,0.073V57.371z M41.846,57.371h-2.17V9.207l2.143,0.002l0.027,0.001V57.371z M50.857,22.49
		c-0.364,0.381-0.562,0.901-0.562,1.492v31.87c0,0.838-0.682,1.52-1.519,1.52h-0.09V10.576l2.171,0.539V22.49z M61.464,15.31
		l-1.731,6.787c-0.203,0.799-1.047,1.309-1.854,1.108l-0.181-0.045V12.813l2.671,0.663c0.393,0.098,0.724,0.342,0.931,0.688
		S61.564,14.917,61.464,15.31z"/>
</g>
</svg>
