<?xml version="1.0" encoding="iso-8859-1"?>
<!-- Generator: Adobe Illustrator 17.0.0, SVG Export Plug-In . SVG Version: 6.00 Build 0)  -->
<!DOCTYPE svg PUBLIC "-//W3C//DTD SVG 1.1//EN" "http://www.w3.org/Graphics/SVG/1.1/DTD/svg11.dtd">
<svg version="1.1" id="Capa_1" xmlns="http://www.w3.org/2000/svg" xmlns:xlink="http://www.w3.org/1999/xlink" x="0px" y="0px"
	 width="64px" height="64px" viewBox="0 0 64 64" style="enable-background:new 0 0 64 64;" xml:space="preserve">
<g>
	<path d="M58.121,4.232L44.475,7.464L45.11,2.77H17.878l0.699,4.593L5.357,4.232c-1.141-0.27-1.665,0.372-1.17,1.436l20.988,45.038
		l0.791,5.197h-8.517c-1.173,0-2.124,0.951-2.124,2.124v0.36c0,1.173,0.951,2.124,2.124,2.124h23.596
		C42.747,61.457,44.703,62,46.784,62c6.538,0,11.857-5.319,11.857-11.857s-5.319-11.857-11.857-11.857
		c-0.891,0-1.756,0.107-2.592,0.294L59.302,5.673C59.791,4.607,59.262,3.962,58.121,4.232z M9.458,9.771l9.841,2.331l0.067,0.016
		l1.651,11.27l2.121,14.482L9.458,9.771z M46.784,41.286c4.892,0,8.857,3.965,8.857,8.857c0,4.538-3.415,8.274-7.814,8.79
		C47.484,58.974,47.137,59,46.784,59c-2.69,0-5.096-1.204-6.72-3.097c-0.767-0.893-1.361-1.938-1.725-3.088
		c-0.267-0.843-0.412-1.741-0.412-2.672c0-3.303,1.812-6.178,4.492-7.701C43.708,41.709,45.195,41.286,46.784,41.286z M40.58,37.87
		l3.772-25.752l9.908-2.347L40.58,37.87z"/>
	<path d="M42.284,47.618l2.524,2.524l-2.524,2.524c-0.546,0.546-0.546,1.43,0,1.976c0.546,0.546,1.43,0.546,1.976,0l2.524-2.524
		l2.524,2.524c0.546,0.546,1.43,0.546,1.976,0c0.546-0.546,0.546-1.43,0-1.976l-2.524-2.524l2.524-2.524
		c0.546-0.546,0.546-1.43,0-1.976c-0.546-0.546-1.43-0.546-1.976,0l-2.524,2.524l-2.524-2.524c-0.546-0.546-1.43-0.546-1.976,0
		C41.738,46.188,41.738,47.073,42.284,47.618z"/>
</g>
</svg>
