<?xml version="1.0" encoding="iso-8859-1"?>
<!-- Generator: Adobe Illustrator 17.0.0, SVG Export Plug-In . SVG Version: 6.00 Build 0)  -->
<!DOCTYPE svg PUBLIC "-//W3C//DTD SVG 1.1//EN" "http://www.w3.org/Graphics/SVG/1.1/DTD/svg11.dtd">
<svg version="1.1" id="Capa_1" xmlns="http://www.w3.org/2000/svg" xmlns:xlink="http://www.w3.org/1999/xlink" x="0px" y="0px"
	 width="64px" height="64px" viewBox="0 0 64 64" style="enable-background:new 0 0 64 64;" xml:space="preserve">
<g>
	<path d="M24.552,9.269c4.33-2.426,8.901-2.021,13.254,0.073c0.05-0.502,0.099-0.992,0.145-1.461
		c-4.291-2.203-8.87-2.708-13.158-0.245C24.7,8.167,24.619,8.711,24.552,9.269z"/>
	<path d="M25.055,6.356c4.263-2.165,8.741-1.659,13.001,0.457c0.05-0.518,0.097-1.01,0.14-1.462
		c-4.119-2.201-8.518-2.817-12.668-0.668C25.35,5.219,25.191,5.776,25.055,6.356z"/>
	<path d="M23.156,51.769c4.137,2.83,6.967,10.124,6.967,10.124c4.79,1.851,13.063-0.435,13.063-0.435l0.396-0.179
		c1.197-2.721-3.552-3.413-6.056-4.393c-2.504-0.98-1.742-10.777-2.83-15.893c-1.089-5.116,0.218-4.572-0.109-7.511
		c-0.327-2.939-0.544-0.109,0.762-5.334c0.757-3.026,1.695-11.306,2.352-17.743c-4.344-2.157-8.97-2.561-13.281,0.103
		c-0.514,6.123,0.333,13.471,0.806,19.817c0.762,10.232-1.197,10.886-3.266,13.389C19.89,46.217,19.019,48.938,23.156,51.769z"/>
	<path d="M38.505,2.022c-5.225-2.83-11.212-0.871-11.212-0.871c-0.484,0.645-0.883,1.38-1.234,2.165
		c4.036-1.735,8.239-1.112,12.24,0.955C38.429,2.877,38.505,2.022,38.505,2.022z"/>
</g>
</svg>
