<?xml version="1.0" encoding="iso-8859-1"?>
<!-- Generator: Adobe Illustrator 17.0.0, SVG Export Plug-In . SVG Version: 6.00 Build 0)  -->
<!DOCTYPE svg PUBLIC "-//W3C//DTD SVG 1.1//EN" "http://www.w3.org/Graphics/SVG/1.1/DTD/svg11.dtd">
<svg version="1.1" id="Capa_1" xmlns="http://www.w3.org/2000/svg" xmlns:xlink="http://www.w3.org/1999/xlink" x="0px" y="0px"
	 width="64px" height="64px" viewBox="0 0 64 64" style="enable-background:new 0 0 64 64;" xml:space="preserve">
<g>
	<path d="M24.651,59.354c0.319,0.771,1.064,1.236,1.849,1.236c0.255,0,0.514-0.049,0.764-0.152l28.182-11.662
		c1.021-0.422,1.506-1.592,1.083-2.613L39.349,4.646C39.03,3.876,38.286,3.41,37.5,3.41c-0.255,0-0.514,0.049-0.764,0.153
		L8.554,15.225c-1.021,0.422-1.506,1.592-1.083,2.613L24.651,59.354z M36.96,6.717l16.415,39.668L27.04,57.283L10.625,17.615
		L36.96,6.717z"/>
	<polygon points="36.78,37.899 28.015,14.834 22.689,17.038 32.786,39.553 	"/>
	<path d="M34.058,43.366c-0.324,0.84-0.296,1.804,0.081,2.715c0.576,1.392,1.791,2.257,3.17,2.257c0.449,0,0.899-0.092,1.338-0.273
		c1.825-0.756,2.578-2.687,1.79-4.59c-0.783-1.897-2.674-2.741-4.511-1.983C35.049,41.854,34.386,42.521,34.058,43.366z"/>
</g>
</svg>
