<?xml version="1.0" encoding="iso-8859-1"?>
<!-- Generator: Adobe Illustrator 17.0.0, SVG Export Plug-In . SVG Version: 6.00 Build 0)  -->
<!DOCTYPE svg PUBLIC "-//W3C//DTD SVG 1.1//EN" "http://www.w3.org/Graphics/SVG/1.1/DTD/svg11.dtd">
<svg version="1.1" id="Capa_1" xmlns="http://www.w3.org/2000/svg" xmlns:xlink="http://www.w3.org/1999/xlink" x="0px" y="0px"
	 width="64px" height="64px" viewBox="0 0 64 64" style="enable-background:new 0 0 64 64;" xml:space="preserve">
<g>
	<path d="M24.616,39.071c-2.598,0.436-5.026,1.322-7.21,2.572v17.582h7.21V39.071z"/>
	<path d="M37.25,40.644c-2.581-1.145-5.434-1.811-8.447-1.876v20.458h8.447V40.644z"/>
	<path d="M13.22,44.744C9.358,48.45,6.97,53.57,6.97,59.225h6.25V44.744z"/>
	<path d="M42.201,52.501c-0.268-0.058-0.521-0.145-0.765-0.246v6.97h8.22c0-1.829-0.259-3.597-0.729-5.283L42.201,52.501z"/>
	<path d="M39.489,46.123c-0.463,2.16,0.913,4.287,3.073,4.75l6.356,1.362c2.16,0.463,4.287-0.913,4.75-3.073l2.253-10.511
		c0.463-2.16-0.913-4.287-3.073-4.75l-6.355-1.362c-2.16-0.463-4.287,0.913-4.75,3.073L39.489,46.123z"/>
	<path d="M32.334,12.038c2.396-1.887,4.547-2.615,6.414-2.181c-2.44-3.117-5.929-5.082-9.814-5.082
		c-6.332,0-11.622,5.19-12.995,12.148C19.9,17.103,26.58,16.57,32.334,12.038z"/>
	<path d="M28.934,36.193c7.375,0,13.355-7.032,13.355-15.709c0-0.315-0.024-0.623-0.04-0.934c-0.201-2.015-1.122-6.55-3.486-7.593
		c-1.316-0.579-3.062-0.024-5.19,1.651c-6.405,5.046-13.674,5.565-17.925,5.324c-0.042,0.51-0.066,1.027-0.066,1.551
		C15.581,29.161,21.559,36.193,28.934,36.193z"/>
</g>
</svg>
