<?xml version="1.0" encoding="iso-8859-1"?>
<!-- Generator: Adobe Illustrator 17.0.0, SVG Export Plug-In . SVG Version: 6.00 Build 0)  -->
<!DOCTYPE svg PUBLIC "-//W3C//DTD SVG 1.1//EN" "http://www.w3.org/Graphics/SVG/1.1/DTD/svg11.dtd">
<svg version="1.1" id="Capa_1" xmlns="http://www.w3.org/2000/svg" xmlns:xlink="http://www.w3.org/1999/xlink" x="0px" y="0px"
	 width="64px" height="64px" viewBox="0 0 64 64" style="enable-background:new 0 0 64 64;" xml:space="preserve">
<g>
	<path d="M59.106,12.313H2.894c-0.553,0-1,0.448-1,1v38.226c0,0.552,0.447,1,1,1h56.212c0.552,0,1-0.448,1-1V13.313
		C60.106,12.761,59.658,12.313,59.106,12.313z M58.106,49.539c0,0.552-0.447,1-1,1H4.894c-0.553,0-1-0.448-1-1V15.313
		c0-0.552,0.447-1,1-1h52.212c0.553,0,1,0.448,1,1V49.539z"/>
	<path d="M6.232,36.744h2.512c0.553,0,1-0.448,1-1v-6.635c0-0.552-0.447-1-1-1H6.232c-0.553,0-1,0.448-1,1v6.635
		C5.232,36.296,5.68,36.744,6.232,36.744z"/>
	<path d="M56.119,28.109h-2.512c-0.553,0-1,0.448-1,1v6.635c0,0.552,0.447,1,1,1h2.512c0.553,0,1-0.448,1-1v-6.635
		C57.119,28.557,56.672,28.109,56.119,28.109z"/>
	<path d="M29.408,15.733H10.519c-0.553,0-0.988,0.454-1.115,0.991c-0.372,1.573-1.609,2.81-3.181,3.183
		c-0.537,0.128-0.991,0.563-0.991,1.115v3.408c0,0.552,0.447,1,1,1h5.219c0.553,0,1,0.448,1,1v0.948c0,0.552,0.067,1,0.151,1h0.151
		c2.092,0.188,3.745,1.916,3.745,4.048c0,1.786-1.161,3.289-2.768,3.821c-0.524,0.174-1.01,0.207-1.054,0.209
		c-0.04,0.002-0.08,0.002-0.08,0.002c-0.025,0.001-0.049,0.005-0.072,0.008c-0.04,0.006-0.074,0.455-0.074,1.007
		c0,0.306,0,0.642,0,0.947c0,0.552-0.447,1.001-1,1.001H6.232c-0.553,0-1,0.448-1,1v3.409c0,0.552,0.453,0.988,0.99,1.115
		c1.572,0.372,2.809,1.609,3.182,3.181c0.127,0.538,0.562,0.992,1.115,0.992h18.889c0.553,0,1-0.448,1-1V37.334
		c0-0.552-0.442-1.101-0.929-1.364c-1.261-0.683-2.119-2.008-2.119-3.543s0.858-2.862,2.119-3.544
		c0.486-0.263,0.929-0.811,0.929-1.364V16.733C30.408,16.181,29.961,15.733,29.408,15.733z"/>
	<path d="M55.984,39.422h-5.086c-0.553,0-1-0.448-1-1v-0.955c0-0.552-0.016-0.996-0.034-0.997c-0.011-0.001-0.022-0.003-0.034-0.003
		h-0.051c-2.179-0.07-3.928-1.846-3.928-4.04c0-2.194,1.749-3.971,3.928-4.036c0.024-0.002,0.043-0.004,0.059-0.006
		c0.033-0.004,0.06-0.455,0.06-1.007c0-0.306,0-0.642,0-0.947c0-0.552,0.447-1.001,1-1.001h5.086c0.553,0,1-0.448,1-1v-3.408
		c0-0.552-0.454-0.988-0.991-1.115c-1.573-0.372-2.811-1.61-3.183-3.183c-0.127-0.538-0.562-0.991-1.115-0.991H33.408
		c-0.553,0-1,0.448-1,1v10.785c0,0.552,0.442,1.101,0.928,1.364c1.261,0.683,2.119,2.009,2.119,3.544s-0.858,2.861-2.119,3.544
		c-0.485,0.263-0.928,0.811-0.928,1.364v10.785c0,0.552,0.447,1,1,1h18.287c0.553,0,0.988-0.454,1.115-0.991
		c0.372-1.572,1.609-2.81,3.183-3.182c0.538-0.128,0.991-0.563,0.991-1.115v-3.409C56.984,39.87,56.537,39.422,55.984,39.422z"/>
</g>
</svg>
