<?xml version="1.0" encoding="iso-8859-1"?>
<!-- Generator: Adobe Illustrator 17.0.0, SVG Export Plug-In . SVG Version: 6.00 Build 0)  -->
<!DOCTYPE svg PUBLIC "-//W3C//DTD SVG 1.1//EN" "http://www.w3.org/Graphics/SVG/1.1/DTD/svg11.dtd">
<svg version="1.1" id="Capa_1" xmlns="http://www.w3.org/2000/svg" xmlns:xlink="http://www.w3.org/1999/xlink" x="0px" y="0px"
	 width="64px" height="64px" viewBox="0 0 64 64" style="enable-background:new 0 0 64 64;" xml:space="preserve">
<g>
	<circle cx="31.86" cy="15.491" r="13.703"/>
	<path d="M62.261,34.53v-0.766v-0.765l-2.026-0.503v0.001l-4.708-1.17v0.001l-4.386-1.089c-0.879-0.224-1.814-0.35-2.803-0.423
		v-0.03l-0.947-0.046c-0.146-0.012-0.292-0.023-0.479-0.026l-3.283-0.005v-0.002h-1.485h-0.357l-0.136,0.568
		c-0.885,3.682-3.861,6.536-7.581,7.272c-1.572,0.309-2.738,0.276-4.375-0.158c-3.479-0.921-6.156-3.646-6.989-7.114l-0.136-0.568
		h-0.995h-1.485h-2.345l-0.247,0.012c-0.204,0-0.412,0.009-0.632,0.023v-0.006l-0.805,0.068l-0.68,0.058v0.01
		c-0.755,0.087-1.422,0.205-2.055,0.367l-5.134,1.275v-0.001l-4.708,1.17V32.68L2,33.049v0.001v0.765v0.765v15.447v0.756v0.639
		v0.101c0.188-0.01,0.373,0,0.551,0.049l0.004,0.001c0.664,0.182,1.059,0.761,1.059,1.552v9.066h0.743h0.742v-9.066
		c0-1.246-0.618-2.283-1.614-2.78V34.21l3.222-0.799v28.78h0.743h0.742h7.189h0.743h0.743V31.227
		c0.218-0.014,0.439-0.025,0.669-0.025c0.001,0,0.001,0,0.003,0l2.552-0.012v31h0.742h0.743h7.188h0.743h0.742V39.036
		c1.143,0.22,2.123,0.249,3.224,0.11V62.19h0.742h0.743h7.188h0.743h0.106c1.661,0.644,3.459,1.011,5.345,1.011
		c8.192,0,14.857-6.665,14.857-14.857c0-1.808-0.341-3.534-0.935-5.139V34.53z M43.63,31.19l3.172,0.003l0.052,0.003v2.366
		c-1.117,0.111-2.193,0.356-3.224,0.702V31.19z M59.693,51.752c-0.052,0.172-0.114,0.339-0.173,0.508
		c-0.513,1.463-1.302,2.793-2.308,3.931c-1.579,1.784-3.683,3.085-6.075,3.665c-0.899,0.218-1.832,0.346-2.798,0.346
		c-0.251,0-0.496-0.022-0.742-0.037c-0.25-0.016-0.498-0.035-0.743-0.065c-1.132-0.142-2.215-0.437-3.224-0.874
		c-0.253-0.109-0.499-0.231-0.742-0.357c-0.254-0.132-0.5-0.277-0.743-0.426c-3.393-2.086-5.663-5.822-5.663-10.097
		s2.27-8.01,5.663-10.097c0.243-0.15,0.489-0.294,0.743-0.426c0.243-0.126,0.489-0.248,0.742-0.357
		c1.009-0.437,2.092-0.732,3.224-0.874c0.245-0.031,0.493-0.05,0.743-0.065c0.247-0.015,0.492-0.037,0.742-0.037
		c2.707,0,5.193,0.917,7.189,2.443c0.256,0.196,0.503,0.402,0.742,0.618c0.258,0.233,0.506,0.476,0.743,0.731
		c1.969,2.117,3.183,4.946,3.183,8.065C60.196,49.529,60.017,50.672,59.693,51.752z M60.235,39.482
		c-0.908-1.215-1.993-2.286-3.222-3.175v-3.08l3.222,0.799V39.482z"/>
	<path d="M55.528,46.562c-0.172-0.052-0.351-0.088-0.539-0.088h-6.649h-0.742h-0.743H43.63h-0.742h-0.743h-0.455
		c-1.033,0-1.87,0.837-1.87,1.87c0,1.033,0.837,1.87,1.87,1.87h0.455h0.743h0.742h3.224h0.743h0.742h6.649
		c0.189,0,0.368-0.036,0.539-0.088c0.281-0.085,0.534-0.229,0.742-0.426c0.361-0.341,0.589-0.821,0.589-1.356
		s-0.228-1.015-0.589-1.356C56.062,46.792,55.808,46.647,55.528,46.562z"/>
</g>
</svg>
