<?xml version="1.0" encoding="iso-8859-1"?>
<!-- Generator: Adobe Illustrator 17.0.0, SVG Export Plug-In . SVG Version: 6.00 Build 0)  -->
<!DOCTYPE svg PUBLIC "-//W3C//DTD SVG 1.1//EN" "http://www.w3.org/Graphics/SVG/1.1/DTD/svg11.dtd">
<svg version="1.1" id="Capa_1" xmlns="http://www.w3.org/2000/svg" xmlns:xlink="http://www.w3.org/1999/xlink" x="0px" y="0px"
	 width="64px" height="64px" viewBox="0 0 64 64" style="enable-background:new 0 0 64 64;" xml:space="preserve">
<g>
	<path d="M3.957,25.082c0.747-0.668,1.539-1.226,2.399-1.661c0.136,1.153,0.374,2.341,0.755,3.519
		c1.662,5.137,2.64,11.314,3.348,17.087c-1.982,0.868-3.321,2.636-4.049,4.831c-0.407,1.228,1.525,1.75,1.929,0.532
		c0.441-1.331,1.218-2.572,2.368-3.289c0.067,0.587,0.135,1.176,0.198,1.748c0.74,6.754,2.406,7.772,3.886,6.939
		c1.266-0.712,3.485-1.692,7.397-1.904c-0.391-7.172-1.605-14.281-1.706-21.475c-0.106-7.565,0.382-15.126-0.202-22.677
		c-1.808,0.177-3.76,0.477-5.766,0.72c-6.106,0.74-7.402,4.63-7.402,4.63s-0.975,3.153-0.898,7.182
		c-1.355,0.557-2.556,1.405-3.67,2.401C1.58,24.529,2.999,25.939,3.957,25.082z"/>
	<path d="M22.304,33.115c0.266,6.602,1.296,13.139,1.652,19.73c0.122,0.001,0.239-0.001,0.364,0.001
		c5.274,0.093,5.829-2.035,5.829-4.626c0-2.591,0.555-21.928,1.018-25.813c0.463-3.886-0.093-8.234-2.498-11.609
		c-1.352-1.896-3.726-2.319-6.63-2.195C22.679,16.77,21.975,24.938,22.304,33.115z"/>
	<path d="M36.156,15.797c-2.406,3.375-2.961,7.723-2.498,11.609c0.463,3.886,1.018,23.223,1.018,25.813
		c0,2.591,0.555,4.719,5.829,4.626c0.125-0.002,0.242,0,0.364-0.001c0.356-6.591,1.386-13.127,1.652-19.73
		c0.33-8.177-0.374-16.346,0.265-24.513C39.882,13.478,37.508,13.901,36.156,15.797z"/>
	<path d="M57.714,19.084c0,0-1.295-3.89-7.402-4.63c-2.006-0.243-3.959-0.543-5.766-0.72c-0.585,7.551-0.096,15.112-0.202,22.677
		c-0.101,7.194-1.315,14.302-1.706,21.475c3.912,0.212,6.131,1.192,7.397,1.904c1.323,0.744,2.791-0.002,3.617-4.983
		c0.227,0.773,0.335,1.592,0.349,2.443c0.02,1.288,2.02,1.29,2,0c-0.034-2.166-0.571-4.224-1.911-5.887
		c0.72-6.334,1.718-13.427,3.569-19.232c0.54,1.146,0.831,2.421,0.968,3.743c0.131,1.27,2.132,1.283,2,0
		c-0.242-2.344-0.86-4.655-2.302-6.465C59.235,24.006,57.714,19.084,57.714,19.084z"/>
</g>
</svg>
