<?xml version="1.0" encoding="iso-8859-1"?>
<!-- Generator: Adobe Illustrator 17.0.0, SVG Export Plug-In . SVG Version: 6.00 Build 0)  -->
<!DOCTYPE svg PUBLIC "-//W3C//DTD SVG 1.1//EN" "http://www.w3.org/Graphics/SVG/1.1/DTD/svg11.dtd">
<svg version="1.1" id="Capa_1" xmlns="http://www.w3.org/2000/svg" xmlns:xlink="http://www.w3.org/1999/xlink" x="0px" y="0px"
	 width="64px" height="64px" viewBox="0 0 64 64" style="enable-background:new 0 0 64 64;" xml:space="preserve">
<g>
	<path d="M23.58,4.961c-2.336,2.224-3.791,5.364-3.791,8.844c0,3.187,1.231,6.08,3.231,8.255c1.212-0.573,3.703-1.131,8.948-1.296
		L32,20.762l0.032,0.001c5.246,0.166,7.736,0.723,8.949,1.296c2-2.175,3.231-5.067,3.231-8.255c0-3.402-1.405-6.63-3.649-8.844
		H23.58z"/>
	<path d="M5.853,20.025c2.637,3.189,6.052,5.135,9.776,6.839c2.434,1.114,12.684,3.47,11.744,7.092
		c-0.214,0.825,0.468,1.365,1.122,1.365c0.433,0,0.854-0.236,0.995-0.781c0.065-0.25,0.094-0.481,0.124-0.714
		c0.846,3.1,1.21,6.27,1.15,8.38c-0.131,4.583-7.616,4.795-8.302,6.242h19.074c-0.686-1.447-8.171-1.66-8.302-6.242
		c-0.06-2.11,0.304-5.28,1.15-8.38c0.031,0.232,0.059,0.464,0.124,0.714c0.141,0.545,0.562,0.781,0.995,0.781
		c0.654,0,1.336-0.539,1.122-1.365c-0.939-3.622,9.31-5.978,11.744-7.092c3.724-1.704,7.14-3.651,9.776-6.839
		c4.867-5.886,2.672-14.191-2.869-18.757C55.049,1.08,54.798,1,54.556,1c-0.904,0-1.693,1.11-0.831,1.821
		c4.971,4.096,7.021,11.616,2.063,16.626c-3.34,3.376-7.594,5.177-11.922,6.948c-2.434,0.996-6.214,1.828-8.207,3.766
		c1.084-2.485,2.548-4.573,4.435-5.517c1.63-0.815,1.297-1.404,0.128-1.83C37.847,21.949,32,21.763,32,21.763
		s-5.847,0.186-8.223,1.051c-1.169,0.426-1.502,1.016,0.128,1.83c1.887,0.944,3.351,3.032,4.435,5.517
		c-1.993-1.938-5.773-2.771-8.207-3.766c-4.328-1.771-8.581-3.573-11.922-6.948c-4.957-5.01-2.908-12.53,2.063-16.626
		C11.137,2.11,10.347,1,9.444,1C9.202,1,8.951,1.08,8.722,1.269C3.182,5.834,0.987,14.139,5.853,20.025z"/>
	<path d="M42.397,49.467c-0.062-0.006-0.122-0.019-0.185-0.019h-0.486H40.56H23.44h-1.166h-0.486c-0.063,0-0.123,0.013-0.185,0.019
		c-1.016,0.095-1.815,0.94-1.815,1.981V61c0,1.105,0.895,2,2,2h20.423c1.105,0,2-0.895,2-2v-9.551
		C44.211,50.408,43.413,49.562,42.397,49.467z M39.199,59.04c0,0.651-0.528,1.179-1.179,1.179H25.98
		c-0.651,0-1.179-0.528-1.179-1.179v-5.631c0-0.651,0.528-1.179,1.179-1.179h12.04c0.651,0,1.179,0.528,1.179,1.179V59.04z"/>
</g>
</svg>
