<?xml version="1.0" encoding="iso-8859-1"?>
<!-- Generator: Adobe Illustrator 17.0.0, SVG Export Plug-In . SVG Version: 6.00 Build 0)  -->
<!DOCTYPE svg PUBLIC "-//W3C//DTD SVG 1.1//EN" "http://www.w3.org/Graphics/SVG/1.1/DTD/svg11.dtd">
<svg version="1.1" id="Capa_1" xmlns="http://www.w3.org/2000/svg" xmlns:xlink="http://www.w3.org/1999/xlink" x="0px" y="0px"
	 width="64px" height="64px" viewBox="0 0 64 64" style="enable-background:new 0 0 64 64;" xml:space="preserve">
<g>
	<circle cx="33.949" cy="7.186" r="4.982"/>
	<circle cx="6.089" cy="48.935" r="4.982"/>
	<path d="M49.061,44.146l-2.394-9.541c-0.035-0.14-0.091-0.269-0.144-0.399l-1.631-17.409l2.955,1.182l4.782,6.8
		c0.474,0.675,1.229,1.035,1.995,1.035c0.484,0,0.973-0.144,1.4-0.444c1.101-0.774,1.366-2.294,0.591-3.395l-5.198-7.391
		c-0.272-0.386-0.649-0.685-1.088-0.86l-6.417-2.568c-0.186-0.075-0.376-0.117-0.566-0.144c-1.2-0.544-3.617-0.457-8.369,2.943
		c0,0-0.014,0.072-0.034,0.177c-0.11,0.128-0.209,0.269-0.293,0.423l-1.97,3.633l-5.67,0.461c-1.341,0.109-2.34,1.285-2.231,2.626
		c0.104,1.274,1.17,2.239,2.426,2.239c0.066,0,0.133-0.003,0.201-0.008l6.985-0.569c0.016-0.001,0.031-0.008,0.047-0.01
		c0.131,2.47,0.52,5.229,1.372,8.005L24.475,40.56c-0.256,0.218-0.473,0.478-0.641,0.77l-9.259,16.082
		c-0.806,1.4-0.324,3.187,1.075,3.993c0.46,0.265,0.961,0.391,1.456,0.391c1.012,0,1.996-0.526,2.537-1.466l9.006-15.642
		l10.262-8.716c0.759,0.587,1.566,0.952,2.364,1.167l2.329,9.285c0.14,0.558,0.441,1.062,0.867,1.45l13.637,12.427
		c0.561,0.511,1.266,0.763,1.969,0.763c0.794,0,1.585-0.321,2.162-0.954c1.088-1.194,1.002-3.043-0.192-4.131L49.061,44.146z"/>
</g>
</svg>
