<?xml version="1.0" encoding="iso-8859-1"?>
<!-- Generator: Adobe Illustrator 16.0.4, SVG Export Plug-In . SVG Version: 6.00 Build 0)  -->
<!DOCTYPE svg PUBLIC "-//W3C//DTD SVG 1.1//EN" "http://www.w3.org/Graphics/SVG/1.1/DTD/svg11.dtd">
<svg version="1.1" id="Capa_1" xmlns="http://www.w3.org/2000/svg" xmlns:xlink="http://www.w3.org/1999/xlink" x="0px" y="0px"
	 width="64px" height="64px" viewBox="0 0 64 64" style="enable-background:new 0 0 64 64;" xml:space="preserve">
<g>
	<path d="M31.917,6.095c-14.146,0-25.655,11.509-25.655,25.655c0,14.146,11.509,25.655,25.655,25.655
		c14.146,0,25.653-11.509,25.653-25.655C57.57,17.604,46.062,6.095,31.917,6.095z M47.484,38.594
		c-2.443-1.201-5.471-0.813-7.504,1.219c-2.032,2.033-2.42,5.061-1.219,7.504c-2.096,0.924-4.408,1.444-6.845,1.444
		c-2.437,0-4.749-0.521-6.845-1.444c1.202-2.443,0.814-5.471-1.219-7.504c-2.033-2.032-5.06-2.42-7.504-1.219
		c-0.923-2.096-1.444-4.408-1.444-6.845c0-2.437,0.521-4.749,1.444-6.845c2.444,1.202,5.471,0.814,7.504-1.219
		c2.033-2.033,2.42-5.06,1.219-7.504c2.096-0.923,4.408-1.444,6.845-1.444c2.437,0,4.749,0.521,6.845,1.444
		c-1.201,2.444-0.813,5.471,1.219,7.504c2.033,2.033,5.061,2.421,7.504,1.219c0.924,2.096,1.445,4.408,1.445,6.845
		C48.93,34.186,48.408,36.498,47.484,38.594z"/>
	<circle cx="31.917" cy="31.75" r="6.543"/>
</g>
</svg>
