<?xml version="1.0" encoding="iso-8859-1"?>
<!-- Generator: Adobe Illustrator 17.0.0, SVG Export Plug-In . SVG Version: 6.00 Build 0)  -->
<!DOCTYPE svg PUBLIC "-//W3C//DTD SVG 1.1//EN" "http://www.w3.org/Graphics/SVG/1.1/DTD/svg11.dtd">
<svg version="1.1" id="Capa_1" xmlns="http://www.w3.org/2000/svg" xmlns:xlink="http://www.w3.org/1999/xlink" x="0px" y="0px"
	 width="64px" height="64px" viewBox="0 0 64 64" style="enable-background:new 0 0 64 64;" xml:space="preserve">
<g>
	<path d="M15.875,14.75c-0.047-0.514-0.342-1.11-0.918-1.205C12.996,13.219,11.12,13.049,9.125,13
		c-0.511-0.013-1.117,0.386-1.205,0.918c-1.8,10.812,5.195,25.112,15.003,31.15l0.624,3.846c0.219,1.351,1.507,2.447,2.876,2.447
		h0.207v3.05h-4.338c-0.685,0-1.347,0.544-1.479,1.216l-1,5.08h24.377l-1-5.08c-0.132-0.672-0.794-1.216-1.479-1.216h-3.948v-3.05
		h0.207c1.369,0,2.657-1.096,2.876-2.447l0.624-3.846c9.808-6.038,16.803-20.338,15.003-31.15c-0.088-0.531-0.695-0.93-1.205-0.918
		c-1.995,0.049-3.871,0.219-5.832,0.545c-0.576,0.096-0.87,0.691-0.918,1.205c-0.181,1.971-1.185,2.418-2.528,2.443l1.499-9.246
		C47.706,6.596,46.774,5.5,45.405,5.5h-0.39H19.376h-0.39c-1.369,0-2.301,1.096-2.082,2.447l1.499,9.246
		C17.06,17.168,16.056,16.721,15.875,14.75z M45.614,19.5h3.527c0.511,0,1.117-0.377,1.205-0.918
		c0.406-2.474,0.058-2.962,3.049-3.036c1.658-0.041,0.758,4.241,0.65,4.817c-0.603,3.224-1.579,6.381-3.068,9.316
		c-2.179,4.296-5.063,8.848-8.953,11.959L45.614,19.5z M18.777,19.5l3.59,22.138c-3.891-3.11-6.775-7.663-8.953-11.959
		c-1.488-2.935-2.464-6.091-3.068-9.316c-0.108-0.576-1.009-4.858,0.65-4.817c2.992,0.074,2.644,0.562,3.049,3.036
		c0.089,0.541,0.694,0.918,1.205,0.918H18.777z"/>
</g>
</svg>
