<?xml version="1.0" encoding="iso-8859-1"?>
<!-- Generator: Adobe Illustrator 17.0.0, SVG Export Plug-In . SVG Version: 6.00 Build 0)  -->
<!DOCTYPE svg PUBLIC "-//W3C//DTD SVG 1.1//EN" "http://www.w3.org/Graphics/SVG/1.1/DTD/svg11.dtd">
<svg version="1.1" id="Capa_1" xmlns="http://www.w3.org/2000/svg" xmlns:xlink="http://www.w3.org/1999/xlink" x="0px" y="0px"
	 width="64px" height="64px" viewBox="0 0 64 64" style="enable-background:new 0 0 64 64;" xml:space="preserve">
<g>
	<path d="M55.641,50.143c0-6.538-5.319-11.857-11.857-11.857c-2.22,0-4.292,0.625-6.071,1.691
		c4.683-5.967,12.947-7.646,15.918-15.732c3.084-8.397-1.554-20.27-9.313-15.981c0.31-1.457,0.496-2.335,0.496-2.335L42.439,2.75
		H30.501h-1.062H17.501l-2.375,3.179c0,0,0.184,0.862,0.488,2.295c-7.718-4.183-12.32,7.649-9.245,16.021
		c2.957,8.051,11.163,9.749,15.856,15.653c0.008,0.042,0.018,0.094,0.026,0.133c0.342,1.801,1.241,3.034,2.321,3.887
		c0.115,0.19,0.242,0.348,0.389,0.448h-0.307h-2.06c-0.69,0-1.25,0.647-1.25,1.445c0,0.798,0.56,1.445,1.25,1.445h0.2
		c-0.771,0.321-1.325,1.166-1.325,2.167l-1,7.514c0,1.277,0.895,2.312,2,2.312h13.733c2.057,1.715,4.7,2.75,7.581,2.75
		C50.322,62,55.641,56.681,55.641,50.143z M43.426,12.463c0.305,0.062,0.642-0.002,0.986-0.269
		c6.912-5.356,8.886,6.947,5.793,12.307c-1.661,2.877-4.109,4.69-6.656,6.391c-1.609,1.074-3.21,2.145-4.694,3.352
		C40.155,27.936,42.112,18.664,43.426,12.463z M16.452,30.893c-2.547-1.701-4.996-3.514-6.656-6.391
		c-3.093-5.359-1.119-17.663,5.793-12.307c0.322,0.25,0.639,0.324,0.929,0.282c1.31,6.181,3.258,15.407,4.557,21.709
		C19.61,33.003,18.034,31.95,16.452,30.893z M43.784,59c-1.627,0-3.147-0.446-4.458-1.212c-2.629-1.536-4.4-4.381-4.4-7.645
		c0-2.209,0.814-4.225,2.152-5.777c1.624-1.883,4.023-3.081,6.705-3.081c4.892,0,8.857,3.965,8.857,8.857
		C52.641,55.035,48.676,59,43.784,59z"/>
	<path d="M48.284,45.643c-0.546-0.546-1.43-0.546-1.976,0l-2.524,2.524l-2.524-2.524c-0.546-0.546-1.43-0.546-1.976,0
		c-0.546,0.546-0.546,1.43,0,1.976l2.524,2.524l-2.524,2.524c-0.147,0.147-0.247,0.321-0.315,0.504
		c-0.153,0.413-0.085,0.871,0.166,1.247c0.05,0.075,0.083,0.158,0.149,0.225c0.546,0.546,1.43,0.546,1.976,0l2.524-2.524
		l2.524,2.524c0.546,0.546,1.43,0.546,1.976,0c0.546-0.546,0.546-1.43,0-1.976l-2.524-2.524l2.524-2.524
		C48.83,47.073,48.83,46.188,48.284,45.643z"/>
</g>
</svg>
