<?xml version="1.0" encoding="iso-8859-1"?>
<!-- Generator: Adobe Illustrator 17.0.0, SVG Export Plug-In . SVG Version: 6.00 Build 0)  -->
<!DOCTYPE svg PUBLIC "-//W3C//DTD SVG 1.1//EN" "http://www.w3.org/Graphics/SVG/1.1/DTD/svg11.dtd">
<svg version="1.1" id="Capa_1" xmlns="http://www.w3.org/2000/svg" xmlns:xlink="http://www.w3.org/1999/xlink" x="0px" y="0px"
	 width="64px" height="64px" viewBox="0 0 64 64" style="enable-background:new 0 0 64 64;" xml:space="preserve">
<g>
	<path d="M26.224,40.227c-0.424-0.445-0.683-0.938-0.683-1.468c0-0.078,0.034-0.15,0.044-0.227
		c-8.491,2.758-11.241,11.167-11.241,19.298h2.139C16.663,53.94,17.907,42.565,26.224,40.227z"/>
	<path d="M47.425,57.829h2.232c0-7.988-3.375-16.244-11.215-19.149c0.001,0.027,0.016,0.052,0.016,0.078
		c0,0.538-0.267,1.038-0.703,1.487C46.008,42.628,47.245,53.951,47.425,57.829z"/>
	<path d="M17.698,57.829h28.511c-0.177-3.849-1.436-15.145-9.828-16.627c-1.153,0.554-2.686,0.9-4.382,0.9
		c-1.707,0-3.249-0.35-4.404-0.91C19.142,42.626,17.876,53.971,17.698,57.829z M25.571,46.245c1.068,0,1.934,0.866,1.934,1.935
		c0,1.069-0.865,1.935-1.934,1.935c-1.068,0-1.934-0.866-1.934-1.935C23.638,47.111,24.503,46.245,25.571,46.245z"/>
	<path d="M31.062,19.748c0.552-0.021,1.448-0.022,2,0c2.266,0.091,7.698,0.88,9.078,6.252c1.757,6.837,4.75-0.625,3.5-5.125
		c-1.088-3.917-2.132-7.265-2.032-9.633c0.023-0.552-0.317-0.918-0.862-0.826l-3.968,0.668c-0.545,0.092-1.352-0.092-1.804-0.41
		l-4.218-2.973c-0.451-0.318-1.181-0.315-1.629,0.008l-4.108,2.957c-0.448,0.322-1.253,0.51-1.798,0.418l-3.968-0.668
		c-0.545-0.092-0.886,0.274-0.862,0.826c0.1,2.368-0.944,5.717-2.032,9.633c-1.25,4.5,1.743,11.962,3.5,5.125
		C23.242,20.617,28.772,19.836,31.062,19.748z"/>
	<path d="M30.601,36.343c-1.395-0.275-2.413-1.211-2.413-1.874c0-0.742,0.812-0.879,1.912-0.589
		c0.155,0.041,0.333,0.066,0.501,0.099V20.903c-1.494,0.114-3.826,0.545-5.598,2.02v14.45H25c1.633,1.101,3.542,1.818,5.601,2.042
		V36.343z M27.032,27.947c0-0.535,0.433-0.968,0.968-0.968c0.535,0,0.968,0.434,0.968,0.968c0,0.535-0.433,0.968-0.968,0.968
		C27.465,28.915,27.032,28.482,27.032,27.947z"/>
	<path d="M20.17,29.887L20.17,29.887c-0.107,0-0.227-0.011-0.356-0.039c0.437,1.883,1.307,3.595,2.486,5.044v-6.875
		C21.885,28.956,21.221,29.886,20.17,29.887z"/>
	<path d="M33.304,36.39v3.025c1.594-0.171,3.095-0.644,4.45-1.359V22.05c-1.585-0.841-3.321-1.096-4.45-1.164v13.129
		c0.269-0.04,0.524-0.086,0.746-0.14c1.036-0.251,1.763-0.086,1.763,0.733C35.812,35.35,34.731,36.187,33.304,36.39z M35.375,28.915
		c-0.535,0-0.968-0.434-0.968-0.968c0-0.535,0.433-0.968,0.968-0.968c0.535,0,0.968,0.434,0.968,0.968
		C36.343,28.482,35.91,28.915,35.375,28.915z"/>
	<path d="M43.861,29.887c-1.771,0-2.45-2.644-2.674-3.513c-0.174-0.676-0.426-1.264-0.731-1.785v11.548
		c1.771-1.658,3.062-3.824,3.634-6.269C44.01,29.879,43.932,29.887,43.861,29.887z"/>
</g>
</svg>
