<?xml version="1.0" encoding="iso-8859-1"?>
<!-- Generator: Adobe Illustrator 16.0.4, SVG Export Plug-In . SVG Version: 6.00 Build 0)  -->
<!DOCTYPE svg PUBLIC "-//W3C//DTD SVG 1.1//EN" "http://www.w3.org/Graphics/SVG/1.1/DTD/svg11.dtd">
<svg version="1.1" id="Capa_1" xmlns="http://www.w3.org/2000/svg" xmlns:xlink="http://www.w3.org/1999/xlink" x="0px" y="0px"
	 width="64px" height="64px" viewBox="0 0 64 64" style="enable-background:new 0 0 64 64;" xml:space="preserve">
<g>
	<path d="M38.917,8.99c-7.863,0-14.26,6.397-14.26,14.26c0,1.578,0.268,3.093,0.744,4.513L17.333,40l6.894-4.545L8.833,52.5
		l20.615-18.618c0.599,0.534,1.242,1.019,1.925,1.446L19.667,49.667l15.414-12.586l-0.148-0.148
		c1.266,0.369,2.601,0.577,3.984,0.577c7.862,0,14.26-6.397,14.26-14.26S46.779,8.99,38.917,8.99z M31.767,26.714
		c-1.211,0-2.276,0.592-2.948,1.494c-0.737-1.498-1.162-3.176-1.162-4.958s0.425-3.46,1.162-4.958
		c0.672,0.902,1.737,1.494,2.948,1.494c2.036,0,3.686-1.65,3.686-3.686c0-1.211-0.592-2.276-1.494-2.948
		c1.498-0.737,3.177-1.162,4.958-1.162s3.46,0.425,4.957,1.161c-0.902,0.672-1.494,1.737-1.494,2.949
		c0,2.036,1.65,3.686,3.687,3.686c1.211,0,2.276-0.592,2.948-1.495c0.737,1.498,1.162,3.176,1.162,4.958s-0.425,3.461-1.162,4.958
		c-0.672-0.902-1.737-1.495-2.948-1.495c-2.036,0-3.687,1.65-3.687,3.686c0,1.211,0.592,2.277,1.494,2.949
		c-1.497,0.736-3.176,1.161-4.957,1.161s-3.46-0.425-4.958-1.162c0.902-0.672,1.494-1.737,1.494-2.948
		C35.453,28.364,33.803,26.714,31.767,26.714z"/>
	<circle cx="38.917" cy="23.25" r="3.686"/>
</g>
</svg>
