<?xml version="1.0" encoding="iso-8859-1"?>
<!-- Generator: Adobe Illustrator 17.0.0, SVG Export Plug-In . SVG Version: 6.00 Build 0)  -->
<!DOCTYPE svg PUBLIC "-//W3C//DTD SVG 1.1//EN" "http://www.w3.org/Graphics/SVG/1.1/DTD/svg11.dtd">
<svg version="1.1" id="Capa_1" xmlns="http://www.w3.org/2000/svg" xmlns:xlink="http://www.w3.org/1999/xlink" x="0px" y="0px"
	 width="64px" height="64px" viewBox="0 0 64 64" style="enable-background:new 0 0 64 64;" xml:space="preserve">
<g>
	<path d="M11.56,48.767c1.016,0.114,1.957-0.341,2.519-1.171c0.253-0.375,0.533-0.718,0.805-1.07
		c1.788,1.061,3.458,2.299,4.886,3.883c0.707,0.785,4.335-0.579,3.627-1.363c-1.848-2.05-4.105-3.531-6.503-4.789
		c0.966-0.933,2.016-1.782,3.159-2.557c0.668-0.451,1.001-1.43,0.22-1.952c-0.83-0.556-2-0.274-2.767,0.245
		c-1.277,0.865-2.422,1.827-3.488,2.865c-0.691-0.316-1.384-0.627-2.075-0.934c-0.898-0.4-4.434,1.017-3.15,1.588
		c1.086,0.483,2.17,0.972,3.237,1.49c-0.571,0.695-1.118,1.419-1.636,2.184C9.838,48.008,10.873,48.69,11.56,48.767z"/>
	<path d="M27.045,29.691c0.031-0.091,0.066-0.18,0.101-0.27c0.075-0.193,0.164-0.381,0.256-0.566
		c0.103-0.206,0.218-0.406,0.335-0.603c0.015-0.026,0.068-0.108,0.103-0.164c0.08-0.118,0.162-0.235,0.245-0.351
		c0.084-0.115,0.171-0.228,0.258-0.341c0.545-0.708,0.386-1.56-0.502-1.874c-0.878-0.31-2.147-0.026-2.732,0.732
		c-1.2,1.559-2.247,3.332-2.074,5.361c0.116,1.364,1.216,2.356,2.412,2.843c2.509,1.021,6.924-0.198,7.015-3.405
		c0.033-1.182-0.496-2.264-1.162-3.21c-1.012-1.436-4.693,0.061-3.537,1.702c0.12,0.171,0.234,0.345,0.343,0.523
		c0.049,0.081,0.094,0.164,0.14,0.246c0.139,0.301,0.239,0.62,0.294,0.947c0.004,0.025,0.007,0.035,0.01,0.053
		c0,0.012-0.001,0.015-0.001,0.031c0,0.12-0.015,0.239-0.034,0.357c-0.002,0.012-0.002,0.015-0.003,0.025
		c-0.024,0.062-0.059,0.12-0.091,0.179c-0.006,0.007-0.011,0.015-0.017,0.022c-0.014,0.007-0.028,0.013-0.041,0.019
		c-0.007,0.002-0.014,0.004-0.021,0.006c-0.062,0.006-0.124,0.011-0.187,0.014c-0.012-0.001-0.015-0.002-0.029-0.003
		c-0.069-0.006-0.137-0.02-0.206-0.031c-0.03-0.008-0.058-0.015-0.08-0.023c-0.074-0.024-0.146-0.056-0.218-0.086
		c-0.04-0.024-0.081-0.048-0.12-0.074c-0.057-0.038-0.109-0.083-0.162-0.125c-0.036-0.036-0.074-0.074-0.097-0.103
		c-0.067-0.081-0.123-0.169-0.177-0.258c-0.016-0.041-0.034-0.082-0.048-0.124c-0.041-0.119-0.068-0.242-0.091-0.366
		c-0.007-0.035-0.01-0.071-0.014-0.106C26.905,30.34,26.963,30.011,27.045,29.691C27.045,29.692,27.045,29.692,27.045,29.691z
		 M27.029,31.211C26.983,31.127,26.937,31.019,27.029,31.211L27.029,31.211z M26.91,30.7C26.937,30.961,26.915,30.805,26.91,30.7
		L26.91,30.7z"/>
	<path d="M38.22,55.955c1.527-0.174,3.003-0.742,4.341-1.482c1.54-0.851,3.297-2.275,3.675-4.095
		c0.447-2.154-1.611-3.557-3.329-4.282c-0.855-0.36-1.971-0.095-2.734,0.366c-0.137,0.083-0.291,0.211-0.424,0.358
		c0.048-0.076,0.094-0.154,0.143-0.23c0.493-0.767-0.415-1.106-1.042-1.119c-0.838-0.017-2.063,0.292-2.552,1.051
		c-1.096,1.702-2.23,3.593-2.611,5.611c-0.198,1.049-0.133,2.305,0.743,3.048C35.458,56.055,36.944,56.1,38.22,55.955z
		 M37.483,52.093c0.018-0.205,0.054-0.408,0.095-0.61c0.093-0.46,0.242-0.908,0.408-1.347c0.237-0.626,0.393-0.932,0.673-1.464
		c0.251-0.478,0.527-0.943,0.81-1.403c-0.087,0.262-0.029,0.521,0.359,0.685c0.363,0.153,0.719,0.323,1.062,0.519
		c0.049,0.028,0.236,0.151,0.31,0.197c0.122,0.089,0.241,0.181,0.354,0.28c0.201,0.175,0.381,0.373,0.537,0.589
		c0.027,0.036,0.045,0.061,0.059,0.078c0.005,0.011,0.01,0.02,0.02,0.04c0.06,0.114,0.106,0.234,0.146,0.356
		c0.058,0.176,0.079,0.361,0.091,0.546c-0.002,0.057-0.004,0.125-0.008,0.159c-0.015,0.121-0.042,0.24-0.074,0.357
		c-0.027,0.104-0.064,0.204-0.104,0.304c-0.008,0.02-0.01,0.028-0.016,0.042c-0.005,0.01-0.008,0.013-0.015,0.027
		c-0.118,0.224-0.264,0.431-0.418,0.63c-0.027,0.035-0.084,0.1-0.13,0.153c-0.055,0.056-0.108,0.112-0.164,0.166
		c-0.2,0.193-0.414,0.369-0.633,0.537c-0.015,0.01-0.021,0.014-0.041,0.027c-0.112,0.076-0.227,0.148-0.342,0.218
		c-0.115,0.071-0.233,0.138-0.353,0.204c-0.019,0.011-0.04,0.021-0.059,0.032c-0.224,0.106-0.453,0.2-0.685,0.287
		c-0.13,0.039-0.261,0.075-0.392,0.107c-0.089,0.014-0.179,0.028-0.268,0.038c-0.078,0.001-0.157-0.001-0.236-0.004
		c-0.021-0.004-0.043-0.006-0.064-0.01c-0.039-0.007-0.077-0.017-0.115-0.027c-0.087-0.034-0.171-0.074-0.253-0.118
		c-0.029-0.024-0.059-0.047-0.087-0.072c-0.081-0.071-0.151-0.154-0.217-0.239c-0.018-0.023-0.029-0.036-0.039-0.047
		c-0.008-0.021-0.02-0.052-0.039-0.095c-0.121-0.274-0.168-0.576-0.185-0.874c0-0.007,0-0.02,0-0.03
		C37.472,52.25,37.477,52.172,37.483,52.093z"/>
	<path d="M24.094,45.071c5.857-0.521,11.444-2.447,14.908-7.445c3.753-5.417,3.125-13.108,2.273-19.263
		c-0.156-1.134-4.044-0.269-3.863,1.035c1.479,10.694,0.397,22.603-12.729,23.769C22.889,43.326,21.399,45.31,24.094,45.071z"/>
	<path d="M30.299,9.894c1.244,0.628,2.455,1.303,3.631,2.031c-0.457,0.403-0.909,0.812-1.344,1.239
		c-0.661,0.65-0.291,1.6,0.505,1.883c0.974,0.346,2.027-0.04,2.732-0.732c0.223-0.219,0.456-0.427,0.686-0.639
		c0.344,0.252,0.691,0.498,1.028,0.763c0.931,0.734,4.415-0.771,3.617-1.399c-0.7-0.551-1.421-1.065-2.152-1.561
		c0.509-0.445,1.012-0.896,1.495-1.37c0.662-0.65,0.291-1.6-0.505-1.883c-0.974-0.346-2.027,0.04-2.731,0.732
		c-0.3,0.295-0.612,0.578-0.924,0.86c-0.951-0.55-1.915-1.081-2.903-1.579C32.503,7.769,28.932,9.204,30.299,9.894z"/>
</g>
</svg>
