<?xml version="1.0" encoding="iso-8859-1"?>
<!-- Generator: Adobe Illustrator 17.0.0, SVG Export Plug-In . SVG Version: 6.00 Build 0)  -->
<!DOCTYPE svg PUBLIC "-//W3C//DTD SVG 1.1//EN" "http://www.w3.org/Graphics/SVG/1.1/DTD/svg11.dtd">
<svg version="1.1" id="Capa_1" xmlns="http://www.w3.org/2000/svg" xmlns:xlink="http://www.w3.org/1999/xlink" x="0px" y="0px"
	 width="64px" height="64px" viewBox="0 0 64 64" style="enable-background:new 0 0 64 64;" xml:space="preserve">
<g>
	<polygon points="28.27,38.222 32.274,31.901 26.165,29.161 24.268,31.901 	"/>
	<polygon points="34.349,31.901 38.353,38.222 42.355,31.901 40.458,29.161 	"/>
	<path d="M13.493,54.735h6.06h2.881h5.552h0.585h4.795l2.594-2.564l0.429,2.288l-0.238,0.276h2.201h0.285h7.382H47.5h5.781
		c1.104,0,1.692-0.841,1.312-1.878l-6.503-17.762c-0.147-0.418-0.368-0.782-0.616-1.129c-0.112-0.16-0.359-0.422-0.359-0.422
		c-0.522-0.589-1.167-1.009-1.899-1.195l-1.13-0.111h-1.128c-0.014,0.081-0.02,0.164-0.066,0.237l-0.769,1.216l-2.824,4.46
		l-0.409,0.646c-0.116,0.183-0.318,0.293-0.534,0.293c-0.216,0-0.418-0.11-0.535-0.293l-1.885-2.977l0.454,1.966l-2.371,4.029
		l0.436,2.328l-2.623,2.592l0.923-4.92l-2.371-4.029l0.485-2.16l-2.009,3.171c-0.116,0.183-0.319,0.293-0.535,0.293
		c-0.215,0-0.418-0.11-0.534-0.293l-0.473-0.745l-2.006-3.167l-1.524-2.409c-0.045-0.073-0.052-0.156-0.065-0.237h-1.032
		l-1.135,0.111c-0.733,0.186-1.377,0.607-1.901,1.195c0,0-0.244,0.263-0.34,0.395c-0.263,0.371-0.483,0.74-0.632,1.156L12.18,52.857
		C11.8,53.894,12.388,54.735,13.493,54.735z M31.201,50.101l3.689-3.645l0.638,3.403l-4.918,4.861l-0.225-0.261L31.201,50.101z"/>
	<path d="M23.694,21.656c-0.142-3.548-0.238-12.435,2.3-13.039c1.017-0.245,1.583,0.129,2.299,0.599
		c1.355,0.889,3.88,2.552,13.411,2.309l0.275-0.007l0.153,0.229c0.076,0.114,1.793,2.761,2.035,9.262
		c0.316-0.255,0.69-0.633,1.023-1.138c0.247-0.983,0.392-2.007,0.392-3.067c0-6.734-5.285-12.213-11.938-12.555V4.215
		c-0.116,0-0.219,0.014-0.332,0.016c-0.109-0.002-0.216-0.016-0.328-0.016v0.033c-6.657,0.341-11.942,5.819-11.942,12.554
		c0,0.952,0.116,1.875,0.317,2.766C22.044,20.538,22.873,21.428,23.694,21.656z"/>
	<path d="M43.902,22.37l-0.7,0.327l-0.012-0.773c-0.086-5.724-1.348-8.601-1.761-9.392c-9.603,0.199-12.253-1.54-13.685-2.479
		c-0.653-0.428-0.924-0.603-1.519-0.463c-1.291,0.308-1.788,6.777-1.507,12.595l0.023,0.488l-0.487,0.035
		c-0.054,0.004-0.108,0.006-0.162,0.006c-0.695,0-1.354-0.323-1.956-0.803c1.878,4.21,5.993,7.203,10.847,7.454v0.033
		c0.112,0,0.218-0.015,0.328-0.016c0.112,0.001,0.216,0.016,0.332,0.016v-0.033c4.792-0.248,8.863-3.17,10.771-7.297
		C44.133,22.257,43.934,22.355,43.902,22.37z"/>
</g>
</svg>
