<?xml version="1.0" encoding="iso-8859-1"?>
<!-- Generator: Adobe Illustrator 17.0.0, SVG Export Plug-In . SVG Version: 6.00 Build 0)  -->
<!DOCTYPE svg PUBLIC "-//W3C//DTD SVG 1.1//EN" "http://www.w3.org/Graphics/SVG/1.1/DTD/svg11.dtd">
<svg version="1.1" id="Capa_1" xmlns="http://www.w3.org/2000/svg" xmlns:xlink="http://www.w3.org/1999/xlink" x="0px" y="0px"
	 width="64px" height="64px" viewBox="0 0 64 64" style="enable-background:new 0 0 64 64;" xml:space="preserve">
<g>
	<path d="M28.915,9.214v2.319h-2.005v1.319h10.23v-1.319h-2.084V9.214H28.915z M34.056,11.033h-4.141v-0.819h4.141V11.033z"/>
	<path d="M31.985,22.026c3.613,0,6.587,1.983,6.913,4.508h15.289l-4.051-12.155c-0.524-1.572-2.292-2.846-3.949-2.846h-3.695
		l0.519,5.878h-7.475c-0.369,0.482-1.358,1.401-3.546,1.424c-0.025,0-0.05,0-0.075,0c-2.18,0-3.216-0.952-3.598-1.424h-7.673
		l0.518-5.878h-3.616c-1.657,0-3.386,1.286-3.863,2.873L10.04,26.534h15.032C25.398,24.01,28.373,22.026,31.985,22.026z"/>
	<path d="M33.967,17.411h-4.096c0.459,0.243,1.127,0.447,2.109,0.424C32.9,17.826,33.53,17.634,33.967,17.411z"/>
	<polygon points="38.14,11.533 38.14,13.852 25.909,13.852 25.909,11.533 21.664,11.533 22.162,11.577 21.736,16.411 41.919,16.411 
		41.491,11.577 41.989,11.533 	"/>
	<path d="M31.985,30.963c3.004,0,5.488-1.496,5.884-3.429H26.101C26.497,29.467,28.981,30.963,31.985,30.963z"/>
	<path d="M31.985,23.026c-3.044,0-5.558,1.536-5.902,3.508h11.804C37.544,24.562,35.029,23.026,31.985,23.026z"/>
	<rect x="28.386" y="48.927" width="7.858" height="1.042"/>
	<path d="M54.52,27.534H38.888c-0.377,2.487-3.328,4.429-6.903,4.429c-3.575,0-6.525-1.942-6.903-4.429H9.74L3.863,47.096
		C3.386,48.683,4.343,49.969,6,49.969h11.552l-0.496-0.065l1.164-8.818h9.004c0.497-0.42,2.173-1.627,5.09-1.627
		c3.084,0,4.586,1.17,5.059,1.627h8.921l1.33,8.809l-0.495,0.075h11.868c1.657,0,2.575-1.274,2.051-2.846L54.52,27.534z"/>
	<polygon points="40.448,49.969 39.852,47.385 25.256,47.385 24.859,49.969 27.386,49.969 27.386,47.927 37.244,47.927 
		37.244,49.969 	"/>
	<polygon points="18.056,49.969 24.353,49.969 23.859,49.893 24.399,46.385 40.648,46.385 41.448,49.857 40.961,49.969 
		46.624,49.969 45.435,42.086 19.097,42.086 	"/>
	<path d="M29.171,41.086h6.374c-0.714-0.326-1.754-0.627-3.231-0.627C30.959,40.458,29.922,40.758,29.171,41.086z"/>
</g>
</svg>
