<?xml version="1.0" encoding="iso-8859-1"?>
<!-- Generator: Adobe Illustrator 17.0.0, SVG Export Plug-In . SVG Version: 6.00 Build 0)  -->
<!DOCTYPE svg PUBLIC "-//W3C//DTD SVG 1.1//EN" "http://www.w3.org/Graphics/SVG/1.1/DTD/svg11.dtd">
<svg version="1.1" id="Capa_1" xmlns="http://www.w3.org/2000/svg" xmlns:xlink="http://www.w3.org/1999/xlink" x="0px" y="0px"
	 width="64px" height="64px" viewBox="0 0 64 64" style="enable-background:new 0 0 64 64;" xml:space="preserve">
<g>
	<path d="M16.373,50.676c0.977-5.333,2.773-9.276,3.541-10.789h-1.652h-0.169h-0.117l0.002-0.116l-6.062-15.61
		C11.373,22.651,9.71,21.87,8.2,22.413c-1.509,0.543-2.292,2.206-1.748,3.716L16.373,50.676z"/>
	<path d="M17.099,52.471l0.634,1.569l0.038,0.253c0,0-0.248,1.46-0.554,3.262c-0.195,1.156,0.776,2.169,2.397,2.749
		c0.935-5.655-0.879-10.526-1.637-12.228C17.631,49.424,17.321,50.896,17.099,52.471z"/>
	<path d="M32.029,52.152c-0.211-1.407-0.49-2.725-0.801-3.947c-0.783,1.797-2.486,6.549-1.586,12.061
		c1.559-0.585,2.482-1.582,2.29-2.713l-0.554-3.262l0.122-0.833L32.029,52.152z"/>
	<path d="M18.234,47.123l0.095-0.051c0.136,0.25,3.259,6.141,2.01,13.45c0.749,0.188,1.597,0.295,2.512,0.295H26.3
		c0.959,0,1.844-0.119,2.619-0.324c-1.229-7.254,1.841-13.1,2.009-13.411c-1.098-3.872-2.446-6.531-2.801-7.194H26.58
		c2.274-0.722,4.075-2.49,4.82-4.744c-0.903-0.094-1.273-1.503-1.396-1.98c-0.727-2.828-3.647-3.248-4.869-3.297
		c-0.312-0.012-0.82-0.012-1.135,0c-1.243,0.048-4.214,0.465-4.941,3.298c-0.123,0.477-0.493,1.885-1.396,1.98
		c0.744,2.254,2.545,4.023,4.819,4.744h-1.439C20.686,40.553,19.332,43.228,18.234,47.123z M20.527,43.456
		c0.103,0,0.187,0.084,0.187,0.187c0,0.103-0.084,0.187-0.187,0.187c-0.104,0-0.188-0.083-0.188-0.187
		C20.34,43.54,20.424,43.456,20.527,43.456z M19.983,43.881c0.104,0,0.188,0.083,0.188,0.187s-0.083,0.188-0.188,0.188
		c-0.103,0-0.187-0.084-0.187-0.188S19.881,43.881,19.983,43.881z M22.142,43.881c0.104,0,0.188,0.083,0.188,0.187
		s-0.083,0.188-0.188,0.188c-0.103,0-0.187-0.084-0.187-0.188S22.039,43.881,22.142,43.881z M21.635,43.456
		c0.104,0,0.188,0.084,0.188,0.187c0,0.103-0.084,0.187-0.188,0.187c-0.103,0-0.188-0.083-0.188-0.187
		C21.447,43.54,21.532,43.456,21.635,43.456z M22.487,44.658l-0.331,0.259v1.382l-0.964,0.806l-1.122-0.777v-1.411l-0.316-0.201
		l1.323-0.863L22.487,44.658z"/>
	<path d="M18.575,32.629c0.812-3.162,4.06-3.621,5.406-3.673c0.324-0.013,0.851-0.013,1.175,0c1.331,0.054,4.522,0.517,5.333,3.672
		c1.032,4.017,2.79-0.367,2.056-3.01c-0.639-2.301-0.252-4.268-0.193-5.659c0.014-0.324-0.187-0.539-0.507-0.485l-2.217,0.261
		L29.294,22.8c-0.372-1.04-1.384-1.338-2.26-0.666l-0.628,0.482c-0.062,0.048-0.134,0.086-0.202,0.128l-1.228-0.865
		c-0.265-0.187-0.693-0.185-0.957,0.005l-1.157,0.833l-1.421-0.81c-0.959-0.547-1.912-0.113-2.128,0.971l-0.183,0.918l-1.911-0.321
		c-0.32-0.054-0.521,0.161-0.507,0.485c0.059,1.391,0.445,3.358-0.193,5.659C15.785,32.262,17.543,36.646,18.575,32.629z"/>
	<path d="M31.022,39.771l0.002,0.116h-0.131h-1.638c0.754,1.485,2.502,5.308,3.489,10.494l9.803-24.252
		c0.54-1.497-0.229-3.143-1.714-3.699v-3.856c0.404-0.207,0.944-0.442,1.595-0.655l8.462-14.03c-0.91,0.008-1.793,0.19-2.585,0.634
		c-4.167,2.333-9.952-2.533-9.431,3.333v14.556c-0.803,0.276-1.481,0.888-1.79,1.749L31.022,39.771z"/>
	<path d="M51.917,4.333l-8,13.833c0,0,11.917-0.083,13.25,0c1.333,0.083,2.5-11.166,0-12.75C54.667,3.832,51.917,4.333,51.917,4.333
		z"/>
</g>
</svg>
