<?xml version="1.0" encoding="iso-8859-1"?>
<!-- Generator: Adobe Illustrator 17.0.0, SVG Export Plug-In . SVG Version: 6.00 Build 0)  -->
<!DOCTYPE svg PUBLIC "-//W3C//DTD SVG 1.1//EN" "http://www.w3.org/Graphics/SVG/1.1/DTD/svg11.dtd">
<svg version="1.1" id="Capa_1" xmlns="http://www.w3.org/2000/svg" xmlns:xlink="http://www.w3.org/1999/xlink" x="0px" y="0px"
	 width="64px" height="64px" viewBox="0 0 64 64" style="enable-background:new 0 0 64 64;" xml:space="preserve">
<g>
	<circle cx="45.345" cy="16.064" r="3.87"/>
	<circle cx="7.438" cy="39.397" r="3.87"/>
	<path d="M39.61,36.44c2.579-1.172,6.237-5.692,8.801-9.196c4.362,6.708,8.91,14.798,9.032,16.716
		c-0.098,1.417,0.954,2.659,2.376,2.789c0.081,0.007,0.161,0.011,0.24,0.011c1.34,0,2.482-1.023,2.606-2.383
		c0.136-1.491-0.375-4.13-5.188-12.392c-2.527-4.338-5.05-8.177-5.156-8.338c-0.457-0.695-1.191-1.09-1.96-1.158l-8.144-2.915
		l-0.536-0.192l-0.205-0.073l-0.033,0.036c-0.117-0.016-0.233-0.036-0.355-0.036H29.845c-1.447,0-2.62,1.173-2.62,2.62
		s1.173,2.62,2.62,2.62h6.806l-6.418,6.97c0,0,0.005,0.007,0.005,0.007l-7.682,6.94c-0.701,0.633-0.985,1.59-0.784,2.504
		L4.041,52.418c-1.215,0.785-1.565,2.406-0.78,3.622c0.501,0.776,1.343,1.199,2.203,1.199c0.487,0,0.979-0.135,1.418-0.419
		l20.496-13.233l15.682,2.66c0.148,0.025,0.296,0.037,0.441,0.037c1.254,0,2.363-0.904,2.58-2.182
		c0.242-1.426-0.718-2.779-2.145-3.021l-10.04-1.703l4.003-2.584C38.473,36.799,39.046,36.696,39.61,36.44z"/>
</g>
</svg>
