<?xml version="1.0" encoding="iso-8859-1"?>
<!-- Generator: Adobe Illustrator 17.0.0, SVG Export Plug-In . SVG Version: 6.00 Build 0)  -->
<!DOCTYPE svg PUBLIC "-//W3C//DTD SVG 1.1//EN" "http://www.w3.org/Graphics/SVG/1.1/DTD/svg11.dtd">
<svg version="1.1" id="Capa_1" xmlns="http://www.w3.org/2000/svg" xmlns:xlink="http://www.w3.org/1999/xlink" x="0px" y="0px"
	 width="64px" height="64px" viewBox="0 0 64 64" style="enable-background:new 0 0 64 64;" xml:space="preserve">
<g>
	<path d="M25.459,23.72v0.984c-3.665-0.499-7.343-0.678-11.032-0.911c-0.742-0.047-1.661,0.475-1.659,1.322
		c0.012,6.089,0.271,12.492,2.218,18.305c0.557,1.662,1.457,2.668,3.024,3.346c0.98,0.424,2.001,0.763,2.997,1.146
		c1.061,0.407,6.039,3.413,0.956,1.779c-1.834-0.59-2.958,2.193-1.117,2.785c1.799,0.578,3.439,0.378,4.613-0.245v3.248
		c3.208-0.443,4.639-3.149,6.561-6.341c1.561-2.594,3.439-4.571,6.332-5.136v-8.428c-2.681,1.408-3.725,4.772-5.557,7.327
		c-1.904,2.654-4.39,3.796-7.335,3.742v0.126c-0.275-0.203-0.584-0.401-0.931-0.592c-3.962-2.181-6.352-1.539-7.5-6.532
		c-0.948-4.125-1.216-8.514-1.268-12.769c3.163,0.193,6.318,0.387,9.463,0.82c0.083,0.011,0.159,0.009,0.236,0.009v5.559
		c3.98,0.054,5.499-2.884,7.621-6.409c1.2-1.993,2.596-3.608,4.485-4.513c-0.142-0.085-0.3-0.142-0.465-0.182
		c3.422-1.948,5.734-5.62,5.734-9.839C42.833,6.069,37.765,1,31.512,1S20.191,6.069,20.191,12.321c0,4.351,2.458,8.124,6.058,10.019
		C25.778,22.622,25.459,23.131,25.459,23.72z"/>
	<path d="M43,47.911c0.996-0.382,2.018-0.722,2.997-1.146c1.567-0.678,2.467-1.684,3.024-3.346
		c1.948-5.813,2.207-12.216,2.218-18.305c0.002-0.847-0.917-1.369-1.659-1.322c-3.723,0.236-7.435,0.414-11.133,0.923
		c-0.035,0.005-0.063,0.017-0.096,0.023v-0.07c-0.058,0.031-0.105,0.076-0.162,0.109c-0.304,0.092-0.536,0.26-0.701,0.473
		c-2.023,1.622-3.028,4.472-4.632,6.708c-1.917,2.673-4.425,3.814-7.398,3.743v8.508c3.935,0.024,5.447-2.905,7.558-6.412
		c1.373-2.281,2.997-4.076,5.334-4.864v-5.24c0.135,0.018,0.277,0.025,0.433,0.004c3.145-0.434,6.3-0.627,9.463-0.82
		c-0.051,4.255-0.319,8.644-1.268,12.769c-1.148,4.993-3.538,4.351-7.5,6.532c-0.441,0.243-0.802,0.499-1.128,0.76v-0.422
		c-3.446,1.027-4.512,4.877-6.555,7.725c-1.338,1.866-2.969,2.975-4.84,3.456h-3.017c-0.782,0-1.416,0.721-1.416,1.612v2.417H40.5
		v-2.417c0-0.89-0.634-1.612-1.416-1.612h-1.041c0.191-0.265,0.307-0.588,0.307-0.94v-4.632c1.182,0.709,2.91,0.963,4.81,0.351
		c1.841-0.592,0.717-3.375-1.118-2.785C36.961,51.325,41.939,48.319,43,47.911z"/>
</g>
</svg>
