<?xml version="1.0" encoding="iso-8859-1"?>
<!-- Generator: Adobe Illustrator 17.0.0, SVG Export Plug-In . SVG Version: 6.00 Build 0)  -->
<!DOCTYPE svg PUBLIC "-//W3C//DTD SVG 1.1//EN" "http://www.w3.org/Graphics/SVG/1.1/DTD/svg11.dtd">
<svg version="1.1" id="Capa_1" xmlns="http://www.w3.org/2000/svg" xmlns:xlink="http://www.w3.org/1999/xlink" x="0px" y="0px"
	 width="64px" height="64px" viewBox="0 0 64 64" style="enable-background:new 0 0 64 64;" xml:space="preserve">
<g>
	<path d="M54.102,24.245c3.084-8.397-1.554-20.27-9.313-15.981c0.31-1.457,0.496-2.335,0.496-2.335L42.91,2.75H30.972H29.91H17.972
		l-2.375,3.179c0,0,0.184,0.862,0.488,2.295C8.367,4.041,3.765,15.873,6.84,24.245c2.957,8.051,11.163,9.749,15.856,15.653
		c0.008,0.042,0.018,0.094,0.026,0.133c0.342,1.801,1.241,3.034,2.321,3.887c0.115,0.19,0.242,0.348,0.389,0.448h-0.307h-2.06
		c-0.69,0-1.25,0.647-1.25,1.445c0,0.798,0.56,1.445,1.25,1.445h0.2c-0.771,0.321-1.325,1.166-1.325,2.167l-1,7.514
		c0,1.277,0.895,2.312,2,2.312h11.458c2.054,1.715,4.693,2.75,7.572,2.75c6.525,0,11.833-5.308,11.833-11.833
		c0-6.525-5.308-11.833-11.833-11.833c-0.891,0-1.757,0.107-2.592,0.295C44.162,33.707,51.369,31.684,54.102,24.245z M16.922,30.893
		c-2.547-1.701-4.996-3.514-6.656-6.391c-3.093-5.359-1.119-17.663,5.793-12.307c0.322,0.25,0.639,0.324,0.929,0.282
		c1.31,6.181,3.258,15.407,4.557,21.709C20.08,33.003,18.505,31.95,16.922,30.893z M41.971,41.333c4.878,0,8.833,3.955,8.833,8.833
		c0,4.878-3.955,8.833-8.833,8.833c-0.92,0-1.807-0.141-2.642-0.403c-3.588-1.123-6.192-4.473-6.192-8.431
		c0-2.908,1.412-5.48,3.58-7.09C38.187,41.986,40,41.333,41.971,41.333z M44.019,30.893c-1.609,1.074-3.21,2.145-4.694,3.352
		c1.3-6.308,3.258-15.581,4.572-21.781c0.305,0.062,0.642-0.002,0.986-0.269c6.912-5.356,8.886,6.947,5.793,12.307
		C49.015,27.378,46.566,29.192,44.019,30.893z"/>
	<path d="M35.624,50.167c0,0.769,0.624,1.393,1.393,1.393h2.208h7.699c0.769,0,1.393-0.624,1.393-1.393
		c0-0.769-0.624-1.393-1.393-1.393h-8.073h-1.834C36.248,48.773,35.624,49.397,35.624,50.167z"/>
</g>
</svg>
