<?xml version="1.0" encoding="iso-8859-1"?>
<!-- Generator: Adobe Illustrator 17.0.0, SVG Export Plug-In . SVG Version: 6.00 Build 0)  -->
<!DOCTYPE svg PUBLIC "-//W3C//DTD SVG 1.1//EN" "http://www.w3.org/Graphics/SVG/1.1/DTD/svg11.dtd">
<svg version="1.1" id="Capa_1" xmlns="http://www.w3.org/2000/svg" xmlns:xlink="http://www.w3.org/1999/xlink" x="0px" y="0px"
	 width="64px" height="64px" viewBox="0 0 64 64" style="enable-background:new 0 0 64 64;" xml:space="preserve">
<g>
	<path d="M31.141,17.885h13.8c0.084-0.621,0.142-1.251,0.142-1.895c0-7.788-6.314-14.102-14.102-14.102S16.879,8.202,16.879,15.99
		c0,0.644,0.058,1.274,0.142,1.895h13.8H31.141z"/>
	<path d="M16.415,18.875c-0.36,0-1.075,0.071-1.539,0.584c-0.149-0.076-0.298-0.153-0.447-0.232
		c-0.146-0.078-0.294-0.147-0.438-0.228c-0.568-0.317-1.131-0.653-1.69-1.016c-0.638-0.414-1.482-0.004-1.557,0.751
		c-0.298,3.021-3.187,2.971-5.363,3.177c-0.634,0.06-1.005,0.895-0.706,1.426c1.804,3.203,3.519,6.596,6.377,8.997
		c1.138,0.957,2.566,1.41,3.996,1.695c0.801,0.159,1.69,0.146,2.499,0.069c0.862-0.082,1.591-0.369,2.095-0.378
		c0.324-0.006,0.557,0.102,0.668,0.458c0.096,0.306,0.104,0.793,0.008,1.545c-0.164,1.283,1.832,1.428,1.994,0.155
		c0.014-0.11,0.015-0.204,0.026-0.31c0.02-0.196,0.04-0.391,0.049-0.574c0.01-0.208,0.003-0.409-0.003-0.607l0.335,0.229
		c0,0,0.105-0.01,0.275-0.01c0.963,0,4.002,0.311,1.681,4.464h3.736c0,0-2.73,0.865-2.299,2.157
		c0.431,1.292,3.161,4.707,3.161,7.885v4.738h-2.034c-1.073,0-1.943,0.87-1.943,1.943l-3.885,4.209c0,1.073,0.87,1.943,1.943,1.943
		h15.254c1.073,0,1.943-0.87,1.943-1.943l-3.885-4.209c0-1.073-0.87-1.943-1.943-1.943h-2.034v-4.738
		c0-3.178,2.73-6.593,3.161-7.885c0.431-1.292-2.299-2.157-2.299-2.157h3.736c-2.321-4.153,0.717-4.464,1.681-4.464
		c0.17,0,0.275,0.01,0.275,0.01l0.346-0.237c-0.006,0.198-0.013,0.4-0.003,0.608c0.009,0.182,0.028,0.376,0.048,0.571
		c0.011,0.109,0.013,0.206,0.027,0.319c0.163,1.273,2.159,1.128,1.994-0.155c-0.097-0.762-0.087-1.251,0.012-1.556
		c0.111-0.342,0.338-0.45,0.652-0.447c0.505,0.005,1.237,0.296,2.106,0.378c0.809,0.077,1.698,0.09,2.499-0.069
		c1.43-0.285,2.857-0.738,3.996-1.695c2.858-2.401,4.573-5.794,6.377-8.997c0.299-0.531-0.072-1.366-0.706-1.426
		c-2.176-0.206-5.064-0.156-5.363-3.177c-0.075-0.755-0.919-1.165-1.557-0.751c-0.562,0.364-1.127,0.702-1.698,1.02
		c-0.145,0.081-0.293,0.15-0.439,0.228c-0.148,0.079-0.297,0.156-0.447,0.232c-0.463-0.516-1.181-0.588-1.542-0.588
		c-0.138,0-0.224,0.01-0.224,0.01h-0.54H31.141h-0.32H17.179h-0.54C16.639,18.885,16.553,18.875,16.415,18.875z M46.339,24.415
		c0.636-1.214,0.967-2.155,1.102-2.897c0.182-0.087,0.365-0.171,0.545-0.263c0.175-0.089,0.35-0.182,0.523-0.275
		c0.355-0.191,0.709-0.384,1.06-0.592c0.809,2.204,2.851,2.969,5.249,3.322c-1.333,2.503-2.778,5.353-5.018,6.967
		c-1.606,1.158-3.311,1.48-5.075,1.394c-0.261-0.013-0.524-0.037-0.787-0.067c-0.247-0.028-0.495-0.056-0.744-0.096l2.127-1.458
		C45.323,30.45,43.178,30.45,46.339,24.415z M16.639,30.45l2.129,1.46c-0.249,0.04-0.497,0.068-0.744,0.096
		c-0.264,0.029-0.527,0.054-0.789,0.066c-1.76,0.083-3.461-0.239-5.064-1.395c-2.24-1.615-3.684-4.464-5.018-6.967
		c2.398-0.353,4.44-1.118,5.249-3.322c0.347,0.206,0.697,0.396,1.048,0.586c0.173,0.094,0.348,0.187,0.523,0.276
		c0.18,0.092,0.363,0.176,0.545,0.263c0.135,0.743,0.466,1.686,1.104,2.903C18.784,30.45,16.639,30.45,16.639,30.45z"/>
</g>
</svg>
