<?xml version="1.0" encoding="iso-8859-1"?>
<!-- Generator: Adobe Illustrator 17.0.0, SVG Export Plug-In . SVG Version: 6.00 Build 0)  -->
<!DOCTYPE svg PUBLIC "-//W3C//DTD SVG 1.1//EN" "http://www.w3.org/Graphics/SVG/1.1/DTD/svg11.dtd">
<svg version="1.1" id="Capa_1" xmlns="http://www.w3.org/2000/svg" xmlns:xlink="http://www.w3.org/1999/xlink" x="0px" y="0px"
	 width="64px" height="64px" viewBox="0 0 64 64" style="enable-background:new 0 0 64 64;" xml:space="preserve">
<g>
	<path d="M20.839,33c0,5.911,4.551,10.772,10.332,11.282V21.718C25.39,22.227,20.839,27.089,20.839,33z"/>
	<path d="M58.196,52.269h3.107v-3.108C59.59,49.161,58.196,50.556,58.196,52.269z"/>
	<path d="M3.038,49.161v3.108h3.108C6.146,50.556,4.752,49.161,3.038,49.161z"/>
	<path d="M6.146,13.73H3.038v3.108C4.752,16.839,6.146,15.444,6.146,13.73z"/>
	<path d="M61.304,16.839V13.73h-3.107C58.196,15.444,59.59,16.839,61.304,16.839z"/>
	<path d="M43.504,33c0-5.911-4.552-10.773-10.333-11.282v22.564C38.952,43.772,43.504,38.911,43.504,33z M39.832,29.292
		c0.472,0,0.854,0.516,0.854,1.152c0,0.637-0.383,1.153-0.854,1.153c-0.471,0-0.854-0.517-0.854-1.153
		C38.978,29.808,39.361,29.292,39.832,29.292z M39.768,34.708h-1.306v-1.537h-0.695c0.017-1.464,1.204-1.643,1.204-1.643h0.008
		c0,0,0.381,0.837,0.854,0.829c0.501-0.008,0.797-0.829,0.797-0.829s1.188,0.179,1.204,1.643h-0.695v1.537h-1.306H39.768z"/>
	<path d="M56.196,13.73H33.171v5.987C40.056,20.233,45.504,25.985,45.504,33s-5.448,12.767-12.333,13.282v5.987h23.025
		c0-2.816,2.291-5.108,5.107-5.108v-2.236H52.9c-1.787,0-3.241-1.454-3.241-3.241V24.876c0-1.787,1.454-3.24,3.241-3.24h8.403
		v-2.797C58.487,18.839,56.196,16.547,56.196,13.73z M47.269,24.413c0.472,0,0.855,0.516,0.855,1.152
		c0,0.637-0.383,1.153-0.855,1.153c-0.471,0-0.853-0.517-0.853-1.153C46.416,24.929,46.799,24.413,47.269,24.413z M43.536,16.83
		c0.472,0,0.854,0.516,0.854,1.152c0,0.637-0.383,1.153-0.854,1.153c-0.471,0-0.854-0.517-0.854-1.153
		C42.683,17.346,43.065,16.83,43.536,16.83z M44.842,22.246h-1.306h-0.064h-1.306v-1.537h-0.695
		c0.017-1.464,1.204-1.643,1.204-1.643h0.008c0,0,0.381,0.837,0.854,0.829c0.501-0.008,0.797-0.829,0.797-0.829
		s1.188,0.179,1.204,1.643h-0.695V22.246z M43.568,44.43c0.472,0,0.854,0.516,0.854,1.152c0,0.637-0.383,1.153-0.854,1.153
		c-0.471,0-0.854-0.517-0.854-1.153C42.715,44.945,43.098,44.43,43.568,44.43z M44.874,48.309v1.537h-1.306h-0.064h-1.306v-1.537
		h-0.695c0.017-1.464,1.204-1.643,1.204-1.643h0.008c0,0,0.381,0.837,0.854,0.829c0.501-0.008,0.797-0.829,0.797-0.829
		s1.188,0.179,1.204,1.643H44.874z M48.575,39.587v1.537h-1.306h-0.064h-1.306v-1.537h-0.695c0.017-1.464,1.204-1.643,1.204-1.643
		h0.008c0,0,0.381,0.837,0.853,0.829c0.501-0.008,0.797-0.829,0.797-0.829s1.188,0.179,1.204,1.643H48.575z M46.416,36.86
		c0-0.637,0.383-1.152,0.853-1.152c0.472,0,0.855,0.516,0.855,1.152c0,0.637-0.383,1.153-0.855,1.153
		C46.799,38.014,46.416,37.497,46.416,36.86z M48.575,28.292v1.537h-1.306h-0.064h-1.306v-1.537h-0.695
		c0.017-1.464,1.204-1.643,1.204-1.643h0.008c0,0,0.381,0.837,0.853,0.829c0.501-0.008,0.797-0.829,0.797-0.829
		s1.188,0.179,1.204,1.643H48.575z"/>
	<path d="M51.659,24.876v16.808c0,0.685,0.557,1.241,1.241,1.241h8.403V23.636H52.9C52.216,23.636,51.659,24.192,51.659,24.876z
		 M57.068,30.292c0.472,0,0.854,0.516,0.854,1.152c0,0.637-0.383,1.153-0.854,1.153c-0.471,0-0.854-0.517-0.854-1.153
		C56.215,30.808,56.598,30.292,57.068,30.292z M56.207,32.528h0.008c0,0,0.381,0.837,0.854,0.829
		c0.501-0.008,0.797-0.829,0.797-0.829s1.188,0.179,1.204,1.643h-0.695v1.537h-1.306h-0.064h-1.306v-1.537h-0.695
		C55.019,32.707,56.207,32.528,56.207,32.528z"/>
	<path d="M3.038,18.839v2.797h8.123c1.787,0,3.242,1.453,3.242,3.24v16.808c0,1.787-1.455,3.241-3.242,3.241H3.038v2.236
		c2.816,0,5.108,2.292,5.108,5.108h23.024v-5.987c-1.082-0.081-2.122-0.305-3.117-0.629c0.024,0.107,0.05,0.214,0.05,0.331
		c0,0.637-0.383,1.153-0.854,1.153c-0.471,0-0.854-0.517-0.854-1.153c0-0.346,0.118-0.646,0.296-0.857
		c-4.622-2.093-7.853-6.731-7.853-12.128c0-5.582,3.455-10.354,8.333-12.335H26.7v-1.537h-0.695
		c0.017-1.464,1.204-1.642,1.204-1.642h0.008c0,0,0.381,0.837,0.854,0.829c0.501-0.008,0.797-0.829,0.797-0.829
		s1.188,0.179,1.204,1.642h-0.695v0.862c0.587-0.125,1.183-0.227,1.795-0.272V13.73H8.146C8.146,16.547,5.854,18.839,3.038,18.839z
		 M26.388,47.068h0.008c0,0,0.381,0.837,0.854,0.829c0.501-0.008,0.797-0.829,0.797-0.829s1.188,0.179,1.204,1.643h-0.695v1.537
		h-1.306h-0.064h-1.306v-1.537h-0.695C25.2,47.247,26.388,47.068,26.388,47.068z M28.07,15.249c0.472,0,0.854,0.516,0.854,1.152
		c0,0.637-0.383,1.153-0.854,1.153c-0.471,0-0.854-0.517-0.854-1.153C27.217,15.765,27.6,15.249,28.07,15.249z M17.137,17.302
		c0.472,0,0.855,0.516,0.855,1.152c0,0.637-0.383,1.153-0.855,1.153c-0.471,0-0.853-0.517-0.853-1.153
		C16.283,17.817,16.666,17.302,17.137,17.302z M16.275,19.538h0.008c0,0,0.381,0.837,0.853,0.829
		c0.501-0.008,0.797-0.829,0.797-0.829s1.188,0.179,1.204,1.643h-0.695v1.537h-1.306h-0.064h-1.306v-1.537h-0.695
		C15.088,19.717,16.275,19.538,16.275,19.538z M17.991,42.726c0,0.637-0.383,1.153-0.855,1.153c-0.471,0-0.853-0.517-0.853-1.153
		s0.383-1.152,0.853-1.152C17.608,41.573,17.991,42.089,17.991,42.726z M16.275,43.81h0.008c0,0,0.381,0.837,0.853,0.829
		c0.501-0.008,0.797-0.829,0.797-0.829s1.188,0.179,1.204,1.643h-0.695v1.537h-1.306h-0.064h-1.306v-1.537h-0.695
		C15.088,43.988,16.275,43.81,16.275,43.81z"/>
	<path d="M12.403,41.684V24.876c0-0.684-0.557-1.24-1.242-1.24H3.038v19.289h8.123C11.847,42.925,12.403,42.368,12.403,41.684z
		 M7.753,30.292c0.472,0,0.854,0.516,0.854,1.152c0,0.637-0.383,1.153-0.854,1.153c-0.471,0-0.854-0.517-0.854-1.153
		C6.899,30.808,7.282,30.292,7.753,30.292z M9.059,34.171v1.537H7.753H7.688H6.383v-1.537H5.688
		c0.017-1.464,1.204-1.643,1.204-1.643h0.008c0,0,0.381,0.837,0.854,0.829c0.501-0.008,0.797-0.829,0.797-0.829
		s1.188,0.179,1.204,1.643H9.059z"/>
</g>
</svg>
