<?xml version="1.0" encoding="iso-8859-1"?>
<!-- Generator: Adobe Illustrator 17.0.0, SVG Export Plug-In . SVG Version: 6.00 Build 0)  -->
<!DOCTYPE svg PUBLIC "-//W3C//DTD SVG 1.1//EN" "http://www.w3.org/Graphics/SVG/1.1/DTD/svg11.dtd">
<svg version="1.1" id="Capa_1" xmlns="http://www.w3.org/2000/svg" xmlns:xlink="http://www.w3.org/1999/xlink" x="0px" y="0px"
	 width="64px" height="64px" viewBox="0 0 64 64" style="enable-background:new 0 0 64 64;" xml:space="preserve">
<g>
	<ellipse cx="34.065" cy="13.635" rx="7.103" ry="9.112"/>
	<path d="M13.921,39.677c9.56,0,8.219-3.394,13.31-2.948c1.094,0.096,1.948,0.122,2.616,0.103c1.445-0.04,2.954-1.123,3.752-1.379
		c0.432-0.138,0.941-0.243,1.493-0.243c1.607,0,3.662,0.804,4.734,0.804c0.312,0,0.534-0.061,0.692-0.147
		c0.346-0.19-0.199-0.848-0.915-1.192c-0.716-0.345-2.195-0.886-3.306-1.206c-1.11-0.321-2.93-0.601-4.064-0.626
		c-1.136-0.024-2.295,0.096-2.591,0.268c-0.297,0.172-1.196,0.213-2.01,0.09l-1.474-0.224l-4.824-0.625l-2.858-0.983
		c0,0-6.343-1.965-10.63-0.893c-2.86,1.318-3.352,1.921-3.573,3.306C3.974,35.652,4.363,39.677,13.921,39.677z"/>
	<path d="M46.461,43.248l3.039,3.399l5.443-0.028l1.768-0.267c0,0-2.881-7.504-3.283-12.193c-0.401-4.69-4.894-7.191-4.894-7.191
		c-0.923-0.858-3.001-1.863-4.953-2.742v20.775l2.881,0.572V43.248z"/>
	<path d="M46.461,58.992v-3.107c-0.848-0.655-1.813-1.412-2.881-2.258v5.366H46.461z"/>
	<path d="M21.3,31.268l3.253,0.439v-7.831c-4.209,1.357-10.994,3.643-13.95,5.177c3.844,0.013,7.74,1.206,7.905,1.257L21.3,31.268z"
		/>
	<path d="M20.282,58.992h4.271V37.804c-0.544,0.168-1.017,0.419-1.566,0.721c-0.689,0.379-1.452,0.795-2.507,1.154L20.282,58.992z"
		/>
	<path d="M29.377,32.139c0.482-0.193,1.318-0.265,1.964-0.289V26.3l-1.964-2.171V32.139z"/>
	<path d="M29.377,37.836v21.156h1.964V37.54c-0.47,0.156-0.961,0.278-1.466,0.292C29.719,37.836,29.55,37.837,29.377,37.836z"/>
	<path d="M36.165,32.355c0.21,0.049,0.412,0.1,0.595,0.153c0.622,0.18,1.341,0.421,1.996,0.664V23.02l-2.591,3.476V32.355z"/>
	<path d="M36.165,49.22v9.772h2.591v-9.253c-0.248-0.201-0.489-0.396-0.745-0.604C37.525,49.26,36.83,49.367,36.165,49.22z"/>
	<path d="M38.756,36.837c-0.282-0.055-0.573-0.116-0.889-0.191c-0.148-0.035-0.303-0.069-0.455-0.104l0.222,1.588l1.122,3.136
		V36.837z"/>
	<path d="M36.389,36.984c-0.063-0.454-0.196-0.727-0.353-0.885c-0.376-0.381-1.142,0.288-1.176,0.827
		c-0.017,0.262-0.001,0.584,0.077,0.973c0.268,1.34,1.227,4.623,1.227,5.226c0,0.603-0.893,2.345-0.76,4.422
		c0.135,2.077,2.815,1.005,2.815,1.005s12.26,9.982,13.197,10.184c0.938,0.201,4.221-2.747,4.354-4.355
		c0.134-1.608-0.838-7.235-0.838-7.235l-0.181,0.027l-4.426,0.006l-0.004,0.705l-10.586-2.1l-1.787-3.26l-1.295-3.618L36.389,36.984
		z"/>
</g>
</svg>
