<?xml version="1.0" encoding="iso-8859-1"?>
<!-- Generator: Adobe Illustrator 16.0.4, SVG Export Plug-In . SVG Version: 6.00 Build 0)  -->
<!DOCTYPE svg PUBLIC "-//W3C//DTD SVG 1.1//EN" "http://www.w3.org/Graphics/SVG/1.1/DTD/svg11.dtd">
<svg version="1.1" id="Capa_1" xmlns="http://www.w3.org/2000/svg" xmlns:xlink="http://www.w3.org/1999/xlink" x="0px" y="0px"
	 width="64px" height="64px" viewBox="0 0 64 64" style="enable-background:new 0 0 64 64;" xml:space="preserve">
<g>
	<path d="M56,9h-4h-2.5h-11H35h-4h-3v3.222v39.555V55h3h4h3.5h11H52h4h3v-3.223V12.222V9H56z M49,12v5H38v-5H49z M31,12h4v4.5V20
		h3.5h11H52v-3.5V12h4v18h-6.166c-0.689-3.141-3.49-5.5-6.834-5.5s-6.145,2.359-6.834,5.5H31V12z M39.298,30
		c0.595-1.463,2.027-2.5,3.702-2.5s3.107,1.037,3.702,2.5H39.298z M46.702,33c-0.595,1.464-2.027,2.5-3.702,2.5
		s-3.107-1.036-3.702-2.5H46.702z M38,52v-5h11v5H38z M56,52h-4v-0.5v-5V44h-2.5h-11H35v2.5v5V52h-4V33h5.166
		c0.689,3.141,3.49,5.5,6.834,5.5s6.145-2.359,6.834-5.5H56V52z"/>
	<circle cx="8.405" cy="11.5" r="3"/>
	<rect x="13" y="10" width="8" height="3"/>
	<circle cx="8.405" cy="19.5" r="3"/>
	<rect x="13" y="18" width="8" height="3"/>
	<circle cx="8.405" cy="27.5" r="3"/>
	<rect x="13" y="26" width="8" height="3"/>
	<circle cx="8.405" cy="35.5" r="3"/>
	<rect x="13" y="34" width="8" height="3"/>
	<circle cx="8.405" cy="43.5" r="3"/>
	<rect x="13" y="42" width="8" height="3"/>
	<circle cx="8.405" cy="51.5" r="3"/>
	<rect x="13" y="50" width="8" height="3"/>
</g>
</svg>
