<?xml version="1.0" encoding="iso-8859-1"?>
<!-- Generator: Adobe Illustrator 17.0.0, SVG Export Plug-In . SVG Version: 6.00 Build 0)  -->
<!DOCTYPE svg PUBLIC "-//W3C//DTD SVG 1.1//EN" "http://www.w3.org/Graphics/SVG/1.1/DTD/svg11.dtd">
<svg version="1.1" id="Capa_1" xmlns="http://www.w3.org/2000/svg" xmlns:xlink="http://www.w3.org/1999/xlink" x="0px" y="0px"
	 width="64px" height="64px" viewBox="0 0 64 64" style="enable-background:new 0 0 64 64;" xml:space="preserve">
<g>
	<path d="M47.633,38.036c-1.298,0-2.547,0.211-3.72,0.591L59.044,5.673c0.49-1.066-0.039-1.711-1.181-1.441L44.217,7.464
		l0.635-4.694H17.62l0.699,4.593L5.099,4.232c-1.141-0.27-1.665,0.372-1.17,1.436l20.988,45.038l0.791,5.197h-8.517
		c-1.173,0-2.124,0.951-2.124,2.124v0.36c0,1.173,0.951,2.124,2.124,2.124h24.222c1.82,1.096,3.944,1.739,6.219,1.739
		c6.676,0,12.107-5.431,12.107-12.107C59.74,43.467,54.309,38.036,47.633,38.036z M9.2,9.771l9.841,2.331l0.067,0.016l1.651,11.27
		L22.88,37.87L9.2,9.771z M44.094,12.118l9.908-2.347L40.322,37.87L44.094,12.118z M47.633,59.25c-0.056,0-0.11-0.007-0.166-0.008
		c-2.776-0.05-5.249-1.337-6.886-3.339c-1.245-1.522-2-3.456-2.045-5.565c-0.001-0.065-0.01-0.129-0.01-0.194
		c0-2.837,1.298-5.37,3.332-7.041c1.572-1.291,3.583-2.066,5.775-2.066c5.03,0,9.107,4.077,9.107,9.107
		C56.74,55.173,52.663,59.25,47.633,59.25z"/>
	<path d="M51.705,45.87l-6.1,6.1l-2.045-2.045c-0.552-0.552-1.446-0.552-1.997,0c-0.552,0.551-0.552,1.446,0,1.997l3.015,3.015
		c0.009,0.01,0.016,0.022,0.026,0.031c0.277,0.277,0.639,0.414,1.001,0.413c0.362,0.001,0.725-0.137,1.001-0.413
		c0.01-0.01,0.016-0.021,0.026-0.031l7.07-7.07c0.552-0.552,0.552-1.446,0-1.997C53.151,45.318,52.257,45.318,51.705,45.87z"/>
</g>
</svg>
