<?xml version="1.0" encoding="iso-8859-1"?>
<!-- Generator: Adobe Illustrator 17.0.0, SVG Export Plug-In . SVG Version: 6.00 Build 0)  -->
<!DOCTYPE svg PUBLIC "-//W3C//DTD SVG 1.1//EN" "http://www.w3.org/Graphics/SVG/1.1/DTD/svg11.dtd">
<svg version="1.1" id="Capa_1" xmlns="http://www.w3.org/2000/svg" xmlns:xlink="http://www.w3.org/1999/xlink" x="0px" y="0px"
	 width="64px" height="64px" viewBox="0 0 64 64" style="enable-background:new 0 0 64 64;" xml:space="preserve">
<g>
	<path d="M15.661,13.271c0.033,0.74,0.076,1.524,0.134,2.349c1.711,0.415,5.481,0.834,11.874-0.848
		c-0.067-0.777-0.155-1.527-0.268-2.24c-3.329,0.818-5.992,1.096-8.043,1.096C17.767,13.628,16.56,13.465,15.661,13.271z"/>
	<path d="M23.577,7.295h-5.978c-1.105,0-2.029,0.895-2.029,1.999c0,0.543,0.007,1.192,0.022,1.908
		c1.554,0.412,5.181,0.904,11.407-0.635c-0.141-0.539-0.301-1.046-0.484-1.513C26.113,8.026,24.682,7.295,23.577,7.295z"/>
	<path d="M27.794,16.801c-3.512,0.895-6.306,1.196-8.436,1.196c-1.406,0-2.526-0.127-3.388-0.29c0.272,2.851,0.722,5.97,1.463,8.936
		c2.24,8.961,3.259,11.605,0,17.309c-3.259,5.704-11.2,8.554-10.182,10.997c1.018,2.444,8.436,2.239,12.262,0
		c3.826-2.238,3.774-7.229,6.676-7.534c2.902-0.305-0.458-5.956,0-9.622C26.497,35.322,28.12,25.068,27.794,16.801z"/>
	<path d="M38.528,14.772c6.392,1.682,10.163,1.263,11.874,0.848c0.058-0.824,0.101-1.608,0.134-2.349
		c-0.898,0.193-2.106,0.356-3.696,0.356c-2.051,0-4.714-0.277-8.043-1.096C38.683,13.245,38.595,13.995,38.528,14.772z"/>
	<path d="M50.626,9.294c0-1.104-0.924-1.999-2.029-1.999h-5.978c-1.104,0-2.536,0.732-2.938,1.76
		c-0.183,0.467-0.343,0.974-0.484,1.513c6.225,1.538,9.853,1.048,11.407,0.635C50.619,10.485,50.626,9.837,50.626,9.294z"/>
	<path d="M48.764,43.951c-3.259-5.703-2.24-8.348,0-17.309c0.741-2.966,1.191-6.085,1.463-8.936c-0.862,0.163-1.982,0.29-3.388,0.29
		c-2.13,0-4.924-0.301-8.437-1.195c-0.326,8.267,1.297,18.521,1.606,20.99c0.458,3.666-2.902,9.317,0,9.622
		c2.902,0.306,2.851,5.296,6.676,7.534c3.826,2.239,11.244,2.444,12.262,0C59.964,52.505,52.023,49.655,48.764,43.951z"/>
</g>
</svg>
