<?xml version="1.0" encoding="iso-8859-1"?>
<!-- Generator: Adobe Illustrator 17.0.0, SVG Export Plug-In . SVG Version: 6.00 Build 0)  -->
<!DOCTYPE svg PUBLIC "-//W3C//DTD SVG 1.1//EN" "http://www.w3.org/Graphics/SVG/1.1/DTD/svg11.dtd">
<svg version="1.1" id="Capa_1" xmlns="http://www.w3.org/2000/svg" xmlns:xlink="http://www.w3.org/1999/xlink" x="0px" y="0px"
	 width="64px" height="64px" viewBox="0 0 64 64" style="enable-background:new 0 0 64 64;" xml:space="preserve">
<g>
	<circle cx="49.554" cy="24.146" r="2.894"/>
	<path d="M33.713,48.555c0.772-0.812,0.762-2.073,0.008-2.882l-3.78,1.08l-0.911,0.29c0.563,0.511,1.163,1.067,1.707,1.585
		c0.408,0.388,0.93,0.58,1.451,0.58C32.744,49.209,33.299,48.989,33.713,48.555z"/>
	<path d="M42.555,42.366l0.092,0.067l0.322-0.369l0.299-0.343l0.697-0.799l0.38-0.436l6.481-7.43l2.18,5.068
		c0.058,0.134,0.133,0.259,0.225,0.372l5.131,6.315c0.312,0.384,0.767,0.583,1.226,0.583c0.35,0,0.702-0.116,0.995-0.354
		c0.677-0.55,0.78-1.544,0.23-2.221l-4.993-6.145l-2.347-5.456c-0.112-0.26-0.299-0.454-0.511-0.611l0.013-0.015l-0.222-0.142
		l-7.901-5.049l-0.31-0.198l-0.317-0.202l-0.055,0.075c-0.099-0.02-0.202-0.031-0.307-0.031h-6.71l-5.529-2.671
		c-0.016-0.008-0.034-0.011-0.05-0.018c0.218-0.941,0.404-2.111,0.19-2.798c-0.204-0.652-0.435-1.391-7.139-4.013
		c-0.106-0.041-0.213-0.069-0.321-0.087l0.004-0.022h-9.389c0.001,0.003,0.001,0.005,0.002,0.008
		c-0.163-0.005-0.329,0.009-0.495,0.059c-0.508,0.153-2.336,0.975-4.512,5.136c-2.011,3.845-2.964,5.628-2.974,5.646
		c-0.409,0.766-0.12,1.718,0.645,2.127c0.236,0.126,0.49,0.186,0.74,0.186c0.561,0,1.104-0.301,1.387-0.831
		c0.009-0.018,0.968-1.811,2.987-5.671c1.23-2.351,2.183-3.219,2.562-3.499c-0.071,3.245-1.356,6.049-2.181,7.518L5.764,36.298
		c-0.094,0.13-0.172,0.271-0.235,0.419L2.093,44.89c-0.458,1.088,0.054,2.341,1.142,2.799c0.271,0.114,0.551,0.168,0.828,0.168
		c0.835,0,1.628-0.492,1.971-1.31l3.343-7.951l7.511-10.453l0.709,0.147l-0.958,6.557l-3.316,1.271
		c-1.102,0.422-1.654,1.659-1.231,2.761c0.326,0.851,1.137,1.373,1.997,1.373c0.254,0,0.513-0.046,0.764-0.142l4.485-1.719
		c0.722-0.277,1.239-0.922,1.35-1.687l1.341-9.179c0.007-0.051,0.003-0.1,0.007-0.15l1.677-8.811
		c1.888,0.746,4.036,1.687,4.972,2.209c-0.174,1.219-0.924,3.851-1.879,4.806c-0.614,0.614-0.614,1.609,0,2.223
		c0.307,0.307,0.709,0.46,1.111,0.46s0.805-0.154,1.111-0.46c0.649-0.649,1.158-1.533,1.554-2.426l5.524,2.669
		c0.214,0.103,0.449,0.157,0.687,0.157h5.067l-6.463,8.745c-3.172,1.731-7.019,3.823-8.142,4.417
		c-0.223,0.078-0.443,0.202-0.671,0.373c-0.12,0.09-0.225,0.192-0.32,0.301l2.015-0.642l0.071-0.021l6.12-1.749
		c-0.003,0.039-0.022,0.069-0.022,0.111c0,0.083,0.01,0.168,0.028,0.252c0.025,0.113,0.069,0.222,0.123,0.329l-6.057,1.73
		c-0.021,0.006-0.041,0.012-0.061,0.018l-2.671,0.851l-3.793,1.208c0.044-0.131,0.084-0.263,0.108-0.402
		c0.022-0.124,0.034-0.25,0.038-0.379c0.001-0.032,0.009-0.061,0.009-0.093c0-1.513-1.227-2.739-2.739-2.739
		c-1.513,0-2.74,1.227-2.74,2.739c0,0.624,0.217,1.193,0.569,1.654c0.076,0.1,0.152,0.201,0.241,0.29
		c0.099,0.098,0.209,0.183,0.322,0.266l-1.12,0.357c-1.108,0.353-1.72,1.537-1.367,2.645c0.285,0.895,1.113,1.467,2.005,1.467
		c0.211,0,0.427-0.032,0.639-0.1l10.442-3.325l1.302-0.415l3.418-0.977l8.985-2.567C42.281,42.5,42.422,42.438,42.555,42.366z"/>
	<circle cx="19.433" cy="12.215" r="2.633"/>
</g>
</svg>
