<?xml version="1.0" encoding="iso-8859-1"?>
<!-- Generator: Adobe Illustrator 17.0.0, SVG Export Plug-In . SVG Version: 6.00 Build 0)  -->
<!DOCTYPE svg PUBLIC "-//W3C//DTD SVG 1.1//EN" "http://www.w3.org/Graphics/SVG/1.1/DTD/svg11.dtd">
<svg version="1.1" id="Capa_1" xmlns="http://www.w3.org/2000/svg" xmlns:xlink="http://www.w3.org/1999/xlink" x="0px" y="0px"
	 width="64px" height="64px" viewBox="0 0 64 64" style="enable-background:new 0 0 64 64;" xml:space="preserve">
<g>
	<circle cx="35.337" cy="5.411" r="4.411"/>
	<path d="M12.643,36.697c-1.411-0.903-3.286-0.492-4.189,0.919c-0.903,1.41-0.492,3.286,0.919,4.189l8.719,5.583
		c1.323,0.847,3.073,0.544,4.034-0.699l10.664-13.787l8.283,10.689l1.213,14.725c0.13,1.585,1.457,2.784,3.019,2.784
		c0.083,0,0.168-0.004,0.252-0.01c1.669-0.138,2.911-1.602,2.773-3.271l-1.286-15.622c-0.048-0.586-0.265-1.144-0.625-1.609
		l-6.757-10.224l0.546-13.878c0,0,0.154-0.799,0.183-1.782c0.858-1.006,1.988-2.412,3.497-4.392
		c2.261-2.966,4.341-5.868,4.362-5.897c0.665-0.929,0.451-2.22-0.477-2.885c-0.928-0.665-2.22-0.451-2.885,0.477
		c-2.262,3.16-4.895,6.656-6.812,9.016c-2.435-0.284-5.868-0.291-7.884,0.087c-0.718,0.135-1.17,0.445-1.457,0.802
		c-0.069,0.072-0.136,0.147-0.195,0.231c-3.591,5.016-8.117,10.882-9.23,11.7c-0.967,0.524-1.359,1.722-0.872,2.722
		c0.358,0.736,1.094,1.164,1.861,1.164c0.304,0,0.612-0.067,0.903-0.209c0.562-0.274,1.504-0.732,6.339-7.072
		c0.174-0.228,0.346-0.455,0.517-0.681l-0.254,7.655l0.047,0.012l-8.824,13.352L12.643,36.697z"/>
	<circle cx="32.649" cy="57.308" r="4.756"/>
</g>
</svg>
