<?xml version="1.0" encoding="iso-8859-1"?>
<!-- Generator: Adobe Illustrator 17.0.0, SVG Export Plug-In . SVG Version: 6.00 Build 0)  -->
<!DOCTYPE svg PUBLIC "-//W3C//DTD SVG 1.1//EN" "http://www.w3.org/Graphics/SVG/1.1/DTD/svg11.dtd">
<svg version="1.1" id="Capa_1" xmlns="http://www.w3.org/2000/svg" xmlns:xlink="http://www.w3.org/1999/xlink" x="0px" y="0px"
	 width="64px" height="64px" viewBox="0 0 64 64" style="enable-background:new 0 0 64 64;" xml:space="preserve">
<g>
	<polygon points="23.802,11.318 40.272,11.318 43.235,3.146 20.839,3.146 	"/>
	<path d="M11.571,11.318l10.503,24.283c2.259-1.926,5.074-3.212,8.171-3.583l-7.506-20.701l-2.963-8.172L11.571,11.318z"/>
	<path d="M44.299,3.146l-2.963,8.172l-7.501,20.685c3.101,0.35,5.925,1.618,8.196,3.528l10.472-24.213L44.299,3.146z"/>
	<path d="M32.091,61.835c7.991,0,14.468-6.478,14.468-14.468c0-3.958-1.592-7.541-4.167-10.153
		c-0.124-0.126-0.257-0.243-0.386-0.365c-0.128-0.121-0.259-0.24-0.391-0.356c-2.218-1.944-5.026-3.228-8.13-3.524
		c-0.172-0.016-0.349-0.016-0.522-0.026c-0.174-0.01-0.347-0.022-0.522-0.026c-0.117-0.003-0.231-0.018-0.349-0.018
		c-0.154,0-0.303,0.018-0.456,0.023c-0.175,0.005-0.349,0.015-0.523,0.026c-0.173,0.012-0.35,0.011-0.521,0.028
		c-3.099,0.319-5.897,1.627-8.102,3.588c-0.132,0.117-0.264,0.234-0.391,0.356c-0.129,0.124-0.258,0.247-0.382,0.375
		c-2.53,2.605-4.094,6.154-4.094,10.072C17.623,55.357,24.101,61.835,32.091,61.835z"/>
</g>
</svg>
