<?xml version="1.0" encoding="iso-8859-1"?>
<!-- Generator: Adobe Illustrator 17.0.0, SVG Export Plug-In . SVG Version: 6.00 Build 0)  -->
<!DOCTYPE svg PUBLIC "-//W3C//DTD SVG 1.1//EN" "http://www.w3.org/Graphics/SVG/1.1/DTD/svg11.dtd">
<svg version="1.1" id="Capa_1" xmlns="http://www.w3.org/2000/svg" xmlns:xlink="http://www.w3.org/1999/xlink" x="0px" y="0px"
	 width="64px" height="64px" viewBox="0 0 64 64" style="enable-background:new 0 0 64 64;" xml:space="preserve">
<g>
	<path d="M39.318,28.413c0.284-0.413,0.561-0.827,0.838-1.229c0.088-0.128,0.606-0.186,0.479-0.002
		c-0.391,0.565-0.782,1.15-1.192,1.723c0.511,1.506,1.69,2.598,3.094,2.757v-5.205c-0.175,0.12-0.404,0.186-0.591,0.226
		c-0.361,0.078-0.121-0.168,0.09-0.214c0.525-0.114,0.038-0.768-0.176-0.929c-0.126-0.095-0.325-0.246-0.494-0.227
		c0.135-0.015-0.001,0.121-0.017,0.206c-0.029,0.154-0.024,0.302-0.01,0.457c0.013,0.155-0.509,0.254-0.519,0.14
		c-0.037-0.43,0.023-0.803,0.46-0.969c0.318-0.121,0.677-0.058,0.955,0.131c0.097,0.067,0.205,0.161,0.302,0.266v-2.728
		c-1.883,0.212-3.366,2.103-3.366,4.424C39.171,27.648,39.232,28.037,39.318,28.413z"/>
	<path d="M41.171,20.242c0.414-0.486,0.052-0.941-0.471-1.092c-0.02-0.006-0.029-0.014-0.043-0.021
		C40.661,19.492,40.735,20.753,41.171,20.242z"/>
	<path d="M32.11,37.027c0.017-0.101,0.009-0.207-0.031-0.302c-0.073-0.172-0.181-0.26-0.3-0.306l-0.001,0.591
		c0.005,0.002,0.013,0.001,0.018,0.003C31.974,37.096,32.079,37.207,32.11,37.027z"/>
	<path d="M31.816,16.352c0.579,0.199,0.804,0.853,0.717,1.469c-0.031,0.222-0.56,0.298-0.524,0.045
		c0.044-0.311,0.016-0.718-0.194-0.974l-0.01,5.362c2.619,0.164,4.706,2.325,4.706,4.984c0,2.666-2.097,4.832-4.724,4.986
		l-0.007,3.878c0.381-0.036,0.73,0.086,0.836,0.541c0.133,0.574-0.373,0.752-0.838,0.705l-0.007,3.722h17.405V13.406H31.821
		L31.816,16.352z M35.338,33.718c-0.215-0.187-0.428-0.376-0.642-0.563c-0.04,0.098-0.075,0.199-0.116,0.297
		c-0.068,0.163-0.582,0.224-0.517,0.069c0.093-0.221,0.174-0.446,0.262-0.669c-0.213-0.174-0.425-0.35-0.657-0.501
		c-0.255-0.166,0.19-0.447,0.396-0.312c0.158,0.103,0.298,0.226,0.446,0.34c0.077-0.202,0.161-0.402,0.237-0.605
		c0.062-0.165,0.578-0.23,0.517-0.069c-0.12,0.322-0.251,0.641-0.376,0.961c0.286,0.242,0.564,0.493,0.847,0.739
		C35.968,33.608,35.526,33.881,35.338,33.718z M42.537,18.719h6.616v0.55h-6.066v15.939h6.066v0.55h-6.616v-3.545
		c-1.531-0.148-2.823-1.25-3.469-2.794c-0.866,1.147-1.847,2.194-3.147,2.841c-0.156,0.078-0.626,0.024-0.315-0.131
		c1.387-0.691,2.397-1.872,3.297-3.127c-0.178-0.549-0.281-1.141-0.281-1.764c0-2.627,1.73-4.765,3.916-4.975V18.719z
		 M47.813,22.238c0.064,0.026,0.132,0.047,0.199,0.065c-0.025-0.157-0.176-0.314-0.265-0.417c-0.106-0.123,0.386-0.304,0.485-0.189
		c0.205,0.237,0.486,0.569,0.125,0.787c-0.263,0.158-0.642,0.112-0.911,0c-0.186-0.078-0.582-0.26-0.524-0.524
		c0.078-0.359,0.672-0.455,0.959-0.513c0.359-0.073,0.137,0.191-0.084,0.236C47.293,21.785,47.427,22.077,47.813,22.238z
		 M40.621,18.969c0.073-0.099,0.26-0.189,0.382-0.154c0.411,0.118,0.855,0.368,0.875,0.847c0.014,0.333-0.17,0.677-0.443,0.868
		c-0.281,0.195-0.662,0.285-0.956,0.066c-0.426-0.315-0.372-1.061-0.345-1.516C40.145,18.887,40.53,18.815,40.621,18.969z
		 M34.565,17.052c1.972-0.037,3.85,0.457,5.62,1.31c0.063,0.03-0.35,0.245-0.488,0.178c-1.726-0.832-3.542-1.309-5.467-1.273
		C33.976,17.272,34.456,17.055,34.565,17.052z M33.29,16.255c0.054,0.142,0.135,0.258,0.21,0.38
		c0.154-0.154,0.656-0.089,0.429,0.138c-0.063,0.063-0.12,0.129-0.179,0.193c0.109,0.116,0.216,0.234,0.359,0.328
		c0.104,0.068-0.351,0.276-0.485,0.188c-0.065-0.042-0.104-0.102-0.162-0.149c-0.036,0.052-0.077,0.099-0.109,0.156
		c-0.105,0.188-0.631,0.198-0.492-0.049c0.082-0.146,0.176-0.278,0.277-0.404c-0.152-0.188-0.275-0.399-0.366-0.641
		C32.722,16.264,33.233,16.105,33.29,16.255z"/>
	<path d="M35.961,27.238c0-2.357-1.84-4.273-4.157-4.435l-0.016,8.871C34.112,31.521,35.961,29.601,35.961,27.238z"/>
	<path d="M27.03,27.238c0,2.375,1.868,4.304,4.208,4.44l0.016-8.882C28.906,22.925,27.03,24.858,27.03,27.238z"/>
	<path d="M20.228,22.815v8.848c1.883-0.213,3.367-2.103,3.367-4.424S22.111,23.027,20.228,22.815z"/>
	<path d="M31.265,17.048l0.001-0.343C31.201,16.773,31.217,16.911,31.265,17.048z"/>
	<path d="M13.815,18.719h6.413v1.512c0.136-0.089,0.632-0.092,0.404,0.079c-0.173,0.13-0.3,0.288-0.404,0.461v0.463
		c0.183,0.154,0.358,0.32,0.51,0.518c0.167,0.217-0.324,0.425-0.474,0.231c-0.011-0.015-0.025-0.026-0.037-0.04v0.321
		c2.186,0.21,3.916,2.348,3.916,4.975c0,2.626-1.73,4.764-3.916,4.975v2.698c1.189,0.319,2.287,0.879,3.479,1.181
		c2.019,0.512,4.085,0.724,6.163,0.604c0.346-0.02-0.042,0.253-0.21,0.262c-1.671,0.097-3.341-0.003-4.986-0.324
		c-1.54-0.301-2.95-0.961-4.446-1.381v0.505h-6.413v5.312h17.406l0.008-4.542c-0.015,0.01-0.03,0.013-0.045,0.024
		c-0.115,0.085-0.636,0.11-0.409-0.059c0.119-0.088,0.279-0.177,0.454-0.249l0.007-4.017c-1.197-0.062-2.272-0.557-3.104-1.312
		c0.137,0.239,0.211,0.52-0.049,0.706c-0.299,0.215-0.714,0.271-1.072,0.199c-0.281-0.057-0.741-0.194-0.812-0.527
		c-0.09-0.42,0.375-0.715,0.676-0.901c0.145-0.09,0.608-0.068,0.311,0.115c-0.52,0.322-0.66,0.836,0.025,1.031
		c0.647,0.185,0.591-0.27,0.261-0.69c-0.079-0.101,0.166-0.22,0.341-0.229c-0.824-0.889-1.334-2.072-1.334-3.38
		c0-2.683,2.124-4.863,4.775-4.991l0.009-4.726c-0.126,0.07-0.306,0.084-0.37-0.022c-0.309-0.511-0.199-1.094,0.372-1.193l0.005-2.9
		H13.815V18.719z M27.065,23.809c-0.36,0.072-0.138-0.192,0.084-0.236c0.701-0.14-0.167-0.756-0.432-0.878
		c-0.125-0.057-0.255-0.111-0.389-0.143c-0.027-0.006-0.055-0.009-0.083-0.014c-0.045,0.257,0.214,0.575,0.346,0.753
		c0.101,0.137-0.398,0.306-0.485,0.188c-0.192-0.26-0.656-0.849-0.193-1.088c0.371-0.191,0.802-0.115,1.167,0.053
		c0.28,0.127,0.833,0.393,0.861,0.758C27.974,23.623,27.369,23.748,27.065,23.809z M29.866,16.969
		c0.324-0.073,0.43,0.309,0.103,0.382c-3.161,0.705-6.275,1.911-8.913,3.812c-0.22,0.158-0.635-0.055-0.35-0.261
		C23.417,18.948,26.616,17.694,29.866,16.969z"/>
	<path d="M19.678,35.103c-0.059-0.014-0.115-0.035-0.175-0.047c-0.213-0.045-0.003-0.184,0.175-0.237V22.383
		c-0.087,0.153-0.55,0.215-0.499,0.051c0.118-0.377,0.201-0.774,0.331-1.145c-0.207-0.145-0.425-0.278-0.65-0.407
		c-0.257-0.147,0.193-0.423,0.397-0.306c0.144,0.082,0.285,0.166,0.421,0.253v-1.56h-5.863v15.939h5.863V35.103z M15.458,26.949
		c-0.02-0.122,0.502-0.236,0.519-0.139c0.089,0.542,0.523,0.806,0.849,0.246c0.278-0.478-0.09-0.703-0.498-0.79
		c-0.017,0.037-0.037,0.073-0.052,0.111c-0.053,0.128-0.542,0.172-0.51,0.094c0.111-0.269,0.202-0.419,0.52-0.45
		c0.267-0.026,0.628,0.025,0.864,0.16c0.369,0.212,0.354,0.569,0.112,0.883C16.787,27.679,15.618,27.92,15.458,26.949z
		 M18.89,33.466c-0.167,0.194-0.342,0.379-0.513,0.568c0.19,0.132,0.355,0.295,0.485,0.522c0.076,0.132-0.421,0.308-0.518,0.139
		c-0.07-0.122-0.155-0.219-0.246-0.311c-0.108,0.133-0.223,0.26-0.314,0.408c-0.1,0.164-0.625,0.195-0.487-0.029
		c0.134-0.218,0.297-0.411,0.462-0.603c-0.053-0.024-0.09-0.063-0.15-0.081c-0.289-0.083,0.162-0.319,0.319-0.272
		c0.036,0.01,0.057,0.034,0.091,0.046c0.151-0.165,0.303-0.328,0.449-0.498C18.596,33.205,19.097,33.226,18.89,33.466z"/>
	<path d="M30.062,55.117c-2.475,0.308-7.622,1.273-11.273,4.192l1.373,1.718c3.082-2.465,7.568-3.367,9.9-3.685v3.941h2.973v-4.087
		c1.242,0.099,7.318,0.727,11.199,3.831l1.373-1.718c-4.583-3.664-11.518-4.25-12.572-4.319v-7.594h23.03v-2.09h-2.767V7.65h2.767
		V5.56h-23.03V2.217h-2.973V5.56H7.029v2.09h2.298v37.657H7.029v2.09h23.033V55.117z M13.266,41.62V12.856h36.458V41.62H13.266z"/>
</g>
</svg>
