<?xml version="1.0" encoding="iso-8859-1"?>
<!-- Generator: Adobe Illustrator 17.0.0, SVG Export Plug-In . SVG Version: 6.00 Build 0)  -->
<!DOCTYPE svg PUBLIC "-//W3C//DTD SVG 1.1//EN" "http://www.w3.org/Graphics/SVG/1.1/DTD/svg11.dtd">
<svg version="1.1" id="Capa_1" xmlns="http://www.w3.org/2000/svg" xmlns:xlink="http://www.w3.org/1999/xlink" x="0px" y="0px"
	 width="64px" height="64px" viewBox="0 0 64 64" style="enable-background:new 0 0 64 64;" xml:space="preserve">
<g>
	<ellipse cx="32.13" cy="13.538" rx="6.782" ry="8.701"/>
	<path d="M10.854,47.532c9.128,0,7.849-3.241,12.711-2.815c1.044,0.092,1.859,0.117,2.497,0.099c1.38-0.038,2.821-1.073,3.584-1.317
		c0.412-0.131,0.898-0.232,1.425-0.232c1.535,0,3.497,0.768,4.521,0.768c0.298,0,0.51-0.058,0.66-0.141
		c0.33-0.181-0.19-0.809-0.874-1.138c-0.683-0.33-2.096-0.846-3.156-1.152c-1.06-0.306-2.797-0.574-3.881-0.598
		c-1.083-0.023-2.19,0.091-2.474,0.256c-0.283,0.165-1.143,0.204-1.919,0.086l-1.407-0.213l-4.606-0.597l-2.73-0.939
		c0,0-4.359-1.84-8.789-1.159C3.375,39.333,2.504,40.678,2.292,42C2.005,43.787,1.727,47.532,10.854,47.532z"/>
	<path d="M16.136,38.695l2.832-2.382v3.552l4.078,0.55V23.801c-2.388,1.162-5.457,2.809-7.25,4.366
		c-1.997,1.735-6.652,5.964-9.989,9.374C5.806,37.541,10.634,37.302,16.136,38.695z"/>
	<path d="M18.968,47.467v9.383h4.078V45.94c-1.216,0.02-1.892,0.367-2.839,0.888C19.829,47.034,19.429,47.253,18.968,47.467z"/>
	<path d="M25.875,23.558v16.867c0.675-0.173,1.701-0.2,2.183-0.2l0.306,0.003c0.343,0.008,0.744,0.039,1.164,0.085V25.632
		l-1.876-2.074H25.875z"/>
	<path d="M57.025,44.517c1.144,0,2.176,0.113,3.066,0.336l0.176,0.062c0.242,0.111,0.456,0.216,0.671,0.321l-3.666-5.02
		l-7.552,5.412C50.749,45.335,53.908,44.517,57.025,44.517z"/>
	<path d="M43.966,46.995v-5.179l4.606,3.746l8.381-6.369c0,0-9.22-11.26-11.008-12.923c-0.881-0.82-2.867-1.779-4.731-2.618v23.723
		l0.997-0.151L43.966,46.995z"/>
	<path d="M43.966,53.077c-0.668-0.266-1.385-0.388-2.541-0.287c-0.072,0.006-0.14,0.01-0.211,0.016v4.044h2.751V53.077z"/>
	<path d="M36.735,44.868c-0.625,0.345-1.501,0.271-2.601,0.039v2.426c0.849-0.143,1.732-0.244,2.406-0.259l0.31-0.003
		c0.34,0,0.953,0.014,1.535,0.088V22.5h-1.777l-2.474,3.32v15.455c0.661,0.237,1.279,0.484,1.681,0.678
		c0.695,0.335,1.518,1.018,1.54,1.836C37.367,44.245,37.135,44.647,36.735,44.868z"/>
	<path d="M38.385,52.827c-1.008-0.135-1.959-0.593-2.675-0.955c-0.305-0.154-0.592-0.3-0.758-0.353
		c-0.278-0.089-0.55-0.135-0.818-0.159v5.49h2.474h1.777V52.827z"/>
	<path d="M59.526,45.68c-4.094-1.024-10.15,0.853-10.15,0.853l-2.73,0.938l-4.606,0.598l-1.407,0.213
		c-0.777,0.117-1.637,0.079-1.919-0.086c-0.283-0.165-1.39-0.279-2.474-0.255c-1.084,0.024-2.821,0.291-3.881,0.597
		c-1.06,0.306-2.473,0.822-3.156,1.152c-0.683,0.33-1.204,0.958-0.874,1.139c0.15,0.083,0.362,0.141,0.66,0.141
		c1.024,0,2.986-0.768,4.521-0.768c0.527,0,1.013,0.1,1.425,0.232c0.763,0.244,2.204,1.279,3.584,1.316
		c0.638,0.018,1.454-0.007,2.497-0.098c4.863-0.426,3.583,2.815,12.711,2.815c9.128,0,9.5-3.843,9.213-5.63
		C62.726,47.514,62.258,46.938,59.526,45.68z"/>
	<path d="M29.1,48.976c0.123-0.059,0.271-0.124,0.428-0.191V44.86c-0.107,0.052-0.216,0.106-0.334,0.166
		c-0.817,0.413-1.936,0.979-3.103,1.011c-0.067,0.002-0.144,0.001-0.215,0.002v10.81h1.777h1.876v-4.726
		c-0.532,0.031-0.981-0.03-1.35-0.233c-0.399-0.22-0.631-0.623-0.619-1.078C27.581,49.995,28.403,49.312,29.1,48.976z"/>
</g>
</svg>
