<?xml version="1.0" encoding="iso-8859-1"?>
<!-- Generator: Adobe Illustrator 17.0.0, SVG Export Plug-In . SVG Version: 6.00 Build 0)  -->
<!DOCTYPE svg PUBLIC "-//W3C//DTD SVG 1.1//EN" "http://www.w3.org/Graphics/SVG/1.1/DTD/svg11.dtd">
<svg version="1.1" id="Capa_1" xmlns="http://www.w3.org/2000/svg" xmlns:xlink="http://www.w3.org/1999/xlink" x="0px" y="0px"
	 width="64px" height="64px" viewBox="0 0 64 64" style="enable-background:new 0 0 64 64;" xml:space="preserve">
<g>
	<path d="M40.775,21.123c2.128,0,3.857-2.274,3.857-5.069c0-2.795-1.73-5.069-3.857-5.069c-2.127,0-3.857,2.274-3.857,5.069
		C36.918,18.849,38.648,21.123,40.775,21.123z"/>
	<path d="M32.005,27.103L32,27.503h0.681c0.067,1.241,0.415,4.742,2.143,5.555v0.676h11.639v-0.678
		c1.724-0.819,2.07-4.313,2.138-5.553h0.687l-0.005-0.4c-0.069-6.2-5.165-7.039-5.217-7.048l-0.321-0.048l-0.11,0.306
		c-0.308,0.854-1.425,3.078-2.885,3.102c-1.35,0-2.678-2.261-3.075-3.132l-0.105-0.231l-0.347,0.004
		C37.17,20.064,32.074,20.903,32.005,27.103z M46.463,27.503h1.344c-0.08,1.287-0.423,3.722-1.344,4.608V27.503z M36.252,24.943
		l1.056-1.121l1.07,1.104c0,0,0.183,1.863-1.07,1.863C36.055,26.79,36.252,24.943,36.252,24.943z M34.824,32.118
		c-0.925-0.881-1.269-3.325-1.35-4.615h1.35V32.118z"/>
	<path d="M10.125,24.625l8.596-0.179l-2.083-1.537c7.253-2.276,16.238-3.154,16.332-3.163l-0.189-1.991
		c-0.397,0.038-9.469,0.927-16.95,3.316l0.306-2.593L10.125,24.625z"/>
	<polygon points="34.924,35.037 23.914,45.871 23.267,43.349 19.875,51.25 27.829,47.984 25.317,47.297 36.326,36.463 	"/>
	<polygon points="47.75,57.375 49.761,49.016 47.732,50.649 45.621,36.849 43.645,37.151 45.755,50.951 43.331,49.999 	"/>
</g>
</svg>
