<?xml version="1.0" encoding="iso-8859-1"?>
<!-- Generator: Adobe Illustrator 17.0.0, SVG Export Plug-In . SVG Version: 6.00 Build 0)  -->
<!DOCTYPE svg PUBLIC "-//W3C//DTD SVG 1.1//EN" "http://www.w3.org/Graphics/SVG/1.1/DTD/svg11.dtd">
<svg version="1.1" id="Capa_1" xmlns="http://www.w3.org/2000/svg" xmlns:xlink="http://www.w3.org/1999/xlink" x="0px" y="0px"
	 width="64px" height="64px" viewBox="0 0 64 64" style="enable-background:new 0 0 64 64;" xml:space="preserve">
<g>
	<path d="M58.958,48.573h3.108v-3.107C60.352,45.466,58.958,46.86,58.958,48.573z"/>
	<path d="M3.8,45.466v3.107h3.108C6.909,46.86,5.514,45.466,3.8,45.466z"/>
	<path d="M3.8,13.142c1.714,0,3.108-1.394,3.108-3.108H3.8V13.142z"/>
	<path d="M62.066,13.142v-3.108h-3.108C58.958,11.748,60.352,13.142,62.066,13.142z"/>
	<path d="M13.165,37.987V21.18c0-0.684-0.557-1.241-1.241-1.241H3.8v19.29h8.123C12.608,39.229,13.165,38.673,13.165,37.987z
		 M8.314,26.173c-0.284,0.319-0.526,0.675-0.748,1.042c-0.025,0.042-0.045,0.088-0.07,0.13c0.115,0.11,0.243,0.206,0.346,0.328
		c0.458,0.525,0.779,1.246,0.64,1.911c-0.041-0.678-0.48-1.195-0.981-1.545c-0.089-0.063-0.195-0.104-0.29-0.161
		c-0.283,0.54-0.546,1.092-0.764,1.648l-0.896-0.444c0.336-0.532,0.701-1.029,1.083-1.512c-0.27-0.114-0.546-0.209-0.812-0.276
		l0.354-0.935c0.336,0.179,0.617,0.371,0.899,0.588c0.013,0.01,0.023,0.024,0.037,0.035c0.018-0.021,0.034-0.043,0.052-0.064
		c0.301-0.333,0.621-0.653,0.981-0.928C8.5,25.725,8.925,25.471,9.375,25.5C8.932,25.558,8.599,25.866,8.314,26.173z"/>
	<path d="M21.601,29.304c0,5.912,4.551,10.773,10.333,11.281V18.022C26.152,18.531,21.601,23.393,21.601,29.304z M25.872,28.913
		l0.354-0.935c0.336,0.179,0.617,0.371,0.899,0.588c0.013,0.01,0.023,0.024,0.037,0.035c0.018-0.021,0.034-0.044,0.052-0.065
		c0.301-0.333,0.621-0.653,0.98-0.928c0.355-0.264,0.779-0.518,1.229-0.489c-0.443,0.058-0.776,0.366-1.061,0.673
		c-0.284,0.319-0.526,0.675-0.748,1.042c-0.025,0.042-0.045,0.088-0.07,0.13c0.115,0.11,0.243,0.206,0.346,0.328
		c0.458,0.524,0.779,1.246,0.64,1.911c-0.041-0.678-0.481-1.195-0.981-1.545c-0.089-0.063-0.195-0.105-0.29-0.161
		c-0.283,0.54-0.546,1.092-0.764,1.647L25.601,30.7c0.336-0.532,0.701-1.029,1.083-1.512C26.415,29.074,26.139,28.979,25.872,28.913
		z"/>
	<path d="M52.421,21.18v16.807c0,0.686,0.557,1.242,1.241,1.242h8.403V19.94h-8.403C52.978,19.94,52.421,20.496,52.421,21.18z
		 M56.959,28.35l0.355-0.935c0.336,0.179,0.617,0.371,0.899,0.588c0.013,0.01,0.023,0.024,0.037,0.035
		c0.018-0.021,0.034-0.044,0.052-0.065c0.301-0.333,0.621-0.653,0.98-0.928c0.355-0.264,0.779-0.518,1.23-0.489
		c-0.443,0.058-0.776,0.366-1.061,0.673c-0.284,0.319-0.526,0.675-0.748,1.042c-0.025,0.042-0.045,0.088-0.07,0.13
		c0.115,0.11,0.243,0.206,0.346,0.328c0.458,0.524,0.779,1.246,0.64,1.911c-0.041-0.678-0.48-1.195-0.981-1.545
		c-0.089-0.063-0.195-0.105-0.29-0.161c-0.283,0.54-0.546,1.092-0.764,1.647l-0.895-0.444c0.336-0.532,0.701-1.029,1.083-1.512
		C57.502,28.512,57.227,28.417,56.959,28.35z"/>
	<path d="M44.266,29.304c0-5.911-4.551-10.773-10.333-11.282v22.563C39.715,40.077,44.266,35.216,44.266,29.304z M38.039,27.229
		c-0.284,0.319-0.526,0.675-0.748,1.042c-0.025,0.042-0.045,0.088-0.07,0.13c0.115,0.11,0.243,0.206,0.346,0.328
		c0.458,0.524,0.779,1.246,0.64,1.911c-0.041-0.678-0.48-1.195-0.981-1.545c-0.089-0.063-0.195-0.105-0.29-0.161
		c-0.283,0.54-0.546,1.092-0.764,1.647l-0.895-0.444c0.336-0.532,0.701-1.029,1.083-1.512c-0.27-0.114-0.545-0.209-0.812-0.276
		l0.355-0.935c0.336,0.179,0.617,0.371,0.899,0.588c0.013,0.01,0.023,0.024,0.037,0.035c0.018-0.021,0.034-0.044,0.052-0.065
		c0.301-0.333,0.621-0.653,0.981-0.928c0.355-0.264,0.779-0.518,1.229-0.489C38.657,26.614,38.324,26.922,38.039,27.229z"/>
	<path d="M3.8,15.142v2.797h8.123c1.787,0,3.241,1.454,3.241,3.241v16.807c0,1.787-1.454,3.242-3.241,3.242H3.8v2.236
		c2.817,0,5.108,2.291,5.108,5.107h23.025v-5.988c-6.885-0.514-12.333-6.268-12.333-13.281c0-0.603,0.054-1.191,0.132-1.773
		c-0.419,0.073-0.741,0.364-1.016,0.661c-0.284,0.319-0.526,0.675-0.748,1.042c-0.025,0.042-0.045,0.088-0.07,0.13
		c0.115,0.11,0.243,0.206,0.346,0.328c0.458,0.524,0.779,1.246,0.64,1.911c-0.041-0.678-0.48-1.195-0.981-1.545
		c-0.089-0.063-0.195-0.104-0.29-0.161c-0.283,0.54-0.546,1.092-0.764,1.647L15.956,31.1c0.336-0.532,0.701-1.029,1.083-1.512
		c-0.27-0.114-0.545-0.21-0.812-0.276l0.354-0.936c0.336,0.179,0.617,0.371,0.899,0.588c0.013,0.01,0.023,0.024,0.037,0.035
		c0.018-0.021,0.034-0.043,0.052-0.064c0.301-0.333,0.621-0.653,0.98-0.928c0.343-0.255,0.752-0.496,1.186-0.485
		c0.833-6.182,5.909-11.029,12.199-11.5v-5.988H8.909C8.909,12.851,6.617,15.142,3.8,15.142z M16.226,17.103l0.354-0.935
		c0.336,0.179,0.617,0.371,0.899,0.588c0.013,0.01,0.023,0.024,0.037,0.035c0.018-0.021,0.034-0.043,0.052-0.064
		c0.301-0.333,0.621-0.653,0.98-0.928c0.355-0.264,0.779-0.518,1.23-0.489c-0.443,0.058-0.776,0.366-1.061,0.673
		c-0.284,0.319-0.526,0.675-0.748,1.042c-0.025,0.042-0.045,0.088-0.07,0.13c0.115,0.11,0.243,0.206,0.346,0.328
		c0.458,0.524,0.779,1.246,0.64,1.911c-0.041-0.678-0.48-1.195-0.981-1.545c-0.089-0.063-0.195-0.104-0.29-0.161
		c-0.283,0.54-0.546,1.092-0.764,1.647l-0.896-0.444c0.336-0.532,0.701-1.029,1.083-1.512
		C16.769,17.265,16.493,17.169,16.226,17.103z M17.039,23.483c-0.27-0.114-0.545-0.21-0.812-0.276l0.354-0.935
		c0.336,0.179,0.617,0.371,0.899,0.588c0.013,0.01,0.023,0.024,0.037,0.035c0.018-0.021,0.034-0.043,0.052-0.064
		c0.301-0.333,0.621-0.653,0.98-0.928c0.355-0.264,0.779-0.518,1.23-0.489c-0.443,0.058-0.776,0.366-1.061,0.673
		c-0.284,0.319-0.526,0.675-0.748,1.042c-0.025,0.042-0.045,0.088-0.07,0.13c0.115,0.11,0.243,0.206,0.346,0.328
		c0.458,0.524,0.779,1.246,0.64,1.911c-0.041-0.678-0.48-1.195-0.981-1.545c-0.089-0.063-0.195-0.104-0.29-0.161
		c-0.283,0.54-0.546,1.092-0.764,1.648l-0.896-0.444C16.292,24.463,16.656,23.966,17.039,23.483z M17.039,35.692
		c-0.27-0.114-0.545-0.21-0.812-0.276l0.354-0.935c0.336,0.18,0.617,0.371,0.899,0.589c0.013,0.011,0.023,0.025,0.037,0.034
		c0.018-0.02,0.034-0.043,0.052-0.064c0.301-0.333,0.621-0.652,0.98-0.928c0.355-0.264,0.779-0.517,1.23-0.488
		c-0.443,0.058-0.776,0.365-1.061,0.673c-0.284,0.319-0.526,0.675-0.748,1.042c-0.025,0.042-0.045,0.088-0.07,0.131
		c0.115,0.109,0.243,0.205,0.346,0.327c0.458,0.524,0.779,1.245,0.64,1.911c-0.041-0.678-0.48-1.195-0.981-1.545
		c-0.089-0.064-0.195-0.106-0.29-0.161c-0.283,0.54-0.546,1.092-0.764,1.647l-0.896-0.444
		C16.292,36.672,16.656,36.176,17.039,35.692z M17.039,41.797c-0.27-0.114-0.545-0.21-0.812-0.276l0.354-0.936
		c0.336,0.18,0.617,0.371,0.899,0.589c0.013,0.011,0.023,0.024,0.037,0.034c0.018-0.021,0.034-0.043,0.052-0.064
		c0.301-0.333,0.621-0.652,0.98-0.928c0.355-0.264,0.779-0.518,1.23-0.488c-0.443,0.058-0.776,0.365-1.061,0.673
		c-0.284,0.319-0.526,0.675-0.748,1.042c-0.025,0.042-0.045,0.088-0.07,0.131c0.115,0.109,0.243,0.205,0.346,0.327
		c0.458,0.524,0.779,1.245,0.64,1.911c-0.041-0.678-0.48-1.195-0.981-1.545c-0.089-0.064-0.195-0.106-0.29-0.161
		c-0.283,0.54-0.546,1.092-0.764,1.647l-0.896-0.444C16.292,42.776,16.656,42.28,17.039,41.797z"/>
	<path d="M56.958,10.034H33.934v5.988c6.885,0.515,12.333,6.268,12.333,13.282c0,0.596-0.053,1.178-0.129,1.753
		c0.324-0.505,0.669-0.982,1.035-1.444c-0.269-0.114-0.545-0.21-0.812-0.276l0.354-0.936c0.336,0.179,0.617,0.371,0.899,0.588
		c0.013,0.01,0.023,0.024,0.037,0.035c0.018-0.021,0.034-0.043,0.052-0.064c0.301-0.333,0.621-0.653,0.98-0.928
		c0.355-0.264,0.779-0.518,1.229-0.489c-0.443,0.058-0.776,0.366-1.061,0.673c-0.284,0.319-0.526,0.675-0.748,1.042
		c-0.025,0.042-0.045,0.088-0.07,0.13c0.115,0.11,0.243,0.206,0.346,0.328c0.458,0.524,0.779,1.246,0.64,1.911
		c-0.041-0.678-0.481-1.195-0.981-1.545c-0.089-0.063-0.195-0.104-0.29-0.161c-0.283,0.54-0.546,1.092-0.764,1.647l-0.859-0.426
		c-0.856,6.154-5.92,10.975-12.191,11.442v5.988h23.024c0-2.816,2.292-5.107,5.108-5.107v-2.236h-8.403
		c-1.787,0-3.241-1.455-3.241-3.242V21.18c0-1.787,1.454-3.241,3.241-3.241h8.403v-2.797C59.25,15.142,56.958,12.851,56.958,10.034z
		 M48.85,40.426c-0.284,0.318-0.526,0.674-0.748,1.041c-0.025,0.043-0.045,0.088-0.07,0.131c0.115,0.109,0.243,0.205,0.346,0.328
		c0.458,0.523,0.779,1.244,0.64,1.91c-0.041-0.678-0.481-1.195-0.981-1.545c-0.089-0.062-0.195-0.105-0.29-0.16
		c-0.283,0.539-0.546,1.092-0.764,1.646l-0.896-0.443c0.336-0.533,0.701-1.029,1.083-1.512c-0.269-0.115-0.545-0.211-0.812-0.277
		l0.354-0.935c0.336,0.18,0.617,0.371,0.899,0.59c0.013,0.01,0.023,0.023,0.037,0.033c0.018-0.019,0.034-0.043,0.052-0.064
		c0.301-0.332,0.621-0.652,0.98-0.928c0.355-0.264,0.779-0.518,1.229-0.488C49.468,39.81,49.135,40.117,48.85,40.426z M48.85,34.32
		c-0.284,0.32-0.526,0.676-0.748,1.043c-0.025,0.041-0.045,0.088-0.07,0.131c0.115,0.109,0.243,0.205,0.346,0.326
		c0.458,0.525,0.779,1.246,0.64,1.912c-0.041-0.678-0.481-1.195-0.981-1.545c-0.089-0.065-0.195-0.106-0.29-0.162
		c-0.283,0.541-0.546,1.092-0.764,1.648l-0.896-0.445c0.336-0.531,0.701-1.027,1.083-1.512c-0.269-0.113-0.545-0.209-0.812-0.275
		l0.354-0.936c0.336,0.18,0.617,0.371,0.899,0.588c0.013,0.012,0.023,0.025,0.037,0.035c0.018-0.022,0.034-0.043,0.052-0.064
		c0.301-0.334,0.621-0.652,0.98-0.928c0.355-0.264,0.779-0.518,1.229-0.488C49.468,33.705,49.135,34.014,48.85,34.32z M48.85,22.112
		c-0.284,0.319-0.526,0.675-0.748,1.042c-0.025,0.042-0.045,0.088-0.07,0.13c0.115,0.11,0.243,0.206,0.346,0.328
		c0.458,0.524,0.779,1.246,0.64,1.911c-0.041-0.678-0.481-1.195-0.981-1.545c-0.089-0.063-0.195-0.104-0.29-0.161
		c-0.283,0.54-0.546,1.092-0.764,1.647l-0.896-0.444c0.336-0.532,0.701-1.029,1.083-1.512c-0.269-0.114-0.545-0.21-0.812-0.276
		l0.354-0.935c0.336,0.179,0.617,0.371,0.899,0.588c0.013,0.01,0.023,0.024,0.037,0.035c0.018-0.021,0.034-0.043,0.052-0.064
		c0.301-0.333,0.621-0.653,0.98-0.928c0.355-0.264,0.779-0.518,1.229-0.489C49.468,21.497,49.135,21.804,48.85,22.112z
		 M48.85,16.007c-0.284,0.319-0.526,0.675-0.748,1.042c-0.025,0.042-0.045,0.088-0.07,0.13c0.115,0.11,0.243,0.206,0.346,0.328
		c0.458,0.524,0.779,1.246,0.64,1.911c-0.041-0.678-0.481-1.195-0.981-1.545c-0.089-0.063-0.195-0.104-0.29-0.161
		c-0.283,0.54-0.546,1.092-0.764,1.647l-0.896-0.444c0.336-0.532,0.701-1.029,1.083-1.512c-0.269-0.114-0.545-0.21-0.812-0.276
		l0.354-0.935c0.336,0.179,0.617,0.371,0.899,0.588c0.013,0.01,0.023,0.024,0.037,0.035c0.018-0.021,0.034-0.043,0.052-0.064
		c0.301-0.333,0.621-0.653,0.98-0.928c0.355-0.264,0.779-0.518,1.229-0.489C49.468,15.392,49.135,15.7,48.85,16.007z"/>
</g>
</svg>
