<?xml version="1.0" encoding="iso-8859-1"?>
<!-- Generator: Adobe Illustrator 17.0.0, SVG Export Plug-In . SVG Version: 6.00 Build 0)  -->
<!DOCTYPE svg PUBLIC "-//W3C//DTD SVG 1.1//EN" "http://www.w3.org/Graphics/SVG/1.1/DTD/svg11.dtd">
<svg version="1.1" id="Capa_1" xmlns="http://www.w3.org/2000/svg" xmlns:xlink="http://www.w3.org/1999/xlink" x="0px" y="0px"
	 width="64px" height="64px" viewBox="0 0 64 64" style="enable-background:new 0 0 64 64;" xml:space="preserve">
<g>
	<path d="M37.664,24.755c0.029,0.032,0.07,0.049,0.11,0.049c0.034,0,0.067-0.012,0.096-0.035c0.119-0.105,0.216-0.427,0.288-0.754
		c0.193-0.031,0.351-0.185,0.368-0.39c0.228-2.766-0.444-4.787-1.457-6.263c0.144-1.866,0.065-3.347-0.837-3.91
		c-1.493-0.934-2.999,0.109-3.544,0.565c-0.822-0.318-1.402-0.428-1.424-0.431c-0.238-0.043-0.464,0.117-0.505,0.355
		c-0.042,0.237,0.118,0.464,0.355,0.506c0.081,0.015,0.669,0.125,1.462,0.441c0.032,0.019,0.065,0.032,0.1,0.041
		c1.06,0.438,2.447,1.236,3.496,2.645c-0.047,0.548-0.109,1.115-0.17,1.665c-0.166,1.523-0.339,3.098-0.244,4.381
		c0.016,0.219,0.191,0.383,0.404,0.4c0.068,0.269,0.169,0.556,0.307,0.727c0.028,0.037,0.071,0.055,0.114,0.055
		c0.031,0,0.063-0.01,0.091-0.031c0.062-0.051,0.072-0.142,0.022-0.205c-0.107-0.134-0.19-0.377-0.252-0.62
		c0.121-0.086,0.197-0.232,0.186-0.39c-0.088-1.204,0.08-2.738,0.242-4.223c0.018-0.168,0.036-0.333,0.054-0.498
		c0.57,1.218,0.888,2.761,0.728,4.717c-0.015,0.173,0.074,0.329,0.215,0.411c-0.065,0.295-0.137,0.533-0.191,0.584
		C37.617,24.602,37.611,24.694,37.664,24.755z M33.608,14.425c0.528-0.345,1.381-0.719,2.16-0.231
		c0.402,0.251,0.505,1.092,0.478,2.15C35.403,15.459,34.453,14.846,33.608,14.425z"/>
	<path d="M8.499,52.298c0.092-0.515,0.21-1.199,0.353-2.023c1.08-6.24,3.326-19.224,5.422-23.776
		c0.218-0.472,1.307-0.877,3.215-1.555c1.182-0.418,3.381-1.198,3.472-1.591c0.111-0.526-1.68-2.458-3.404-3.946l-0.183-0.157
		l1.453-2.511c-0.971-0.357-1.763-0.708-2.383-1.016c-3.333,6.334-8.521,30.721-9.691,36.351
		C7.249,52.131,7.838,52.204,8.499,52.298z"/>
	<path d="M55.2,52.097c0.606-0.157,1.178-0.306,1.706-0.444c-1.161-5.582-6.149-29.014-9.479-35.907
		c-0.614,0.31-1.4,0.664-2.347,1.021l1.213,2.097l-0.183,0.158c-1.725,1.488-3.517,3.419-3.403,3.945
		c0.09,0.393,2.288,1.173,3.47,1.592c1.907,0.677,2.997,1.083,3.215,1.555c2.097,4.552,4.343,17.536,5.422,23.776
		C54.975,50.816,55.104,51.565,55.2,52.097z"/>
	<path d="M60.602,50.672c-1.02-2.697-5.102-19.679-6.268-24.853c-1.166-5.177-4.009-7.508-4.154-8.995
		c-0.146-1.487-1.045-2.073-1.045-2.073s-0.315,0.23-0.938,0.583c3.43,7.097,8.369,30.357,9.557,36.096
		C59.508,50.968,60.602,50.672,60.602,50.672z"/>
	<path d="M15.672,15.316c-0.61-0.343-0.915-0.565-0.915-0.565c-1.676,0.593-5.685,14.931-6.996,22.001
		C6.449,43.82,5.064,51.91,5.064,51.91s0.295,0.021,0.813,0.07C7.024,46.432,12.204,21.945,15.672,15.316z"/>
	<path d="M31.213,12.717c0.004,0,0.465,0.082,1.169,0.326c0.553-0.394,1.403-0.848,2.389-0.848c0.591,0,1.152,0.163,1.669,0.486
		c0.504,0.315,0.813,0.796,0.998,1.379c4.511-0.763,7.611-2.469,9.356-3.707c-2.631,0.44-11.191,1.812-15.126,1.763
		c-6.708-0.082-12.636-1.377-14.318-1.777c1.77,1.302,5.725,3.513,12.607,4.017c-0.097-0.209-0.135-0.447-0.093-0.69
		C29.972,13.039,30.565,12.602,31.213,12.717z"/>
	<path d="M47.665,10.431c-1.671,1.281-5.001,3.324-10.06,4.195c0.094,0.675,0.082,1.432,0.029,2.201
		c0.113,0.175,0.214,0.357,0.314,0.539c6.012-1.055,11.186-3.306,11.186-3.306L47.665,10.431z"/>
	<path d="M35.213,17.747c0.01-0.097,0.019-0.194,0.029-0.292c-0.936-1.151-2.124-1.815-2.99-2.177
		c-0.054-0.017-0.107-0.039-0.157-0.064c-0.196-0.077-0.376-0.14-0.537-0.19c-8.521-0.267-13.053-2.998-14.849-4.421l-1.49,3.506
		c0,0,8.746,3.693,16.812,3.79C33.082,17.911,34.15,17.853,35.213,17.747z"/>
	<path d="M34.946,56.722c4.321-0.604,13.559-2.896,19.688-4.479c-0.099-0.537-0.23-1.302-0.396-2.256
		c-1.075-6.215-3.312-19.148-5.377-23.632c-0.156-0.281-1.795-0.863-2.88-1.248c-2.29-0.812-3.702-1.346-3.847-2.019
		c-0.222-1.038,2.353-3.422,3.411-4.351l-1.023-1.768c-1.617,0.57-3.66,1.125-6.128,1.493c0.583,1.469,0.806,3.135,0.653,4.98
		c-0.027,0.343-0.205,0.643-0.471,0.837c-0.112,0.392-0.245,0.632-0.432,0.795c-0.159,0.139-0.363,0.216-0.575,0.216
		c-0.223,0-0.436-0.083-0.596-0.233c-0.016,0.015-0.032,0.029-0.049,0.042c-0.368,0.293-0.94,0.226-1.23-0.137
		c-0.129-0.162-0.239-0.371-0.332-0.635c-0.302-0.19-0.508-0.515-0.535-0.895c-0.1-1.35,0.076-2.959,0.247-4.516
		c0.004-0.035,0.008-0.072,0.012-0.108c-1.058,0.068-2.172,0.101-3.348,0.086c-5.664-0.071-9.844-1.062-12.643-2.059l0.258,0.15
		l-1.237,2.138c1.06,0.929,3.634,3.312,3.411,4.35c-0.145,0.675-1.556,1.207-3.846,2.02c-1.085,0.386-2.725,0.967-2.881,1.251
		c-2.063,4.482-4.301,17.414-5.376,23.629c-0.142,0.815-0.259,1.493-0.351,2.009c3.11,0.474,7.504,1.376,11.221,3.028
		c6.56,2.915,10.495,1.312,10.495,1.312c0.875-1.021,0.511-9.985,0.511-9.985s1.749,2.696,2.113,5.612
		C33.781,55.264,34.946,56.722,34.946,56.722z M13.701,50.381c-1.43,0-2.588-1.158-2.588-2.588c0-0.903,0.464-1.698,1.165-2.16
		h-0.001l-0.171-0.41c0.39-0.546,1.029-0.903,1.753-0.903c0.89,0,1.654,0.541,1.98,1.314l-0.191,0.461
		c0.398,0.455,0.64,1.049,0.64,1.699C16.288,49.223,15.13,50.381,13.701,50.381z"/>
</g>
</svg>
