<?xml version="1.0" encoding="iso-8859-1"?>
<!-- Generator: Adobe Illustrator 17.0.0, SVG Export Plug-In . SVG Version: 6.00 Build 0)  -->
<!DOCTYPE svg PUBLIC "-//W3C//DTD SVG 1.1//EN" "http://www.w3.org/Graphics/SVG/1.1/DTD/svg11.dtd">
<svg version="1.1" id="Capa_1" xmlns="http://www.w3.org/2000/svg" xmlns:xlink="http://www.w3.org/1999/xlink" x="0px" y="0px"
	 width="64px" height="64px" viewBox="0 0 64 64" style="enable-background:new 0 0 64 64;" xml:space="preserve">
<g>
	<path d="M50.5,56.5v-2.173h1.559c2.747,0,4.973-1.903,4.973-4.251V15.781c0-2.348-2.227-4.251-4.973-4.251h-4.584
		c0.012-0.065,0.025-0.13,0.025-0.197c0-1.067-1.57-1.985-3.833-2.411V3.333c0-0.829-0.672-1.5-1.5-1.5s-1.5,0.671-1.5,1.5v4.635
		l-8.168-2.883c-0.779-0.273-1.638,0.134-1.913,0.916c-0.276,0.781,0.134,1.638,0.915,1.914l4.496,1.587
		c-1.132,0.478-1.831,1.122-1.831,1.832c0,0.066,0.013,0.131,0.025,0.197H11.941c-2.747,0-4.973,1.903-4.973,4.251v34.295
		c0,2.348,2.227,4.251,4.973,4.251h1.892V56.5H20.5v-2.173h23.333V56.5H50.5z M16.464,49.502c-2.127,0-3.852-1.474-3.852-3.293
		V19.648c0-1.818,1.724-3.293,3.852-3.293h31.071c2.127,0,3.852,1.474,3.852,3.293v26.561c0,1.818-1.724,3.293-3.852,3.293H16.464z"
		/>
	<polygon points="38.158,25.219 33.196,20.59 26.326,23.061 26.559,29.619 34.085,31.049 	"/>
	<polygon points="31.135,41.963 34.943,45.931 41.39,43.177 42.47,37.337 35.956,36.536 	"/>
	<path d="M47.986,34.208l-0.132-0.121c0.025-0.36,0.055-0.72,0.055-1.087c0-8.464-6.861-15.325-15.325-15.325
		c-8.464,0-15.325,6.861-15.325,15.325c0,8.464,6.861,15.325,15.325,15.325c8.002,0,14.563-6.136,15.256-13.957L47.986,34.208z
		 M44.142,25.435c-0.014,0.001-0.026,0.008-0.04,0.01l-0.088-0.211C44.059,25.3,44.098,25.369,44.142,25.435z M32.585,46.825
		c-3.548,0-6.778-1.355-9.228-3.56l2.738-2.396l-2.347-7.064l-4.512-1.293l-0.267,2.801C18.842,34.559,18.76,33.789,18.76,33
		c0-1.537,0.263-3.011,0.728-4.394c0.124-0.015,0.244-0.068,0.329-0.173l3.753-4.662l1.159-1.857
		c0.063-0.101,0.079-0.216,0.065-0.326c2.066-1.415,4.536-2.27,7.197-2.384c0.056,0.097,0.14,0.18,0.254,0.222l2.001,0.736
		l3.915,0.506c0.021,0.002,0.042,0.004,0.063,0.004c0.124,0,0.24-0.046,0.329-0.124c1.927,0.928,3.605,2.283,4.911,3.95
		l-0.492-0.166l-0.959,3.257l3.038,6.673l1.27,0.251C45.564,41.427,39.695,46.825,32.585,46.825z"/>
</g>
</svg>
