<?xml version="1.0" encoding="iso-8859-1"?>
<!-- Generator: Adobe Illustrator 17.0.0, SVG Export Plug-In . SVG Version: 6.00 Build 0)  -->
<!DOCTYPE svg PUBLIC "-//W3C//DTD SVG 1.1//EN" "http://www.w3.org/Graphics/SVG/1.1/DTD/svg11.dtd">
<svg version="1.1" id="Capa_1" xmlns="http://www.w3.org/2000/svg" xmlns:xlink="http://www.w3.org/1999/xlink" x="0px" y="0px"
	 width="64px" height="64px" viewBox="0 0 64 64" style="enable-background:new 0 0 64 64;" xml:space="preserve">
<g>
	<path d="M59.673,52.539c0.552,0,1-0.448,1-1V13.313c0-0.552-0.448-1-1-1H3.461c-0.552,0-1,0.448-1,1v38.226c0,0.552,0.448,1,1,1
		H59.673z M4.461,14.313h54.212v36.226H4.461V14.313z"/>
	<rect x="5.799" y="28.109" width="4.512" height="8.635"/>
	<rect x="53.174" y="28.109" width="4.512" height="8.635"/>
	<path d="M5.799,20.022v5.408h7.22v2.948h0.302v0.03c2.091,0.157,3.745,1.886,3.745,4.018c0,2.132-1.654,3.859-3.745,4.017v0.016
		h-0.156c-0.049,0.002-0.096,0.015-0.146,0.015v-0.015h0v2.963h-7.22v5.409c2.368,0,4.288,1.92,4.288,4.288h20.888V36.334
		c-1.749-0.447-3.048-2.019-3.048-3.907c0-1.888,1.299-3.461,3.048-3.908V15.733H10.087C10.087,18.102,8.167,20.022,5.799,20.022z"
		/>
	<path d="M50.466,36.467L50.466,36.467l-0.001,0.007c-0.023,0-0.044-0.006-0.068-0.007h-0.052v-0.005
		c-2.178-0.064-3.927-1.84-3.927-4.035c0-2.194,1.749-3.971,3.927-4.036v-0.004h0.042c0.026,0,0.051-0.008,0.078-0.008v0.008h0.001
		v-2.956h7.085v-5.408c-2.369,0-4.289-1.92-4.289-4.289H32.975v12.785c1.748,0.447,3.047,2.02,3.047,3.908
		c0,1.888-1.299,3.46-3.047,3.908v12.785h20.288c0-2.368,1.92-4.288,4.289-4.288v-5.409h-7.085V36.467z"/>
</g>
</svg>
