<?xml version="1.0" encoding="iso-8859-1"?>
<!-- Generator: Adobe Illustrator 17.0.0, SVG Export Plug-In . SVG Version: 6.00 Build 0)  -->
<!DOCTYPE svg PUBLIC "-//W3C//DTD SVG 1.1//EN" "http://www.w3.org/Graphics/SVG/1.1/DTD/svg11.dtd">
<svg version="1.1" id="Capa_1" xmlns="http://www.w3.org/2000/svg" xmlns:xlink="http://www.w3.org/1999/xlink" x="0px" y="0px"
	 width="64px" height="64px" viewBox="0 0 64 64" style="enable-background:new 0 0 64 64;" xml:space="preserve">
<g>
	<path d="M43.526,30.27c0.826,0.483,1.486,0.869,2.121,0.948c0.834,0.268,3.727,1.413,6.145,2.408
		c0.256,0.106,0.52,0.155,0.78,0.155c0.806,0,1.571-0.479,1.897-1.27c0.431-1.047-0.068-2.246-1.116-2.677
		c-4.05-1.668-5.945-2.429-6.991-2.669c-0.935-0.495-4.227-2.521-7.114-4.347c-0.184-0.116-0.381-0.19-0.581-0.242
		c-0.005-0.034-0.009-0.056-0.009-0.056s-1.959-0.271-4.906-0.476c-0.721,0.499-1.593,0.796-2.534,0.796
		c-1.065,0-2.032-0.39-2.8-1.015c-0.114-0.001-0.229-0.002-0.343-0.003l-7.01-7.346l-4.747-6.772h3.046V1.5h-4.489v5.187
		c-0.519-0.093-1.073,0.012-1.539,0.339c-0.717,0.503-1.014,1.381-0.812,2.182c0.059,0.235,0.162,0.464,0.309,0.674l4.96,7.076
		c0.06,0.084,0.125,0.164,0.196,0.239l7.371,7.723c0.202,0.212,0.44,0.369,0.694,0.475c0.261,3.446,0.64,8.285,0.781,9.23
		l-3.041,7.166c-0.07,0.164-0.122,0.335-0.156,0.51l-3.269,16.728c-0.271,1.389,0.635,2.736,2.024,3.008
		c0.166,0.033,0.331,0.048,0.494,0.048c1.201,0,2.274-0.849,2.513-2.072l3.217-16.465l3.458-8.148
		c0.819,0.023,1.663,0.035,2.477,0.038l3.047,7.471l3.349,15.798c0.256,1.206,1.32,2.032,2.505,2.032
		c0.176,0,0.355-0.018,0.534-0.056c1.385-0.294,2.27-1.655,1.976-3.04l-3.397-16.023c-0.032-0.149-0.076-0.295-0.134-0.437
		l-2.656-6.511c0.206-1.258-0.065-4.232-0.392-6.923c0.464,0.289,0.96,0.597,1.461,0.905C41.967,29.341,42.867,29.885,43.526,30.27z
		"/>
	<path d="M29.546,21.845c0.508,0.246,1.071,0.396,1.674,0.396c0.491,0,0.957-0.101,1.389-0.268c1.447-0.559,2.478-1.955,2.478-3.599
		c0-2.136-1.731-3.867-3.867-3.867s-3.867,1.731-3.867,3.867C27.353,19.907,28.252,21.219,29.546,21.845z"/>
</g>
</svg>
