<?xml version="1.0" encoding="iso-8859-1"?>
<!-- Generator: Adobe Illustrator 17.0.0, SVG Export Plug-In . SVG Version: 6.00 Build 0)  -->
<!DOCTYPE svg PUBLIC "-//W3C//DTD SVG 1.1//EN" "http://www.w3.org/Graphics/SVG/1.1/DTD/svg11.dtd">
<svg version="1.1" id="Capa_1" xmlns="http://www.w3.org/2000/svg" xmlns:xlink="http://www.w3.org/1999/xlink" x="0px" y="0px"
	 width="64px" height="64px" viewBox="0 0 64 64" style="enable-background:new 0 0 64 64;" xml:space="preserve">
<g>
	<circle cx="13.416" cy="20.625" r="1.167"/>
	<circle cx="8.083" cy="29.75" r="1.167"/>
	<circle cx="11.583" cy="44.125" r="1.167"/>
	<circle cx="45.583" cy="24.624" r="1.167"/>
	<circle cx="56.578" cy="22.616" r="1.167"/>
	<circle cx="32.833" cy="11.666" r="1.167"/>
	<circle cx="44.416" cy="37.625" r="1.167"/>
	<path d="M40.618,29.125c-0.138,0.717,1.807,0.389,1.93-0.252c0.214-1.119,1.299-2.468,0.876-3.632
		c-0.171-0.471-1.029-0.664-1.435-0.792c-0.579-0.184-1.201-0.288-1.759-0.532c-0.42-0.184-0.992-0.036-1.367,0.187
		c-0.245,0.147-0.6,0.544-0.176,0.729c0.761,0.333,1.714,0.395,2.463,0.782c-9.098,3.332-20.298,3.395-29.818,3.452
		c-0.735,0.004-2.052,1.125-0.746,1.117c10.055-0.059,21.354-0.187,30.962-3.619C41.351,27.44,40.692,28.74,40.618,29.125z"/>
	<path d="M36.92,52.551c6.798-6.871,14.443-14.675,18.799-23.478c0.229,0.548,0.425,1.123,0.739,1.587
		c0.352,0.52,2.227-0.112,1.797-0.748c-0.61-0.899-0.88-2.99-2.16-3.232c-1.43-0.271-2.664,0.976-3.889,1.458
		c-0.219,0.087-0.826,0.446-0.521,0.754c0.304,0.307,0.938,0.14,1.275,0.007c0.396-0.156,0.767-0.378,1.138-0.588
		c0.073-0.042,0.148-0.081,0.223-0.122c-4.129,9.01-12.097,17.094-18.955,24.027C34.563,53.026,36.461,53.014,36.92,52.551z"/>
</g>
</svg>
