<?xml version="1.0" encoding="iso-8859-1"?>
<!-- Generator: Adobe Illustrator 17.0.0, SVG Export Plug-In . SVG Version: 6.00 Build 0)  -->
<!DOCTYPE svg PUBLIC "-//W3C//DTD SVG 1.1//EN" "http://www.w3.org/Graphics/SVG/1.1/DTD/svg11.dtd">
<svg version="1.1" id="Capa_1" xmlns="http://www.w3.org/2000/svg" xmlns:xlink="http://www.w3.org/1999/xlink" x="0px" y="0px"
	 width="64px" height="64px" viewBox="0 0 64 64" style="enable-background:new 0 0 64 64;" xml:space="preserve">
<g>
	<path d="M57.094,27.684h-2.512c-0.553,0-1,0.447-1,1v6.635c0,0.552,0.447,1,1,1h2.512c0.553,0,1-0.448,1-1v-6.635
		C58.094,28.131,57.646,27.684,57.094,27.684z"/>
	<path d="M59.081,18.17v30.943c0,0.552-0.447,1-1,1H5.869c-0.553,0-1-0.448-1-1V14.887c0-0.552,0.447-1,1-1h31.107
		c0.265-0.385,0.569-0.744,0.852-0.973c0.629-0.51,1.941-0.586,2.668-0.586c0.279,0,0.565,0.011,0.849,0.035
		c0.271,0.023,0.579,0.04,0.905,0.052l0.257-0.528H3.869c-0.553,0-1,0.448-1,1v38.227c0,0.552,0.447,1,1,1h56.212
		c0.552,0,1-0.448,1-1V17.414c-0.161,0.045-0.312,0.09-0.441,0.131C60.376,17.63,59.792,17.864,59.081,18.17z"/>
	<path d="M33.383,16.307v1.802c0.198-0.215,0.397-0.422,0.582-0.594l1.72-1.61c0.149-0.141,0.33-0.365,0.494-0.598h-1.795
		C33.83,15.307,33.383,15.755,33.383,16.307z"/>
	<path d="M33.497,24.523c-0.038-0.039-0.076-0.095-0.114-0.138v2.707c0,0.553,0.442,1.102,0.928,1.364
		c0.044,0.024,0.084,0.055,0.128,0.08l0.264-0.542l-0.046-0.064c-0.336-0.47-0.386-1.41-0.386-1.928v-0.431
		C34.191,25.396,33.917,24.965,33.497,24.523z"/>
	<path d="M59.96,9.4c-2.119,0-4.198,0.269-4.644,0.602c-0.447,0.331-0.809,0.601-0.809,0.601l-2.205,1.47l-0.882,0.551
		c-0.487,0.305-1.475,0.551-2.206,0.551c-0.73,0-1.323,0-1.323,0l-1.983,0.181l0.586-1.044c0,0-0.588-1.746-2.261-0.827
		l-0.947,1.946c-0.581-0.009-1.145-0.033-1.607-0.072c-1.198-0.101-2.452,0.047-2.802,0.331c-0.351,0.284-0.811,0.909-1.029,1.397
		c-0.218,0.487-0.708,1.178-1.093,1.543c-0.386,0.366-0.698,0.662-0.698,0.662l-1.029,0.956c-0.568,0.528-1.194,1.277-1.396,1.672
		c-0.203,0.396-0.302,1.186-0.221,1.764c0.081,0.579,0.616,1.542,1.195,2.15c0.579,0.609,1.047,1.341,1.047,1.635
		c0,0.294,0,0.533,0,0.533c0,0.589,0.09,1.193,0.203,1.35c0.037,0.052,0.071,0.101,0.1,0.143c0.056,0.079,0.377,0.165,0.463,0.043
		l-1.006,2.065l-0.367,1.691l1.323-0.956l1.342-2.39c0.145,0.132,0.554,0.202,0.927,0.157c0.381-0.046,0.825-0.046,0.993,0
		c0.168,0.046,0.538,0.181,0.826,0.303c0.29,0.122,0.524,0.221,0.524,0.221l0.523,0.166c0.289,0.091,0.795-0.033,1.13-0.276
		c0.335-0.243,0.956-0.896,1.387-1.458c0.432-0.561,1.094-1.15,1.479-1.313c0.386-0.164,0.698-0.297,0.698-0.297l1.165-0.564
		c0.644-0.311,1.647-0.92,2.242-1.36c0.595-0.439,1.34-1.092,1.665-1.458c0.325-0.366,1.263-1.155,2.095-1.764
		c0.832-0.609,2.592-1.612,3.932-2.242c1.339-0.629,2.886-1.288,3.455-1.47c0.568-0.183,1.48-0.413,2.036-0.514
		c0.556-0.102,1.007-1.638,1.007-3.432C63.797,10.854,62.08,9.4,59.96,9.4z M37.552,25.212c0.042-0.217,0.054-0.43,0.021-0.589
		c-0.066-0.326-0.12-0.589-0.12-0.589l-0.276-1.027l-0.083-0.441c-0.046-0.244,0.193-0.676,0.533-0.965
		c0.34-0.289,0.846-0.623,1.13-0.745c0.284-0.121,0.514-0.22,0.514-0.22l0.579-0.221c0.011-0.004,0.028-0.006,0.039-0.01
		L37.552,25.212z M42.608,23.465c-0.046,0.314-0.292,0.808-0.551,1.103c-0.259,0.294-0.727,0.694-1.047,0.892
		c-0.32,0.198-0.813,0.42-1.103,0.496c-0.288,0.076-0.778,0.273-1.093,0.441c-0.112,0.06-0.239,0.149-0.367,0.245l3.259-5.802
		c0.159,0.164,0.296,0.354,0.38,0.54c0.182,0.411,0.33,0.744,0.33,0.744l0.138,0.386C42.629,22.724,42.654,23.151,42.608,23.465z"/>
	<path d="M8.158,31.459c-0.025,0-0.049,0.001-0.073,0.003c-0.183,0.016-0.348,0.077-0.505,0.185
		c-0.106,0.074-0.231,0.228-0.227,0.41c-0.002,0.181,0.114,0.338,0.229,0.416c0.152,0.1,0.305,0.152,0.453,0.152
		c0.183-0.003,0.333-0.06,0.443-0.16c0.085-0.08,0.196-0.224,0.223-0.433c0.02-0.162-0.042-0.333-0.156-0.436
		C8.415,31.477,8.247,31.459,8.158,31.459z"/>
	<path d="M9.719,27.684H7.207c-0.553,0-1,0.447-1,1v6.635c0,0.552,0.447,1,1,1h2.512c0.553,0,1-0.448,1-1v-6.635
		C10.719,28.131,10.271,27.684,9.719,27.684z M9.059,32.984c-0.253,0.292-0.607,0.459-0.97,0.459H8.051
		c-0.381-0.005-0.748-0.189-0.953-0.48c-0.179-0.239-0.275-0.553-0.276-0.9c0.005-0.361,0.101-0.665,0.284-0.905
		c0.197-0.271,0.54-0.443,0.893-0.443l0.079,0.003c0.328,0.024,0.644,0.186,0.888,0.456c0.228,0.249,0.365,0.548,0.397,0.865
		C9.409,32.357,9.299,32.706,9.059,32.984z"/>
	<path d="M10.536,35.878c-0.183,0.24-0.279,0.543-0.285,0.905c0.001,0.348,0.097,0.661,0.276,0.9
		c0.206,0.291,0.573,0.476,0.953,0.48h0.038c0.364,0,0.717-0.168,0.97-0.461c0.24-0.277,0.35-0.626,0.303-0.943
		c-0.03-0.316-0.167-0.616-0.396-0.867c-0.244-0.268-0.559-0.43-0.89-0.456l-0.073-0.003C11.077,35.434,10.732,35.605,10.536,35.878
		z M11.009,36.368c0.155-0.107,0.319-0.168,0.505-0.184c0.024-0.003,0.049-0.004,0.073-0.004c0.089,0,0.257,0.017,0.386,0.134
		c0.115,0.103,0.176,0.275,0.156,0.438c-0.021,0.165-0.101,0.32-0.222,0.433c-0.111,0.101-0.262,0.157-0.445,0.16
		c-0.148,0-0.301-0.052-0.453-0.152c-0.115-0.078-0.231-0.234-0.229-0.415C10.777,36.596,10.902,36.442,11.009,36.368z"/>
	<path d="M23.949,43.394c-0.019,0-0.039,0.001-0.059,0.004c-0.195,0.026-0.326,0.162-0.402,0.273
		c-0.102,0.146-0.164,0.316-0.18,0.497c-0.012,0.131,0.025,0.326,0.166,0.44c0.123,0.106,0.309,0.137,0.465,0.093
		c0.182-0.055,0.325-0.143,0.42-0.262c0.104-0.128,0.158-0.28,0.152-0.43c-0.008-0.167-0.075-0.328-0.188-0.449
		C24.229,43.458,24.085,43.394,23.949,43.394z"/>
	<path d="M28.39,33.686c0.088,0.062,0.174,0.126,0.257,0.194c0.142,0.125,0.314,0.289,0.467,0.483
		c-0.214-0.292-0.388-0.613-0.517-0.958c-0.059,0.064-0.112,0.137-0.166,0.216C28.417,33.643,28.403,33.664,28.39,33.686z"/>
	<path d="M24.448,31.037c-0.019,0-0.039,0.001-0.059,0.004c-0.208,0.028-0.342,0.183-0.403,0.272
		c-0.102,0.146-0.164,0.318-0.18,0.497c-0.012,0.131,0.024,0.326,0.166,0.44c0.121,0.104,0.309,0.137,0.465,0.092
		c0.181-0.053,0.324-0.142,0.42-0.262c0.104-0.128,0.158-0.279,0.152-0.428c-0.008-0.167-0.075-0.328-0.188-0.45
		C24.727,31.101,24.584,31.037,24.448,31.037z"/>
	<path d="M24.139,24.319c0.181-0.053,0.323-0.141,0.42-0.262c0.104-0.128,0.158-0.28,0.153-0.429
		c-0.009-0.167-0.076-0.328-0.188-0.449c-0.095-0.102-0.239-0.166-0.375-0.166c-0.019,0-0.039,0.001-0.059,0.004
		c-0.206,0.028-0.34,0.183-0.402,0.272c-0.102,0.146-0.164,0.317-0.18,0.497c-0.012,0.131,0.025,0.326,0.166,0.44
		C23.794,24.331,23.981,24.362,24.139,24.319z"/>
	<path d="M30.454,28.456c0.486-0.263,0.929-0.812,0.929-1.364V16.307c0-0.552-0.447-1-1-1H11.494c-0.553,0-0.988,0.455-1.115,0.992
		c-0.372,1.572-1.609,2.81-3.181,3.182c-0.537,0.128-0.991,0.563-0.991,1.115v3.408c0,0.553,0.447,1,1,1h5.219c0.553,0,1,0.448,1,1
		v0.949c0,0.126,0.004,0.244,0.011,0.355c-0.035-0.308-0.167-0.599-0.389-0.841c-0.246-0.27-0.562-0.432-0.888-0.456l-0.079-0.003
		c-0.352,0-0.695,0.172-0.892,0.443c-0.184,0.241-0.279,0.544-0.285,0.906c0,0.348,0.097,0.661,0.276,0.901
		c0.206,0.291,0.573,0.475,0.953,0.48l0.038,0c0.364,0,0.717-0.168,0.97-0.461c0.218-0.252,0.322-0.563,0.305-0.856
		c0.026,0.312,0.074,0.532,0.131,0.532h0.151c2.092,0.188,3.745,1.916,3.745,4.047c0,1.787-1.161,3.289-2.767,3.822
		c-0.525,0.174-1.01,0.206-1.054,0.209c-0.04,0.002-0.08,0.002-0.08,0.002c-0.024,0-0.049,0.004-0.072,0.008
		c-0.04,0.006-0.074,0.454-0.074,1.006c0,0.307,0,0.643,0,0.947c0,0.553-0.447,1.002-1,1.002H7.207c-0.553,0-1,0.447-1,1v3.408
		c0,0.553,0.453,0.988,0.99,1.115c1.572,0.372,2.81,1.609,3.182,3.182c0.127,0.537,0.562,0.992,1.115,0.992h18.889
		c0.553,0,1-0.448,1-1V36.908c0-0.553-0.442-1.102-0.929-1.364c-0.463-0.251-0.87-0.589-1.201-0.991
		c0.111,0.174,0.22,0.399,0.214,0.656l-0.02,0.887L29,35.329c-0.083-0.145-0.206-0.257-0.334-0.377l-0.051-0.047
		c-0.153-0.134-0.313-0.272-0.479-0.41l-0.12-0.102c-0.026,0.053-0.051,0.105-0.076,0.157c-0.124,0.257-0.25,0.519-0.4,0.778
		l-0.453,0.784l-0.014-0.905c-0.004-0.229,0.028-0.463,0.098-0.737c0.052-0.208,0.127-0.414,0.227-0.627
		c-0.088-0.085-0.176-0.174-0.26-0.267l-0.621-0.688l0.883,0.282c0.109,0.035,0.219,0.079,0.335,0.133
		c0.043-0.054,0.088-0.104,0.135-0.15c0.131-0.131,0.325-0.279,0.558-0.34c-0.054-0.263-0.092-0.533-0.092-0.812
		C28.335,30.465,29.193,29.139,30.454,28.456z M12.56,27.759c-0.11,0.101-0.261,0.157-0.442,0.161c-0.149,0-0.303-0.052-0.455-0.152
		c-0.141-0.096-0.231-0.256-0.23-0.416c-0.004-0.182,0.122-0.335,0.228-0.41c0.157-0.108,0.32-0.168,0.505-0.184
		c0.024-0.002,0.049-0.004,0.074-0.004c0.089,0,0.257,0.018,0.386,0.135c0.115,0.104,0.176,0.275,0.156,0.437
		C12.762,27.49,12.682,27.644,12.56,27.759z M27.58,40.633c0.001,0,0.002,0,0.004,0c0.253,0,0.481,0.032,0.734,0.098
		c0.204,0.052,0.41,0.126,0.626,0.227c0.085-0.089,0.173-0.176,0.267-0.26l0.697-0.627l-0.292,0.891
		c-0.036,0.108-0.08,0.219-0.132,0.332c0.055,0.045,0.105,0.091,0.152,0.139c0.253,0.248,0.384,0.539,0.366,0.813l-0.058,0.874
		l-0.413-0.772c-0.081-0.152-0.213-0.251-0.366-0.355c-0.022-0.014-0.043-0.028-0.066-0.042c-0.062,0.088-0.127,0.174-0.195,0.257
		c-0.134,0.154-0.311,0.348-0.536,0.513c-0.175,0.131-0.448,0.307-0.769,0.307l-0.909-0.023l0.768-0.444
		c0.142-0.082,0.255-0.203,0.374-0.332l0.048-0.052c0.135-0.152,0.273-0.314,0.409-0.479l0.104-0.122
		c-0.057-0.028-0.112-0.055-0.168-0.081c-0.254-0.122-0.511-0.246-0.767-0.394l-0.785-0.451L27.58,40.633z M23.121,22.802
		c0.224-0.228,0.568-0.37,0.919-0.38l0.066-0.001c0.312,0,0.606,0.089,0.85,0.258c0.28,0.174,0.477,0.491,0.529,0.864
		c0.055,0.389-0.055,0.77-0.302,1.043c-0.227,0.263-0.562,0.422-0.895,0.422c-0.029,0-0.058-0.002-0.087-0.004
		c-0.298-0.018-0.6-0.146-0.866-0.37c-0.273-0.238-0.443-0.507-0.508-0.802C22.741,23.472,22.854,23.076,23.121,22.802z
		 M18.88,27.116c0.064-0.085,0.158-0.14,0.264-0.155c0.019-0.003,2.248-0.314,4.074-0.382l-0.351-1.015l0.718,0.645
		c0.206,0.185,0.574,0.396,0.938,0.537l0.629,0.243l-0.636,0.226c-0.367,0.13-0.741,0.33-0.953,0.509l-0.738,0.625l0.367-0.968
		c-1.683,0.066-3.695,0.339-3.934,0.372c-0.257,0.012-0.428-0.144-0.455-0.34C18.788,27.307,18.815,27.201,18.88,27.116z
		 M19.238,41.335c-0.273-0.012-0.445-0.196-0.438-0.413c0.006-0.211,0.181-0.381,0.397-0.387l0.063,0.001
		c0.323,0.01,2.145,0.058,3.65,0.037l-0.38-1.012l0.735,0.625c0.213,0.182,0.586,0.382,0.951,0.512l0.635,0.225l-0.629,0.244
		c-0.364,0.141-0.732,0.351-0.939,0.535l-0.717,0.64l0.336-0.97C21.399,41.389,19.562,41.344,19.238,41.335z M24.983,44.968
		c-0.227,0.263-0.562,0.422-0.893,0.422c-0.03,0-0.06-0.001-0.089-0.004c-0.298-0.018-0.6-0.146-0.866-0.37
		c-0.273-0.238-0.443-0.507-0.508-0.802c-0.085-0.36,0.027-0.756,0.294-1.029c0.226-0.23,0.57-0.372,0.921-0.38l0.066-0.001
		c0.312,0,0.604,0.088,0.847,0.256c0.281,0.175,0.477,0.492,0.53,0.865C25.341,44.313,25.23,44.694,24.983,44.968z M25.482,32.611
		c-0.228,0.263-0.564,0.421-0.894,0.421c-0.029,0-0.058-0.001-0.087-0.003c-0.299-0.019-0.601-0.147-0.867-0.371
		c-0.273-0.238-0.442-0.506-0.508-0.801c-0.086-0.36,0.026-0.757,0.294-1.031c0.226-0.229,0.569-0.371,0.92-0.38l0.067-0.001
		c0.312,0,0.605,0.089,0.848,0.258c0.279,0.173,0.477,0.49,0.529,0.862C25.839,31.956,25.729,32.337,25.482,32.611z"/>
	<path d="M36.413,32.244c-0.086,1.43-0.909,2.655-2.102,3.301c-0.485,0.263-0.928,0.811-0.928,1.363v10.785c0,0.552,0.447,1,1,1
		H52.67c0.553,0,0.988-0.454,1.115-0.992c0.372-1.572,1.609-2.81,3.183-3.182c0.538-0.127,0.991-0.562,0.991-1.115v-3.408
		c0-0.553-0.447-1-1-1h-5.086c-0.553,0-1-0.448-1-1v-0.955c0-0.553-0.016-0.996-0.034-0.998c-0.011,0-0.022-0.002-0.034-0.002
		h-0.051c-2.179-0.07-3.928-1.846-3.928-4.041c0-2.193,1.749-3.971,3.928-4.035c0.024-0.002,0.043-0.004,0.059-0.006
		c0.033-0.004,0.06-0.455,0.06-1.008c0-0.305,0-0.641,0-0.946c0-0.552,0.447-1.001,1-1.001h5.086c0.553,0,1-0.447,1-1v-3.408
		c0-0.552-0.454-0.987-0.991-1.115c-0.139-0.033-0.271-0.08-0.404-0.126c-1.123,0.577-2.365,1.302-2.989,1.758
		c-0.837,0.612-1.693,1.345-1.938,1.621c-0.369,0.415-1.168,1.117-1.818,1.598c-0.648,0.478-1.702,1.118-2.401,1.456l-1.906,0.881
		c-0.166,0.073-0.699,0.508-1.079,1.003c-0.421,0.548-1.122,1.316-1.592,1.658c-0.423,0.307-0.996,0.497-1.497,0.497
		c-0.186,0-0.361-0.025-0.521-0.076l-0.525-0.166l-0.61-0.252c-0.247-0.104-0.561-0.222-0.703-0.261
		c-0.008,0.001-0.076,0.001-0.152,0.001c-0.142,0-0.306,0.009-0.456,0.027c-0.176,0.021-0.333,0.028-0.553,0.014l-1.071,1.908
		l-0.387,0.289c0.008,0.044,0.006,0.091,0.013,0.136l4.263-0.102l-0.383-0.984L41,30.977c0.214,0.178,0.589,0.374,0.957,0.5
		l0.64,0.219l-0.628,0.25c-0.361,0.144-0.727,0.357-0.932,0.546l-0.712,0.652l0.334-1.002L36.413,32.244z"/>
</g>
</svg>
