<?xml version="1.0" encoding="iso-8859-1"?>
<!-- Generator: Adobe Illustrator 17.0.0, SVG Export Plug-In . SVG Version: 6.00 Build 0)  -->
<!DOCTYPE svg PUBLIC "-//W3C//DTD SVG 1.1//EN" "http://www.w3.org/Graphics/SVG/1.1/DTD/svg11.dtd">
<svg version="1.1" id="Capa_1" xmlns="http://www.w3.org/2000/svg" xmlns:xlink="http://www.w3.org/1999/xlink" x="0px" y="0px"
	 width="64px" height="64px" viewBox="0 0 64 64" style="enable-background:new 0 0 64 64;" xml:space="preserve">
<g>
	<path d="M60.734,4.75v-2.5H3.391V60h2.5h2.5v-2.518v-46.26c3.478,5.21,8.29,15.964,9.7,36.488C18.35,51.474,18.5,55.55,18.5,60h5
		c0-6.302-0.288-11.919-0.777-16.957c-1.94-19.987-7.139-30.547-11-35.793h46.53h2.482V4.75z"/>
	<polygon points="40.122,23.546 44.195,17.716 39.233,13.087 32.363,15.558 32.595,22.116 	"/>
	<polygon points="37.172,34.46 40.98,38.429 47.427,35.674 48.507,29.835 41.993,29.033 	"/>
	<path d="M38.622,40.822c8.002,0,14.563-6.135,15.256-13.957l0.146-0.159l-0.132-0.121c0.025-0.361,0.055-0.72,0.055-1.087
		c0-3.864-1.441-7.384-3.801-10.08c-2.809-3.208-6.924-5.245-11.524-5.245c-8.464,0-15.325,6.861-15.325,15.325
		c0,4.64,2.07,8.789,5.328,11.599C31.31,39.412,34.798,40.822,38.622,40.822z M50.179,17.933c-0.014,0.001-0.026,0.008-0.04,0.01
		l-0.088-0.211C50.096,17.797,50.135,17.866,50.179,17.933z M25.273,25.009l-0.267,2.8c-0.128-0.753-0.209-1.522-0.209-2.312
		c0-1.537,0.263-3.012,0.728-4.394c0.124-0.016,0.244-0.068,0.328-0.172l3.754-4.661l1.159-1.858
		c0.063-0.101,0.078-0.215,0.065-0.325c2.066-1.415,4.537-2.27,7.197-2.384c0.056,0.097,0.14,0.18,0.254,0.221l2.001,0.737
		l3.915,0.506c0.021,0.002,0.042,0.004,0.063,0.004c0.124,0,0.24-0.046,0.329-0.124c1.727,0.831,3.255,2.004,4.494,3.44
		c0.144,0.167,0.282,0.337,0.417,0.51l-0.491-0.166l-0.959,3.257l3.038,6.673l1.27,0.251c-0.758,6.912-6.627,12.31-13.737,12.31
		c-3.406,0-6.523-1.244-8.935-3.294c-0.101-0.085-0.195-0.178-0.293-0.266l2.738-2.396l-2.347-7.064L25.273,25.009z"/>
	<path d="M45.72,56.065c0.709,1.774,3.611,1.001,2.893-0.798c-1.295-3.241-2.942-6.32-4.318-9.525
		c-0.761-1.773-3.345-0.243-2.59,1.514C42.978,50.223,44.522,53.068,45.72,56.065z"/>
	<path d="M54.613,52.268c-1.295-3.241-2.942-6.32-4.318-9.525c-0.761-1.773-3.345-0.243-2.59,1.514
		c1.273,2.966,2.818,5.81,4.016,8.808C52.429,54.839,55.332,54.066,54.613,52.268z"/>
	<path d="M60.613,49.268c-1.295-3.241-2.942-6.32-4.318-9.525c-0.761-1.773-3.345-0.243-2.59,1.514
		c1.273,2.966,2.818,5.81,4.016,8.808C58.429,51.839,61.332,51.066,60.613,49.268z"/>
</g>
</svg>
