<?xml version="1.0" encoding="iso-8859-1"?>
<!-- Generator: Adobe Illustrator 17.0.0, SVG Export Plug-In . SVG Version: 6.00 Build 0)  -->
<!DOCTYPE svg PUBLIC "-//W3C//DTD SVG 1.1//EN" "http://www.w3.org/Graphics/SVG/1.1/DTD/svg11.dtd">
<svg version="1.1" id="Capa_1" xmlns="http://www.w3.org/2000/svg" xmlns:xlink="http://www.w3.org/1999/xlink" x="0px" y="0px"
	 width="64px" height="64px" viewBox="0 0 64 64" style="enable-background:new 0 0 64 64;" xml:space="preserve">
<g>
	<circle cx="21.876" cy="22.991" r="3.354"/>
	<circle cx="4.126" cy="20.811" r="3.354"/>
	<path d="M41.727,28.609l-9.196-6.534l13.32-6.609c0.857-0.425,1.206-1.464,0.782-2.32c-0.425-0.856-1.462-1.207-2.32-0.782
		L30.032,19.45c-0.428,0.212-0.729,0.578-0.871,0.997l-5.548,6.799l-7.833,1.003l-8.557-3.505c-0.885-0.363-1.897,0.062-2.258,0.946
		c-0.363,0.884,0.061,1.895,0.946,2.258l8.979,3.678c0.209,0.085,0.432,0.129,0.656,0.129c0.074,0,0.147-0.005,0.22-0.014
		l8.477-1.085l15.028,8.126c0.155,0.128,0.323,0.244,0.516,0.328l0.453,0.196l0.242,0.131l0.003-0.025l6.751,2.92
		c0.227,0.098,0.469,0.156,0.716,0.172l12.581,0.83c0.049,0.003,0.097,0.005,0.145,0.005c1.129,0,2.081-0.877,2.156-2.021
		c0.079-1.193-0.824-2.223-2.016-2.302L48.612,38.21l-7.106-3.074c-0.144-0.062-0.292-0.106-0.44-0.135l0.273-2.077l19.255,2.704
		c0.102,0.014,0.204,0.021,0.303,0.021c1.062,0,1.988-0.782,2.14-1.863c0.167-1.183-0.658-2.278-1.842-2.443L41.727,28.609z"/>
</g>
</svg>
