<?xml version="1.0" encoding="iso-8859-1"?>
<!-- Generator: Adobe Illustrator 17.0.0, SVG Export Plug-In . SVG Version: 6.00 Build 0)  -->
<!DOCTYPE svg PUBLIC "-//W3C//DTD SVG 1.1//EN" "http://www.w3.org/Graphics/SVG/1.1/DTD/svg11.dtd">
<svg version="1.1" id="Capa_1" xmlns="http://www.w3.org/2000/svg" xmlns:xlink="http://www.w3.org/1999/xlink" x="0px" y="0px"
	 width="64px" height="64px" viewBox="0 0 64 64" style="enable-background:new 0 0 64 64;" xml:space="preserve">
<g>
	<path d="M21.201,37.469c0.372,4.745,4.427,7.362,9.126,7.363c6.627,0.002,9.655-7.979,15.353-10.197
		c3.439-0.105,6.42-0.103,8.612-0.071c1.58,1.264,4.291,2.1,7.375,2.1v-9.326c-2.798,0-5.287,0.688-6.905,1.76
		c-11.099,0.187-45.817-0.294-50.428-13.43V48C6.202,42.677,13.018,39.433,21.201,37.469z M41.278,34.822
		c-1.237,0.936-2.364,2.038-3.506,3.242c-1.459,1.538-2.888,2.97-4.746,4.036c-4.135,2.373-9.604-0.458-9.837-5.078
		C29.1,35.777,35.546,35.136,41.278,34.822z"/>
</g>
</svg>
