<?xml version="1.0" encoding="iso-8859-1"?>
<!-- Generator: Adobe Illustrator 17.0.0, SVG Export Plug-In . SVG Version: 6.00 Build 0)  -->
<!DOCTYPE svg PUBLIC "-//W3C//DTD SVG 1.1//EN" "http://www.w3.org/Graphics/SVG/1.1/DTD/svg11.dtd">
<svg version="1.1" id="Capa_1" xmlns="http://www.w3.org/2000/svg" xmlns:xlink="http://www.w3.org/1999/xlink" x="0px" y="0px"
	 width="64px" height="64px" viewBox="0 0 64 64" style="enable-background:new 0 0 64 64;" xml:space="preserve">
<g>
	<path d="M50.01,21.136H7.893c-0.037-0.027-0.074-0.054-0.122-0.076c-0.474-0.216-0.941-0.447-1.409-0.674
		c-0.37-0.18-0.744-0.354-1.113-0.537c-0.587-0.291-1.173-0.583-1.764-0.866c-0.749-0.359-1.447,0.678-0.878,1.131
		c-0.246,0.308-0.277,0.78,0.159,1.01c0.089,0.047,0.179,0.091,0.269,0.137c-0.013-0.004-0.027-0.008-0.04-0.012
		c-0.864-0.243-1.26,1.12-0.397,1.362c0.694,0.195,1.376,0.425,2.057,0.659c-0.522-0.115-1.042-0.24-1.559-0.377
		c-0.747-0.199-1.143,0.784-0.683,1.208c-0.305,0.367-0.286,0.999,0.298,1.113c0.441,0.086,0.882,0.171,1.324,0.25
		c-0.545-0.011-1.091-0.037-1.636-0.088c-0.633-0.059-0.652,1.352-0.025,1.41c0.144,0.013,0.289,0.023,0.433,0.033
		c-0.034,0.027-0.063,0.057-0.092,0.089c-0.165,0.139-0.23,0.342-0.205,0.551c0.002,0.211,0.093,0.401,0.274,0.508
		c0.032,0.027,0.065,0.051,0.102,0.071c-0.141,0.036-0.283,0.072-0.424,0.112c-0.612,0.172-0.412,1.562,0.206,1.389
		c0.532-0.149,1.068-0.274,1.605-0.384c-0.427,0.158-0.852,0.322-1.276,0.488c-0.562,0.219-0.501,0.847-0.152,1.154
		c-0.4,0.502,0.117,1.402,0.83,1.069c0.493-0.23,0.991-0.449,1.492-0.657c-0.643,0.355-1.287,0.707-1.948,1.026
		c-0.822,0.397-0.257,1.671,0.566,1.274c0.013-0.006,0.025-0.013,0.038-0.019C3.74,33.55,3.656,33.61,3.575,33.672
		c-0.401,0.307-0.31,0.768-0.028,1.027c-0.505,0.551,0.318,1.449,1.012,0.958c0.707-0.501,1.407-1.012,2.109-1.519
		c0.351-0.254,0.707-0.501,1.062-0.75c0.267-0.188,0.529-0.381,0.799-0.564c0.082-0.056,0.138-0.119,0.184-0.185h35.93l4.057-6.438
		c0.221-0.35,0.685-0.456,1.034-0.234c0.335,0.211,0.437,0.64,0.255,0.984c-0.009,0.016-0.009,0.035-0.019,0.05l-3.553,5.638
		l-0.473,0.75l-0.473,0.75l-6.791,10.776c-0.062,0.014-0.125,0.036-0.191,0.07c-0.354,0.183-0.715,0.352-1.072,0.528
		c-0.398,0.196-0.793,0.397-1.193,0.588c-0.825,0.395-1.651,0.785-2.471,1.189c-0.825,0.406-0.388,1.697,0.397,1.509
		c0.103,0.417,0.497,0.758,0.995,0.536c0.102-0.045,0.202-0.094,0.303-0.14c-0.012,0.009-0.025,0.017-0.038,0.026
		c-0.8,0.582,0.127,1.83,0.927,1.249c0.643-0.468,1.308-0.902,1.976-1.332c-0.455,0.373-0.918,0.737-1.391,1.091
		c-0.683,0.511-0.088,1.506,0.596,1.393c0.115,0.507,0.683,0.911,1.18,0.485c0.375-0.322,0.749-0.645,1.119-0.973
		c-0.38,0.462-0.773,0.914-1.188,1.35c-0.481,0.505,0.744,1.462,1.221,0.961c0.11-0.115,0.216-0.233,0.324-0.351
		c0.001,0.047,0.007,0.092,0.016,0.138c0.01,0.234,0.144,0.426,0.345,0.544c0.187,0.139,0.415,0.187,0.632,0.103
		c0.045-0.01,0.089-0.022,0.132-0.04c-0.064,0.146-0.129,0.292-0.19,0.44c-0.265,0.641,1.092,1.395,1.359,0.748
		c0.231-0.558,0.485-1.102,0.753-1.638c-0.151,0.473-0.296,0.948-0.439,1.423c-0.189,0.63,0.404,0.995,0.91,0.899
		c0.169,0.679,1.31,0.833,1.503-0.003c0.133-0.578,0.279-1.152,0.437-1.722c-0.124,0.79-0.254,1.579-0.423,2.36
		c-0.21,0.972,1.293,1.334,1.504,0.361c0.003-0.015,0.006-0.031,0.009-0.046c-0.002,0.112-0.006,0.224-0.007,0.336
		c-0.003,0.55,0.463,0.779,0.883,0.708c0.141,0.802,1.488,0.692,1.529-0.233c0.035-0.817,0.058-1.634,0.084-2.451
		c0.015-0.476,0.041-0.951,0.061-1.427c0.02-0.476,0.033-0.952,0.063-1.427c0.003-0.048-0.004-0.089-0.008-0.132l10.65-17.897
		l0.446-0.75l0.39-0.655l-0.178-0.095h0.026L50.01,21.136z M18.425,23.733h-1.662c-0.312,0-0.565,0.224-0.565,0.5v6.196
		c0,0.276-0.253,0.5-0.565,0.5H15.57c-0.312,0-0.565-0.224-0.565-0.5v-6.196c0-0.276-0.253-0.5-0.565-0.5h-1.648
		c-0.312,0-0.565-0.199-0.565-0.444s0.253-0.444,0.565-0.444h5.633c0.312,0,0.565,0.199,0.565,0.444S18.737,23.733,18.425,23.733z
		 M24.582,30.929h-4.007c-0.312,0-0.565-0.224-0.565-0.5v-7.083c0-0.276,0.253-0.5,0.565-0.5h3.804c0.312,0,0.565,0.196,0.565,0.438
		s-0.253,0.438-0.565,0.438h-2.624c-0.312,0-0.565,0.224-0.565,0.5v1.555c0,0.276,0.253,0.5,0.565,0.5h2.421
		c0.312,0,0.565,0.193,0.565,0.432s-0.253,0.432-0.565,0.432h-2.421c-0.312,0-0.565,0.224-0.565,0.5v1.915
		c0,0.276,0.253,0.5,0.565,0.5h2.827c0.312,0,0.565,0.196,0.565,0.438S24.894,30.929,24.582,30.929z M33.071,30.929h-0.131
		c-0.312,0-0.646-0.212-0.747-0.473L31.58,28.86c-0.1-0.261-0.435-0.473-0.747-0.473h-2.109c-0.312,0-0.644,0.213-0.742,0.475
		l-0.595,1.593c-0.098,0.262-0.43,0.475-0.742,0.475h-0.089c-0.312,0-0.484-0.212-0.383-0.473l2.74-7.137
		c0.1-0.261,0.435-0.473,0.747-0.473h0.294c0.312,0,0.647,0.212,0.747,0.473l2.753,7.137C33.554,30.717,33.383,30.929,33.071,30.929
		z M43.443,30.929h-0.022c-0.312,0-0.58-0.224-0.597-0.499l-0.198-3.051c-0.057-0.949-0.124-2.061-0.135-2.989
		c-0.003-0.276-0.079-0.288-0.177-0.026c-0.303,0.809-0.631,1.665-1.015,2.596l-1.42,3.452c-0.107,0.26-0.393,0.47-0.64,0.47
		s-0.528-0.212-0.629-0.473l-1.296-3.377c-0.362-0.95-0.677-1.833-0.92-2.657c-0.079-0.267-0.149-0.262-0.163,0.014
		c-0.049,0.931-0.109,2.054-0.177,3.075l-0.209,2.967c-0.019,0.276-0.287,0.499-0.598,0.499c-0.311,0-0.545-0.223-0.523-0.499
		l0.559-7.086c0.022-0.275,0.292-0.499,0.604-0.499h0.374c0.312,0,0.649,0.211,0.753,0.472l1.37,3.438
		c0.307,0.806,0.57,1.541,0.781,2.237c0.081,0.267,0.212,0.27,0.303,0.006c0.237-0.683,0.512-1.42,0.84-2.244l1.431-3.44
		c0.108-0.259,0.448-0.469,0.76-0.469h0.374c0.312,0,0.581,0.223,0.6,0.499l0.499,7.085C43.992,30.705,43.755,30.929,43.443,30.929z
		"/>
	<path d="M30.261,25.244c-0.135-0.348-0.239-0.675-0.333-0.991c-0.08-0.267-0.214-0.269-0.3-0.004
		c-0.106,0.325-0.211,0.654-0.329,0.983l-0.714,1.865c-0.1,0.262,0.072,0.474,0.384,0.474h1.621c0.312,0,0.484-0.212,0.383-0.473
		L30.261,25.244z"/>
</g>
</svg>
