<?xml version="1.0" encoding="iso-8859-1"?>
<!-- Generator: Adobe Illustrator 17.0.0, SVG Export Plug-In . SVG Version: 6.00 Build 0)  -->
<!DOCTYPE svg PUBLIC "-//W3C//DTD SVG 1.1//EN" "http://www.w3.org/Graphics/SVG/1.1/DTD/svg11.dtd">
<svg version="1.1" id="Capa_1" xmlns="http://www.w3.org/2000/svg" xmlns:xlink="http://www.w3.org/1999/xlink" x="0px" y="0px"
	 width="64px" height="64px" viewBox="0 0 64 64" style="enable-background:new 0 0 64 64;" xml:space="preserve">
<g>
	<path d="M38.29,7.721c-0.082-0.95-0.675-4.629-4.952-4.629c-4.329,0-4.885,3.772-4.955,4.666c0.664-0.323,2.354-0.998,4.87-0.998
		C35.871,6.76,37.569,7.386,38.29,7.721z"/>
	<path d="M28.487,8.13l0.875,1.379c0.245,0.387,0.637,0.381,0.932,0.031c0.585-0.693,1.667-1.547,3.099-1.593
		c1.465-0.046,2.479,0.972,3.069,1.615c0.31,0.337,0.703,0.327,0.935-0.068l0.812-1.389c-0.626-0.299-2.318-0.966-4.957-0.966
		C30.751,7.14,29.067,7.844,28.487,8.13z"/>
	<path d="M24.439,25.148c0.682-1.534,2.843-7.87,3.567-10.007c-0.079,0.062-0.161,0.12-0.23,0.198h-0.021
		c-0.042,0.049-0.077,0.105-0.115,0.157c-0.002,0.004-0.005,0.008-0.007,0.012c-0.098,0.138-0.187,0.286-0.246,0.452L23.8,25.759
		c0.007,0,0.014,0.002,0.021,0.001C24.063,25.73,24.271,25.525,24.439,25.148z"/>
	<path d="M42.645,25.584c0.012,0.001,0.025-0.003,0.038-0.003L39.16,15.96c-0.058-0.167-0.147-0.314-0.246-0.452
		c-0.002-0.004-0.005-0.007-0.008-0.012c-0.037-0.053-0.073-0.108-0.116-0.157h-0.02c-0.078-0.088-0.168-0.155-0.259-0.223
		c0.774,2.282,2.852,8.361,3.517,9.857C42.194,25.35,42.402,25.555,42.645,25.584z"/>
	<path d="M22.026,36.357c1.024,0.368,2.152-0.162,2.521-1.185l4.112-10.586l-0.75,11.417L24.17,57.567
		c-0.295,1.323-0.017,2.575,1.707,2.801c1.724,0.227,3.361-0.663,3.654-1.985l3.741-18.698l3.738,18.698
		c0.295,1.322,1.931,2.213,3.654,1.985c1.725-0.226,2.003-1.478,1.709-2.801L38.637,36l-0.75-11.416l4.11,10.586
		c0.371,1.024,1.497,1.554,2.523,1.186c1.021-0.371,1.553-1.496,1.185-2.52l-2.845-7.769c-0.049,0.006-0.098,0.021-0.148,0.021
		c-0.042,0-0.084-0.003-0.127-0.007c-0.431-0.051-0.772-0.355-1.017-0.905c-0.733-1.649-3.065-8.514-3.679-10.332l-0.22-0.029
		h-0.114h-0.876c0.055-0.107,0.093-0.224,0.093-0.352c0-0.398-0.301-0.714-0.685-0.766c1.252-0.916,2.067-2.392,2.067-4.062
		c0-0.164-0.031-0.319-0.047-0.479l-0.344,0.589c-0.208,0.354-0.535,0.557-0.897,0.557c-0.301,0-0.599-0.143-0.838-0.403
		c-0.661-0.72-1.487-1.455-2.604-1.455c-1.507,0.046-2.467,1.006-2.814,1.417c-0.238,0.283-0.543,0.438-0.858,0.438
		c-0.347,0-0.667-0.191-0.878-0.524l-0.482-0.761c-0.025,0.205-0.06,0.408-0.06,0.62c0,1.687,0.83,3.179,2.104,4.092
		c-0.31,0.105-0.537,0.39-0.537,0.736c0,0.128,0.038,0.245,0.093,0.352h-1h-0.114l-0.244,0.032
		c-0.501,1.483-2.977,8.794-3.737,10.504c-0.244,0.549-0.586,0.854-1.017,0.905c-0.042,0.005-0.084,0.007-0.127,0.007
		c-0.044,0-0.088-0.013-0.132-0.018l-2.779,7.591C20.473,34.86,21.004,35.988,22.026,36.357z M29.035,34.737l-0.614,0.001
		l0.102-1.95h0.512V34.737z M30.618,34.733l-1.084,0.003V32.79l1.084,0V34.733z M32.202,34.729l-1.083,0.003V32.79l1.083,0.001
		V34.729z M33.785,34.725l-1.083,0.003v-1.937l1.083,0.001V34.725z M35.369,34.721l-1.083,0.003v-1.932l1.083,0V34.721z
		 M36.952,34.717l-1.083,0.002v-1.927l1.083,0V34.717z M38.065,32.793l0.098,1.92l-0.711,0.002v-1.922L38.065,32.793z
		 M37.782,30.794l-0.284,0.411l-3.438-2.375l0.284-0.411L37.782,30.794z M30.685,15.25h0.028c0.547,1.586,1.479,4.235,2.28,6.252
		V15.25h0.5v7.464c0.255,0.588,0.48,1.055,0.645,1.299c0.035,0.051,0.068,0.075,0.075,0.068c0.493-0.12,1.297-4.364,1.884-8.854
		c0.095-0.014,0.183-0.04,0.263-0.085c-0.353,2.727-1.094,7.81-1.842,8.944c0.27,0.02,0.473,0.316,0.473,0.768
		c0,0.535-0.084,1.004-0.188,1.047c-0.104,0.043-0.383-0.3-0.625-0.766c-0.163-0.313-0.167-0.619-0.054-0.825
		c-0.063-0.021-0.129-0.06-0.194-0.157c-0.121-0.179-0.271-0.464-0.438-0.825v9.463h-0.5V22.173
		c-0.875-2.129-1.972-5.255-2.564-6.975C30.51,15.227,30.594,15.25,30.685,15.25z M30.206,18.917c0.506,0,0.917,0.41,0.917,0.917
		c0,0.506-0.41,0.917-0.917,0.917s-0.916-0.41-0.916-0.917C29.289,19.327,29.699,18.917,30.206,18.917z M32.117,28.419l0.284,0.411
		l-3.438,2.375l-0.284-0.411L32.117,28.419z"/>
</g>
</svg>
