<?xml version="1.0" encoding="iso-8859-1"?>
<!-- Generator: Adobe Illustrator 17.0.0, SVG Export Plug-In . SVG Version: 6.00 Build 0)  -->
<!DOCTYPE svg PUBLIC "-//W3C//DTD SVG 1.1//EN" "http://www.w3.org/Graphics/SVG/1.1/DTD/svg11.dtd">
<svg version="1.1" id="Capa_1" xmlns="http://www.w3.org/2000/svg" xmlns:xlink="http://www.w3.org/1999/xlink" x="0px" y="0px"
	 width="64px" height="64px" viewBox="0 0 64 64" style="enable-background:new 0 0 64 64;" xml:space="preserve">
<g>
	<path d="M20.891,36.304c1.011,0.364,2.125-0.16,2.489-1.171l4.062-10.457L26.7,35.953l-3.692,21.303
		c-0.292,1.306-0.017,2.543,1.687,2.767c1.703,0.224,3.32-0.655,3.609-1.961l3.695-18.47l3.693,18.47
		c0.292,1.306,1.908,2.186,3.61,1.961c1.704-0.223,1.979-1.46,1.688-2.767l-3.691-21.304l-0.741-11.277l4.061,10.457
		c0.366,1.011,1.479,1.536,2.492,1.171c1.009-0.366,1.535-1.478,1.171-2.489l-6.465-17.66c-0.058-0.165-0.146-0.31-0.244-0.446
		c-0.002-0.004-0.005-0.007-0.007-0.011c-0.037-0.052-0.135-0.156-0.135-0.156c-0.206-0.233-0.461-0.399-0.751-0.473l-0.447-0.044
		h-0.446c-0.005,0.032-0.008,0.065-0.026,0.094l-1.583,2.5c-0.046,0.072-0.126,0.116-0.211,0.116c-0.085,0-0.165-0.044-0.211-0.116
		l-0.746-1.177l0.18,0.777l-0.938,1.594l0.147,0.785l-0.975,0.963l0.328-1.748l-0.938-1.594l0.192-0.854l-0.794,1.254
		c-0.046,0.072-0.126,0.116-0.212,0.116c-0.085,0-0.165-0.044-0.211-0.116l-1.583-2.5c-0.018-0.029-0.021-0.062-0.026-0.094H27.77
		l-0.449,0.044c-0.29,0.074-0.544,0.24-0.752,0.473c0,0-0.096,0.104-0.134,0.156c-0.003,0.004-0.005,0.007-0.007,0.011
		c-0.097,0.136-0.184,0.282-0.243,0.446l-6.465,17.66C19.356,34.825,19.88,35.939,20.891,36.304z M33.188,23.812L32,25.188
		l-0.519-0.6l1.562-1.544L33.188,23.812z M31.099,22.286l1.521-1.503l0.201,1.074l-1.994,1.971l-0.014-0.016L31.099,22.286z"/>
	<path d="M31.841,13.888v0.013c0.044,0,0.086-0.006,0.129-0.006c0.044,0.001,0.086,0.006,0.131,0.006v-0.013
		c2.631-0.136,4.721-2.306,4.721-4.967c0-2.663-2.09-4.83-4.721-4.965V3.942c-0.045,0-0.086,0.006-0.131,0.006
		c-0.043,0-0.085-0.006-0.129-0.006v0.013c-2.633,0.135-4.723,2.301-4.723,4.965C27.118,11.582,29.209,13.752,31.841,13.888z"/>
	<polygon points="29.977,17.391 31.56,14.891 29.144,13.808 28.394,14.891 	"/>
	<polygon points="32.38,14.891 33.964,17.391 35.547,14.891 34.797,13.808 	"/>
</g>
</svg>
