<?xml version="1.0" encoding="iso-8859-1"?>
<!-- Generator: Adobe Illustrator 17.0.0, SVG Export Plug-In . SVG Version: 6.00 Build 0)  -->
<!DOCTYPE svg PUBLIC "-//W3C//DTD SVG 1.1//EN" "http://www.w3.org/Graphics/SVG/1.1/DTD/svg11.dtd">
<svg version="1.1" id="Capa_1" xmlns="http://www.w3.org/2000/svg" xmlns:xlink="http://www.w3.org/1999/xlink" x="0px" y="0px"
	 width="64px" height="64px" viewBox="0 0 64 64" style="enable-background:new 0 0 64 64;" xml:space="preserve">
<g>
	<path d="M57.392,48.475l-0.912,1.389l-24.025-15.77l1.432-2.181L21.145,23.5c-0.776,0.802-1.893,1.256-3.157,1.256
		c-0.67,0-1.35-0.143-2.005-0.387c-0.496-0.185-0.979-0.423-1.424-0.735c-0.421-0.294-0.774-0.638-1.096-1
		c-1.308-1.473-1.779-3.395-1.159-4.971l-2.012-1.328l-5.608,3.534l7.536,4.976l-9.374,16.65c-0.354,0.628-0.216,1.377,0.308,1.672
		l0.759,0.427c0.524,0.295,1.235,0.024,1.589-0.604l9.267-16.462l42.752,28.23L57.392,48.475z"/>
	<polygon points="33.839,33.806 56.193,48.479 57.036,47.195 34.721,32.463 	"/>
	<path d="M21.25,12.795l-0.759-0.427c-0.315-0.178-0.692-0.13-1.025,0.057l2.266,1.515C21.801,13.466,21.631,13.01,21.25,12.795z"/>
	<path d="M15.189,19.569l-2.016-1.331c-0.342,1.099-0.033,2.397,0.808,3.478c0.315,0.404,0.695,0.781,1.151,1.1
		c0.421,0.294,0.876,0.52,1.344,0.68c0.498,0.169,1.011,0.262,1.513,0.262c0.912,0,1.713-0.301,2.295-0.825l-2.545-1.68
		L15.189,19.569z"/>
	<polygon points="14.421,10.254 7.916,13.569 11.22,15.75 12.794,16.789 13.219,17.07 13.639,17.347 15.681,18.695 18.23,20.378 
		20.889,22.133 21.305,22.408 21.722,22.683 34.435,31.076 34.852,31.352 35.27,31.627 57.345,46.201 57.584,46.359 58.002,46.634 
		58.419,46.91 60.757,48.453 59.728,40.543 21.329,14.873 18.789,13.174 	"/>
</g>
</svg>
