<?xml version="1.0" encoding="iso-8859-1"?>
<!-- Generator: Adobe Illustrator 17.0.0, SVG Export Plug-In . SVG Version: 6.00 Build 0)  -->
<!DOCTYPE svg PUBLIC "-//W3C//DTD SVG 1.1//EN" "http://www.w3.org/Graphics/SVG/1.1/DTD/svg11.dtd">
<svg version="1.1" id="Capa_1" xmlns="http://www.w3.org/2000/svg" xmlns:xlink="http://www.w3.org/1999/xlink" x="0px" y="0px"
	 width="64px" height="64px" viewBox="0 0 64 64" style="enable-background:new 0 0 64 64;" xml:space="preserve">
<g>
	<polygon points="48.87,37.964 53.688,36.309 53.688,30.136 48.87,29.232 	"/>
	<path d="M17.406,28.366c-1.419,0-2.676-0.353-3.545-0.899c-3.88,1.619-6.676,5.271-7.127,9.618c-0.79,0.063-2.1,0.29-2.972,1.135
		c-0.551,0.534-0.843,1.24-0.843,2.039c0,0.782,0.297,1.445,0.858,1.92c0.78,0.656,1.931,0.807,2.82,0.807
		c0.412,0,0.754-0.032,0.992-0.061c1.794,4.185,5.952,7.121,10.795,7.121c6.005,0,10.947-4.51,11.649-10.325l18.01-1.418v-9.484
		L21.72,26.813C20.977,27.727,19.329,28.366,17.406,28.366z M4.941,40.797c-0.107-0.092-0.216-0.226-0.216-0.538
		c0-0.312,0.093-0.545,0.291-0.739c0.393-0.383,1.098-0.543,1.656-0.61c0.04,0.774,0.153,1.528,0.334,2.255
		C6.313,41.203,5.365,41.153,4.941,40.797z M24.166,39.264c0,3.13-2.537,5.666-5.667,5.666s-5.667-2.536-5.667-5.666
		s2.537-5.666,5.667-5.666S24.166,36.134,24.166,39.264z"/>
</g>
</svg>
