<?xml version="1.0" encoding="iso-8859-1"?>
<!-- Generator: Adobe Illustrator 17.0.0, SVG Export Plug-In . SVG Version: 6.00 Build 0)  -->
<!DOCTYPE svg PUBLIC "-//W3C//DTD SVG 1.1//EN" "http://www.w3.org/Graphics/SVG/1.1/DTD/svg11.dtd">
<svg version="1.1" id="Capa_1" xmlns="http://www.w3.org/2000/svg" xmlns:xlink="http://www.w3.org/1999/xlink" x="0px" y="0px"
	 width="64px" height="64px" viewBox="0 0 64 64" style="enable-background:new 0 0 64 64;" xml:space="preserve">
<g>
	<path d="M10.381,15.715c-4.075,0.627-5.015,4.561-4.753,8.076c0.031,0.412,0.211,0.759,0.481,0.994
		c1.544,3.966,7.392,9.435,8.822,11.309c0.347,0.455,0.887,0.817,1.493,0.608c1.171-0.628,2.391-0.628,3.66,0
		c0.572,0.222,1.149-0.108,1.459-0.596c0.909,0.451,1.7,1.053,2.404,1.828c0.053,0.313,0.105,0.626,0.15,0.931
		c0,0-4.936,0.176-2.115,3.702c2.821,3.526,7.228,3.526,7.228,3.526s-2.644,0.705-1.058,2.468c1.587,1.763,0,0.088,0,4.672
		c0,4.584,2.115,5.553,2.115,5.553s-5.818,0-5.818,3.526h0.613h16.005h0.613c0-3.526-5.818-3.526-5.818-3.526
		s2.115-0.97,2.115-5.553c0-4.583-1.587-2.909,0-4.672c1.587-1.763-1.058-2.468-1.058-2.468s4.407,0,7.228-3.526
		c2.821-3.526-2.115-3.702-2.115-3.702c0.045-0.306,0.097-0.618,0.15-0.931c0.704-0.775,1.495-1.376,2.404-1.828
		c0.31,0.489,0.887,0.818,1.459,0.596c1.27-0.628,2.49-0.628,3.66,0c0.606,0.209,1.146-0.153,1.493-0.608
		c1.43-1.873,7.278-7.342,8.822-11.309c0.27-0.235,0.451-0.581,0.481-0.994c0.261-3.514-0.678-7.449-4.753-8.076
		c-1.009-0.155-4.177,0.213-6.751,0.184c0.238-0.601,0.469-1.174,0.691-1.719c0.389-0.204,0.776-0.403,1.169-0.618
		c0.993-0.544,0.73-1.722,0.008-2.219c0.741-1.75,1.216-2.801,1.216-2.801c-2.017-3.437-10.294-5.158-18.598-5.173
		c-0.029,0-0.058-0.002-0.087-0.002c-0.111-0.001-0.221,0.001-0.332,0.001c-0.111,0.001-0.221-0.002-0.332-0.001
		c-0.029,0-0.058,0.002-0.087,0.002c-8.304,0.015-16.581,1.736-18.598,5.173c0,0,0.474,1.051,1.216,2.801
		c-0.722,0.497-0.985,1.675,0.008,2.219c0.392,0.215,0.78,0.414,1.169,0.618c0.222,0.545,0.452,1.118,0.691,1.719
		C14.558,15.928,11.39,15.56,10.381,15.715z M47.944,18.618c3.764-0.171,8.361-1.705,9.619,1.887
		c-0.555-0.096-1.202-0.148-1.951-0.152c-1.011-0.005-1.636,1.124-1.142,1.989c0.765,1.339,1.648,1.923,2.864,2.324
		c-0.584,2.34-4.843,6.431-5.919,7.497c-0.805,0.798-1.707,1.558-2.397,2.462c0.728-0.953,0.005-1.132-0.985-1.047
		c-0.242-0.594-0.972-1.025-1.631-0.882c-1.272,0.275-2.383,0.687-3.384,1.236C44.258,28.82,46.184,23.244,47.944,18.618z
		 M18.188,18.618c1.76,4.626,3.685,10.202,4.925,15.314c-1.001-0.549-2.112-0.961-3.384-1.236c-0.659-0.142-1.39,0.288-1.631,0.882
		c-0.99-0.084-1.713,0.094-0.985,1.047c-0.69-0.904-1.592-1.664-2.397-2.462c-1.076-1.066-5.335-5.157-5.919-7.497
		c1.216-0.401,2.1-0.985,2.864-2.324c0.494-0.865-0.13-1.995-1.142-1.989c-0.749,0.004-1.395,0.056-1.951,0.152
		C9.827,16.913,14.424,18.447,18.188,18.618z"/>
</g>
</svg>
