<?xml version="1.0" encoding="iso-8859-1"?>
<!-- Generator: Adobe Illustrator 16.0.4, SVG Export Plug-In . SVG Version: 6.00 Build 0)  -->
<!DOCTYPE svg PUBLIC "-//W3C//DTD SVG 1.1//EN" "http://www.w3.org/Graphics/SVG/1.1/DTD/svg11.dtd">
<svg version="1.1" id="Capa_1" xmlns="http://www.w3.org/2000/svg" xmlns:xlink="http://www.w3.org/1999/xlink" x="0px" y="0px"
	 width="64px" height="64px" viewBox="0 0 64 64" style="enable-background:new 0 0 64 64;" xml:space="preserve">
<g>
	<path d="M2.849,22.481c0.343,1.343,1.55,2.281,2.937,2.281c0.245,0,0.49-0.03,0.729-0.089l5.021-1.247
		c0.569-0.137,0.717,0.306,0.717,0.56v31.837c0,1.663,1.354,3.017,3.017,3.017h33.486c1.663,0,3.018-1.354,3.018-3.017v-31.83
		c0-0.22,0.063-0.589,0.496-0.589c0.068,0,0.144,0.01,0.219,0.029l4.998,1.241c0.238,0.059,0.484,0.089,0.729,0.089
		c1.388,0,2.595-0.938,2.937-2.281l1.729-6.779c0.2-0.782,0.082-1.593-0.331-2.285c-0.414-0.691-1.072-1.179-1.855-1.373
		L44.842,8.109c-0.955-0.243-1.938-0.367-2.931-0.367l-3.878-0.006l-0.186,0.766c-0.656,2.733-3.076,4.641-5.884,4.641
		c-2.809,0-5.229-1.908-5.885-4.641l-0.185-0.766h-3.639l-0.179,0.007c-0.983,0-1.966,0.124-2.914,0.365L3.307,12.045
		c-0.784,0.194-1.442,0.682-1.856,1.373c-0.413,0.691-0.531,1.503-0.331,2.285L2.849,22.481z M3.167,14.445
		c0.138-0.231,0.358-0.394,0.621-0.458l5.319-1.321l1.022,4.022l6.3-1.601L15.416,11.1l4.236-1.052
		c0.793-0.202,1.608-0.305,2.479-0.305l2.229-0.007c1.115,3.22,4.138,5.407,7.605,5.407s6.489-2.187,7.604-5.407l2.354,0.007
		c0.814,0,1.633,0.103,2.432,0.307l15.859,3.937c0.262,0.065,0.482,0.228,0.62,0.458s0.177,0.501,0.11,0.764l-1.729,6.779
		c-0.138,0.537-0.705,0.882-1.246,0.745l-4.997-1.241c-0.234-0.058-0.471-0.087-0.701-0.087c-1.424,0-2.496,1.113-2.496,2.589
		v31.831c0,0.561-0.457,1.017-1.018,1.017H15.27c-0.561,0-1.017-0.456-1.017-1.017V23.987c0-1.476-1.074-2.589-2.498-2.589
		c-0.23,0-0.467,0.029-0.701,0.087l-5.021,1.247c-0.55,0.136-1.109-0.208-1.247-0.745l-1.729-6.779
		C2.99,14.946,3.029,14.675,3.167,14.445z"/>
	<path d="M23.927,38.664h3.419V21.687h-2.787c0,0.148-0.043,0.375-0.129,0.679c-0.148,0.507-0.365,0.913-0.654,1.218
		c-0.42,0.445-0.966,0.742-1.635,0.89c-0.42,0.094-1.155,0.164-2.207,0.211v2.271h3.993V38.664z"/>
	<path d="M38.211,39.086c2.162,0,3.678-0.757,4.549-2.271c0.87-1.514,1.305-3.672,1.305-6.475s-0.435-4.964-1.305-6.486
		c-0.869-1.522-2.387-2.283-4.549-2.283s-3.678,0.761-4.549,2.283c-0.87,1.522-1.305,3.684-1.305,6.486
		c0,2.803,0.435,4.96,1.305,6.475C34.533,38.329,36.049,39.086,38.211,39.086z M36.244,25.797c0.32-0.984,0.977-1.475,1.967-1.475
		c0.991,0,1.641,0.492,1.949,1.475c0.308,0.984,0.462,2.498,0.462,4.543c0,1.951-0.154,3.444-0.462,4.479
		c-0.309,1.033-0.958,1.551-1.949,1.551c-0.99,0-1.646-0.518-1.967-1.551c-0.32-1.034-0.48-2.527-0.48-4.479
		C35.764,28.295,35.924,26.781,36.244,25.797z"/>
	<path d="M16.701,51.339l3.095,0.03l-0.038,3.787l-3.095-0.031L16.701,51.339z"/>
</g>
</svg>
