<?xml version="1.0" encoding="iso-8859-1"?>
<!-- Generator: Adobe Illustrator 17.0.0, SVG Export Plug-In . SVG Version: 6.00 Build 0)  -->
<!DOCTYPE svg PUBLIC "-//W3C//DTD SVG 1.1//EN" "http://www.w3.org/Graphics/SVG/1.1/DTD/svg11.dtd">
<svg version="1.1" id="Capa_1" xmlns="http://www.w3.org/2000/svg" xmlns:xlink="http://www.w3.org/1999/xlink" x="0px" y="0px"
	 width="64px" height="64px" viewBox="0 0 64 64" style="enable-background:new 0 0 64 64;" xml:space="preserve">
<g>
	<path d="M20.044,37.734c-0.222,1.261,1.705,1.8,1.929,0.532c0.253-1.435,0.173-2.607-0.148-3.585l4.067,7.5
		c-0.244,0.673-0.383,1.396-0.383,2.153c0,2.442,1.385,4.558,3.41,5.615c0.236,1.845,0.278,3.798-0.594,3.885
		C26.658,54,22.991,56.44,24.991,57.47s7,1.215,7,1.215c0.017,0,5.017-0.185,7.017-1.215s-1.667-3.47-3.333-3.637
		c-0.902-0.09-0.826-2.181-0.568-4.081c1.836-1.109,3.068-3.118,3.068-5.419c0-0.624-0.094-1.225-0.262-1.794l4.262-7.859
		c-0.321,0.978-0.401,2.15-0.148,3.585c0.223,1.269,2.15,0.729,1.929-0.532c-1.436-8.161,15.305-4.967,17.885-12.579
		c3.45-10.18-7.173-17.131-15.854-12.185c-1.12,0.638-0.113,2.366,1.009,1.727c6.385-3.638,16.027,0.748,13.178,9.153
		c-1.406,4.148-5.705,5.007-9.516,5.807c-3.086,0.648-6.037,1.47-7.61,3.412l6.506-11.996c0.527-0.971,0.126-2.101-0.895-2.523
		l-16.652-6.891c-0.014,0-11.985,4.953-16.669,6.891c-1.021,0.422-1.421,1.552-0.895,2.523l6.506,11.996
		c-1.572-1.942-4.523-2.764-7.61-3.412c-3.81-0.8-8.11-1.659-9.516-5.807c-2.849-8.405,6.793-12.791,13.178-9.153
		c1.122,0.639,2.13-1.089,1.009-1.727C9.332,8.024-1.291,14.975,2.159,25.155C4.739,32.767,21.48,29.573,20.044,37.734z"/>
</g>
</svg>
