<?xml version="1.0" encoding="iso-8859-1"?>
<!-- Generator: Adobe Illustrator 17.0.0, SVG Export Plug-In . SVG Version: 6.00 Build 0)  -->
<!DOCTYPE svg PUBLIC "-//W3C//DTD SVG 1.1//EN" "http://www.w3.org/Graphics/SVG/1.1/DTD/svg11.dtd">
<svg version="1.1" id="Capa_1" xmlns="http://www.w3.org/2000/svg" xmlns:xlink="http://www.w3.org/1999/xlink" x="0px" y="0px"
	 width="64px" height="64px" viewBox="0 0 64 64" style="enable-background:new 0 0 64 64;" xml:space="preserve">
<g>
	<path d="M57.242,39.322c-0.052,0.077-0.104,0.154-0.159,0.227c0.1-0.075,0.161-0.12,0.161-0.12L57.242,39.322z"/>
	<path d="M32.08,1.422C15.219,1.422,1.501,15.139,1.501,32S15.219,62.578,32.08,62.578c16.861,0,30.578-13.717,30.578-30.578
		S48.94,1.422,32.08,1.422z M6.782,41.425c-1.681,0-3.044-4.135-3.044-9.235c0-5.101,1.363-9.235,3.044-9.235
		c1.681,0,3.378,4.135,3.378,9.235C10.159,37.29,8.463,41.425,6.782,41.425z M33.805,23.272c-0.003,0.004-0.006,0.008-0.009,0.012
		c-0.077,0.112-0.155,0.223-0.236,0.332c-4.705,6.665-0.223,17.808-0.223,17.808h0c1.272,1.596,2.078,3.518,2.078,5.587
		c0,5.527-0.746,10.008-5.782,10.008c-5.036,0-12.454-4.481-12.454-10.008c0-2.186,0.379-4.206,1.147-5.852h-0.001
		c0.019-0.039,0.036-0.079,0.055-0.118c0.003-0.007,0.006-0.014,0.01-0.021c3.112-6.391,1.02-13.849-0.035-16.786
		c-0.192-0.404-0.36-0.832-0.504-1.279l-0.001-0.003h0c-0.448-1.385-0.67-2.96-0.67-4.632c0-5.527,7.418-10.008,12.454-10.008
		c5.036,0,5.782,4.481,5.782,10.008C35.416,20.124,34.802,21.812,33.805,23.272L33.805,23.272z M54.552,41.429
		c0.067-0.049,0.166-0.123,0.308-0.229C54.73,41.297,54.624,41.375,54.552,41.429z M57.002,24.351L57.002,24.351l0.002,0.002
		c0.113,0.142,0.218,0.291,0.317,0.447c0.682,0.942,2.285,3.041,3.035,3.064c0.001,0,0.003,0.001,0.004,0.001
		c0,0,0.432,2.298,0.261,5.604c0,0.002,0,0.004,0,0.006c-0.045,0.864-0.132,1.795-0.279,2.775c-0.011,0.073-0.022,0.146-0.034,0.219
		c-0.058,0.366-0.124,0.738-0.199,1.116c-0.016,0.081-0.029,0.16-0.046,0.241c-0.005,0.024-0.008,0.046-0.013,0.07l-0.003,0.002
		c-0.017,0.009-1.509,0.828-3.161,1.899c-0.476,0.552-1.076,0.979-1.826,1.258c-0.647,0.241-1.405,0.373-2.296,0.373
		c-5.097,0-9.23-4.22-9.23-9.425c0-5.205,4.132-9.425,9.23-9.425C54.775,22.575,56.115,23.234,57.002,24.351z"/>
</g>
</svg>
