<?xml version="1.0" encoding="iso-8859-1"?>
<!-- Generator: Adobe Illustrator 16.0.4, SVG Export Plug-In . SVG Version: 6.00 Build 0)  -->
<!DOCTYPE svg PUBLIC "-//W3C//DTD SVG 1.1//EN" "http://www.w3.org/Graphics/SVG/1.1/DTD/svg11.dtd">
<svg version="1.1" id="Capa_1" xmlns="http://www.w3.org/2000/svg" xmlns:xlink="http://www.w3.org/1999/xlink" x="0px" y="0px"
	 width="64px" height="64px" viewBox="0 0 64 64" style="enable-background:new 0 0 64 64;" xml:space="preserve">
<path d="M17.807,23.007h-1.546v-9.422c0.638-0.31,1.161-0.925,1.546-1.526V23.007z M10.076,23.007h0.79V10.935
	c-1.385,0.63-3.474,2.211-3.517,6.045h2.727V23.007z M14.383,13.456c-0.664-0.414-1.234-1.143-1.639-1.769v11.32h1.639V13.456z
	 M20.567,16.98h2.727c-0.043-3.919-2.227-5.488-3.608-6.089v12.116h0.881V16.98z M45.512,46.823v9.423h1.545V45.297
	C46.672,45.898,46.15,46.514,45.512,46.823z M36.6,50.219h2.727v6.027h0.79V44.174C38.73,44.803,36.643,46.385,36.6,50.219z
	 M41.994,44.925v11.321h1.639v-9.551C42.969,46.281,42.398,45.55,41.994,44.925z M48.936,44.129v12.117h0.881v-6.027h2.728
	C52.5,46.299,50.316,44.73,48.936,44.129z M34.229,29.496l-2.618-3.024l-0.756,0.654l2.617,3.024L34.229,29.496z M39.465,35.547
	l-2.619-3.023l-0.756,0.654l2.618,3.024L39.465,35.547z M28.995,23.447l-2.618-3.024l-0.756,0.655l2.618,3.024L28.995,23.447z
	 M39.873,39.811l3.768,1.308l-0.752-3.917L39.873,39.811z M11.449,39.251l1.396-0.394L9.99,36.074l-0.984,3.865l1.464-0.412
	c1.98,4.211,6.757,6.66,13.876,7.084c0.776,0.046,1.543,0.065,2.289,0.065c4.523,0,8.237-0.731,8.28-0.741l-0.197-0.979
	C34.529,44.993,16.042,48.564,11.449,39.251z M49.766,39.059l0.979,0.197c0.01-0.051,1.002-5.079,0.675-10.57
	c-0.423-7.117-2.872-11.894-7.083-13.875l0.406-1.442l-3.865,0.983l2.784,2.856l0.398-1.418
	C53.376,20.383,49.805,38.869,49.766,39.059z"/>
</svg>
