<?xml version="1.0" encoding="iso-8859-1"?>
<!-- Generator: Adobe Illustrator 17.0.0, SVG Export Plug-In . SVG Version: 6.00 Build 0)  -->
<!DOCTYPE svg PUBLIC "-//W3C//DTD SVG 1.1//EN" "http://www.w3.org/Graphics/SVG/1.1/DTD/svg11.dtd">
<svg version="1.1" id="Capa_1" xmlns="http://www.w3.org/2000/svg" xmlns:xlink="http://www.w3.org/1999/xlink" x="0px" y="0px"
	 width="64px" height="64px" viewBox="0 0 64 64" style="enable-background:new 0 0 64 64;" xml:space="preserve">
<g>
	<path d="M20.561,11.732c-0.977-0.843-2.246-1.355-3.637-1.355c-3.08,0-5.576,2.497-5.576,5.576c0,0.835,0.189,1.625,0.518,2.336
		C14.277,15.555,17.231,13.311,20.561,11.732z"/>
	<path d="M32.057,61c13.766,0,24.926-11.16,24.926-24.926c0-12.328-8.951-22.558-20.708-24.563v-1.014V9.482V6.839h2.161
		c0.716,0,1.296-0.765,1.296-1.709c0-0.944-0.58-1.709-1.296-1.709H25.677c-0.716,0-1.296,0.765-1.296,1.709
		c0,0.944,0.58,1.709,1.296,1.709h2.161v2.642v1.015v1.014c-2.099,0.358-4.107,0.978-5.992,1.826
		c-3.409,1.533-6.41,3.807-8.798,6.621c-3.688,4.346-5.918,9.969-5.918,16.116C7.131,49.84,18.291,61,32.057,61z M17.372,21.507
		c1.403-1.414,3.007-2.627,4.767-3.592c2.947-1.616,6.327-2.539,9.919-2.539c11.413,0,20.698,9.285,20.698,20.698
		c0,11.413-9.285,20.698-20.698,20.698c-11.413,0-20.698-9.285-20.698-20.698C11.359,30.398,13.658,25.25,17.372,21.507z"/>
	<path d="M19.542,48.589c0.801,0.801,1.678,1.525,2.619,2.161c0.471,0.318,0.958,0.614,1.459,0.886
		c2.508,1.362,5.382,2.136,8.436,2.136c0.382,0,0.761-0.012,1.137-0.036c1.879-0.119,3.678-0.531,5.353-1.192
		c0.67-0.264,1.32-0.568,1.947-0.909c0.502-0.272,0.988-0.568,1.459-0.886c0.942-0.636,1.819-1.36,2.619-2.161
		c3.203-3.203,5.184-7.627,5.184-12.515c0-4.887-1.981-9.312-5.184-12.515c-0.801-0.801-1.678-1.525-2.619-2.161
		c-0.471-0.318-0.958-0.614-1.459-0.886c-0.627-0.341-1.277-0.644-1.947-0.909c-1.674-0.66-3.474-1.073-5.353-1.192
		c-0.376-0.024-0.755-0.036-1.137-0.036c-3.055,0-5.928,0.774-8.436,2.136c-0.502,0.272-0.988,0.568-1.459,0.886
		c-0.942,0.636-1.819,1.36-2.619,2.161c-3.203,3.203-5.184,7.627-5.184,12.515C14.359,40.962,16.34,45.386,19.542,48.589z
		 M32.057,21.99v13.26l-13.33,5.123C16.367,31.181,22.82,21.99,32.057,21.99z"/>
</g>
</svg>
