<?xml version="1.0" encoding="iso-8859-1"?>
<!-- Generator: Adobe Illustrator 16.0.4, SVG Export Plug-In . SVG Version: 6.00 Build 0)  -->
<!DOCTYPE svg PUBLIC "-//W3C//DTD SVG 1.1//EN" "http://www.w3.org/Graphics/SVG/1.1/DTD/svg11.dtd">
<svg version="1.1" id="Capa_1" xmlns="http://www.w3.org/2000/svg" xmlns:xlink="http://www.w3.org/1999/xlink" x="0px" y="0px"
	 width="64px" height="64px" viewBox="0 0 64 64" style="enable-background:new 0 0 64 64;" xml:space="preserve">
<g>
	<path d="M55,19H9H6v3v22v3h3h46h3v-3V22v-3H55z M9,22h21v22H9V22z M55,44H33V22h22V44z"/>
	<polygon points="36.893,33.415 43.5,41.343 50.107,33.415 47.803,31.495 45,34.857 45,27 42,27 42,34.857 39.197,31.495 	"/>
	<polygon points="12.893,33.585 15.197,35.505 18,32.143 18,40 21,40 21,32.143 23.803,35.505 26.107,33.585 19.5,25.657 	"/>
</g>
</svg>
