<?xml version="1.0" encoding="iso-8859-1"?>
<!-- Generator: Adobe Illustrator 17.0.0, SVG Export Plug-In . SVG Version: 6.00 Build 0)  -->
<!DOCTYPE svg PUBLIC "-//W3C//DTD SVG 1.1//EN" "http://www.w3.org/Graphics/SVG/1.1/DTD/svg11.dtd">
<svg version="1.1" id="Capa_1" xmlns="http://www.w3.org/2000/svg" xmlns:xlink="http://www.w3.org/1999/xlink" x="0px" y="0px"
	 width="64px" height="64px" viewBox="0 0 64 64" style="enable-background:new 0 0 64 64;" xml:space="preserve">
<g>
	<path d="M47.803,21.03c-0.161-0.044-0.323-0.067-0.484-0.1l-10.11-3.89l-0.096-0.006c-0.213-0.017-5.28-0.328-9,5.878
		c-2.138,3.565-2.971,3.977-3.776,4.372c-0.551,0.271-1.176,0.58-2.047,1.604c-1.63,1.918-6.384,6.71-8.352,8.681
		c-0.391,0.388-0.578,0.898-0.517,1.399c0.062,0.501,0.366,0.948,0.837,1.232l5.901,3.553l1.409,2.372
		c0.237,0.402,0.595,0.684,1.004,0.794c0.566,0.152,1.168-0.036,1.611-0.504l7.237-7.666l7.126,3.748
		c0.895,0.706,1.914,1.248,3.048,1.554c5.308,1.431,11.018-2.569,12.729-8.915C56.036,28.789,53.11,22.461,47.803,21.03z
		 M32.356,37.76l2.347-2.486c0.209,1.641,0.713,3.18,1.485,4.501L32.356,37.76z M36.556,25.699
		c-1.523,2.545-2.817,3.906-3.669,4.615c-0.56,0.463-1.626,0.469-2.281,0.157l-2.853-1.358c-0.654-0.312-0.673-0.857-0.113-1.317
		c1.71-1.409,2.778-3.345,3.335-4.587c0.297-0.66,1.016-0.981,1.678-0.686l3.356,1.5C36.671,24.319,36.928,25.076,36.556,25.699z"/>
	<polygon points="13.734,40.24 14.982,42.547 21.184,46.28 19.956,44.072 	"/>
</g>
</svg>
