<?xml version="1.0" encoding="iso-8859-1"?>
<!-- Generator: Adobe Illustrator 17.0.0, SVG Export Plug-In . SVG Version: 6.00 Build 0)  -->
<!DOCTYPE svg PUBLIC "-//W3C//DTD SVG 1.1//EN" "http://www.w3.org/Graphics/SVG/1.1/DTD/svg11.dtd">
<svg version="1.1" id="Capa_1" xmlns="http://www.w3.org/2000/svg" xmlns:xlink="http://www.w3.org/1999/xlink" x="0px" y="0px"
	 width="64px" height="64px" viewBox="0 0 64 64" style="enable-background:new 0 0 64 64;" xml:space="preserve">
<g>
	<path d="M39.329,28.004c-0.567,1.454-2.419,5.154-6.578,5.154c-0.018,0-11.492,11.472-15.432,15.411
		c-0.724,0.724-1.985,0.828-2.819,0.235l-4.383-3.119l0.17,1.558l5.746,4.096c0.833,0.594,2.068,0.463,2.758-0.292l10.43-11.419
		l9.007,4.612c3.902,1.749,9.12-1.417,11.655-7.069c1.799-4.013,1.753-8.191,0.186-10.909L39.329,28.004z"/>
	<path d="M14.343,48.225c0.834,0.593,2.099,0.488,2.824-0.233l15.407-15.312c4.733,0.309,6.432-5.196,6.432-5.196l11.422-1.852
		l-2.787-1.726c0.661-1.024,1.156-2.056,1.432-3.012c0.561-1.944,0.201-3.576-1.014-4.594c-0.86-0.722-2.356-1.332-4.592-0.132
		c-1.368,0.733-2.618,1.938-3.531,2.964l-3.296-2.042c-4.322-0.721-8.643,3.603-8.643,3.603c-3.499,6.174-7.204,5.144-7.204,5.144
		L9.767,42.705c-0.56,0.856-0.337,2.03,0.497,2.623L14.343,48.225z M44.342,17.799c1.598-0.857,2.298-0.273,2.527-0.08
		c0.637,0.533,0.78,1.429,0.424,2.661c-0.226,0.783-0.656,1.666-1.228,2.548l-4.528-2.805C42.505,19.074,43.482,18.26,44.342,17.799
		z M28.539,21.16l9.982,5.488c-1.338,4.938-5.711,5.377-5.711,5.377c-7.306-0.463-11.679-5.582-11.679-5.582
		C25.529,27.138,28.539,21.16,28.539,21.16z"/>
</g>
</svg>
