<?xml version="1.0" encoding="iso-8859-1"?>
<!-- Generator: Adobe Illustrator 17.0.0, SVG Export Plug-In . SVG Version: 6.00 Build 0)  -->
<!DOCTYPE svg PUBLIC "-//W3C//DTD SVG 1.1//EN" "http://www.w3.org/Graphics/SVG/1.1/DTD/svg11.dtd">
<svg version="1.1" id="Capa_1" xmlns="http://www.w3.org/2000/svg" xmlns:xlink="http://www.w3.org/1999/xlink" x="0px" y="0px"
	 width="64px" height="64px" viewBox="0 0 64 64" style="enable-background:new 0 0 64 64;" xml:space="preserve">
<g>
	<path d="M5.074,9.776H20.6c-0.398,1.088-0.626,2.258-0.626,3.483c0,5.609,4.547,10.155,10.155,10.155
		c4.954,0,9.074-3.549,9.969-8.242c6.102,1.993,10.737,5.396,7.024,12.194c-2.976,5.448-8.026,9.826-12.253,14.282
		c-2.678,2.824-6.802,6.615-7.222,10.758c-0.41,4.044,2.723,8.481,6.755,9.081c4.716,0.702,9.358-2.977,12.719-5.778
		c4.916-4.098,9.284-9.413,12.336-15.041c7.392-13.633-4.643-29.861-19.268-28.924c-0.011,0.001-0.019,0.004-0.03,0.005
		c-0.701-4.689-4.6-8.325-9.411-8.616V3.104h-0.619c0,0-0.001,0-0.001,0l-0.001,0H27v0.497V4.25h-1.546H22.25V3.104H8.484
		c-0.552,0-1.204,0.399-1.455,0.89l-2.5,4.891C4.277,9.377,4.521,9.776,5.074,9.776z M58.517,30.906
		c0.628,6.495-3.103,11.558-7.024,16.3c-3.576,4.326-8.017,8.785-13.303,10.918c-5.592,2.256-9.317-3.614-6.481-8.269
		c4.943-8.113,13.643-13.321,18.258-21.769c3.123-5.718,1.029-9.873-2.974-12.687C53.477,17.507,57.788,23.364,58.517,30.906z
		 M23.802,9.776c1.232-2.229,3.605-3.743,6.327-3.743c0.209,0,0.415,0.014,0.62,0.031c3.695,0.316,6.606,3.42,6.606,7.195
		c0,3.984-3.242,7.226-7.227,7.226s-7.226-3.242-7.226-7.226C22.903,11.997,23.231,10.81,23.802,9.776z"/>
	<path d="M30.129,18.485c2.882,0,5.227-2.344,5.227-5.226c0-2.669-2.019-4.852-4.606-5.163c-0.206-0.025-0.408-0.063-0.62-0.063
		c-1.539,0-2.91,0.681-3.867,1.743c-0.835,0.927-1.359,2.14-1.359,3.483C24.903,16.141,27.247,18.485,30.129,18.485z"/>
</g>
</svg>
