<?xml version="1.0" encoding="iso-8859-1"?>
<!-- Generator: Adobe Illustrator 16.0.4, SVG Export Plug-In . SVG Version: 6.00 Build 0)  -->
<!DOCTYPE svg PUBLIC "-//W3C//DTD SVG 1.1//EN" "http://www.w3.org/Graphics/SVG/1.1/DTD/svg11.dtd">
<svg version="1.1" id="Capa_1" xmlns="http://www.w3.org/2000/svg" xmlns:xlink="http://www.w3.org/1999/xlink" x="0px" y="0px"
	 width="64px" height="64px" viewBox="0 0 64 64" style="enable-background:new 0 0 64 64;" xml:space="preserve">
<g>
	<path d="M49.409,12.787c-1.992-1.348-3.848-2.003-5.675-2.003c-3.525,0-6.074,2.494-8.324,4.695
		c-2.019,1.975-3.925,3.84-6.227,3.84c-1.208,0-2.514-0.487-3.993-1.487l-2.341-1.584v17.879l0.659,0.446
		c1.992,1.348,3.848,2.003,5.675,2.003c3.525,0,6.074-2.494,8.324-4.694c2.018-1.975,3.925-3.84,6.228-3.84
		c1.208,0,2.514,0.486,3.993,1.487l2.341,1.584V13.233L49.409,12.787z M47.068,25.753c-1.137-0.477-2.241-0.712-3.334-0.712
		c-3.526,0-6.076,2.494-8.326,4.695c-2.018,1.974-3.924,3.839-6.226,3.839c-1.025,0-2.121-0.351-3.333-1.068v-10.9
		c1.137,0.477,2.241,0.712,3.334,0.712c3.526,0,6.076-2.495,8.326-4.695c2.018-1.975,3.924-3.839,6.226-3.839
		c1.025,0,2.121,0.351,3.334,1.068V25.753z"/>
	<path d="M21,19.563c-0.001-0.247-0.004-0.487,0.017-0.723c0.028-0.233,0.038-0.461-0.023-0.683C20.995,18.104,21,18.054,21,18
		c0-2.209-0.671-4-1.5-4S18,15.791,18,18c0,0.053,0.005,0.103,0.006,0.156c-0.062,0.222-0.051,0.45-0.023,0.683
		c0.02,0.236,0.018,0.477,0.017,0.723C18,23.5,18,28.75,18,34s0,10.5,0.001,14.438c-0.001,0.246,0.006,0.486-0.013,0.723
		c-0.035,0.236-0.032,0.466,0.039,0.689c0.117,0.449,0.228,0.875,0.332,1.274c0.2,0.8,0.407,1.497,0.574,2.071
		C19.268,54.344,19.5,55,19.5,55s0.232-0.656,0.568-1.805c0.166-0.573,0.374-1.271,0.574-2.07c0.104-0.4,0.215-0.825,0.332-1.273
		c0.071-0.225,0.074-0.455,0.039-0.69c-0.019-0.236-0.011-0.478-0.013-0.724C21,44.5,21,39.25,21,34S21,23.5,21,19.563z"/>
</g>
</svg>
